M48
; DRILL file {KiCad 5.1.8} date Thu Dec  3 12:40:06 2020
; FORMAT={-:-/ absolute / inch / decimal}
; #@! TF.CreationDate,2020-12-03T12:40:06+01:00
; #@! TF.GenerationSoftware,Kicad,Pcbnew,5.1.8
; #@! TF.FileFunction,Plated,1,2,PTH
FMAT,2
INCH
T1C0.0157
T2C0.0315
T3C0.0394
T4C0.1654
%
G90
G05
T1
X3.4055Y-2.0472
X3.5236Y-2.2835
X3.6417Y-2.126
X3.7598Y-2.126
X3.878Y-2.2736
X3.8878Y-3.4449
X3.9104Y-3.1821
X3.9961Y-2.2736
X4.0157Y-3.6024
X4.0256Y-3.3465
X4.0965Y-3.0571
X4.1043Y-3.3661
X4.1142Y-2.126
X4.2323Y-2.126
X4.3504Y-2.2835
X4.3701Y-2.687
X4.3898Y-3.5433
X4.4685Y-2.2835
X4.4685Y-3.0118
X4.5079Y-2.7559
X4.5374Y-2.7165
X4.5472Y-3.1791
X4.5866Y-2.126
X4.626Y-3.6909
X4.6358Y-2.6575
X4.6358Y-3.3858
X4.6555Y-2.3622
X4.6555Y-3.0512
X4.6555Y-3.1594
X4.6654Y-2.8051
X4.6752Y-3.4843
X4.7047Y-2.126
X4.7244Y-3.4252
X4.8425Y-3.6811
X4.9213Y-2.9626
X4.9213Y-3.7598
X4.9508Y-3.2579
X5.0394Y-3.4744
T2
X3.4252Y-3.5039
X3.4252Y-3.6535
X5.0394Y-2.0654
X5.0394Y-2.1654
X4.0551Y-3.7402
X4.1551Y-3.7402
X4.1343Y-2.9862
X4.2343Y-2.9862
X3.9705Y-2.7618
X3.9705Y-2.9114
T3
X5.0492Y-3.3858
X4.5768Y-3.7402
X4.6768Y-3.7402
X4.7768Y-3.7402
X3.2677Y-3.0071
X3.2677Y-3.1071
X3.2677Y-3.2071
X3.2677Y-3.3071
T4
X3.3465Y-2.6772
X3.7402Y-3.6614
X4.9606Y-2.4409
T0
M30
