%TF.GenerationSoftware,KiCad,Pcbnew,5.1.8*%
%TF.CreationDate,2020-12-19T17:09:28+01:00*%
%TF.ProjectId,GNI-plutoclocker,474e492d-706c-4757-946f-636c6f636b65,rev?*%
%TF.SameCoordinates,Original*%
%TF.FileFunction,Legend,Top*%
%TF.FilePolarity,Positive*%
%FSLAX46Y46*%
G04 Gerber Fmt 4.6, Leading zero omitted, Abs format (unit mm)*
G04 Created by KiCad (PCBNEW 5.1.8) date 2020-12-19 17:09:28*
%MOMM*%
%LPD*%
G01*
G04 APERTURE LIST*
%ADD10C,0.150000*%
%ADD11C,0.125000*%
%ADD12C,0.120000*%
G04 APERTURE END LIST*
D10*
X87466666Y-64150000D02*
X87466666Y-64716666D01*
X87433333Y-64783333D01*
X87400000Y-64816666D01*
X87333333Y-64850000D01*
X87233333Y-64850000D01*
X87166666Y-64816666D01*
X87466666Y-64583333D02*
X87400000Y-64616666D01*
X87266666Y-64616666D01*
X87200000Y-64583333D01*
X87166666Y-64550000D01*
X87133333Y-64483333D01*
X87133333Y-64283333D01*
X87166666Y-64216666D01*
X87200000Y-64183333D01*
X87266666Y-64150000D01*
X87400000Y-64150000D01*
X87466666Y-64183333D01*
X87800000Y-64616666D02*
X87800000Y-64150000D01*
X87800000Y-63916666D02*
X87766666Y-63950000D01*
X87800000Y-63983333D01*
X87833333Y-63950000D01*
X87800000Y-63916666D01*
X87800000Y-63983333D01*
X88033333Y-64150000D02*
X88300000Y-64150000D01*
X88133333Y-63916666D02*
X88133333Y-64516666D01*
X88166666Y-64583333D01*
X88233333Y-64616666D01*
X88300000Y-64616666D01*
X88533333Y-64616666D02*
X88533333Y-63916666D01*
X88833333Y-64616666D02*
X88833333Y-64250000D01*
X88800000Y-64183333D01*
X88733333Y-64150000D01*
X88633333Y-64150000D01*
X88566666Y-64183333D01*
X88533333Y-64216666D01*
X89466666Y-64150000D02*
X89466666Y-64616666D01*
X89166666Y-64150000D02*
X89166666Y-64516666D01*
X89200000Y-64583333D01*
X89266666Y-64616666D01*
X89366666Y-64616666D01*
X89433333Y-64583333D01*
X89466666Y-64550000D01*
X89800000Y-64616666D02*
X89800000Y-63916666D01*
X89800000Y-64183333D02*
X89866666Y-64150000D01*
X90000000Y-64150000D01*
X90066666Y-64183333D01*
X90100000Y-64216666D01*
X90133333Y-64283333D01*
X90133333Y-64483333D01*
X90100000Y-64550000D01*
X90066666Y-64583333D01*
X90000000Y-64616666D01*
X89866666Y-64616666D01*
X89800000Y-64583333D01*
X90433333Y-64550000D02*
X90466666Y-64583333D01*
X90433333Y-64616666D01*
X90400000Y-64583333D01*
X90433333Y-64550000D01*
X90433333Y-64616666D01*
X91066666Y-64583333D02*
X91000000Y-64616666D01*
X90866666Y-64616666D01*
X90800000Y-64583333D01*
X90766666Y-64550000D01*
X90733333Y-64483333D01*
X90733333Y-64283333D01*
X90766666Y-64216666D01*
X90800000Y-64183333D01*
X90866666Y-64150000D01*
X91000000Y-64150000D01*
X91066666Y-64183333D01*
X91466666Y-64616666D02*
X91400000Y-64583333D01*
X91366666Y-64550000D01*
X91333333Y-64483333D01*
X91333333Y-64283333D01*
X91366666Y-64216666D01*
X91400000Y-64183333D01*
X91466666Y-64150000D01*
X91566666Y-64150000D01*
X91633333Y-64183333D01*
X91666666Y-64216666D01*
X91700000Y-64283333D01*
X91700000Y-64483333D01*
X91666666Y-64550000D01*
X91633333Y-64583333D01*
X91566666Y-64616666D01*
X91466666Y-64616666D01*
X92000000Y-64616666D02*
X92000000Y-64150000D01*
X92000000Y-64216666D02*
X92033333Y-64183333D01*
X92100000Y-64150000D01*
X92200000Y-64150000D01*
X92266666Y-64183333D01*
X92300000Y-64250000D01*
X92300000Y-64616666D01*
X92300000Y-64250000D02*
X92333333Y-64183333D01*
X92400000Y-64150000D01*
X92500000Y-64150000D01*
X92566666Y-64183333D01*
X92600000Y-64250000D01*
X92600000Y-64616666D01*
X93433333Y-63883333D02*
X92833333Y-64783333D01*
X93966666Y-64583333D02*
X93900000Y-64616666D01*
X93766666Y-64616666D01*
X93700000Y-64583333D01*
X93666666Y-64550000D01*
X93633333Y-64483333D01*
X93633333Y-64283333D01*
X93666666Y-64216666D01*
X93700000Y-64183333D01*
X93766666Y-64150000D01*
X93900000Y-64150000D01*
X93966666Y-64183333D01*
X94266666Y-64616666D02*
X94266666Y-64150000D01*
X94266666Y-64283333D02*
X94300000Y-64216666D01*
X94333333Y-64183333D01*
X94400000Y-64150000D01*
X94466666Y-64150000D01*
X95066666Y-64616666D02*
X94666666Y-64616666D01*
X94866666Y-64616666D02*
X94866666Y-63916666D01*
X94800000Y-64016666D01*
X94733333Y-64083333D01*
X94666666Y-64116666D01*
X95266666Y-64150000D02*
X95533333Y-64150000D01*
X95366666Y-63916666D02*
X95366666Y-64516666D01*
X95400000Y-64583333D01*
X95466666Y-64616666D01*
X95533333Y-64616666D01*
X95766666Y-64616666D02*
X95766666Y-63916666D01*
X95766666Y-64183333D02*
X95833333Y-64150000D01*
X95966666Y-64150000D01*
X96033333Y-64183333D01*
X96066666Y-64216666D01*
X96100000Y-64283333D01*
X96100000Y-64483333D01*
X96066666Y-64550000D01*
X96033333Y-64583333D01*
X95966666Y-64616666D01*
X95833333Y-64616666D01*
X95766666Y-64583333D01*
X96400000Y-64616666D02*
X96400000Y-64150000D01*
X96400000Y-63916666D02*
X96366666Y-63950000D01*
X96400000Y-63983333D01*
X96433333Y-63950000D01*
X96400000Y-63916666D01*
X96400000Y-63983333D01*
X96633333Y-64150000D02*
X96900000Y-64150000D01*
X96733333Y-63916666D02*
X96733333Y-64516666D01*
X96766666Y-64583333D01*
X96833333Y-64616666D01*
X96900000Y-64616666D01*
X97633333Y-63883333D02*
X97033333Y-64783333D01*
X98233333Y-63950000D02*
X98166666Y-63916666D01*
X98066666Y-63916666D01*
X97966666Y-63950000D01*
X97900000Y-64016666D01*
X97866666Y-64083333D01*
X97833333Y-64216666D01*
X97833333Y-64316666D01*
X97866666Y-64450000D01*
X97900000Y-64516666D01*
X97966666Y-64583333D01*
X98066666Y-64616666D01*
X98133333Y-64616666D01*
X98233333Y-64583333D01*
X98266666Y-64550000D01*
X98266666Y-64316666D01*
X98133333Y-64316666D01*
X98566666Y-64616666D02*
X98566666Y-63916666D01*
X98966666Y-64616666D01*
X98966666Y-63916666D01*
X99300000Y-64616666D02*
X99300000Y-63916666D01*
X99633333Y-64350000D02*
X100166666Y-64350000D01*
X100500000Y-64150000D02*
X100500000Y-64850000D01*
X100500000Y-64183333D02*
X100566666Y-64150000D01*
X100700000Y-64150000D01*
X100766666Y-64183333D01*
X100800000Y-64216666D01*
X100833333Y-64283333D01*
X100833333Y-64483333D01*
X100800000Y-64550000D01*
X100766666Y-64583333D01*
X100700000Y-64616666D01*
X100566666Y-64616666D01*
X100500000Y-64583333D01*
X101233333Y-64616666D02*
X101166666Y-64583333D01*
X101133333Y-64516666D01*
X101133333Y-63916666D01*
X101800000Y-64150000D02*
X101800000Y-64616666D01*
X101500000Y-64150000D02*
X101500000Y-64516666D01*
X101533333Y-64583333D01*
X101600000Y-64616666D01*
X101700000Y-64616666D01*
X101766666Y-64583333D01*
X101800000Y-64550000D01*
X102033333Y-64150000D02*
X102300000Y-64150000D01*
X102133333Y-63916666D02*
X102133333Y-64516666D01*
X102166666Y-64583333D01*
X102233333Y-64616666D01*
X102300000Y-64616666D01*
X102633333Y-64616666D02*
X102566666Y-64583333D01*
X102533333Y-64550000D01*
X102500000Y-64483333D01*
X102500000Y-64283333D01*
X102533333Y-64216666D01*
X102566666Y-64183333D01*
X102633333Y-64150000D01*
X102733333Y-64150000D01*
X102800000Y-64183333D01*
X102833333Y-64216666D01*
X102866666Y-64283333D01*
X102866666Y-64483333D01*
X102833333Y-64550000D01*
X102800000Y-64583333D01*
X102733333Y-64616666D01*
X102633333Y-64616666D01*
X103466666Y-64583333D02*
X103400000Y-64616666D01*
X103266666Y-64616666D01*
X103200000Y-64583333D01*
X103166666Y-64550000D01*
X103133333Y-64483333D01*
X103133333Y-64283333D01*
X103166666Y-64216666D01*
X103200000Y-64183333D01*
X103266666Y-64150000D01*
X103400000Y-64150000D01*
X103466666Y-64183333D01*
X103866666Y-64616666D02*
X103800000Y-64583333D01*
X103766666Y-64516666D01*
X103766666Y-63916666D01*
X104233333Y-64616666D02*
X104166666Y-64583333D01*
X104133333Y-64550000D01*
X104100000Y-64483333D01*
X104100000Y-64283333D01*
X104133333Y-64216666D01*
X104166666Y-64183333D01*
X104233333Y-64150000D01*
X104333333Y-64150000D01*
X104400000Y-64183333D01*
X104433333Y-64216666D01*
X104466666Y-64283333D01*
X104466666Y-64483333D01*
X104433333Y-64550000D01*
X104400000Y-64583333D01*
X104333333Y-64616666D01*
X104233333Y-64616666D01*
X105066666Y-64583333D02*
X105000000Y-64616666D01*
X104866666Y-64616666D01*
X104800000Y-64583333D01*
X104766666Y-64550000D01*
X104733333Y-64483333D01*
X104733333Y-64283333D01*
X104766666Y-64216666D01*
X104800000Y-64183333D01*
X104866666Y-64150000D01*
X105000000Y-64150000D01*
X105066666Y-64183333D01*
X105366666Y-64616666D02*
X105366666Y-63916666D01*
X105433333Y-64350000D02*
X105633333Y-64616666D01*
X105633333Y-64150000D02*
X105366666Y-64416666D01*
X106200000Y-64583333D02*
X106133333Y-64616666D01*
X106000000Y-64616666D01*
X105933333Y-64583333D01*
X105900000Y-64516666D01*
X105900000Y-64250000D01*
X105933333Y-64183333D01*
X106000000Y-64150000D01*
X106133333Y-64150000D01*
X106200000Y-64183333D01*
X106233333Y-64250000D01*
X106233333Y-64316666D01*
X105900000Y-64383333D01*
X106533333Y-64616666D02*
X106533333Y-64150000D01*
X106533333Y-64283333D02*
X106566666Y-64216666D01*
X106600000Y-64183333D01*
X106666666Y-64150000D01*
X106733333Y-64150000D01*
X87659404Y-60275000D02*
X87564166Y-60227380D01*
X87421309Y-60227380D01*
X87278452Y-60275000D01*
X87183214Y-60370238D01*
X87135595Y-60465476D01*
X87087976Y-60655952D01*
X87087976Y-60798809D01*
X87135595Y-60989285D01*
X87183214Y-61084523D01*
X87278452Y-61179761D01*
X87421309Y-61227380D01*
X87516547Y-61227380D01*
X87659404Y-61179761D01*
X87707023Y-61132142D01*
X87707023Y-60798809D01*
X87516547Y-60798809D01*
X88135595Y-61227380D02*
X88135595Y-60227380D01*
X88707023Y-61227380D01*
X88707023Y-60227380D01*
X89183214Y-61227380D02*
X89183214Y-60227380D01*
X89659404Y-60846428D02*
X90421309Y-60846428D01*
X90897500Y-60560714D02*
X90897500Y-61560714D01*
X90897500Y-60608333D02*
X90992738Y-60560714D01*
X91183214Y-60560714D01*
X91278452Y-60608333D01*
X91326071Y-60655952D01*
X91373690Y-60751190D01*
X91373690Y-61036904D01*
X91326071Y-61132142D01*
X91278452Y-61179761D01*
X91183214Y-61227380D01*
X90992738Y-61227380D01*
X90897500Y-61179761D01*
X91945119Y-61227380D02*
X91849880Y-61179761D01*
X91802261Y-61084523D01*
X91802261Y-60227380D01*
X92754642Y-60560714D02*
X92754642Y-61227380D01*
X92326071Y-60560714D02*
X92326071Y-61084523D01*
X92373690Y-61179761D01*
X92468928Y-61227380D01*
X92611785Y-61227380D01*
X92707023Y-61179761D01*
X92754642Y-61132142D01*
X93087976Y-60560714D02*
X93468928Y-60560714D01*
X93230833Y-60227380D02*
X93230833Y-61084523D01*
X93278452Y-61179761D01*
X93373690Y-61227380D01*
X93468928Y-61227380D01*
X93945119Y-61227380D02*
X93849880Y-61179761D01*
X93802261Y-61132142D01*
X93754642Y-61036904D01*
X93754642Y-60751190D01*
X93802261Y-60655952D01*
X93849880Y-60608333D01*
X93945119Y-60560714D01*
X94087976Y-60560714D01*
X94183214Y-60608333D01*
X94230833Y-60655952D01*
X94278452Y-60751190D01*
X94278452Y-61036904D01*
X94230833Y-61132142D01*
X94183214Y-61179761D01*
X94087976Y-61227380D01*
X93945119Y-61227380D01*
X95135595Y-61179761D02*
X95040357Y-61227380D01*
X94849880Y-61227380D01*
X94754642Y-61179761D01*
X94707023Y-61132142D01*
X94659404Y-61036904D01*
X94659404Y-60751190D01*
X94707023Y-60655952D01*
X94754642Y-60608333D01*
X94849880Y-60560714D01*
X95040357Y-60560714D01*
X95135595Y-60608333D01*
X95707023Y-61227380D02*
X95611785Y-61179761D01*
X95564166Y-61084523D01*
X95564166Y-60227380D01*
X96230833Y-61227380D02*
X96135595Y-61179761D01*
X96087976Y-61132142D01*
X96040357Y-61036904D01*
X96040357Y-60751190D01*
X96087976Y-60655952D01*
X96135595Y-60608333D01*
X96230833Y-60560714D01*
X96373690Y-60560714D01*
X96468928Y-60608333D01*
X96516547Y-60655952D01*
X96564166Y-60751190D01*
X96564166Y-61036904D01*
X96516547Y-61132142D01*
X96468928Y-61179761D01*
X96373690Y-61227380D01*
X96230833Y-61227380D01*
X97421309Y-61179761D02*
X97326071Y-61227380D01*
X97135595Y-61227380D01*
X97040357Y-61179761D01*
X96992738Y-61132142D01*
X96945119Y-61036904D01*
X96945119Y-60751190D01*
X96992738Y-60655952D01*
X97040357Y-60608333D01*
X97135595Y-60560714D01*
X97326071Y-60560714D01*
X97421309Y-60608333D01*
X97849880Y-61227380D02*
X97849880Y-60227380D01*
X97945119Y-60846428D02*
X98230833Y-61227380D01*
X98230833Y-60560714D02*
X97849880Y-60941666D01*
X99040357Y-61179761D02*
X98945119Y-61227380D01*
X98754642Y-61227380D01*
X98659404Y-61179761D01*
X98611785Y-61084523D01*
X98611785Y-60703571D01*
X98659404Y-60608333D01*
X98754642Y-60560714D01*
X98945119Y-60560714D01*
X99040357Y-60608333D01*
X99087976Y-60703571D01*
X99087976Y-60798809D01*
X98611785Y-60894047D01*
X99516547Y-61227380D02*
X99516547Y-60560714D01*
X99516547Y-60751190D02*
X99564166Y-60655952D01*
X99611785Y-60608333D01*
X99707023Y-60560714D01*
X99802261Y-60560714D01*
X100897500Y-61227380D02*
X100897500Y-60560714D01*
X100897500Y-60751190D02*
X100945119Y-60655952D01*
X100992738Y-60608333D01*
X101087976Y-60560714D01*
X101183214Y-60560714D01*
X101897500Y-61179761D02*
X101802261Y-61227380D01*
X101611785Y-61227380D01*
X101516547Y-61179761D01*
X101468928Y-61084523D01*
X101468928Y-60703571D01*
X101516547Y-60608333D01*
X101611785Y-60560714D01*
X101802261Y-60560714D01*
X101897500Y-60608333D01*
X101945119Y-60703571D01*
X101945119Y-60798809D01*
X101468928Y-60894047D01*
X102278452Y-60560714D02*
X102516547Y-61227380D01*
X102754642Y-60560714D01*
X103135595Y-61132142D02*
X103183214Y-61179761D01*
X103135595Y-61227380D01*
X103087976Y-61179761D01*
X103135595Y-61132142D01*
X103135595Y-61227380D01*
X104897500Y-61227380D02*
X104326071Y-61227380D01*
X104611785Y-61227380D02*
X104611785Y-60227380D01*
X104516547Y-60370238D01*
X104421309Y-60465476D01*
X104326071Y-60513095D01*
X105326071Y-61132142D02*
X105373690Y-61179761D01*
X105326071Y-61227380D01*
X105278452Y-61179761D01*
X105326071Y-61132142D01*
X105326071Y-61227380D01*
X105992738Y-60227380D02*
X106087976Y-60227380D01*
X106183214Y-60275000D01*
X106230833Y-60322619D01*
X106278452Y-60417857D01*
X106326071Y-60608333D01*
X106326071Y-60846428D01*
X106278452Y-61036904D01*
X106230833Y-61132142D01*
X106183214Y-61179761D01*
X106087976Y-61227380D01*
X105992738Y-61227380D01*
X105897500Y-61179761D01*
X105849880Y-61132142D01*
X105802261Y-61036904D01*
X105754642Y-60846428D01*
X105754642Y-60608333D01*
X105802261Y-60417857D01*
X105849880Y-60322619D01*
X105897500Y-60275000D01*
X105992738Y-60227380D01*
X87421309Y-63258333D02*
X87373690Y-63210714D01*
X87278452Y-63067857D01*
X87230833Y-62972619D01*
X87183214Y-62829761D01*
X87135595Y-62591666D01*
X87135595Y-62401190D01*
X87183214Y-62163095D01*
X87230833Y-62020238D01*
X87278452Y-61925000D01*
X87373690Y-61782142D01*
X87421309Y-61734523D01*
X88373690Y-62782142D02*
X88326071Y-62829761D01*
X88183214Y-62877380D01*
X88087976Y-62877380D01*
X87945119Y-62829761D01*
X87849880Y-62734523D01*
X87802261Y-62639285D01*
X87754642Y-62448809D01*
X87754642Y-62305952D01*
X87802261Y-62115476D01*
X87849880Y-62020238D01*
X87945119Y-61925000D01*
X88087976Y-61877380D01*
X88183214Y-61877380D01*
X88326071Y-61925000D01*
X88373690Y-61972619D01*
X88707023Y-63258333D02*
X88754642Y-63210714D01*
X88849880Y-63067857D01*
X88897500Y-62972619D01*
X88945119Y-62829761D01*
X88992738Y-62591666D01*
X88992738Y-62401190D01*
X88945119Y-62163095D01*
X88897500Y-62020238D01*
X88849880Y-61925000D01*
X88754642Y-61782142D01*
X88707023Y-61734523D01*
X90183214Y-62829761D02*
X90326071Y-62877380D01*
X90564166Y-62877380D01*
X90659404Y-62829761D01*
X90707023Y-62782142D01*
X90754642Y-62686904D01*
X90754642Y-62591666D01*
X90707023Y-62496428D01*
X90659404Y-62448809D01*
X90564166Y-62401190D01*
X90373690Y-62353571D01*
X90278452Y-62305952D01*
X90230833Y-62258333D01*
X90183214Y-62163095D01*
X90183214Y-62067857D01*
X90230833Y-61972619D01*
X90278452Y-61925000D01*
X90373690Y-61877380D01*
X90611785Y-61877380D01*
X90754642Y-61925000D01*
X91183214Y-62877380D02*
X91183214Y-61877380D01*
X91564166Y-61877380D01*
X91659404Y-61925000D01*
X91707023Y-61972619D01*
X91754642Y-62067857D01*
X91754642Y-62210714D01*
X91707023Y-62305952D01*
X91659404Y-62353571D01*
X91564166Y-62401190D01*
X91183214Y-62401190D01*
X92659404Y-61877380D02*
X92183214Y-61877380D01*
X92135595Y-62353571D01*
X92183214Y-62305952D01*
X92278452Y-62258333D01*
X92516547Y-62258333D01*
X92611785Y-62305952D01*
X92659404Y-62353571D01*
X92707023Y-62448809D01*
X92707023Y-62686904D01*
X92659404Y-62782142D01*
X92611785Y-62829761D01*
X92516547Y-62877380D01*
X92278452Y-62877380D01*
X92183214Y-62829761D01*
X92135595Y-62782142D01*
X93659404Y-61925000D02*
X93564166Y-61877380D01*
X93421309Y-61877380D01*
X93278452Y-61925000D01*
X93183214Y-62020238D01*
X93135595Y-62115476D01*
X93087976Y-62305952D01*
X93087976Y-62448809D01*
X93135595Y-62639285D01*
X93183214Y-62734523D01*
X93278452Y-62829761D01*
X93421309Y-62877380D01*
X93516547Y-62877380D01*
X93659404Y-62829761D01*
X93707023Y-62782142D01*
X93707023Y-62448809D01*
X93516547Y-62448809D01*
X94135595Y-62877380D02*
X94135595Y-61877380D01*
X94707023Y-62877380D01*
X94707023Y-61877380D01*
X95183214Y-62877380D02*
X95183214Y-61877380D01*
X96421309Y-62496428D02*
X97183214Y-62496428D01*
X96802261Y-62877380D02*
X96802261Y-62115476D01*
X98373690Y-62829761D02*
X98516547Y-62877380D01*
X98754642Y-62877380D01*
X98849880Y-62829761D01*
X98897500Y-62782142D01*
X98945119Y-62686904D01*
X98945119Y-62591666D01*
X98897500Y-62496428D01*
X98849880Y-62448809D01*
X98754642Y-62401190D01*
X98564166Y-62353571D01*
X98468928Y-62305952D01*
X98421309Y-62258333D01*
X98373690Y-62163095D01*
X98373690Y-62067857D01*
X98421309Y-61972619D01*
X98468928Y-61925000D01*
X98564166Y-61877380D01*
X98802261Y-61877380D01*
X98945119Y-61925000D01*
X99564166Y-61877380D02*
X99754642Y-61877380D01*
X99849880Y-61925000D01*
X99945119Y-62020238D01*
X99992738Y-62210714D01*
X99992738Y-62544047D01*
X99945119Y-62734523D01*
X99849880Y-62829761D01*
X99754642Y-62877380D01*
X99564166Y-62877380D01*
X99468928Y-62829761D01*
X99373690Y-62734523D01*
X99326071Y-62544047D01*
X99326071Y-62210714D01*
X99373690Y-62020238D01*
X99468928Y-61925000D01*
X99564166Y-61877380D01*
X100897500Y-61877380D02*
X100421309Y-61877380D01*
X100373690Y-62353571D01*
X100421309Y-62305952D01*
X100516547Y-62258333D01*
X100754642Y-62258333D01*
X100849880Y-62305952D01*
X100897500Y-62353571D01*
X100945119Y-62448809D01*
X100945119Y-62686904D01*
X100897500Y-62782142D01*
X100849880Y-62829761D01*
X100754642Y-62877380D01*
X100516547Y-62877380D01*
X100421309Y-62829761D01*
X100373690Y-62782142D01*
X101373690Y-61877380D02*
X101373690Y-62686904D01*
X101421309Y-62782142D01*
X101468928Y-62829761D01*
X101564166Y-62877380D01*
X101754642Y-62877380D01*
X101849880Y-62829761D01*
X101897500Y-62782142D01*
X101945119Y-62686904D01*
X101945119Y-61877380D01*
X102992738Y-62782142D02*
X102945119Y-62829761D01*
X102802261Y-62877380D01*
X102707023Y-62877380D01*
X102564166Y-62829761D01*
X102468928Y-62734523D01*
X102421309Y-62639285D01*
X102373690Y-62448809D01*
X102373690Y-62305952D01*
X102421309Y-62115476D01*
X102468928Y-62020238D01*
X102564166Y-61925000D01*
X102707023Y-61877380D01*
X102802261Y-61877380D01*
X102945119Y-61925000D01*
X102992738Y-61972619D01*
X103992738Y-62782142D02*
X103945119Y-62829761D01*
X103802261Y-62877380D01*
X103707023Y-62877380D01*
X103564166Y-62829761D01*
X103468928Y-62734523D01*
X103421309Y-62639285D01*
X103373690Y-62448809D01*
X103373690Y-62305952D01*
X103421309Y-62115476D01*
X103468928Y-62020238D01*
X103564166Y-61925000D01*
X103707023Y-61877380D01*
X103802261Y-61877380D01*
X103945119Y-61925000D01*
X103992738Y-61972619D01*
D11*
X105078571Y-74716666D02*
X105054761Y-74692857D01*
X105007142Y-74621428D01*
X104983333Y-74573809D01*
X104959523Y-74502380D01*
X104935714Y-74383333D01*
X104935714Y-74288095D01*
X104959523Y-74169047D01*
X104983333Y-74097619D01*
X105007142Y-74050000D01*
X105054761Y-73978571D01*
X105078571Y-73954761D01*
X105530952Y-74050000D02*
X105483333Y-74026190D01*
X105411904Y-74026190D01*
X105340476Y-74050000D01*
X105292857Y-74097619D01*
X105269047Y-74145238D01*
X105245238Y-74240476D01*
X105245238Y-74311904D01*
X105269047Y-74407142D01*
X105292857Y-74454761D01*
X105340476Y-74502380D01*
X105411904Y-74526190D01*
X105459523Y-74526190D01*
X105530952Y-74502380D01*
X105554761Y-74478571D01*
X105554761Y-74311904D01*
X105459523Y-74311904D01*
X105721428Y-74716666D02*
X105745238Y-74692857D01*
X105792857Y-74621428D01*
X105816666Y-74573809D01*
X105840476Y-74502380D01*
X105864285Y-74383333D01*
X105864285Y-74288095D01*
X105840476Y-74169047D01*
X105816666Y-74097619D01*
X105792857Y-74050000D01*
X105745238Y-73978571D01*
X105721428Y-73954761D01*
X113678571Y-94516666D02*
X113654761Y-94492857D01*
X113607142Y-94421428D01*
X113583333Y-94373809D01*
X113559523Y-94302380D01*
X113535714Y-94183333D01*
X113535714Y-94088095D01*
X113559523Y-93969047D01*
X113583333Y-93897619D01*
X113607142Y-93850000D01*
X113654761Y-93778571D01*
X113678571Y-93754761D01*
X114130952Y-93850000D02*
X114083333Y-93826190D01*
X114011904Y-93826190D01*
X113940476Y-93850000D01*
X113892857Y-93897619D01*
X113869047Y-93945238D01*
X113845238Y-94040476D01*
X113845238Y-94111904D01*
X113869047Y-94207142D01*
X113892857Y-94254761D01*
X113940476Y-94302380D01*
X114011904Y-94326190D01*
X114059523Y-94326190D01*
X114130952Y-94302380D01*
X114154761Y-94278571D01*
X114154761Y-94111904D01*
X114059523Y-94111904D01*
X114321428Y-94516666D02*
X114345238Y-94492857D01*
X114392857Y-94421428D01*
X114416666Y-94373809D01*
X114440476Y-94302380D01*
X114464285Y-94183333D01*
X114464285Y-94088095D01*
X114440476Y-93969047D01*
X114416666Y-93897619D01*
X114392857Y-93850000D01*
X114345238Y-93778571D01*
X114321428Y-93754761D01*
X125878571Y-52216666D02*
X125854761Y-52192857D01*
X125807142Y-52121428D01*
X125783333Y-52073809D01*
X125759523Y-52002380D01*
X125735714Y-51883333D01*
X125735714Y-51788095D01*
X125759523Y-51669047D01*
X125783333Y-51597619D01*
X125807142Y-51550000D01*
X125854761Y-51478571D01*
X125878571Y-51454761D01*
X126330952Y-51550000D02*
X126283333Y-51526190D01*
X126211904Y-51526190D01*
X126140476Y-51550000D01*
X126092857Y-51597619D01*
X126069047Y-51645238D01*
X126045238Y-51740476D01*
X126045238Y-51811904D01*
X126069047Y-51907142D01*
X126092857Y-51954761D01*
X126140476Y-52002380D01*
X126211904Y-52026190D01*
X126259523Y-52026190D01*
X126330952Y-52002380D01*
X126354761Y-51978571D01*
X126354761Y-51811904D01*
X126259523Y-51811904D01*
X126521428Y-52216666D02*
X126545238Y-52192857D01*
X126592857Y-52121428D01*
X126616666Y-52073809D01*
X126640476Y-52002380D01*
X126664285Y-51883333D01*
X126664285Y-51788095D01*
X126640476Y-51669047D01*
X126616666Y-51597619D01*
X126592857Y-51550000D01*
X126545238Y-51478571D01*
X126521428Y-51454761D01*
X82678571Y-74616666D02*
X82654761Y-74592857D01*
X82607142Y-74521428D01*
X82583333Y-74473809D01*
X82559523Y-74402380D01*
X82535714Y-74283333D01*
X82535714Y-74188095D01*
X82559523Y-74069047D01*
X82583333Y-73997619D01*
X82607142Y-73950000D01*
X82654761Y-73878571D01*
X82678571Y-73854761D01*
X83130952Y-73950000D02*
X83083333Y-73926190D01*
X83011904Y-73926190D01*
X82940476Y-73950000D01*
X82892857Y-73997619D01*
X82869047Y-74045238D01*
X82845238Y-74140476D01*
X82845238Y-74211904D01*
X82869047Y-74307142D01*
X82892857Y-74354761D01*
X82940476Y-74402380D01*
X83011904Y-74426190D01*
X83059523Y-74426190D01*
X83130952Y-74402380D01*
X83154761Y-74378571D01*
X83154761Y-74211904D01*
X83059523Y-74211904D01*
X83321428Y-74616666D02*
X83345238Y-74592857D01*
X83392857Y-74521428D01*
X83416666Y-74473809D01*
X83440476Y-74402380D01*
X83464285Y-74283333D01*
X83464285Y-74188095D01*
X83440476Y-74069047D01*
X83416666Y-73997619D01*
X83392857Y-73950000D01*
X83345238Y-73878571D01*
X83321428Y-73854761D01*
X107078571Y-95516666D02*
X107054761Y-95492857D01*
X107007142Y-95421428D01*
X106983333Y-95373809D01*
X106959523Y-95302380D01*
X106935714Y-95183333D01*
X106935714Y-95088095D01*
X106959523Y-94969047D01*
X106983333Y-94897619D01*
X107007142Y-94850000D01*
X107054761Y-94778571D01*
X107078571Y-94754761D01*
X107530952Y-94850000D02*
X107483333Y-94826190D01*
X107411904Y-94826190D01*
X107340476Y-94850000D01*
X107292857Y-94897619D01*
X107269047Y-94945238D01*
X107245238Y-95040476D01*
X107245238Y-95111904D01*
X107269047Y-95207142D01*
X107292857Y-95254761D01*
X107340476Y-95302380D01*
X107411904Y-95326190D01*
X107459523Y-95326190D01*
X107530952Y-95302380D01*
X107554761Y-95278571D01*
X107554761Y-95111904D01*
X107459523Y-95111904D01*
X107721428Y-95516666D02*
X107745238Y-95492857D01*
X107792857Y-95421428D01*
X107816666Y-95373809D01*
X107840476Y-95302380D01*
X107864285Y-95183333D01*
X107864285Y-95088095D01*
X107840476Y-94969047D01*
X107816666Y-94897619D01*
X107792857Y-94850000D01*
X107745238Y-94778571D01*
X107721428Y-94754761D01*
D12*
X112750000Y-89750000D02*
X115000000Y-91250000D01*
X113000000Y-88250000D02*
X104000000Y-88250000D01*
X113000000Y-89750000D02*
X113000000Y-88250000D01*
X104000000Y-89750000D02*
X113000000Y-89750000D01*
X104000000Y-88250000D02*
X104000000Y-89750000D01*
%TO.C,C12*%
X103485000Y-88511252D02*
X103485000Y-87988748D01*
X102015000Y-88511252D02*
X102015000Y-87988748D01*
%TO.C,L9*%
X99761252Y-88540000D02*
X99238748Y-88540000D01*
X99761252Y-89960000D02*
X99238748Y-89960000D01*
%TO.C,C17*%
X120961252Y-80235000D02*
X120438748Y-80235000D01*
X120961252Y-78765000D02*
X120438748Y-78765000D01*
%TO.C,C4*%
X108761252Y-93485000D02*
X108238748Y-93485000D01*
X108761252Y-92015000D02*
X108238748Y-92015000D01*
%TO.C,C9*%
X115811252Y-78235000D02*
X115288748Y-78235000D01*
X115811252Y-76765000D02*
X115288748Y-76765000D01*
%TO.C,C16*%
X115811252Y-80235000D02*
X115288748Y-80235000D01*
X115811252Y-78765000D02*
X115288748Y-78765000D01*
%TO.C,U1*%
X114040000Y-74387500D02*
X114040000Y-75187500D01*
X114040000Y-74387500D02*
X114040000Y-73587500D01*
X117160000Y-74387500D02*
X117160000Y-75187500D01*
X117160000Y-74387500D02*
X117160000Y-72587500D01*
%TO.C,C2*%
X115811252Y-71985000D02*
X115288748Y-71985000D01*
X115811252Y-70515000D02*
X115288748Y-70515000D01*
%TO.C,TP1*%
X126920000Y-87330000D02*
X129580000Y-87330000D01*
X126920000Y-87210000D02*
X126920000Y-87330000D01*
X129580000Y-87210000D02*
X129580000Y-87330000D01*
X129580000Y-84670000D02*
X129580000Y-86000000D01*
X128250000Y-84670000D02*
X129580000Y-84670000D01*
%TO.C,R15*%
X124772936Y-83765000D02*
X125227064Y-83765000D01*
X124772936Y-85235000D02*
X125227064Y-85235000D01*
%TO.C,C6*%
X97538748Y-84815000D02*
X98061252Y-84815000D01*
X97538748Y-86285000D02*
X98061252Y-86285000D01*
%TO.C,U4*%
X116640000Y-87250000D02*
X116640000Y-89450000D01*
X116640000Y-87250000D02*
X116640000Y-85050000D01*
X121860000Y-87250000D02*
X121860000Y-89450000D01*
X121860000Y-87250000D02*
X121860000Y-83650000D01*
%TO.C,J7*%
X120060000Y-93670000D02*
X120060000Y-96330000D01*
X120060000Y-93670000D02*
X114920000Y-93670000D01*
X114920000Y-93670000D02*
X114920000Y-96330000D01*
X120060000Y-96330000D02*
X114920000Y-96330000D01*
X122660000Y-96330000D02*
X121330000Y-96330000D01*
X122660000Y-95000000D02*
X122660000Y-96330000D01*
%TO.C,L3*%
X96140000Y-78560000D02*
X96140000Y-81100000D01*
X85980000Y-78560000D02*
X85980000Y-81100000D01*
X85980000Y-81100000D02*
X88770000Y-86440000D01*
X88770000Y-86440000D02*
X89020000Y-86440000D01*
X85980000Y-78560000D02*
X88770000Y-73360000D01*
X88770000Y-73360000D02*
X89020000Y-73360000D01*
X96140000Y-81100000D02*
X93340000Y-86440000D01*
X93340000Y-86440000D02*
X93090000Y-86440000D01*
X93340000Y-73360000D02*
X93090000Y-73360000D01*
X96140000Y-78560000D02*
X93340000Y-73360000D01*
D10*
%TO.C,J8*%
X108080000Y-76750000D02*
X104480000Y-76750000D01*
X104480000Y-76750000D02*
X103980000Y-76250000D01*
X103980000Y-76250000D02*
X103980000Y-75450000D01*
X103980000Y-75450000D02*
X104480000Y-74950000D01*
X104480000Y-74950000D02*
X108080000Y-74950000D01*
X108080000Y-74950000D02*
X108580000Y-75450000D01*
X108580000Y-75450000D02*
X108580000Y-76250000D01*
X108580000Y-76250000D02*
X108080000Y-76750000D01*
D12*
%TO.C,U3*%
X100750000Y-78240000D02*
X98550000Y-78240000D01*
X100750000Y-78240000D02*
X102950000Y-78240000D01*
X100750000Y-81460000D02*
X98550000Y-81460000D01*
X100750000Y-81460000D02*
X104350000Y-81460000D01*
%TO.C,U2*%
X119140000Y-74362500D02*
X119140000Y-75162500D01*
X119140000Y-74362500D02*
X119140000Y-73562500D01*
X122260000Y-74362500D02*
X122260000Y-75162500D01*
X122260000Y-74362500D02*
X122260000Y-72562500D01*
%TO.C,R17*%
X117610436Y-91515000D02*
X118064564Y-91515000D01*
X117610436Y-92985000D02*
X118064564Y-92985000D01*
%TO.C,R16*%
X121564564Y-92985000D02*
X121110436Y-92985000D01*
X121564564Y-91515000D02*
X121110436Y-91515000D01*
%TO.C,R14*%
X122522936Y-81515000D02*
X122977064Y-81515000D01*
X122522936Y-82985000D02*
X122977064Y-82985000D01*
%TO.C,R13*%
X114564564Y-92985000D02*
X114110436Y-92985000D01*
X114564564Y-91515000D02*
X114110436Y-91515000D01*
%TO.C,R12*%
X114814564Y-87985000D02*
X114360436Y-87985000D01*
X114814564Y-86515000D02*
X114360436Y-86515000D01*
%TO.C,R11*%
X124985000Y-88022936D02*
X124985000Y-88477064D01*
X123515000Y-88022936D02*
X123515000Y-88477064D01*
%TO.C,R10*%
X110765000Y-92314564D02*
X110765000Y-91860436D01*
X112235000Y-92314564D02*
X112235000Y-91860436D01*
%TO.C,R9*%
X115110436Y-66765000D02*
X115564564Y-66765000D01*
X115110436Y-68235000D02*
X115564564Y-68235000D01*
%TO.C,R8*%
X106222936Y-81115000D02*
X106677064Y-81115000D01*
X106222936Y-82585000D02*
X106677064Y-82585000D01*
%TO.C,R7*%
X106385000Y-78722936D02*
X106385000Y-79177064D01*
X104915000Y-78722936D02*
X104915000Y-79177064D01*
%TO.C,R6*%
X107015000Y-79177064D02*
X107015000Y-78722936D01*
X108485000Y-79177064D02*
X108485000Y-78722936D01*
%TO.C,R5*%
X104385000Y-83222936D02*
X104385000Y-83677064D01*
X102915000Y-83222936D02*
X102915000Y-83677064D01*
%TO.C,R4*%
X91227064Y-56735000D02*
X90772936Y-56735000D01*
X91227064Y-55265000D02*
X90772936Y-55265000D01*
%TO.C,R3*%
X102515000Y-92314564D02*
X102515000Y-91860436D01*
X103985000Y-92314564D02*
X103985000Y-91860436D01*
%TO.C,R2*%
X106235000Y-91860436D02*
X106235000Y-92314564D01*
X104765000Y-91860436D02*
X104765000Y-92314564D01*
%TO.C,R1*%
X88735000Y-56772936D02*
X88735000Y-57227064D01*
X87265000Y-56772936D02*
X87265000Y-57227064D01*
%TO.C,L8*%
X123290000Y-57286252D02*
X123290000Y-56763748D01*
X124710000Y-57286252D02*
X124710000Y-56763748D01*
%TO.C,L7*%
X120463748Y-61540000D02*
X120986252Y-61540000D01*
X120463748Y-62960000D02*
X120986252Y-62960000D01*
%TO.C,L6*%
X111213748Y-64790000D02*
X111736252Y-64790000D01*
X111213748Y-66210000D02*
X111736252Y-66210000D01*
%TO.C,L5*%
X118710000Y-54713748D02*
X118710000Y-55236252D01*
X117290000Y-54713748D02*
X117290000Y-55236252D01*
%TO.C,L4*%
X111290000Y-57236252D02*
X111290000Y-56713748D01*
X112710000Y-57236252D02*
X112710000Y-56713748D01*
%TO.C,L2*%
X102763748Y-55290000D02*
X103286252Y-55290000D01*
X102763748Y-56710000D02*
X103286252Y-56710000D01*
%TO.C,L1*%
X96713748Y-55290000D02*
X97236252Y-55290000D01*
X96713748Y-56710000D02*
X97236252Y-56710000D01*
%TO.C,J6*%
X125240000Y-93000000D02*
X125740000Y-92750000D01*
X125240000Y-92500000D02*
X125240000Y-93000000D01*
X125740000Y-92750000D02*
X125240000Y-92500000D01*
X130000000Y-94700000D02*
X130000000Y-93590000D01*
X130000000Y-91910000D02*
X130000000Y-90800000D01*
X126290000Y-94700000D02*
X126290000Y-93590000D01*
X126290000Y-91910000D02*
X126290000Y-90800000D01*
D10*
%TO.C,J5*%
X127100000Y-55530000D02*
X127100000Y-51930000D01*
X127100000Y-51930000D02*
X127600000Y-51430000D01*
X127600000Y-51430000D02*
X128400000Y-51430000D01*
X128400000Y-51430000D02*
X128900000Y-51930000D01*
X128900000Y-51930000D02*
X128900000Y-55530000D01*
X128900000Y-55530000D02*
X128400000Y-56030000D01*
X128400000Y-56030000D02*
X127600000Y-56030000D01*
X127600000Y-56030000D02*
X127100000Y-55530000D01*
D12*
%TO.C,J4*%
X125240000Y-78250000D02*
X125740000Y-78000000D01*
X125240000Y-77750000D02*
X125240000Y-78250000D01*
X125740000Y-78000000D02*
X125240000Y-77750000D01*
X130000000Y-79950000D02*
X130000000Y-78840000D01*
X130000000Y-77160000D02*
X130000000Y-76050000D01*
X126290000Y-79950000D02*
X126290000Y-78840000D01*
X126290000Y-77160000D02*
X126290000Y-76050000D01*
D10*
%TO.C,J3*%
X102470000Y-94100000D02*
X106070000Y-94100000D01*
X106070000Y-94100000D02*
X106570000Y-94600000D01*
X106570000Y-94600000D02*
X106570000Y-95400000D01*
X106570000Y-95400000D02*
X106070000Y-95900000D01*
X106070000Y-95900000D02*
X102470000Y-95900000D01*
X102470000Y-95900000D02*
X101970000Y-95400000D01*
X101970000Y-95400000D02*
X101970000Y-94600000D01*
X101970000Y-94600000D02*
X102470000Y-94100000D01*
D12*
%TO.C,J2*%
X84330000Y-82730000D02*
X81670000Y-82730000D01*
X84330000Y-82730000D02*
X84330000Y-75050000D01*
X84330000Y-75050000D02*
X81670000Y-75050000D01*
X81670000Y-82730000D02*
X81670000Y-75050000D01*
X81670000Y-85330000D02*
X81670000Y-84000000D01*
X83000000Y-85330000D02*
X81670000Y-85330000D01*
%TO.C,J1*%
X85760000Y-54750000D02*
X85260000Y-55000000D01*
X85760000Y-55250000D02*
X85760000Y-54750000D01*
X85260000Y-55000000D02*
X85760000Y-55250000D01*
X81000000Y-53050000D02*
X81000000Y-54160000D01*
X81000000Y-55840000D02*
X81000000Y-56950000D01*
X84710000Y-53050000D02*
X84710000Y-54160000D01*
X84710000Y-55840000D02*
X84710000Y-56950000D01*
%TO.C,D1*%
X96250000Y-71400000D02*
X96250000Y-68100000D01*
X96250000Y-68100000D02*
X90850000Y-68100000D01*
X96250000Y-71400000D02*
X90850000Y-71400000D01*
%TO.C,C29*%
X123265000Y-79261252D02*
X123265000Y-78738748D01*
X124735000Y-79261252D02*
X124735000Y-78738748D01*
%TO.C,C28*%
X123515000Y-92011252D02*
X123515000Y-91488748D01*
X124985000Y-92011252D02*
X124985000Y-91488748D01*
%TO.C,C27*%
X118788748Y-81415000D02*
X119311252Y-81415000D01*
X118788748Y-82885000D02*
X119311252Y-82885000D01*
%TO.C,C26*%
X114515000Y-83061252D02*
X114515000Y-82538748D01*
X115985000Y-83061252D02*
X115985000Y-82538748D01*
%TO.C,C25*%
X115561252Y-66235000D02*
X115038748Y-66235000D01*
X115561252Y-64765000D02*
X115038748Y-64765000D01*
%TO.C,C24*%
X120961252Y-60735000D02*
X120438748Y-60735000D01*
X120961252Y-59265000D02*
X120438748Y-59265000D01*
%TO.C,C23*%
X96080903Y-73433525D02*
X96342155Y-73886027D01*
X94807845Y-74168525D02*
X95069097Y-74621027D01*
%TO.C,C22*%
X104970000Y-72050000D02*
G75*
G03*
X104970000Y-72050000I-4120000J0D01*
G01*
X104930000Y-72050000D02*
X96770000Y-72050000D01*
X104930000Y-72090000D02*
X96770000Y-72090000D01*
X104930000Y-72130000D02*
X96770000Y-72130000D01*
X104929000Y-72170000D02*
X96771000Y-72170000D01*
X104927000Y-72210000D02*
X96773000Y-72210000D01*
X104926000Y-72250000D02*
X96774000Y-72250000D01*
X104924000Y-72290000D02*
X96776000Y-72290000D01*
X104921000Y-72330000D02*
X96779000Y-72330000D01*
X104918000Y-72370000D02*
X96782000Y-72370000D01*
X104915000Y-72410000D02*
X96785000Y-72410000D01*
X104911000Y-72450000D02*
X96789000Y-72450000D01*
X104907000Y-72490000D02*
X96793000Y-72490000D01*
X104902000Y-72530000D02*
X96798000Y-72530000D01*
X104898000Y-72570000D02*
X96802000Y-72570000D01*
X104892000Y-72610000D02*
X96808000Y-72610000D01*
X104887000Y-72650000D02*
X96813000Y-72650000D01*
X104880000Y-72690000D02*
X96820000Y-72690000D01*
X104874000Y-72730000D02*
X96826000Y-72730000D01*
X104867000Y-72771000D02*
X96833000Y-72771000D01*
X104860000Y-72811000D02*
X96840000Y-72811000D01*
X104852000Y-72851000D02*
X96848000Y-72851000D01*
X104844000Y-72891000D02*
X96856000Y-72891000D01*
X104835000Y-72931000D02*
X101890000Y-72931000D01*
X99810000Y-72931000D02*
X96865000Y-72931000D01*
X104826000Y-72971000D02*
X101890000Y-72971000D01*
X99810000Y-72971000D02*
X96874000Y-72971000D01*
X104817000Y-73011000D02*
X101890000Y-73011000D01*
X99810000Y-73011000D02*
X96883000Y-73011000D01*
X104807000Y-73051000D02*
X101890000Y-73051000D01*
X99810000Y-73051000D02*
X96893000Y-73051000D01*
X104797000Y-73091000D02*
X101890000Y-73091000D01*
X99810000Y-73091000D02*
X96903000Y-73091000D01*
X104786000Y-73131000D02*
X101890000Y-73131000D01*
X99810000Y-73131000D02*
X96914000Y-73131000D01*
X104775000Y-73171000D02*
X101890000Y-73171000D01*
X99810000Y-73171000D02*
X96925000Y-73171000D01*
X104764000Y-73211000D02*
X101890000Y-73211000D01*
X99810000Y-73211000D02*
X96936000Y-73211000D01*
X104752000Y-73251000D02*
X101890000Y-73251000D01*
X99810000Y-73251000D02*
X96948000Y-73251000D01*
X104739000Y-73291000D02*
X101890000Y-73291000D01*
X99810000Y-73291000D02*
X96961000Y-73291000D01*
X104727000Y-73331000D02*
X101890000Y-73331000D01*
X99810000Y-73331000D02*
X96973000Y-73331000D01*
X104713000Y-73371000D02*
X101890000Y-73371000D01*
X99810000Y-73371000D02*
X96987000Y-73371000D01*
X104700000Y-73411000D02*
X101890000Y-73411000D01*
X99810000Y-73411000D02*
X97000000Y-73411000D01*
X104685000Y-73451000D02*
X101890000Y-73451000D01*
X99810000Y-73451000D02*
X97015000Y-73451000D01*
X104671000Y-73491000D02*
X101890000Y-73491000D01*
X99810000Y-73491000D02*
X97029000Y-73491000D01*
X104655000Y-73531000D02*
X101890000Y-73531000D01*
X99810000Y-73531000D02*
X97045000Y-73531000D01*
X104640000Y-73571000D02*
X101890000Y-73571000D01*
X99810000Y-73571000D02*
X97060000Y-73571000D01*
X104624000Y-73611000D02*
X101890000Y-73611000D01*
X99810000Y-73611000D02*
X97076000Y-73611000D01*
X104607000Y-73651000D02*
X101890000Y-73651000D01*
X99810000Y-73651000D02*
X97093000Y-73651000D01*
X104590000Y-73691000D02*
X101890000Y-73691000D01*
X99810000Y-73691000D02*
X97110000Y-73691000D01*
X104572000Y-73731000D02*
X101890000Y-73731000D01*
X99810000Y-73731000D02*
X97128000Y-73731000D01*
X104554000Y-73771000D02*
X101890000Y-73771000D01*
X99810000Y-73771000D02*
X97146000Y-73771000D01*
X104536000Y-73811000D02*
X101890000Y-73811000D01*
X99810000Y-73811000D02*
X97164000Y-73811000D01*
X104516000Y-73851000D02*
X101890000Y-73851000D01*
X99810000Y-73851000D02*
X97184000Y-73851000D01*
X104497000Y-73891000D02*
X101890000Y-73891000D01*
X99810000Y-73891000D02*
X97203000Y-73891000D01*
X104477000Y-73931000D02*
X101890000Y-73931000D01*
X99810000Y-73931000D02*
X97223000Y-73931000D01*
X104456000Y-73971000D02*
X101890000Y-73971000D01*
X99810000Y-73971000D02*
X97244000Y-73971000D01*
X104434000Y-74011000D02*
X101890000Y-74011000D01*
X99810000Y-74011000D02*
X97266000Y-74011000D01*
X104412000Y-74051000D02*
X101890000Y-74051000D01*
X99810000Y-74051000D02*
X97288000Y-74051000D01*
X104390000Y-74091000D02*
X101890000Y-74091000D01*
X99810000Y-74091000D02*
X97310000Y-74091000D01*
X104367000Y-74131000D02*
X101890000Y-74131000D01*
X99810000Y-74131000D02*
X97333000Y-74131000D01*
X104343000Y-74171000D02*
X101890000Y-74171000D01*
X99810000Y-74171000D02*
X97357000Y-74171000D01*
X104319000Y-74211000D02*
X101890000Y-74211000D01*
X99810000Y-74211000D02*
X97381000Y-74211000D01*
X104294000Y-74251000D02*
X101890000Y-74251000D01*
X99810000Y-74251000D02*
X97406000Y-74251000D01*
X104268000Y-74291000D02*
X101890000Y-74291000D01*
X99810000Y-74291000D02*
X97432000Y-74291000D01*
X104242000Y-74331000D02*
X101890000Y-74331000D01*
X99810000Y-74331000D02*
X97458000Y-74331000D01*
X104215000Y-74371000D02*
X101890000Y-74371000D01*
X99810000Y-74371000D02*
X97485000Y-74371000D01*
X104188000Y-74411000D02*
X101890000Y-74411000D01*
X99810000Y-74411000D02*
X97512000Y-74411000D01*
X104159000Y-74451000D02*
X101890000Y-74451000D01*
X99810000Y-74451000D02*
X97541000Y-74451000D01*
X104130000Y-74491000D02*
X101890000Y-74491000D01*
X99810000Y-74491000D02*
X97570000Y-74491000D01*
X104100000Y-74531000D02*
X101890000Y-74531000D01*
X99810000Y-74531000D02*
X97600000Y-74531000D01*
X104070000Y-74571000D02*
X101890000Y-74571000D01*
X99810000Y-74571000D02*
X97630000Y-74571000D01*
X104039000Y-74611000D02*
X101890000Y-74611000D01*
X99810000Y-74611000D02*
X97661000Y-74611000D01*
X104006000Y-74651000D02*
X101890000Y-74651000D01*
X99810000Y-74651000D02*
X97694000Y-74651000D01*
X103974000Y-74691000D02*
X101890000Y-74691000D01*
X99810000Y-74691000D02*
X97726000Y-74691000D01*
X103940000Y-74731000D02*
X101890000Y-74731000D01*
X99810000Y-74731000D02*
X97760000Y-74731000D01*
X103905000Y-74771000D02*
X101890000Y-74771000D01*
X99810000Y-74771000D02*
X97795000Y-74771000D01*
X103869000Y-74811000D02*
X101890000Y-74811000D01*
X99810000Y-74811000D02*
X97831000Y-74811000D01*
X103833000Y-74851000D02*
X101890000Y-74851000D01*
X99810000Y-74851000D02*
X97867000Y-74851000D01*
X103795000Y-74891000D02*
X101890000Y-74891000D01*
X99810000Y-74891000D02*
X97905000Y-74891000D01*
X103757000Y-74931000D02*
X101890000Y-74931000D01*
X99810000Y-74931000D02*
X97943000Y-74931000D01*
X103717000Y-74971000D02*
X101890000Y-74971000D01*
X99810000Y-74971000D02*
X97983000Y-74971000D01*
X103676000Y-75011000D02*
X98024000Y-75011000D01*
X103634000Y-75051000D02*
X98066000Y-75051000D01*
X103591000Y-75091000D02*
X98109000Y-75091000D01*
X103547000Y-75131000D02*
X98153000Y-75131000D01*
X103501000Y-75171000D02*
X98199000Y-75171000D01*
X103454000Y-75211000D02*
X98246000Y-75211000D01*
X103406000Y-75251000D02*
X98294000Y-75251000D01*
X103355000Y-75291000D02*
X98345000Y-75291000D01*
X103304000Y-75331000D02*
X98396000Y-75331000D01*
X103250000Y-75371000D02*
X98450000Y-75371000D01*
X103195000Y-75411000D02*
X98505000Y-75411000D01*
X103137000Y-75451000D02*
X98563000Y-75451000D01*
X103078000Y-75491000D02*
X98622000Y-75491000D01*
X103016000Y-75531000D02*
X98684000Y-75531000D01*
X102952000Y-75571000D02*
X98748000Y-75571000D01*
X102884000Y-75611000D02*
X98816000Y-75611000D01*
X102814000Y-75651000D02*
X98886000Y-75651000D01*
X102740000Y-75691000D02*
X98960000Y-75691000D01*
X102663000Y-75731000D02*
X99037000Y-75731000D01*
X102581000Y-75771000D02*
X99119000Y-75771000D01*
X102495000Y-75811000D02*
X99205000Y-75811000D01*
X102402000Y-75851000D02*
X99298000Y-75851000D01*
X102303000Y-75891000D02*
X99397000Y-75891000D01*
X102196000Y-75931000D02*
X99504000Y-75931000D01*
X102079000Y-75971000D02*
X99621000Y-75971000D01*
X101948000Y-76011000D02*
X99752000Y-76011000D01*
X101798000Y-76051000D02*
X99902000Y-76051000D01*
X101618000Y-76091000D02*
X100082000Y-76091000D01*
X101383000Y-76131000D02*
X100317000Y-76131000D01*
X103165000Y-67640302D02*
X103165000Y-68440302D01*
X103565000Y-68040302D02*
X102765000Y-68040302D01*
%TO.C,C21*%
X121211252Y-56735000D02*
X120688748Y-56735000D01*
X121211252Y-55265000D02*
X120688748Y-55265000D01*
%TO.C,C19*%
X115261252Y-56735000D02*
X114738748Y-56735000D01*
X115261252Y-55265000D02*
X114738748Y-55265000D01*
%TO.C,C18*%
X106188748Y-83315000D02*
X106711252Y-83315000D01*
X106188748Y-84785000D02*
X106711252Y-84785000D01*
%TO.C,C15*%
X106188748Y-85515000D02*
X106711252Y-85515000D01*
X106188748Y-86985000D02*
X106711252Y-86985000D01*
%TO.C,C14*%
X109211252Y-56735000D02*
X108688748Y-56735000D01*
X109211252Y-55265000D02*
X108688748Y-55265000D01*
%TO.C,C11*%
X105265000Y-55361252D02*
X105265000Y-54838748D01*
X106735000Y-55361252D02*
X106735000Y-54838748D01*
%TO.C,C10*%
X120961252Y-78235000D02*
X120438748Y-78235000D01*
X120961252Y-76765000D02*
X120438748Y-76765000D01*
%TO.C,C8*%
X100735000Y-56638748D02*
X100735000Y-57161252D01*
X99265000Y-56638748D02*
X99265000Y-57161252D01*
%TO.C,C7*%
X97538748Y-82215000D02*
X98061252Y-82215000D01*
X97538748Y-83685000D02*
X98061252Y-83685000D01*
%TO.C,C5*%
X93265000Y-55311252D02*
X93265000Y-54788748D01*
X94735000Y-55311252D02*
X94735000Y-54788748D01*
%TO.C,C3*%
X121011252Y-71985000D02*
X120488748Y-71985000D01*
X121011252Y-70515000D02*
X120488748Y-70515000D01*
%TO.C,C1*%
X91120000Y-90900000D02*
G75*
G03*
X91120000Y-90900000I-4120000J0D01*
G01*
X91080000Y-90900000D02*
X82920000Y-90900000D01*
X91080000Y-90940000D02*
X82920000Y-90940000D01*
X91080000Y-90980000D02*
X82920000Y-90980000D01*
X91079000Y-91020000D02*
X82921000Y-91020000D01*
X91077000Y-91060000D02*
X82923000Y-91060000D01*
X91076000Y-91100000D02*
X82924000Y-91100000D01*
X91074000Y-91140000D02*
X82926000Y-91140000D01*
X91071000Y-91180000D02*
X82929000Y-91180000D01*
X91068000Y-91220000D02*
X82932000Y-91220000D01*
X91065000Y-91260000D02*
X82935000Y-91260000D01*
X91061000Y-91300000D02*
X82939000Y-91300000D01*
X91057000Y-91340000D02*
X82943000Y-91340000D01*
X91052000Y-91380000D02*
X82948000Y-91380000D01*
X91048000Y-91420000D02*
X82952000Y-91420000D01*
X91042000Y-91460000D02*
X82958000Y-91460000D01*
X91037000Y-91500000D02*
X82963000Y-91500000D01*
X91030000Y-91540000D02*
X82970000Y-91540000D01*
X91024000Y-91580000D02*
X82976000Y-91580000D01*
X91017000Y-91621000D02*
X82983000Y-91621000D01*
X91010000Y-91661000D02*
X82990000Y-91661000D01*
X91002000Y-91701000D02*
X82998000Y-91701000D01*
X90994000Y-91741000D02*
X83006000Y-91741000D01*
X90985000Y-91781000D02*
X88040000Y-91781000D01*
X85960000Y-91781000D02*
X83015000Y-91781000D01*
X90976000Y-91821000D02*
X88040000Y-91821000D01*
X85960000Y-91821000D02*
X83024000Y-91821000D01*
X90967000Y-91861000D02*
X88040000Y-91861000D01*
X85960000Y-91861000D02*
X83033000Y-91861000D01*
X90957000Y-91901000D02*
X88040000Y-91901000D01*
X85960000Y-91901000D02*
X83043000Y-91901000D01*
X90947000Y-91941000D02*
X88040000Y-91941000D01*
X85960000Y-91941000D02*
X83053000Y-91941000D01*
X90936000Y-91981000D02*
X88040000Y-91981000D01*
X85960000Y-91981000D02*
X83064000Y-91981000D01*
X90925000Y-92021000D02*
X88040000Y-92021000D01*
X85960000Y-92021000D02*
X83075000Y-92021000D01*
X90914000Y-92061000D02*
X88040000Y-92061000D01*
X85960000Y-92061000D02*
X83086000Y-92061000D01*
X90902000Y-92101000D02*
X88040000Y-92101000D01*
X85960000Y-92101000D02*
X83098000Y-92101000D01*
X90889000Y-92141000D02*
X88040000Y-92141000D01*
X85960000Y-92141000D02*
X83111000Y-92141000D01*
X90877000Y-92181000D02*
X88040000Y-92181000D01*
X85960000Y-92181000D02*
X83123000Y-92181000D01*
X90863000Y-92221000D02*
X88040000Y-92221000D01*
X85960000Y-92221000D02*
X83137000Y-92221000D01*
X90850000Y-92261000D02*
X88040000Y-92261000D01*
X85960000Y-92261000D02*
X83150000Y-92261000D01*
X90835000Y-92301000D02*
X88040000Y-92301000D01*
X85960000Y-92301000D02*
X83165000Y-92301000D01*
X90821000Y-92341000D02*
X88040000Y-92341000D01*
X85960000Y-92341000D02*
X83179000Y-92341000D01*
X90805000Y-92381000D02*
X88040000Y-92381000D01*
X85960000Y-92381000D02*
X83195000Y-92381000D01*
X90790000Y-92421000D02*
X88040000Y-92421000D01*
X85960000Y-92421000D02*
X83210000Y-92421000D01*
X90774000Y-92461000D02*
X88040000Y-92461000D01*
X85960000Y-92461000D02*
X83226000Y-92461000D01*
X90757000Y-92501000D02*
X88040000Y-92501000D01*
X85960000Y-92501000D02*
X83243000Y-92501000D01*
X90740000Y-92541000D02*
X88040000Y-92541000D01*
X85960000Y-92541000D02*
X83260000Y-92541000D01*
X90722000Y-92581000D02*
X88040000Y-92581000D01*
X85960000Y-92581000D02*
X83278000Y-92581000D01*
X90704000Y-92621000D02*
X88040000Y-92621000D01*
X85960000Y-92621000D02*
X83296000Y-92621000D01*
X90686000Y-92661000D02*
X88040000Y-92661000D01*
X85960000Y-92661000D02*
X83314000Y-92661000D01*
X90666000Y-92701000D02*
X88040000Y-92701000D01*
X85960000Y-92701000D02*
X83334000Y-92701000D01*
X90647000Y-92741000D02*
X88040000Y-92741000D01*
X85960000Y-92741000D02*
X83353000Y-92741000D01*
X90627000Y-92781000D02*
X88040000Y-92781000D01*
X85960000Y-92781000D02*
X83373000Y-92781000D01*
X90606000Y-92821000D02*
X88040000Y-92821000D01*
X85960000Y-92821000D02*
X83394000Y-92821000D01*
X90584000Y-92861000D02*
X88040000Y-92861000D01*
X85960000Y-92861000D02*
X83416000Y-92861000D01*
X90562000Y-92901000D02*
X88040000Y-92901000D01*
X85960000Y-92901000D02*
X83438000Y-92901000D01*
X90540000Y-92941000D02*
X88040000Y-92941000D01*
X85960000Y-92941000D02*
X83460000Y-92941000D01*
X90517000Y-92981000D02*
X88040000Y-92981000D01*
X85960000Y-92981000D02*
X83483000Y-92981000D01*
X90493000Y-93021000D02*
X88040000Y-93021000D01*
X85960000Y-93021000D02*
X83507000Y-93021000D01*
X90469000Y-93061000D02*
X88040000Y-93061000D01*
X85960000Y-93061000D02*
X83531000Y-93061000D01*
X90444000Y-93101000D02*
X88040000Y-93101000D01*
X85960000Y-93101000D02*
X83556000Y-93101000D01*
X90418000Y-93141000D02*
X88040000Y-93141000D01*
X85960000Y-93141000D02*
X83582000Y-93141000D01*
X90392000Y-93181000D02*
X88040000Y-93181000D01*
X85960000Y-93181000D02*
X83608000Y-93181000D01*
X90365000Y-93221000D02*
X88040000Y-93221000D01*
X85960000Y-93221000D02*
X83635000Y-93221000D01*
X90338000Y-93261000D02*
X88040000Y-93261000D01*
X85960000Y-93261000D02*
X83662000Y-93261000D01*
X90309000Y-93301000D02*
X88040000Y-93301000D01*
X85960000Y-93301000D02*
X83691000Y-93301000D01*
X90280000Y-93341000D02*
X88040000Y-93341000D01*
X85960000Y-93341000D02*
X83720000Y-93341000D01*
X90250000Y-93381000D02*
X88040000Y-93381000D01*
X85960000Y-93381000D02*
X83750000Y-93381000D01*
X90220000Y-93421000D02*
X88040000Y-93421000D01*
X85960000Y-93421000D02*
X83780000Y-93421000D01*
X90189000Y-93461000D02*
X88040000Y-93461000D01*
X85960000Y-93461000D02*
X83811000Y-93461000D01*
X90156000Y-93501000D02*
X88040000Y-93501000D01*
X85960000Y-93501000D02*
X83844000Y-93501000D01*
X90124000Y-93541000D02*
X88040000Y-93541000D01*
X85960000Y-93541000D02*
X83876000Y-93541000D01*
X90090000Y-93581000D02*
X88040000Y-93581000D01*
X85960000Y-93581000D02*
X83910000Y-93581000D01*
X90055000Y-93621000D02*
X88040000Y-93621000D01*
X85960000Y-93621000D02*
X83945000Y-93621000D01*
X90019000Y-93661000D02*
X88040000Y-93661000D01*
X85960000Y-93661000D02*
X83981000Y-93661000D01*
X89983000Y-93701000D02*
X88040000Y-93701000D01*
X85960000Y-93701000D02*
X84017000Y-93701000D01*
X89945000Y-93741000D02*
X88040000Y-93741000D01*
X85960000Y-93741000D02*
X84055000Y-93741000D01*
X89907000Y-93781000D02*
X88040000Y-93781000D01*
X85960000Y-93781000D02*
X84093000Y-93781000D01*
X89867000Y-93821000D02*
X88040000Y-93821000D01*
X85960000Y-93821000D02*
X84133000Y-93821000D01*
X89826000Y-93861000D02*
X84174000Y-93861000D01*
X89784000Y-93901000D02*
X84216000Y-93901000D01*
X89741000Y-93941000D02*
X84259000Y-93941000D01*
X89697000Y-93981000D02*
X84303000Y-93981000D01*
X89651000Y-94021000D02*
X84349000Y-94021000D01*
X89604000Y-94061000D02*
X84396000Y-94061000D01*
X89556000Y-94101000D02*
X84444000Y-94101000D01*
X89505000Y-94141000D02*
X84495000Y-94141000D01*
X89454000Y-94181000D02*
X84546000Y-94181000D01*
X89400000Y-94221000D02*
X84600000Y-94221000D01*
X89345000Y-94261000D02*
X84655000Y-94261000D01*
X89287000Y-94301000D02*
X84713000Y-94301000D01*
X89228000Y-94341000D02*
X84772000Y-94341000D01*
X89166000Y-94381000D02*
X84834000Y-94381000D01*
X89102000Y-94421000D02*
X84898000Y-94421000D01*
X89034000Y-94461000D02*
X84966000Y-94461000D01*
X88964000Y-94501000D02*
X85036000Y-94501000D01*
X88890000Y-94541000D02*
X85110000Y-94541000D01*
X88813000Y-94581000D02*
X85187000Y-94581000D01*
X88731000Y-94621000D02*
X85269000Y-94621000D01*
X88645000Y-94661000D02*
X85355000Y-94661000D01*
X88552000Y-94701000D02*
X85448000Y-94701000D01*
X88453000Y-94741000D02*
X85547000Y-94741000D01*
X88346000Y-94781000D02*
X85654000Y-94781000D01*
X88229000Y-94821000D02*
X85771000Y-94821000D01*
X88098000Y-94861000D02*
X85902000Y-94861000D01*
X87948000Y-94901000D02*
X86052000Y-94901000D01*
X87768000Y-94941000D02*
X86232000Y-94941000D01*
X87533000Y-94981000D02*
X86467000Y-94981000D01*
X89315000Y-86490302D02*
X89315000Y-87290302D01*
X89715000Y-86890302D02*
X88915000Y-86890302D01*
%TO.C,C12*%
D10*
X99607142Y-87857142D02*
X99559523Y-87904761D01*
X99416666Y-87952380D01*
X99321428Y-87952380D01*
X99178571Y-87904761D01*
X99083333Y-87809523D01*
X99035714Y-87714285D01*
X98988095Y-87523809D01*
X98988095Y-87380952D01*
X99035714Y-87190476D01*
X99083333Y-87095238D01*
X99178571Y-87000000D01*
X99321428Y-86952380D01*
X99416666Y-86952380D01*
X99559523Y-87000000D01*
X99607142Y-87047619D01*
X100559523Y-87952380D02*
X99988095Y-87952380D01*
X100273809Y-87952380D02*
X100273809Y-86952380D01*
X100178571Y-87095238D01*
X100083333Y-87190476D01*
X99988095Y-87238095D01*
X100940476Y-87047619D02*
X100988095Y-87000000D01*
X101083333Y-86952380D01*
X101321428Y-86952380D01*
X101416666Y-87000000D01*
X101464285Y-87047619D01*
X101511904Y-87142857D01*
X101511904Y-87238095D01*
X101464285Y-87380952D01*
X100892857Y-87952380D01*
X101511904Y-87952380D01*
%TO.C,L9*%
X96333333Y-89702380D02*
X95857142Y-89702380D01*
X95857142Y-88702380D01*
X96714285Y-89702380D02*
X96904761Y-89702380D01*
X97000000Y-89654761D01*
X97047619Y-89607142D01*
X97142857Y-89464285D01*
X97190476Y-89273809D01*
X97190476Y-88892857D01*
X97142857Y-88797619D01*
X97095238Y-88750000D01*
X97000000Y-88702380D01*
X96809523Y-88702380D01*
X96714285Y-88750000D01*
X96666666Y-88797619D01*
X96619047Y-88892857D01*
X96619047Y-89130952D01*
X96666666Y-89226190D01*
X96714285Y-89273809D01*
X96809523Y-89321428D01*
X97000000Y-89321428D01*
X97095238Y-89273809D01*
X97142857Y-89226190D01*
X97190476Y-89130952D01*
%TO.C,C17*%
X118607142Y-79892857D02*
X118654761Y-79940476D01*
X118702380Y-80083333D01*
X118702380Y-80178571D01*
X118654761Y-80321428D01*
X118559523Y-80416666D01*
X118464285Y-80464285D01*
X118273809Y-80511904D01*
X118130952Y-80511904D01*
X117940476Y-80464285D01*
X117845238Y-80416666D01*
X117750000Y-80321428D01*
X117702380Y-80178571D01*
X117702380Y-80083333D01*
X117750000Y-79940476D01*
X117797619Y-79892857D01*
X118702380Y-78940476D02*
X118702380Y-79511904D01*
X118702380Y-79226190D02*
X117702380Y-79226190D01*
X117845238Y-79321428D01*
X117940476Y-79416666D01*
X117988095Y-79511904D01*
X117702380Y-78607142D02*
X117702380Y-77940476D01*
X118702380Y-78369047D01*
%TO.C,C4*%
X109033333Y-94857142D02*
X108985714Y-94904761D01*
X108842857Y-94952380D01*
X108747619Y-94952380D01*
X108604761Y-94904761D01*
X108509523Y-94809523D01*
X108461904Y-94714285D01*
X108414285Y-94523809D01*
X108414285Y-94380952D01*
X108461904Y-94190476D01*
X108509523Y-94095238D01*
X108604761Y-94000000D01*
X108747619Y-93952380D01*
X108842857Y-93952380D01*
X108985714Y-94000000D01*
X109033333Y-94047619D01*
X109890476Y-94285714D02*
X109890476Y-94952380D01*
X109652380Y-93904761D02*
X109414285Y-94619047D01*
X110033333Y-94619047D01*
%TO.C,C9*%
X113357142Y-76666666D02*
X113404761Y-76714285D01*
X113452380Y-76857142D01*
X113452380Y-76952380D01*
X113404761Y-77095238D01*
X113309523Y-77190476D01*
X113214285Y-77238095D01*
X113023809Y-77285714D01*
X112880952Y-77285714D01*
X112690476Y-77238095D01*
X112595238Y-77190476D01*
X112500000Y-77095238D01*
X112452380Y-76952380D01*
X112452380Y-76857142D01*
X112500000Y-76714285D01*
X112547619Y-76666666D01*
X113452380Y-76190476D02*
X113452380Y-76000000D01*
X113404761Y-75904761D01*
X113357142Y-75857142D01*
X113214285Y-75761904D01*
X113023809Y-75714285D01*
X112642857Y-75714285D01*
X112547619Y-75761904D01*
X112500000Y-75809523D01*
X112452380Y-75904761D01*
X112452380Y-76095238D01*
X112500000Y-76190476D01*
X112547619Y-76238095D01*
X112642857Y-76285714D01*
X112880952Y-76285714D01*
X112976190Y-76238095D01*
X113023809Y-76190476D01*
X113071428Y-76095238D01*
X113071428Y-75904761D01*
X113023809Y-75809523D01*
X112976190Y-75761904D01*
X112880952Y-75714285D01*
%TO.C,C16*%
X113357142Y-79892857D02*
X113404761Y-79940476D01*
X113452380Y-80083333D01*
X113452380Y-80178571D01*
X113404761Y-80321428D01*
X113309523Y-80416666D01*
X113214285Y-80464285D01*
X113023809Y-80511904D01*
X112880952Y-80511904D01*
X112690476Y-80464285D01*
X112595238Y-80416666D01*
X112500000Y-80321428D01*
X112452380Y-80178571D01*
X112452380Y-80083333D01*
X112500000Y-79940476D01*
X112547619Y-79892857D01*
X113452380Y-78940476D02*
X113452380Y-79511904D01*
X113452380Y-79226190D02*
X112452380Y-79226190D01*
X112595238Y-79321428D01*
X112690476Y-79416666D01*
X112738095Y-79511904D01*
X112452380Y-78083333D02*
X112452380Y-78273809D01*
X112500000Y-78369047D01*
X112547619Y-78416666D01*
X112690476Y-78511904D01*
X112880952Y-78559523D01*
X113261904Y-78559523D01*
X113357142Y-78511904D01*
X113404761Y-78464285D01*
X113452380Y-78369047D01*
X113452380Y-78178571D01*
X113404761Y-78083333D01*
X113357142Y-78035714D01*
X113261904Y-77988095D01*
X113023809Y-77988095D01*
X112928571Y-78035714D01*
X112880952Y-78083333D01*
X112833333Y-78178571D01*
X112833333Y-78369047D01*
X112880952Y-78464285D01*
X112928571Y-78511904D01*
X113023809Y-78559523D01*
%TO.C,U1*%
X112238095Y-71952380D02*
X112238095Y-72761904D01*
X112285714Y-72857142D01*
X112333333Y-72904761D01*
X112428571Y-72952380D01*
X112619047Y-72952380D01*
X112714285Y-72904761D01*
X112761904Y-72857142D01*
X112809523Y-72761904D01*
X112809523Y-71952380D01*
X113809523Y-72952380D02*
X113238095Y-72952380D01*
X113523809Y-72952380D02*
X113523809Y-71952380D01*
X113428571Y-72095238D01*
X113333333Y-72190476D01*
X113238095Y-72238095D01*
%TO.C,C2*%
X115333333Y-70107142D02*
X115285714Y-70154761D01*
X115142857Y-70202380D01*
X115047619Y-70202380D01*
X114904761Y-70154761D01*
X114809523Y-70059523D01*
X114761904Y-69964285D01*
X114714285Y-69773809D01*
X114714285Y-69630952D01*
X114761904Y-69440476D01*
X114809523Y-69345238D01*
X114904761Y-69250000D01*
X115047619Y-69202380D01*
X115142857Y-69202380D01*
X115285714Y-69250000D01*
X115333333Y-69297619D01*
X115714285Y-69297619D02*
X115761904Y-69250000D01*
X115857142Y-69202380D01*
X116095238Y-69202380D01*
X116190476Y-69250000D01*
X116238095Y-69297619D01*
X116285714Y-69392857D01*
X116285714Y-69488095D01*
X116238095Y-69630952D01*
X115666666Y-70202380D01*
X116285714Y-70202380D01*
%TO.C,TP1*%
X126988095Y-82682380D02*
X127559523Y-82682380D01*
X127273809Y-83682380D02*
X127273809Y-82682380D01*
X127892857Y-83682380D02*
X127892857Y-82682380D01*
X128273809Y-82682380D01*
X128369047Y-82730000D01*
X128416666Y-82777619D01*
X128464285Y-82872857D01*
X128464285Y-83015714D01*
X128416666Y-83110952D01*
X128369047Y-83158571D01*
X128273809Y-83206190D01*
X127892857Y-83206190D01*
X129416666Y-83682380D02*
X128845238Y-83682380D01*
X129130952Y-83682380D02*
X129130952Y-82682380D01*
X129035714Y-82825238D01*
X128940476Y-82920476D01*
X128845238Y-82968095D01*
%TO.C,R15*%
X124357142Y-86702380D02*
X124023809Y-86226190D01*
X123785714Y-86702380D02*
X123785714Y-85702380D01*
X124166666Y-85702380D01*
X124261904Y-85750000D01*
X124309523Y-85797619D01*
X124357142Y-85892857D01*
X124357142Y-86035714D01*
X124309523Y-86130952D01*
X124261904Y-86178571D01*
X124166666Y-86226190D01*
X123785714Y-86226190D01*
X125309523Y-86702380D02*
X124738095Y-86702380D01*
X125023809Y-86702380D02*
X125023809Y-85702380D01*
X124928571Y-85845238D01*
X124833333Y-85940476D01*
X124738095Y-85988095D01*
X126214285Y-85702380D02*
X125738095Y-85702380D01*
X125690476Y-86178571D01*
X125738095Y-86130952D01*
X125833333Y-86083333D01*
X126071428Y-86083333D01*
X126166666Y-86130952D01*
X126214285Y-86178571D01*
X126261904Y-86273809D01*
X126261904Y-86511904D01*
X126214285Y-86607142D01*
X126166666Y-86654761D01*
X126071428Y-86702380D01*
X125833333Y-86702380D01*
X125738095Y-86654761D01*
X125690476Y-86607142D01*
%TO.C,C6*%
X100333333Y-86107142D02*
X100285714Y-86154761D01*
X100142857Y-86202380D01*
X100047619Y-86202380D01*
X99904761Y-86154761D01*
X99809523Y-86059523D01*
X99761904Y-85964285D01*
X99714285Y-85773809D01*
X99714285Y-85630952D01*
X99761904Y-85440476D01*
X99809523Y-85345238D01*
X99904761Y-85250000D01*
X100047619Y-85202380D01*
X100142857Y-85202380D01*
X100285714Y-85250000D01*
X100333333Y-85297619D01*
X101190476Y-85202380D02*
X101000000Y-85202380D01*
X100904761Y-85250000D01*
X100857142Y-85297619D01*
X100761904Y-85440476D01*
X100714285Y-85630952D01*
X100714285Y-86011904D01*
X100761904Y-86107142D01*
X100809523Y-86154761D01*
X100904761Y-86202380D01*
X101095238Y-86202380D01*
X101190476Y-86154761D01*
X101238095Y-86107142D01*
X101285714Y-86011904D01*
X101285714Y-85773809D01*
X101238095Y-85678571D01*
X101190476Y-85630952D01*
X101095238Y-85583333D01*
X100904761Y-85583333D01*
X100809523Y-85630952D01*
X100761904Y-85678571D01*
X100714285Y-85773809D01*
%TO.C,U4*%
X114738095Y-84952380D02*
X114738095Y-85761904D01*
X114785714Y-85857142D01*
X114833333Y-85904761D01*
X114928571Y-85952380D01*
X115119047Y-85952380D01*
X115214285Y-85904761D01*
X115261904Y-85857142D01*
X115309523Y-85761904D01*
X115309523Y-84952380D01*
X116214285Y-85285714D02*
X116214285Y-85952380D01*
X115976190Y-84904761D02*
X115738095Y-85619047D01*
X116357142Y-85619047D01*
%TO.C,J7*%
X113416666Y-95202380D02*
X113416666Y-95916666D01*
X113369047Y-96059523D01*
X113273809Y-96154761D01*
X113130952Y-96202380D01*
X113035714Y-96202380D01*
X113797619Y-95202380D02*
X114464285Y-95202380D01*
X114035714Y-96202380D01*
%TO.C,L3*%
X86583333Y-74702380D02*
X86107142Y-74702380D01*
X86107142Y-73702380D01*
X86821428Y-73702380D02*
X87440476Y-73702380D01*
X87107142Y-74083333D01*
X87250000Y-74083333D01*
X87345238Y-74130952D01*
X87392857Y-74178571D01*
X87440476Y-74273809D01*
X87440476Y-74511904D01*
X87392857Y-74607142D01*
X87345238Y-74654761D01*
X87250000Y-74702380D01*
X86964285Y-74702380D01*
X86869047Y-74654761D01*
X86821428Y-74607142D01*
%TO.C,J8*%
X107266666Y-73552380D02*
X107266666Y-74266666D01*
X107219047Y-74409523D01*
X107123809Y-74504761D01*
X106980952Y-74552380D01*
X106885714Y-74552380D01*
X107885714Y-73980952D02*
X107790476Y-73933333D01*
X107742857Y-73885714D01*
X107695238Y-73790476D01*
X107695238Y-73742857D01*
X107742857Y-73647619D01*
X107790476Y-73600000D01*
X107885714Y-73552380D01*
X108076190Y-73552380D01*
X108171428Y-73600000D01*
X108219047Y-73647619D01*
X108266666Y-73742857D01*
X108266666Y-73790476D01*
X108219047Y-73885714D01*
X108171428Y-73933333D01*
X108076190Y-73980952D01*
X107885714Y-73980952D01*
X107790476Y-74028571D01*
X107742857Y-74076190D01*
X107695238Y-74171428D01*
X107695238Y-74361904D01*
X107742857Y-74457142D01*
X107790476Y-74504761D01*
X107885714Y-74552380D01*
X108076190Y-74552380D01*
X108171428Y-74504761D01*
X108219047Y-74457142D01*
X108266666Y-74361904D01*
X108266666Y-74171428D01*
X108219047Y-74076190D01*
X108171428Y-74028571D01*
X108076190Y-73980952D01*
%TO.C,U3*%
X99938095Y-76952380D02*
X99938095Y-77761904D01*
X99985714Y-77857142D01*
X100033333Y-77904761D01*
X100128571Y-77952380D01*
X100319047Y-77952380D01*
X100414285Y-77904761D01*
X100461904Y-77857142D01*
X100509523Y-77761904D01*
X100509523Y-76952380D01*
X100890476Y-76952380D02*
X101509523Y-76952380D01*
X101176190Y-77333333D01*
X101319047Y-77333333D01*
X101414285Y-77380952D01*
X101461904Y-77428571D01*
X101509523Y-77523809D01*
X101509523Y-77761904D01*
X101461904Y-77857142D01*
X101414285Y-77904761D01*
X101319047Y-77952380D01*
X101033333Y-77952380D01*
X100938095Y-77904761D01*
X100890476Y-77857142D01*
%TO.C,U2*%
X117488095Y-72202380D02*
X117488095Y-73011904D01*
X117535714Y-73107142D01*
X117583333Y-73154761D01*
X117678571Y-73202380D01*
X117869047Y-73202380D01*
X117964285Y-73154761D01*
X118011904Y-73107142D01*
X118059523Y-73011904D01*
X118059523Y-72202380D01*
X118488095Y-72297619D02*
X118535714Y-72250000D01*
X118630952Y-72202380D01*
X118869047Y-72202380D01*
X118964285Y-72250000D01*
X119011904Y-72297619D01*
X119059523Y-72392857D01*
X119059523Y-72488095D01*
X119011904Y-72630952D01*
X118440476Y-73202380D01*
X119059523Y-73202380D01*
%TO.C,R17*%
X107857142Y-89452380D02*
X107523809Y-88976190D01*
X107285714Y-89452380D02*
X107285714Y-88452380D01*
X107666666Y-88452380D01*
X107761904Y-88500000D01*
X107809523Y-88547619D01*
X107857142Y-88642857D01*
X107857142Y-88785714D01*
X107809523Y-88880952D01*
X107761904Y-88928571D01*
X107666666Y-88976190D01*
X107285714Y-88976190D01*
X108809523Y-89452380D02*
X108238095Y-89452380D01*
X108523809Y-89452380D02*
X108523809Y-88452380D01*
X108428571Y-88595238D01*
X108333333Y-88690476D01*
X108238095Y-88738095D01*
X109142857Y-88452380D02*
X109809523Y-88452380D01*
X109380952Y-89452380D01*
%TO.C,R16*%
X110857142Y-89452380D02*
X110523809Y-88976190D01*
X110285714Y-89452380D02*
X110285714Y-88452380D01*
X110666666Y-88452380D01*
X110761904Y-88500000D01*
X110809523Y-88547619D01*
X110857142Y-88642857D01*
X110857142Y-88785714D01*
X110809523Y-88880952D01*
X110761904Y-88928571D01*
X110666666Y-88976190D01*
X110285714Y-88976190D01*
X111809523Y-89452380D02*
X111238095Y-89452380D01*
X111523809Y-89452380D02*
X111523809Y-88452380D01*
X111428571Y-88595238D01*
X111333333Y-88690476D01*
X111238095Y-88738095D01*
X112666666Y-88452380D02*
X112476190Y-88452380D01*
X112380952Y-88500000D01*
X112333333Y-88547619D01*
X112238095Y-88690476D01*
X112190476Y-88880952D01*
X112190476Y-89261904D01*
X112238095Y-89357142D01*
X112285714Y-89404761D01*
X112380952Y-89452380D01*
X112571428Y-89452380D01*
X112666666Y-89404761D01*
X112714285Y-89357142D01*
X112761904Y-89261904D01*
X112761904Y-89023809D01*
X112714285Y-88928571D01*
X112666666Y-88880952D01*
X112571428Y-88833333D01*
X112380952Y-88833333D01*
X112285714Y-88880952D01*
X112238095Y-88928571D01*
X112190476Y-89023809D01*
%TO.C,R14*%
X125107142Y-82702380D02*
X124773809Y-82226190D01*
X124535714Y-82702380D02*
X124535714Y-81702380D01*
X124916666Y-81702380D01*
X125011904Y-81750000D01*
X125059523Y-81797619D01*
X125107142Y-81892857D01*
X125107142Y-82035714D01*
X125059523Y-82130952D01*
X125011904Y-82178571D01*
X124916666Y-82226190D01*
X124535714Y-82226190D01*
X126059523Y-82702380D02*
X125488095Y-82702380D01*
X125773809Y-82702380D02*
X125773809Y-81702380D01*
X125678571Y-81845238D01*
X125583333Y-81940476D01*
X125488095Y-81988095D01*
X126916666Y-82035714D02*
X126916666Y-82702380D01*
X126678571Y-81654761D02*
X126440476Y-82369047D01*
X127059523Y-82369047D01*
%TO.C,R13*%
X104857142Y-89452380D02*
X104523809Y-88976190D01*
X104285714Y-89452380D02*
X104285714Y-88452380D01*
X104666666Y-88452380D01*
X104761904Y-88500000D01*
X104809523Y-88547619D01*
X104857142Y-88642857D01*
X104857142Y-88785714D01*
X104809523Y-88880952D01*
X104761904Y-88928571D01*
X104666666Y-88976190D01*
X104285714Y-88976190D01*
X105809523Y-89452380D02*
X105238095Y-89452380D01*
X105523809Y-89452380D02*
X105523809Y-88452380D01*
X105428571Y-88595238D01*
X105333333Y-88690476D01*
X105238095Y-88738095D01*
X106142857Y-88452380D02*
X106761904Y-88452380D01*
X106428571Y-88833333D01*
X106571428Y-88833333D01*
X106666666Y-88880952D01*
X106714285Y-88928571D01*
X106761904Y-89023809D01*
X106761904Y-89261904D01*
X106714285Y-89357142D01*
X106666666Y-89404761D01*
X106571428Y-89452380D01*
X106285714Y-89452380D01*
X106190476Y-89404761D01*
X106142857Y-89357142D01*
%TO.C,R12*%
X114107142Y-89452380D02*
X113773809Y-88976190D01*
X113535714Y-89452380D02*
X113535714Y-88452380D01*
X113916666Y-88452380D01*
X114011904Y-88500000D01*
X114059523Y-88547619D01*
X114107142Y-88642857D01*
X114107142Y-88785714D01*
X114059523Y-88880952D01*
X114011904Y-88928571D01*
X113916666Y-88976190D01*
X113535714Y-88976190D01*
X115059523Y-89452380D02*
X114488095Y-89452380D01*
X114773809Y-89452380D02*
X114773809Y-88452380D01*
X114678571Y-88595238D01*
X114583333Y-88690476D01*
X114488095Y-88738095D01*
X115440476Y-88547619D02*
X115488095Y-88500000D01*
X115583333Y-88452380D01*
X115821428Y-88452380D01*
X115916666Y-88500000D01*
X115964285Y-88547619D01*
X116011904Y-88642857D01*
X116011904Y-88738095D01*
X115964285Y-88880952D01*
X115392857Y-89452380D01*
X116011904Y-89452380D01*
%TO.C,R11*%
X123202380Y-89142857D02*
X122726190Y-89476190D01*
X123202380Y-89714285D02*
X122202380Y-89714285D01*
X122202380Y-89333333D01*
X122250000Y-89238095D01*
X122297619Y-89190476D01*
X122392857Y-89142857D01*
X122535714Y-89142857D01*
X122630952Y-89190476D01*
X122678571Y-89238095D01*
X122726190Y-89333333D01*
X122726190Y-89714285D01*
X123202380Y-88190476D02*
X123202380Y-88761904D01*
X123202380Y-88476190D02*
X122202380Y-88476190D01*
X122345238Y-88571428D01*
X122440476Y-88666666D01*
X122488095Y-88761904D01*
X123202380Y-87238095D02*
X123202380Y-87809523D01*
X123202380Y-87523809D02*
X122202380Y-87523809D01*
X122345238Y-87619047D01*
X122440476Y-87714285D01*
X122488095Y-87809523D01*
%TO.C,R10*%
X110857142Y-94952380D02*
X110523809Y-94476190D01*
X110285714Y-94952380D02*
X110285714Y-93952380D01*
X110666666Y-93952380D01*
X110761904Y-94000000D01*
X110809523Y-94047619D01*
X110857142Y-94142857D01*
X110857142Y-94285714D01*
X110809523Y-94380952D01*
X110761904Y-94428571D01*
X110666666Y-94476190D01*
X110285714Y-94476190D01*
X111809523Y-94952380D02*
X111238095Y-94952380D01*
X111523809Y-94952380D02*
X111523809Y-93952380D01*
X111428571Y-94095238D01*
X111333333Y-94190476D01*
X111238095Y-94238095D01*
X112428571Y-93952380D02*
X112523809Y-93952380D01*
X112619047Y-94000000D01*
X112666666Y-94047619D01*
X112714285Y-94142857D01*
X112761904Y-94333333D01*
X112761904Y-94571428D01*
X112714285Y-94761904D01*
X112666666Y-94857142D01*
X112619047Y-94904761D01*
X112523809Y-94952380D01*
X112428571Y-94952380D01*
X112333333Y-94904761D01*
X112285714Y-94857142D01*
X112238095Y-94761904D01*
X112190476Y-94571428D01*
X112190476Y-94333333D01*
X112238095Y-94142857D01*
X112285714Y-94047619D01*
X112333333Y-94000000D01*
X112428571Y-93952380D01*
%TO.C,R9*%
X118083333Y-67952380D02*
X117750000Y-67476190D01*
X117511904Y-67952380D02*
X117511904Y-66952380D01*
X117892857Y-66952380D01*
X117988095Y-67000000D01*
X118035714Y-67047619D01*
X118083333Y-67142857D01*
X118083333Y-67285714D01*
X118035714Y-67380952D01*
X117988095Y-67428571D01*
X117892857Y-67476190D01*
X117511904Y-67476190D01*
X118559523Y-67952380D02*
X118750000Y-67952380D01*
X118845238Y-67904761D01*
X118892857Y-67857142D01*
X118988095Y-67714285D01*
X119035714Y-67523809D01*
X119035714Y-67142857D01*
X118988095Y-67047619D01*
X118940476Y-67000000D01*
X118845238Y-66952380D01*
X118654761Y-66952380D01*
X118559523Y-67000000D01*
X118511904Y-67047619D01*
X118464285Y-67142857D01*
X118464285Y-67380952D01*
X118511904Y-67476190D01*
X118559523Y-67523809D01*
X118654761Y-67571428D01*
X118845238Y-67571428D01*
X118940476Y-67523809D01*
X118988095Y-67476190D01*
X119035714Y-67380952D01*
%TO.C,R8*%
X109083333Y-82452380D02*
X108750000Y-81976190D01*
X108511904Y-82452380D02*
X108511904Y-81452380D01*
X108892857Y-81452380D01*
X108988095Y-81500000D01*
X109035714Y-81547619D01*
X109083333Y-81642857D01*
X109083333Y-81785714D01*
X109035714Y-81880952D01*
X108988095Y-81928571D01*
X108892857Y-81976190D01*
X108511904Y-81976190D01*
X109654761Y-81880952D02*
X109559523Y-81833333D01*
X109511904Y-81785714D01*
X109464285Y-81690476D01*
X109464285Y-81642857D01*
X109511904Y-81547619D01*
X109559523Y-81500000D01*
X109654761Y-81452380D01*
X109845238Y-81452380D01*
X109940476Y-81500000D01*
X109988095Y-81547619D01*
X110035714Y-81642857D01*
X110035714Y-81690476D01*
X109988095Y-81785714D01*
X109940476Y-81833333D01*
X109845238Y-81880952D01*
X109654761Y-81880952D01*
X109559523Y-81928571D01*
X109511904Y-81976190D01*
X109464285Y-82071428D01*
X109464285Y-82261904D01*
X109511904Y-82357142D01*
X109559523Y-82404761D01*
X109654761Y-82452380D01*
X109845238Y-82452380D01*
X109940476Y-82404761D01*
X109988095Y-82357142D01*
X110035714Y-82261904D01*
X110035714Y-82071428D01*
X109988095Y-81976190D01*
X109940476Y-81928571D01*
X109845238Y-81880952D01*
%TO.C,R7*%
X103833333Y-77952380D02*
X103500000Y-77476190D01*
X103261904Y-77952380D02*
X103261904Y-76952380D01*
X103642857Y-76952380D01*
X103738095Y-77000000D01*
X103785714Y-77047619D01*
X103833333Y-77142857D01*
X103833333Y-77285714D01*
X103785714Y-77380952D01*
X103738095Y-77428571D01*
X103642857Y-77476190D01*
X103261904Y-77476190D01*
X104166666Y-76952380D02*
X104833333Y-76952380D01*
X104404761Y-77952380D01*
%TO.C,R6*%
X109583333Y-77952380D02*
X109250000Y-77476190D01*
X109011904Y-77952380D02*
X109011904Y-76952380D01*
X109392857Y-76952380D01*
X109488095Y-77000000D01*
X109535714Y-77047619D01*
X109583333Y-77142857D01*
X109583333Y-77285714D01*
X109535714Y-77380952D01*
X109488095Y-77428571D01*
X109392857Y-77476190D01*
X109011904Y-77476190D01*
X110440476Y-76952380D02*
X110250000Y-76952380D01*
X110154761Y-77000000D01*
X110107142Y-77047619D01*
X110011904Y-77190476D01*
X109964285Y-77380952D01*
X109964285Y-77761904D01*
X110011904Y-77857142D01*
X110059523Y-77904761D01*
X110154761Y-77952380D01*
X110345238Y-77952380D01*
X110440476Y-77904761D01*
X110488095Y-77857142D01*
X110535714Y-77761904D01*
X110535714Y-77523809D01*
X110488095Y-77428571D01*
X110440476Y-77380952D01*
X110345238Y-77333333D01*
X110154761Y-77333333D01*
X110059523Y-77380952D01*
X110011904Y-77428571D01*
X109964285Y-77523809D01*
%TO.C,R5*%
X103583333Y-86202380D02*
X103250000Y-85726190D01*
X103011904Y-86202380D02*
X103011904Y-85202380D01*
X103392857Y-85202380D01*
X103488095Y-85250000D01*
X103535714Y-85297619D01*
X103583333Y-85392857D01*
X103583333Y-85535714D01*
X103535714Y-85630952D01*
X103488095Y-85678571D01*
X103392857Y-85726190D01*
X103011904Y-85726190D01*
X104488095Y-85202380D02*
X104011904Y-85202380D01*
X103964285Y-85678571D01*
X104011904Y-85630952D01*
X104107142Y-85583333D01*
X104345238Y-85583333D01*
X104440476Y-85630952D01*
X104488095Y-85678571D01*
X104535714Y-85773809D01*
X104535714Y-86011904D01*
X104488095Y-86107142D01*
X104440476Y-86154761D01*
X104345238Y-86202380D01*
X104107142Y-86202380D01*
X104011904Y-86154761D01*
X103964285Y-86107142D01*
%TO.C,R4*%
X91083333Y-54702380D02*
X90750000Y-54226190D01*
X90511904Y-54702380D02*
X90511904Y-53702380D01*
X90892857Y-53702380D01*
X90988095Y-53750000D01*
X91035714Y-53797619D01*
X91083333Y-53892857D01*
X91083333Y-54035714D01*
X91035714Y-54130952D01*
X90988095Y-54178571D01*
X90892857Y-54226190D01*
X90511904Y-54226190D01*
X91940476Y-54035714D02*
X91940476Y-54702380D01*
X91702380Y-53654761D02*
X91464285Y-54369047D01*
X92083333Y-54369047D01*
%TO.C,R3*%
X101083333Y-91702380D02*
X100750000Y-91226190D01*
X100511904Y-91702380D02*
X100511904Y-90702380D01*
X100892857Y-90702380D01*
X100988095Y-90750000D01*
X101035714Y-90797619D01*
X101083333Y-90892857D01*
X101083333Y-91035714D01*
X101035714Y-91130952D01*
X100988095Y-91178571D01*
X100892857Y-91226190D01*
X100511904Y-91226190D01*
X101416666Y-90702380D02*
X102035714Y-90702380D01*
X101702380Y-91083333D01*
X101845238Y-91083333D01*
X101940476Y-91130952D01*
X101988095Y-91178571D01*
X102035714Y-91273809D01*
X102035714Y-91511904D01*
X101988095Y-91607142D01*
X101940476Y-91654761D01*
X101845238Y-91702380D01*
X101559523Y-91702380D01*
X101464285Y-91654761D01*
X101416666Y-91607142D01*
%TO.C,R2*%
X107333333Y-91452380D02*
X107000000Y-90976190D01*
X106761904Y-91452380D02*
X106761904Y-90452380D01*
X107142857Y-90452380D01*
X107238095Y-90500000D01*
X107285714Y-90547619D01*
X107333333Y-90642857D01*
X107333333Y-90785714D01*
X107285714Y-90880952D01*
X107238095Y-90928571D01*
X107142857Y-90976190D01*
X106761904Y-90976190D01*
X107714285Y-90547619D02*
X107761904Y-90500000D01*
X107857142Y-90452380D01*
X108095238Y-90452380D01*
X108190476Y-90500000D01*
X108238095Y-90547619D01*
X108285714Y-90642857D01*
X108285714Y-90738095D01*
X108238095Y-90880952D01*
X107666666Y-91452380D01*
X108285714Y-91452380D01*
%TO.C,R1*%
X88083333Y-55202380D02*
X87750000Y-54726190D01*
X87511904Y-55202380D02*
X87511904Y-54202380D01*
X87892857Y-54202380D01*
X87988095Y-54250000D01*
X88035714Y-54297619D01*
X88083333Y-54392857D01*
X88083333Y-54535714D01*
X88035714Y-54630952D01*
X87988095Y-54678571D01*
X87892857Y-54726190D01*
X87511904Y-54726190D01*
X89035714Y-55202380D02*
X88464285Y-55202380D01*
X88750000Y-55202380D02*
X88750000Y-54202380D01*
X88654761Y-54345238D01*
X88559523Y-54440476D01*
X88464285Y-54488095D01*
%TO.C,L8*%
X123833333Y-54952380D02*
X123357142Y-54952380D01*
X123357142Y-53952380D01*
X124309523Y-54380952D02*
X124214285Y-54333333D01*
X124166666Y-54285714D01*
X124119047Y-54190476D01*
X124119047Y-54142857D01*
X124166666Y-54047619D01*
X124214285Y-54000000D01*
X124309523Y-53952380D01*
X124500000Y-53952380D01*
X124595238Y-54000000D01*
X124642857Y-54047619D01*
X124690476Y-54142857D01*
X124690476Y-54190476D01*
X124642857Y-54285714D01*
X124595238Y-54333333D01*
X124500000Y-54380952D01*
X124309523Y-54380952D01*
X124214285Y-54428571D01*
X124166666Y-54476190D01*
X124119047Y-54571428D01*
X124119047Y-54761904D01*
X124166666Y-54857142D01*
X124214285Y-54904761D01*
X124309523Y-54952380D01*
X124500000Y-54952380D01*
X124595238Y-54904761D01*
X124642857Y-54857142D01*
X124690476Y-54761904D01*
X124690476Y-54571428D01*
X124642857Y-54476190D01*
X124595238Y-54428571D01*
X124500000Y-54380952D01*
%TO.C,L7*%
X117583333Y-62702380D02*
X117107142Y-62702380D01*
X117107142Y-61702380D01*
X117821428Y-61702380D02*
X118488095Y-61702380D01*
X118059523Y-62702380D01*
%TO.C,L6*%
X108333333Y-65952380D02*
X107857142Y-65952380D01*
X107857142Y-64952380D01*
X109095238Y-64952380D02*
X108904761Y-64952380D01*
X108809523Y-65000000D01*
X108761904Y-65047619D01*
X108666666Y-65190476D01*
X108619047Y-65380952D01*
X108619047Y-65761904D01*
X108666666Y-65857142D01*
X108714285Y-65904761D01*
X108809523Y-65952380D01*
X109000000Y-65952380D01*
X109095238Y-65904761D01*
X109142857Y-65857142D01*
X109190476Y-65761904D01*
X109190476Y-65523809D01*
X109142857Y-65428571D01*
X109095238Y-65380952D01*
X109000000Y-65333333D01*
X108809523Y-65333333D01*
X108714285Y-65380952D01*
X108666666Y-65428571D01*
X108619047Y-65523809D01*
%TO.C,L5*%
X117833333Y-57952380D02*
X117357142Y-57952380D01*
X117357142Y-56952380D01*
X118642857Y-56952380D02*
X118166666Y-56952380D01*
X118119047Y-57428571D01*
X118166666Y-57380952D01*
X118261904Y-57333333D01*
X118500000Y-57333333D01*
X118595238Y-57380952D01*
X118642857Y-57428571D01*
X118690476Y-57523809D01*
X118690476Y-57761904D01*
X118642857Y-57857142D01*
X118595238Y-57904761D01*
X118500000Y-57952380D01*
X118261904Y-57952380D01*
X118166666Y-57904761D01*
X118119047Y-57857142D01*
%TO.C,L4*%
X111833333Y-54952380D02*
X111357142Y-54952380D01*
X111357142Y-53952380D01*
X112595238Y-54285714D02*
X112595238Y-54952380D01*
X112357142Y-53904761D02*
X112119047Y-54619047D01*
X112738095Y-54619047D01*
%TO.C,L2*%
X102858333Y-54802380D02*
X102382142Y-54802380D01*
X102382142Y-53802380D01*
X103144047Y-53897619D02*
X103191666Y-53850000D01*
X103286904Y-53802380D01*
X103525000Y-53802380D01*
X103620238Y-53850000D01*
X103667857Y-53897619D01*
X103715476Y-53992857D01*
X103715476Y-54088095D01*
X103667857Y-54230952D01*
X103096428Y-54802380D01*
X103715476Y-54802380D01*
%TO.C,L1*%
X96808333Y-54802380D02*
X96332142Y-54802380D01*
X96332142Y-53802380D01*
X97665476Y-54802380D02*
X97094047Y-54802380D01*
X97379761Y-54802380D02*
X97379761Y-53802380D01*
X97284523Y-53945238D01*
X97189285Y-54040476D01*
X97094047Y-54088095D01*
%TO.C,J6*%
X123916666Y-95202380D02*
X123916666Y-95916666D01*
X123869047Y-96059523D01*
X123773809Y-96154761D01*
X123630952Y-96202380D01*
X123535714Y-96202380D01*
X124821428Y-95202380D02*
X124630952Y-95202380D01*
X124535714Y-95250000D01*
X124488095Y-95297619D01*
X124392857Y-95440476D01*
X124345238Y-95630952D01*
X124345238Y-96011904D01*
X124392857Y-96107142D01*
X124440476Y-96154761D01*
X124535714Y-96202380D01*
X124726190Y-96202380D01*
X124821428Y-96154761D01*
X124869047Y-96107142D01*
X124916666Y-96011904D01*
X124916666Y-95773809D01*
X124869047Y-95678571D01*
X124821428Y-95630952D01*
X124726190Y-95583333D01*
X124535714Y-95583333D01*
X124440476Y-95630952D01*
X124392857Y-95678571D01*
X124345238Y-95773809D01*
%TO.C,J5*%
X127666666Y-56702380D02*
X127666666Y-57416666D01*
X127619047Y-57559523D01*
X127523809Y-57654761D01*
X127380952Y-57702380D01*
X127285714Y-57702380D01*
X128619047Y-56702380D02*
X128142857Y-56702380D01*
X128095238Y-57178571D01*
X128142857Y-57130952D01*
X128238095Y-57083333D01*
X128476190Y-57083333D01*
X128571428Y-57130952D01*
X128619047Y-57178571D01*
X128666666Y-57273809D01*
X128666666Y-57511904D01*
X128619047Y-57607142D01*
X128571428Y-57654761D01*
X128476190Y-57702380D01*
X128238095Y-57702380D01*
X128142857Y-57654761D01*
X128095238Y-57607142D01*
%TO.C,J4*%
X127916666Y-72702380D02*
X127916666Y-73416666D01*
X127869047Y-73559523D01*
X127773809Y-73654761D01*
X127630952Y-73702380D01*
X127535714Y-73702380D01*
X128821428Y-73035714D02*
X128821428Y-73702380D01*
X128583333Y-72654761D02*
X128345238Y-73369047D01*
X128964285Y-73369047D01*
%TO.C,J3*%
X100416666Y-95452380D02*
X100416666Y-96166666D01*
X100369047Y-96309523D01*
X100273809Y-96404761D01*
X100130952Y-96452380D01*
X100035714Y-96452380D01*
X100797619Y-95452380D02*
X101416666Y-95452380D01*
X101083333Y-95833333D01*
X101226190Y-95833333D01*
X101321428Y-95880952D01*
X101369047Y-95928571D01*
X101416666Y-96023809D01*
X101416666Y-96261904D01*
X101369047Y-96357142D01*
X101321428Y-96404761D01*
X101226190Y-96452380D01*
X100940476Y-96452380D01*
X100845238Y-96404761D01*
X100797619Y-96357142D01*
%TO.C,J2*%
X82666666Y-85952380D02*
X82666666Y-86666666D01*
X82619047Y-86809523D01*
X82523809Y-86904761D01*
X82380952Y-86952380D01*
X82285714Y-86952380D01*
X83095238Y-86047619D02*
X83142857Y-86000000D01*
X83238095Y-85952380D01*
X83476190Y-85952380D01*
X83571428Y-86000000D01*
X83619047Y-86047619D01*
X83666666Y-86142857D01*
X83666666Y-86238095D01*
X83619047Y-86380952D01*
X83047619Y-86952380D01*
X83666666Y-86952380D01*
%TO.C,J1*%
X83916666Y-59202380D02*
X83916666Y-59916666D01*
X83869047Y-60059523D01*
X83773809Y-60154761D01*
X83630952Y-60202380D01*
X83535714Y-60202380D01*
X84916666Y-60202380D02*
X84345238Y-60202380D01*
X84630952Y-60202380D02*
X84630952Y-59202380D01*
X84535714Y-59345238D01*
X84440476Y-59440476D01*
X84345238Y-59488095D01*
%TO.C,D1*%
X92111904Y-67452380D02*
X92111904Y-66452380D01*
X92350000Y-66452380D01*
X92492857Y-66500000D01*
X92588095Y-66595238D01*
X92635714Y-66690476D01*
X92683333Y-66880952D01*
X92683333Y-67023809D01*
X92635714Y-67214285D01*
X92588095Y-67309523D01*
X92492857Y-67404761D01*
X92350000Y-67452380D01*
X92111904Y-67452380D01*
X93635714Y-67452380D02*
X93064285Y-67452380D01*
X93350000Y-67452380D02*
X93350000Y-66452380D01*
X93254761Y-66595238D01*
X93159523Y-66690476D01*
X93064285Y-66738095D01*
%TO.C,C29*%
X123357142Y-76857142D02*
X123309523Y-76904761D01*
X123166666Y-76952380D01*
X123071428Y-76952380D01*
X122928571Y-76904761D01*
X122833333Y-76809523D01*
X122785714Y-76714285D01*
X122738095Y-76523809D01*
X122738095Y-76380952D01*
X122785714Y-76190476D01*
X122833333Y-76095238D01*
X122928571Y-76000000D01*
X123071428Y-75952380D01*
X123166666Y-75952380D01*
X123309523Y-76000000D01*
X123357142Y-76047619D01*
X123738095Y-76047619D02*
X123785714Y-76000000D01*
X123880952Y-75952380D01*
X124119047Y-75952380D01*
X124214285Y-76000000D01*
X124261904Y-76047619D01*
X124309523Y-76142857D01*
X124309523Y-76238095D01*
X124261904Y-76380952D01*
X123690476Y-76952380D01*
X124309523Y-76952380D01*
X124785714Y-76952380D02*
X124976190Y-76952380D01*
X125071428Y-76904761D01*
X125119047Y-76857142D01*
X125214285Y-76714285D01*
X125261904Y-76523809D01*
X125261904Y-76142857D01*
X125214285Y-76047619D01*
X125166666Y-76000000D01*
X125071428Y-75952380D01*
X124880952Y-75952380D01*
X124785714Y-76000000D01*
X124738095Y-76047619D01*
X124690476Y-76142857D01*
X124690476Y-76380952D01*
X124738095Y-76476190D01*
X124785714Y-76523809D01*
X124880952Y-76571428D01*
X125071428Y-76571428D01*
X125166666Y-76523809D01*
X125214285Y-76476190D01*
X125261904Y-76380952D01*
%TO.C,C28*%
X123607142Y-94357142D02*
X123559523Y-94404761D01*
X123416666Y-94452380D01*
X123321428Y-94452380D01*
X123178571Y-94404761D01*
X123083333Y-94309523D01*
X123035714Y-94214285D01*
X122988095Y-94023809D01*
X122988095Y-93880952D01*
X123035714Y-93690476D01*
X123083333Y-93595238D01*
X123178571Y-93500000D01*
X123321428Y-93452380D01*
X123416666Y-93452380D01*
X123559523Y-93500000D01*
X123607142Y-93547619D01*
X123988095Y-93547619D02*
X124035714Y-93500000D01*
X124130952Y-93452380D01*
X124369047Y-93452380D01*
X124464285Y-93500000D01*
X124511904Y-93547619D01*
X124559523Y-93642857D01*
X124559523Y-93738095D01*
X124511904Y-93880952D01*
X123940476Y-94452380D01*
X124559523Y-94452380D01*
X125130952Y-93880952D02*
X125035714Y-93833333D01*
X124988095Y-93785714D01*
X124940476Y-93690476D01*
X124940476Y-93642857D01*
X124988095Y-93547619D01*
X125035714Y-93500000D01*
X125130952Y-93452380D01*
X125321428Y-93452380D01*
X125416666Y-93500000D01*
X125464285Y-93547619D01*
X125511904Y-93642857D01*
X125511904Y-93690476D01*
X125464285Y-93785714D01*
X125416666Y-93833333D01*
X125321428Y-93880952D01*
X125130952Y-93880952D01*
X125035714Y-93928571D01*
X124988095Y-93976190D01*
X124940476Y-94071428D01*
X124940476Y-94261904D01*
X124988095Y-94357142D01*
X125035714Y-94404761D01*
X125130952Y-94452380D01*
X125321428Y-94452380D01*
X125416666Y-94404761D01*
X125464285Y-94357142D01*
X125511904Y-94261904D01*
X125511904Y-94071428D01*
X125464285Y-93976190D01*
X125416666Y-93928571D01*
X125321428Y-93880952D01*
%TO.C,C27*%
X117357142Y-82642857D02*
X117404761Y-82690476D01*
X117452380Y-82833333D01*
X117452380Y-82928571D01*
X117404761Y-83071428D01*
X117309523Y-83166666D01*
X117214285Y-83214285D01*
X117023809Y-83261904D01*
X116880952Y-83261904D01*
X116690476Y-83214285D01*
X116595238Y-83166666D01*
X116500000Y-83071428D01*
X116452380Y-82928571D01*
X116452380Y-82833333D01*
X116500000Y-82690476D01*
X116547619Y-82642857D01*
X116547619Y-82261904D02*
X116500000Y-82214285D01*
X116452380Y-82119047D01*
X116452380Y-81880952D01*
X116500000Y-81785714D01*
X116547619Y-81738095D01*
X116642857Y-81690476D01*
X116738095Y-81690476D01*
X116880952Y-81738095D01*
X117452380Y-82309523D01*
X117452380Y-81690476D01*
X116452380Y-81357142D02*
X116452380Y-80690476D01*
X117452380Y-81119047D01*
%TO.C,C26*%
X112107142Y-83107142D02*
X112059523Y-83154761D01*
X111916666Y-83202380D01*
X111821428Y-83202380D01*
X111678571Y-83154761D01*
X111583333Y-83059523D01*
X111535714Y-82964285D01*
X111488095Y-82773809D01*
X111488095Y-82630952D01*
X111535714Y-82440476D01*
X111583333Y-82345238D01*
X111678571Y-82250000D01*
X111821428Y-82202380D01*
X111916666Y-82202380D01*
X112059523Y-82250000D01*
X112107142Y-82297619D01*
X112488095Y-82297619D02*
X112535714Y-82250000D01*
X112630952Y-82202380D01*
X112869047Y-82202380D01*
X112964285Y-82250000D01*
X113011904Y-82297619D01*
X113059523Y-82392857D01*
X113059523Y-82488095D01*
X113011904Y-82630952D01*
X112440476Y-83202380D01*
X113059523Y-83202380D01*
X113916666Y-82202380D02*
X113726190Y-82202380D01*
X113630952Y-82250000D01*
X113583333Y-82297619D01*
X113488095Y-82440476D01*
X113440476Y-82630952D01*
X113440476Y-83011904D01*
X113488095Y-83107142D01*
X113535714Y-83154761D01*
X113630952Y-83202380D01*
X113821428Y-83202380D01*
X113916666Y-83154761D01*
X113964285Y-83107142D01*
X114011904Y-83011904D01*
X114011904Y-82773809D01*
X113964285Y-82678571D01*
X113916666Y-82630952D01*
X113821428Y-82583333D01*
X113630952Y-82583333D01*
X113535714Y-82630952D01*
X113488095Y-82678571D01*
X113440476Y-82773809D01*
%TO.C,C25*%
X117857142Y-65857142D02*
X117809523Y-65904761D01*
X117666666Y-65952380D01*
X117571428Y-65952380D01*
X117428571Y-65904761D01*
X117333333Y-65809523D01*
X117285714Y-65714285D01*
X117238095Y-65523809D01*
X117238095Y-65380952D01*
X117285714Y-65190476D01*
X117333333Y-65095238D01*
X117428571Y-65000000D01*
X117571428Y-64952380D01*
X117666666Y-64952380D01*
X117809523Y-65000000D01*
X117857142Y-65047619D01*
X118238095Y-65047619D02*
X118285714Y-65000000D01*
X118380952Y-64952380D01*
X118619047Y-64952380D01*
X118714285Y-65000000D01*
X118761904Y-65047619D01*
X118809523Y-65142857D01*
X118809523Y-65238095D01*
X118761904Y-65380952D01*
X118190476Y-65952380D01*
X118809523Y-65952380D01*
X119714285Y-64952380D02*
X119238095Y-64952380D01*
X119190476Y-65428571D01*
X119238095Y-65380952D01*
X119333333Y-65333333D01*
X119571428Y-65333333D01*
X119666666Y-65380952D01*
X119714285Y-65428571D01*
X119761904Y-65523809D01*
X119761904Y-65761904D01*
X119714285Y-65857142D01*
X119666666Y-65904761D01*
X119571428Y-65952380D01*
X119333333Y-65952380D01*
X119238095Y-65904761D01*
X119190476Y-65857142D01*
%TO.C,C24*%
X116607142Y-60357142D02*
X116559523Y-60404761D01*
X116416666Y-60452380D01*
X116321428Y-60452380D01*
X116178571Y-60404761D01*
X116083333Y-60309523D01*
X116035714Y-60214285D01*
X115988095Y-60023809D01*
X115988095Y-59880952D01*
X116035714Y-59690476D01*
X116083333Y-59595238D01*
X116178571Y-59500000D01*
X116321428Y-59452380D01*
X116416666Y-59452380D01*
X116559523Y-59500000D01*
X116607142Y-59547619D01*
X116988095Y-59547619D02*
X117035714Y-59500000D01*
X117130952Y-59452380D01*
X117369047Y-59452380D01*
X117464285Y-59500000D01*
X117511904Y-59547619D01*
X117559523Y-59642857D01*
X117559523Y-59738095D01*
X117511904Y-59880952D01*
X116940476Y-60452380D01*
X117559523Y-60452380D01*
X118416666Y-59785714D02*
X118416666Y-60452380D01*
X118178571Y-59404761D02*
X117940476Y-60119047D01*
X118559523Y-60119047D01*
%TO.C,C23*%
X96521840Y-77030723D02*
X96504411Y-77095772D01*
X96404502Y-77208440D01*
X96322024Y-77256059D01*
X96174496Y-77286248D01*
X96044398Y-77251388D01*
X95955540Y-77192719D01*
X95819063Y-77051572D01*
X95747634Y-76927854D01*
X95693635Y-76739087D01*
X95687256Y-76632799D01*
X95722115Y-76502701D01*
X95822024Y-76390033D01*
X95904502Y-76342414D01*
X96052030Y-76312225D01*
X96117078Y-76329655D01*
X96446993Y-76139178D02*
X96464423Y-76074130D01*
X96523092Y-75985271D01*
X96729288Y-75866224D01*
X96835576Y-75859844D01*
X96900625Y-75877274D01*
X96989484Y-75935943D01*
X97037103Y-76018421D01*
X97067292Y-76165949D01*
X96858134Y-76946535D01*
X97394245Y-76637011D01*
X97182921Y-75604319D02*
X97719032Y-75294795D01*
X97620833Y-75791376D01*
X97744551Y-75719948D01*
X97850839Y-75713568D01*
X97915887Y-75730998D01*
X98004746Y-75789667D01*
X98123793Y-75995863D01*
X98130173Y-76102151D01*
X98112743Y-76167200D01*
X98054074Y-76256059D01*
X97806639Y-76398916D01*
X97700350Y-76405295D01*
X97635302Y-76387866D01*
%TO.C,C22*%
X98357142Y-67357142D02*
X98309523Y-67404761D01*
X98166666Y-67452380D01*
X98071428Y-67452380D01*
X97928571Y-67404761D01*
X97833333Y-67309523D01*
X97785714Y-67214285D01*
X97738095Y-67023809D01*
X97738095Y-66880952D01*
X97785714Y-66690476D01*
X97833333Y-66595238D01*
X97928571Y-66500000D01*
X98071428Y-66452380D01*
X98166666Y-66452380D01*
X98309523Y-66500000D01*
X98357142Y-66547619D01*
X98738095Y-66547619D02*
X98785714Y-66500000D01*
X98880952Y-66452380D01*
X99119047Y-66452380D01*
X99214285Y-66500000D01*
X99261904Y-66547619D01*
X99309523Y-66642857D01*
X99309523Y-66738095D01*
X99261904Y-66880952D01*
X98690476Y-67452380D01*
X99309523Y-67452380D01*
X99690476Y-66547619D02*
X99738095Y-66500000D01*
X99833333Y-66452380D01*
X100071428Y-66452380D01*
X100166666Y-66500000D01*
X100214285Y-66547619D01*
X100261904Y-66642857D01*
X100261904Y-66738095D01*
X100214285Y-66880952D01*
X99642857Y-67452380D01*
X100261904Y-67452380D01*
%TO.C,C21*%
X120307142Y-58037142D02*
X120259523Y-58084761D01*
X120116666Y-58132380D01*
X120021428Y-58132380D01*
X119878571Y-58084761D01*
X119783333Y-57989523D01*
X119735714Y-57894285D01*
X119688095Y-57703809D01*
X119688095Y-57560952D01*
X119735714Y-57370476D01*
X119783333Y-57275238D01*
X119878571Y-57180000D01*
X120021428Y-57132380D01*
X120116666Y-57132380D01*
X120259523Y-57180000D01*
X120307142Y-57227619D01*
X120688095Y-57227619D02*
X120735714Y-57180000D01*
X120830952Y-57132380D01*
X121069047Y-57132380D01*
X121164285Y-57180000D01*
X121211904Y-57227619D01*
X121259523Y-57322857D01*
X121259523Y-57418095D01*
X121211904Y-57560952D01*
X120640476Y-58132380D01*
X121259523Y-58132380D01*
X122211904Y-58132380D02*
X121640476Y-58132380D01*
X121926190Y-58132380D02*
X121926190Y-57132380D01*
X121830952Y-57275238D01*
X121735714Y-57370476D01*
X121640476Y-57418095D01*
%TO.C,C19*%
X114357142Y-58037142D02*
X114309523Y-58084761D01*
X114166666Y-58132380D01*
X114071428Y-58132380D01*
X113928571Y-58084761D01*
X113833333Y-57989523D01*
X113785714Y-57894285D01*
X113738095Y-57703809D01*
X113738095Y-57560952D01*
X113785714Y-57370476D01*
X113833333Y-57275238D01*
X113928571Y-57180000D01*
X114071428Y-57132380D01*
X114166666Y-57132380D01*
X114309523Y-57180000D01*
X114357142Y-57227619D01*
X115309523Y-58132380D02*
X114738095Y-58132380D01*
X115023809Y-58132380D02*
X115023809Y-57132380D01*
X114928571Y-57275238D01*
X114833333Y-57370476D01*
X114738095Y-57418095D01*
X115785714Y-58132380D02*
X115976190Y-58132380D01*
X116071428Y-58084761D01*
X116119047Y-58037142D01*
X116214285Y-57894285D01*
X116261904Y-57703809D01*
X116261904Y-57322857D01*
X116214285Y-57227619D01*
X116166666Y-57180000D01*
X116071428Y-57132380D01*
X115880952Y-57132380D01*
X115785714Y-57180000D01*
X115738095Y-57227619D01*
X115690476Y-57322857D01*
X115690476Y-57560952D01*
X115738095Y-57656190D01*
X115785714Y-57703809D01*
X115880952Y-57751428D01*
X116071428Y-57751428D01*
X116166666Y-57703809D01*
X116214285Y-57656190D01*
X116261904Y-57560952D01*
%TO.C,C18*%
X109107142Y-84357142D02*
X109059523Y-84404761D01*
X108916666Y-84452380D01*
X108821428Y-84452380D01*
X108678571Y-84404761D01*
X108583333Y-84309523D01*
X108535714Y-84214285D01*
X108488095Y-84023809D01*
X108488095Y-83880952D01*
X108535714Y-83690476D01*
X108583333Y-83595238D01*
X108678571Y-83500000D01*
X108821428Y-83452380D01*
X108916666Y-83452380D01*
X109059523Y-83500000D01*
X109107142Y-83547619D01*
X110059523Y-84452380D02*
X109488095Y-84452380D01*
X109773809Y-84452380D02*
X109773809Y-83452380D01*
X109678571Y-83595238D01*
X109583333Y-83690476D01*
X109488095Y-83738095D01*
X110630952Y-83880952D02*
X110535714Y-83833333D01*
X110488095Y-83785714D01*
X110440476Y-83690476D01*
X110440476Y-83642857D01*
X110488095Y-83547619D01*
X110535714Y-83500000D01*
X110630952Y-83452380D01*
X110821428Y-83452380D01*
X110916666Y-83500000D01*
X110964285Y-83547619D01*
X111011904Y-83642857D01*
X111011904Y-83690476D01*
X110964285Y-83785714D01*
X110916666Y-83833333D01*
X110821428Y-83880952D01*
X110630952Y-83880952D01*
X110535714Y-83928571D01*
X110488095Y-83976190D01*
X110440476Y-84071428D01*
X110440476Y-84261904D01*
X110488095Y-84357142D01*
X110535714Y-84404761D01*
X110630952Y-84452380D01*
X110821428Y-84452380D01*
X110916666Y-84404761D01*
X110964285Y-84357142D01*
X111011904Y-84261904D01*
X111011904Y-84071428D01*
X110964285Y-83976190D01*
X110916666Y-83928571D01*
X110821428Y-83880952D01*
%TO.C,C15*%
X109107142Y-86607142D02*
X109059523Y-86654761D01*
X108916666Y-86702380D01*
X108821428Y-86702380D01*
X108678571Y-86654761D01*
X108583333Y-86559523D01*
X108535714Y-86464285D01*
X108488095Y-86273809D01*
X108488095Y-86130952D01*
X108535714Y-85940476D01*
X108583333Y-85845238D01*
X108678571Y-85750000D01*
X108821428Y-85702380D01*
X108916666Y-85702380D01*
X109059523Y-85750000D01*
X109107142Y-85797619D01*
X110059523Y-86702380D02*
X109488095Y-86702380D01*
X109773809Y-86702380D02*
X109773809Y-85702380D01*
X109678571Y-85845238D01*
X109583333Y-85940476D01*
X109488095Y-85988095D01*
X110964285Y-85702380D02*
X110488095Y-85702380D01*
X110440476Y-86178571D01*
X110488095Y-86130952D01*
X110583333Y-86083333D01*
X110821428Y-86083333D01*
X110916666Y-86130952D01*
X110964285Y-86178571D01*
X111011904Y-86273809D01*
X111011904Y-86511904D01*
X110964285Y-86607142D01*
X110916666Y-86654761D01*
X110821428Y-86702380D01*
X110583333Y-86702380D01*
X110488095Y-86654761D01*
X110440476Y-86607142D01*
%TO.C,C14*%
X108307142Y-58107142D02*
X108259523Y-58154761D01*
X108116666Y-58202380D01*
X108021428Y-58202380D01*
X107878571Y-58154761D01*
X107783333Y-58059523D01*
X107735714Y-57964285D01*
X107688095Y-57773809D01*
X107688095Y-57630952D01*
X107735714Y-57440476D01*
X107783333Y-57345238D01*
X107878571Y-57250000D01*
X108021428Y-57202380D01*
X108116666Y-57202380D01*
X108259523Y-57250000D01*
X108307142Y-57297619D01*
X109259523Y-58202380D02*
X108688095Y-58202380D01*
X108973809Y-58202380D02*
X108973809Y-57202380D01*
X108878571Y-57345238D01*
X108783333Y-57440476D01*
X108688095Y-57488095D01*
X110116666Y-57535714D02*
X110116666Y-58202380D01*
X109878571Y-57154761D02*
X109640476Y-57869047D01*
X110259523Y-57869047D01*
%TO.C,C11*%
X105357142Y-58107142D02*
X105309523Y-58154761D01*
X105166666Y-58202380D01*
X105071428Y-58202380D01*
X104928571Y-58154761D01*
X104833333Y-58059523D01*
X104785714Y-57964285D01*
X104738095Y-57773809D01*
X104738095Y-57630952D01*
X104785714Y-57440476D01*
X104833333Y-57345238D01*
X104928571Y-57250000D01*
X105071428Y-57202380D01*
X105166666Y-57202380D01*
X105309523Y-57250000D01*
X105357142Y-57297619D01*
X106309523Y-58202380D02*
X105738095Y-58202380D01*
X106023809Y-58202380D02*
X106023809Y-57202380D01*
X105928571Y-57345238D01*
X105833333Y-57440476D01*
X105738095Y-57488095D01*
X107261904Y-58202380D02*
X106690476Y-58202380D01*
X106976190Y-58202380D02*
X106976190Y-57202380D01*
X106880952Y-57345238D01*
X106785714Y-57440476D01*
X106690476Y-57488095D01*
%TO.C,C10*%
X118607142Y-76892857D02*
X118654761Y-76940476D01*
X118702380Y-77083333D01*
X118702380Y-77178571D01*
X118654761Y-77321428D01*
X118559523Y-77416666D01*
X118464285Y-77464285D01*
X118273809Y-77511904D01*
X118130952Y-77511904D01*
X117940476Y-77464285D01*
X117845238Y-77416666D01*
X117750000Y-77321428D01*
X117702380Y-77178571D01*
X117702380Y-77083333D01*
X117750000Y-76940476D01*
X117797619Y-76892857D01*
X118702380Y-75940476D02*
X118702380Y-76511904D01*
X118702380Y-76226190D02*
X117702380Y-76226190D01*
X117845238Y-76321428D01*
X117940476Y-76416666D01*
X117988095Y-76511904D01*
X117702380Y-75321428D02*
X117702380Y-75226190D01*
X117750000Y-75130952D01*
X117797619Y-75083333D01*
X117892857Y-75035714D01*
X118083333Y-74988095D01*
X118321428Y-74988095D01*
X118511904Y-75035714D01*
X118607142Y-75083333D01*
X118654761Y-75130952D01*
X118702380Y-75226190D01*
X118702380Y-75321428D01*
X118654761Y-75416666D01*
X118607142Y-75464285D01*
X118511904Y-75511904D01*
X118321428Y-75559523D01*
X118083333Y-75559523D01*
X117892857Y-75511904D01*
X117797619Y-75464285D01*
X117750000Y-75416666D01*
X117702380Y-75321428D01*
%TO.C,C8*%
X99833333Y-54607142D02*
X99785714Y-54654761D01*
X99642857Y-54702380D01*
X99547619Y-54702380D01*
X99404761Y-54654761D01*
X99309523Y-54559523D01*
X99261904Y-54464285D01*
X99214285Y-54273809D01*
X99214285Y-54130952D01*
X99261904Y-53940476D01*
X99309523Y-53845238D01*
X99404761Y-53750000D01*
X99547619Y-53702380D01*
X99642857Y-53702380D01*
X99785714Y-53750000D01*
X99833333Y-53797619D01*
X100404761Y-54130952D02*
X100309523Y-54083333D01*
X100261904Y-54035714D01*
X100214285Y-53940476D01*
X100214285Y-53892857D01*
X100261904Y-53797619D01*
X100309523Y-53750000D01*
X100404761Y-53702380D01*
X100595238Y-53702380D01*
X100690476Y-53750000D01*
X100738095Y-53797619D01*
X100785714Y-53892857D01*
X100785714Y-53940476D01*
X100738095Y-54035714D01*
X100690476Y-54083333D01*
X100595238Y-54130952D01*
X100404761Y-54130952D01*
X100309523Y-54178571D01*
X100261904Y-54226190D01*
X100214285Y-54321428D01*
X100214285Y-54511904D01*
X100261904Y-54607142D01*
X100309523Y-54654761D01*
X100404761Y-54702380D01*
X100595238Y-54702380D01*
X100690476Y-54654761D01*
X100738095Y-54607142D01*
X100785714Y-54511904D01*
X100785714Y-54321428D01*
X100738095Y-54226190D01*
X100690476Y-54178571D01*
X100595238Y-54130952D01*
%TO.C,C7*%
X100333333Y-83357142D02*
X100285714Y-83404761D01*
X100142857Y-83452380D01*
X100047619Y-83452380D01*
X99904761Y-83404761D01*
X99809523Y-83309523D01*
X99761904Y-83214285D01*
X99714285Y-83023809D01*
X99714285Y-82880952D01*
X99761904Y-82690476D01*
X99809523Y-82595238D01*
X99904761Y-82500000D01*
X100047619Y-82452380D01*
X100142857Y-82452380D01*
X100285714Y-82500000D01*
X100333333Y-82547619D01*
X100666666Y-82452380D02*
X101333333Y-82452380D01*
X100904761Y-83452380D01*
%TO.C,C5*%
X93833333Y-58107142D02*
X93785714Y-58154761D01*
X93642857Y-58202380D01*
X93547619Y-58202380D01*
X93404761Y-58154761D01*
X93309523Y-58059523D01*
X93261904Y-57964285D01*
X93214285Y-57773809D01*
X93214285Y-57630952D01*
X93261904Y-57440476D01*
X93309523Y-57345238D01*
X93404761Y-57250000D01*
X93547619Y-57202380D01*
X93642857Y-57202380D01*
X93785714Y-57250000D01*
X93833333Y-57297619D01*
X94738095Y-57202380D02*
X94261904Y-57202380D01*
X94214285Y-57678571D01*
X94261904Y-57630952D01*
X94357142Y-57583333D01*
X94595238Y-57583333D01*
X94690476Y-57630952D01*
X94738095Y-57678571D01*
X94785714Y-57773809D01*
X94785714Y-58011904D01*
X94738095Y-58107142D01*
X94690476Y-58154761D01*
X94595238Y-58202380D01*
X94357142Y-58202380D01*
X94261904Y-58154761D01*
X94214285Y-58107142D01*
%TO.C,C3*%
X120583333Y-70107142D02*
X120535714Y-70154761D01*
X120392857Y-70202380D01*
X120297619Y-70202380D01*
X120154761Y-70154761D01*
X120059523Y-70059523D01*
X120011904Y-69964285D01*
X119964285Y-69773809D01*
X119964285Y-69630952D01*
X120011904Y-69440476D01*
X120059523Y-69345238D01*
X120154761Y-69250000D01*
X120297619Y-69202380D01*
X120392857Y-69202380D01*
X120535714Y-69250000D01*
X120583333Y-69297619D01*
X120916666Y-69202380D02*
X121535714Y-69202380D01*
X121202380Y-69583333D01*
X121345238Y-69583333D01*
X121440476Y-69630952D01*
X121488095Y-69678571D01*
X121535714Y-69773809D01*
X121535714Y-70011904D01*
X121488095Y-70107142D01*
X121440476Y-70154761D01*
X121345238Y-70202380D01*
X121059523Y-70202380D01*
X120964285Y-70154761D01*
X120916666Y-70107142D01*
%TO.C,C1*%
X83083333Y-95107142D02*
X83035714Y-95154761D01*
X82892857Y-95202380D01*
X82797619Y-95202380D01*
X82654761Y-95154761D01*
X82559523Y-95059523D01*
X82511904Y-94964285D01*
X82464285Y-94773809D01*
X82464285Y-94630952D01*
X82511904Y-94440476D01*
X82559523Y-94345238D01*
X82654761Y-94250000D01*
X82797619Y-94202380D01*
X82892857Y-94202380D01*
X83035714Y-94250000D01*
X83083333Y-94297619D01*
X84035714Y-95202380D02*
X83464285Y-95202380D01*
X83750000Y-95202380D02*
X83750000Y-94202380D01*
X83654761Y-94345238D01*
X83559523Y-94440476D01*
X83464285Y-94488095D01*
%TD*%
M02*
