%TF.GenerationSoftware,KiCad,Pcbnew,5.1.8*%
%TF.CreationDate,2020-12-19T17:09:28+01:00*%
%TF.ProjectId,GNI-plutoclocker,474e492d-706c-4757-946f-636c6f636b65,rev?*%
%TF.SameCoordinates,Original*%
%TF.FileFunction,Copper,L1,Top*%
%TF.FilePolarity,Positive*%
%FSLAX46Y46*%
G04 Gerber Fmt 4.6, Leading zero omitted, Abs format (unit mm)*
G04 Created by KiCad (PCBNEW 5.1.8) date 2020-12-19 17:09:28*
%MOMM*%
%LPD*%
G01*
G04 APERTURE LIST*
%TA.AperFunction,ComponentPad*%
%ADD10R,1.700000X1.700000*%
%TD*%
%TA.AperFunction,ComponentPad*%
%ADD11O,1.700000X1.700000*%
%TD*%
%TA.AperFunction,SMDPad,CuDef*%
%ADD12R,3.000000X4.000000*%
%TD*%
%TA.AperFunction,ComponentPad*%
%ADD13C,1.400000*%
%TD*%
%TA.AperFunction,SMDPad,CuDef*%
%ADD14R,3.600000X1.270000*%
%TD*%
%TA.AperFunction,SMDPad,CuDef*%
%ADD15R,4.200000X1.350000*%
%TD*%
%TA.AperFunction,SMDPad,CuDef*%
%ADD16R,2.500000X1.800000*%
%TD*%
%TA.AperFunction,ComponentPad*%
%ADD17C,1.600000*%
%TD*%
%TA.AperFunction,ComponentPad*%
%ADD18R,1.600000X1.600000*%
%TD*%
%TA.AperFunction,ViaPad*%
%ADD19C,5.000000*%
%TD*%
%TA.AperFunction,ViaPad*%
%ADD20C,0.800000*%
%TD*%
%TA.AperFunction,Conductor*%
%ADD21C,0.250000*%
%TD*%
%TA.AperFunction,Conductor*%
%ADD22C,0.660000*%
%TD*%
%TA.AperFunction,Conductor*%
%ADD23C,0.254000*%
%TD*%
%TA.AperFunction,Conductor*%
%ADD24C,0.100000*%
%TD*%
G04 APERTURE END LIST*
%TO.P,C12,2*%
%TO.N,GND*%
%TA.AperFunction,SMDPad,CuDef*%
G36*
G01*
X103225000Y-87800000D02*
X102275000Y-87800000D01*
G75*
G02*
X102025000Y-87550000I0J250000D01*
G01*
X102025000Y-87050000D01*
G75*
G02*
X102275000Y-86800000I250000J0D01*
G01*
X103225000Y-86800000D01*
G75*
G02*
X103475000Y-87050000I0J-250000D01*
G01*
X103475000Y-87550000D01*
G75*
G02*
X103225000Y-87800000I-250000J0D01*
G01*
G37*
%TD.AperFunction*%
%TO.P,C12,1*%
%TO.N,Net-(C12-Pad1)*%
%TA.AperFunction,SMDPad,CuDef*%
G36*
G01*
X103225000Y-89700000D02*
X102275000Y-89700000D01*
G75*
G02*
X102025000Y-89450000I0J250000D01*
G01*
X102025000Y-88950000D01*
G75*
G02*
X102275000Y-88700000I250000J0D01*
G01*
X103225000Y-88700000D01*
G75*
G02*
X103475000Y-88950000I0J-250000D01*
G01*
X103475000Y-89450000D01*
G75*
G02*
X103225000Y-89700000I-250000J0D01*
G01*
G37*
%TD.AperFunction*%
%TD*%
%TO.P,L9,2*%
%TO.N,+5V*%
%TA.AperFunction,SMDPad,CuDef*%
G36*
G01*
X99050000Y-88799999D02*
X99050000Y-89700001D01*
G75*
G02*
X98800001Y-89950000I-249999J0D01*
G01*
X98149999Y-89950000D01*
G75*
G02*
X97900000Y-89700001I0J249999D01*
G01*
X97900000Y-88799999D01*
G75*
G02*
X98149999Y-88550000I249999J0D01*
G01*
X98800001Y-88550000D01*
G75*
G02*
X99050000Y-88799999I0J-249999D01*
G01*
G37*
%TD.AperFunction*%
%TO.P,L9,1*%
%TO.N,Net-(C12-Pad1)*%
%TA.AperFunction,SMDPad,CuDef*%
G36*
G01*
X101100000Y-88799999D02*
X101100000Y-89700001D01*
G75*
G02*
X100850001Y-89950000I-249999J0D01*
G01*
X100199999Y-89950000D01*
G75*
G02*
X99950000Y-89700001I0J249999D01*
G01*
X99950000Y-88799999D01*
G75*
G02*
X100199999Y-88550000I249999J0D01*
G01*
X100850001Y-88550000D01*
G75*
G02*
X101100000Y-88799999I0J-249999D01*
G01*
G37*
%TD.AperFunction*%
%TD*%
%TO.P,C17,2*%
%TO.N,GND*%
%TA.AperFunction,SMDPad,CuDef*%
G36*
G01*
X120250000Y-79025000D02*
X120250000Y-79975000D01*
G75*
G02*
X120000000Y-80225000I-250000J0D01*
G01*
X119500000Y-80225000D01*
G75*
G02*
X119250000Y-79975000I0J250000D01*
G01*
X119250000Y-79025000D01*
G75*
G02*
X119500000Y-78775000I250000J0D01*
G01*
X120000000Y-78775000D01*
G75*
G02*
X120250000Y-79025000I0J-250000D01*
G01*
G37*
%TD.AperFunction*%
%TO.P,C17,1*%
%TO.N,+1V8*%
%TA.AperFunction,SMDPad,CuDef*%
G36*
G01*
X122150000Y-79025000D02*
X122150000Y-79975000D01*
G75*
G02*
X121900000Y-80225000I-250000J0D01*
G01*
X121400000Y-80225000D01*
G75*
G02*
X121150000Y-79975000I0J250000D01*
G01*
X121150000Y-79025000D01*
G75*
G02*
X121400000Y-78775000I250000J0D01*
G01*
X121900000Y-78775000D01*
G75*
G02*
X122150000Y-79025000I0J-250000D01*
G01*
G37*
%TD.AperFunction*%
%TD*%
%TO.P,C4,2*%
%TO.N,Net-(C4-Pad2)*%
%TA.AperFunction,SMDPad,CuDef*%
G36*
G01*
X108050000Y-92275000D02*
X108050000Y-93225000D01*
G75*
G02*
X107800000Y-93475000I-250000J0D01*
G01*
X107300000Y-93475000D01*
G75*
G02*
X107050000Y-93225000I0J250000D01*
G01*
X107050000Y-92275000D01*
G75*
G02*
X107300000Y-92025000I250000J0D01*
G01*
X107800000Y-92025000D01*
G75*
G02*
X108050000Y-92275000I0J-250000D01*
G01*
G37*
%TD.AperFunction*%
%TO.P,C4,1*%
%TO.N,Net-(C4-Pad1)*%
%TA.AperFunction,SMDPad,CuDef*%
G36*
G01*
X109950000Y-92275000D02*
X109950000Y-93225000D01*
G75*
G02*
X109700000Y-93475000I-250000J0D01*
G01*
X109200000Y-93475000D01*
G75*
G02*
X108950000Y-93225000I0J250000D01*
G01*
X108950000Y-92275000D01*
G75*
G02*
X109200000Y-92025000I250000J0D01*
G01*
X109700000Y-92025000D01*
G75*
G02*
X109950000Y-92275000I0J-250000D01*
G01*
G37*
%TD.AperFunction*%
%TD*%
%TO.P,C9,2*%
%TO.N,GND*%
%TA.AperFunction,SMDPad,CuDef*%
G36*
G01*
X115100000Y-77025000D02*
X115100000Y-77975000D01*
G75*
G02*
X114850000Y-78225000I-250000J0D01*
G01*
X114350000Y-78225000D01*
G75*
G02*
X114100000Y-77975000I0J250000D01*
G01*
X114100000Y-77025000D01*
G75*
G02*
X114350000Y-76775000I250000J0D01*
G01*
X114850000Y-76775000D01*
G75*
G02*
X115100000Y-77025000I0J-250000D01*
G01*
G37*
%TD.AperFunction*%
%TO.P,C9,1*%
%TO.N,+3V3*%
%TA.AperFunction,SMDPad,CuDef*%
G36*
G01*
X117000000Y-77025000D02*
X117000000Y-77975000D01*
G75*
G02*
X116750000Y-78225000I-250000J0D01*
G01*
X116250000Y-78225000D01*
G75*
G02*
X116000000Y-77975000I0J250000D01*
G01*
X116000000Y-77025000D01*
G75*
G02*
X116250000Y-76775000I250000J0D01*
G01*
X116750000Y-76775000D01*
G75*
G02*
X117000000Y-77025000I0J-250000D01*
G01*
G37*
%TD.AperFunction*%
%TD*%
%TO.P,C16,2*%
%TO.N,GND*%
%TA.AperFunction,SMDPad,CuDef*%
G36*
G01*
X115100000Y-79025000D02*
X115100000Y-79975000D01*
G75*
G02*
X114850000Y-80225000I-250000J0D01*
G01*
X114350000Y-80225000D01*
G75*
G02*
X114100000Y-79975000I0J250000D01*
G01*
X114100000Y-79025000D01*
G75*
G02*
X114350000Y-78775000I250000J0D01*
G01*
X114850000Y-78775000D01*
G75*
G02*
X115100000Y-79025000I0J-250000D01*
G01*
G37*
%TD.AperFunction*%
%TO.P,C16,1*%
%TO.N,+3V3*%
%TA.AperFunction,SMDPad,CuDef*%
G36*
G01*
X117000000Y-79025000D02*
X117000000Y-79975000D01*
G75*
G02*
X116750000Y-80225000I-250000J0D01*
G01*
X116250000Y-80225000D01*
G75*
G02*
X116000000Y-79975000I0J250000D01*
G01*
X116000000Y-79025000D01*
G75*
G02*
X116250000Y-78775000I250000J0D01*
G01*
X116750000Y-78775000D01*
G75*
G02*
X117000000Y-79025000I0J-250000D01*
G01*
G37*
%TD.AperFunction*%
%TD*%
%TO.P,U1,5*%
%TO.N,+3V3*%
%TA.AperFunction,SMDPad,CuDef*%
G36*
G01*
X116400000Y-74862500D02*
X116700000Y-74862500D01*
G75*
G02*
X116850000Y-75012500I0J-150000D01*
G01*
X116850000Y-76037500D01*
G75*
G02*
X116700000Y-76187500I-150000J0D01*
G01*
X116400000Y-76187500D01*
G75*
G02*
X116250000Y-76037500I0J150000D01*
G01*
X116250000Y-75012500D01*
G75*
G02*
X116400000Y-74862500I150000J0D01*
G01*
G37*
%TD.AperFunction*%
%TO.P,U1,4*%
%TO.N,N/C*%
%TA.AperFunction,SMDPad,CuDef*%
G36*
G01*
X114500000Y-74862500D02*
X114800000Y-74862500D01*
G75*
G02*
X114950000Y-75012500I0J-150000D01*
G01*
X114950000Y-76037500D01*
G75*
G02*
X114800000Y-76187500I-150000J0D01*
G01*
X114500000Y-76187500D01*
G75*
G02*
X114350000Y-76037500I0J150000D01*
G01*
X114350000Y-75012500D01*
G75*
G02*
X114500000Y-74862500I150000J0D01*
G01*
G37*
%TD.AperFunction*%
%TO.P,U1,3*%
%TO.N,Net-(C12-Pad1)*%
%TA.AperFunction,SMDPad,CuDef*%
G36*
G01*
X114500000Y-72587500D02*
X114800000Y-72587500D01*
G75*
G02*
X114950000Y-72737500I0J-150000D01*
G01*
X114950000Y-73762500D01*
G75*
G02*
X114800000Y-73912500I-150000J0D01*
G01*
X114500000Y-73912500D01*
G75*
G02*
X114350000Y-73762500I0J150000D01*
G01*
X114350000Y-72737500D01*
G75*
G02*
X114500000Y-72587500I150000J0D01*
G01*
G37*
%TD.AperFunction*%
%TO.P,U1,2*%
%TO.N,GND*%
%TA.AperFunction,SMDPad,CuDef*%
G36*
G01*
X115450000Y-72587500D02*
X115750000Y-72587500D01*
G75*
G02*
X115900000Y-72737500I0J-150000D01*
G01*
X115900000Y-73762500D01*
G75*
G02*
X115750000Y-73912500I-150000J0D01*
G01*
X115450000Y-73912500D01*
G75*
G02*
X115300000Y-73762500I0J150000D01*
G01*
X115300000Y-72737500D01*
G75*
G02*
X115450000Y-72587500I150000J0D01*
G01*
G37*
%TD.AperFunction*%
%TO.P,U1,1*%
%TO.N,Net-(C12-Pad1)*%
%TA.AperFunction,SMDPad,CuDef*%
G36*
G01*
X116400000Y-72587500D02*
X116700000Y-72587500D01*
G75*
G02*
X116850000Y-72737500I0J-150000D01*
G01*
X116850000Y-73762500D01*
G75*
G02*
X116700000Y-73912500I-150000J0D01*
G01*
X116400000Y-73912500D01*
G75*
G02*
X116250000Y-73762500I0J150000D01*
G01*
X116250000Y-72737500D01*
G75*
G02*
X116400000Y-72587500I150000J0D01*
G01*
G37*
%TD.AperFunction*%
%TD*%
%TO.P,C2,2*%
%TO.N,GND*%
%TA.AperFunction,SMDPad,CuDef*%
G36*
G01*
X115100000Y-70775000D02*
X115100000Y-71725000D01*
G75*
G02*
X114850000Y-71975000I-250000J0D01*
G01*
X114350000Y-71975000D01*
G75*
G02*
X114100000Y-71725000I0J250000D01*
G01*
X114100000Y-70775000D01*
G75*
G02*
X114350000Y-70525000I250000J0D01*
G01*
X114850000Y-70525000D01*
G75*
G02*
X115100000Y-70775000I0J-250000D01*
G01*
G37*
%TD.AperFunction*%
%TO.P,C2,1*%
%TO.N,Net-(C12-Pad1)*%
%TA.AperFunction,SMDPad,CuDef*%
G36*
G01*
X117000000Y-70775000D02*
X117000000Y-71725000D01*
G75*
G02*
X116750000Y-71975000I-250000J0D01*
G01*
X116250000Y-71975000D01*
G75*
G02*
X116000000Y-71725000I0J250000D01*
G01*
X116000000Y-70775000D01*
G75*
G02*
X116250000Y-70525000I250000J0D01*
G01*
X116750000Y-70525000D01*
G75*
G02*
X117000000Y-70775000I0J-250000D01*
G01*
G37*
%TD.AperFunction*%
%TD*%
D10*
%TO.P,TP1,1*%
%TO.N,Net-(TP1-Pad1)*%
X128250000Y-86000000D03*
%TD*%
%TO.P,R15,2*%
%TO.N,GND*%
%TA.AperFunction,SMDPad,CuDef*%
G36*
G01*
X125400000Y-84950002D02*
X125400000Y-84049998D01*
G75*
G02*
X125649998Y-83800000I249998J0D01*
G01*
X126175002Y-83800000D01*
G75*
G02*
X126425000Y-84049998I0J-249998D01*
G01*
X126425000Y-84950002D01*
G75*
G02*
X126175002Y-85200000I-249998J0D01*
G01*
X125649998Y-85200000D01*
G75*
G02*
X125400000Y-84950002I0J249998D01*
G01*
G37*
%TD.AperFunction*%
%TO.P,R15,1*%
%TO.N,Net-(C29-Pad1)*%
%TA.AperFunction,SMDPad,CuDef*%
G36*
G01*
X123575000Y-84950002D02*
X123575000Y-84049998D01*
G75*
G02*
X123824998Y-83800000I249998J0D01*
G01*
X124350002Y-83800000D01*
G75*
G02*
X124600000Y-84049998I0J-249998D01*
G01*
X124600000Y-84950002D01*
G75*
G02*
X124350002Y-85200000I-249998J0D01*
G01*
X123824998Y-85200000D01*
G75*
G02*
X123575000Y-84950002I0J249998D01*
G01*
G37*
%TD.AperFunction*%
%TD*%
%TO.P,C6,2*%
%TO.N,GND*%
%TA.AperFunction,SMDPad,CuDef*%
G36*
G01*
X98250000Y-86025000D02*
X98250000Y-85075000D01*
G75*
G02*
X98500000Y-84825000I250000J0D01*
G01*
X99000000Y-84825000D01*
G75*
G02*
X99250000Y-85075000I0J-250000D01*
G01*
X99250000Y-86025000D01*
G75*
G02*
X99000000Y-86275000I-250000J0D01*
G01*
X98500000Y-86275000D01*
G75*
G02*
X98250000Y-86025000I0J250000D01*
G01*
G37*
%TD.AperFunction*%
%TO.P,C6,1*%
%TO.N,+5V*%
%TA.AperFunction,SMDPad,CuDef*%
G36*
G01*
X96350000Y-86025000D02*
X96350000Y-85075000D01*
G75*
G02*
X96600000Y-84825000I250000J0D01*
G01*
X97100000Y-84825000D01*
G75*
G02*
X97350000Y-85075000I0J-250000D01*
G01*
X97350000Y-86025000D01*
G75*
G02*
X97100000Y-86275000I-250000J0D01*
G01*
X96600000Y-86275000D01*
G75*
G02*
X96350000Y-86025000I0J250000D01*
G01*
G37*
%TD.AperFunction*%
%TD*%
%TO.P,U4,14*%
%TO.N,N/C*%
%TA.AperFunction,SMDPad,CuDef*%
G36*
G01*
X121100000Y-89375000D02*
X121300000Y-89375000D01*
G75*
G02*
X121400000Y-89475000I0J-100000D01*
G01*
X121400000Y-90750000D01*
G75*
G02*
X121300000Y-90850000I-100000J0D01*
G01*
X121100000Y-90850000D01*
G75*
G02*
X121000000Y-90750000I0J100000D01*
G01*
X121000000Y-89475000D01*
G75*
G02*
X121100000Y-89375000I100000J0D01*
G01*
G37*
%TD.AperFunction*%
%TO.P,U4,13*%
%TO.N,Net-(J7-Pad1)*%
%TA.AperFunction,SMDPad,CuDef*%
G36*
G01*
X120450000Y-89375000D02*
X120650000Y-89375000D01*
G75*
G02*
X120750000Y-89475000I0J-100000D01*
G01*
X120750000Y-90750000D01*
G75*
G02*
X120650000Y-90850000I-100000J0D01*
G01*
X120450000Y-90850000D01*
G75*
G02*
X120350000Y-90750000I0J100000D01*
G01*
X120350000Y-89475000D01*
G75*
G02*
X120450000Y-89375000I100000J0D01*
G01*
G37*
%TD.AperFunction*%
%TO.P,U4,12*%
%TO.N,Net-(J7-Pad2)*%
%TA.AperFunction,SMDPad,CuDef*%
G36*
G01*
X119800000Y-89375000D02*
X120000000Y-89375000D01*
G75*
G02*
X120100000Y-89475000I0J-100000D01*
G01*
X120100000Y-90750000D01*
G75*
G02*
X120000000Y-90850000I-100000J0D01*
G01*
X119800000Y-90850000D01*
G75*
G02*
X119700000Y-90750000I0J100000D01*
G01*
X119700000Y-89475000D01*
G75*
G02*
X119800000Y-89375000I100000J0D01*
G01*
G37*
%TD.AperFunction*%
%TO.P,U4,11*%
%TO.N,Net-(R11-Pad1)*%
%TA.AperFunction,SMDPad,CuDef*%
G36*
G01*
X119150000Y-89375000D02*
X119350000Y-89375000D01*
G75*
G02*
X119450000Y-89475000I0J-100000D01*
G01*
X119450000Y-90750000D01*
G75*
G02*
X119350000Y-90850000I-100000J0D01*
G01*
X119150000Y-90850000D01*
G75*
G02*
X119050000Y-90750000I0J100000D01*
G01*
X119050000Y-89475000D01*
G75*
G02*
X119150000Y-89375000I100000J0D01*
G01*
G37*
%TD.AperFunction*%
%TO.P,U4,10*%
%TO.N,GND*%
%TA.AperFunction,SMDPad,CuDef*%
G36*
G01*
X118500000Y-89375000D02*
X118700000Y-89375000D01*
G75*
G02*
X118800000Y-89475000I0J-100000D01*
G01*
X118800000Y-90750000D01*
G75*
G02*
X118700000Y-90850000I-100000J0D01*
G01*
X118500000Y-90850000D01*
G75*
G02*
X118400000Y-90750000I0J100000D01*
G01*
X118400000Y-89475000D01*
G75*
G02*
X118500000Y-89375000I100000J0D01*
G01*
G37*
%TD.AperFunction*%
%TO.P,U4,9*%
%TO.N,Net-(R12-Pad1)*%
%TA.AperFunction,SMDPad,CuDef*%
G36*
G01*
X117850000Y-89375000D02*
X118050000Y-89375000D01*
G75*
G02*
X118150000Y-89475000I0J-100000D01*
G01*
X118150000Y-90750000D01*
G75*
G02*
X118050000Y-90850000I-100000J0D01*
G01*
X117850000Y-90850000D01*
G75*
G02*
X117750000Y-90750000I0J100000D01*
G01*
X117750000Y-89475000D01*
G75*
G02*
X117850000Y-89375000I100000J0D01*
G01*
G37*
%TD.AperFunction*%
%TO.P,U4,8*%
%TO.N,Net-(R13-Pad1)*%
%TA.AperFunction,SMDPad,CuDef*%
G36*
G01*
X117200000Y-89375000D02*
X117400000Y-89375000D01*
G75*
G02*
X117500000Y-89475000I0J-100000D01*
G01*
X117500000Y-90750000D01*
G75*
G02*
X117400000Y-90850000I-100000J0D01*
G01*
X117200000Y-90850000D01*
G75*
G02*
X117100000Y-90750000I0J100000D01*
G01*
X117100000Y-89475000D01*
G75*
G02*
X117200000Y-89375000I100000J0D01*
G01*
G37*
%TD.AperFunction*%
%TO.P,U4,7*%
%TO.N,+3V3*%
%TA.AperFunction,SMDPad,CuDef*%
G36*
G01*
X117200000Y-83650000D02*
X117400000Y-83650000D01*
G75*
G02*
X117500000Y-83750000I0J-100000D01*
G01*
X117500000Y-85025000D01*
G75*
G02*
X117400000Y-85125000I-100000J0D01*
G01*
X117200000Y-85125000D01*
G75*
G02*
X117100000Y-85025000I0J100000D01*
G01*
X117100000Y-83750000D01*
G75*
G02*
X117200000Y-83650000I100000J0D01*
G01*
G37*
%TD.AperFunction*%
%TO.P,U4,6*%
%TA.AperFunction,SMDPad,CuDef*%
G36*
G01*
X117850000Y-83650000D02*
X118050000Y-83650000D01*
G75*
G02*
X118150000Y-83750000I0J-100000D01*
G01*
X118150000Y-85025000D01*
G75*
G02*
X118050000Y-85125000I-100000J0D01*
G01*
X117850000Y-85125000D01*
G75*
G02*
X117750000Y-85025000I0J100000D01*
G01*
X117750000Y-83750000D01*
G75*
G02*
X117850000Y-83650000I100000J0D01*
G01*
G37*
%TD.AperFunction*%
%TO.P,U4,5*%
%TO.N,GND*%
%TA.AperFunction,SMDPad,CuDef*%
G36*
G01*
X118500000Y-83650000D02*
X118700000Y-83650000D01*
G75*
G02*
X118800000Y-83750000I0J-100000D01*
G01*
X118800000Y-85025000D01*
G75*
G02*
X118700000Y-85125000I-100000J0D01*
G01*
X118500000Y-85125000D01*
G75*
G02*
X118400000Y-85025000I0J100000D01*
G01*
X118400000Y-83750000D01*
G75*
G02*
X118500000Y-83650000I100000J0D01*
G01*
G37*
%TD.AperFunction*%
%TO.P,U4,4*%
%TO.N,N/C*%
%TA.AperFunction,SMDPad,CuDef*%
G36*
G01*
X119150000Y-83650000D02*
X119350000Y-83650000D01*
G75*
G02*
X119450000Y-83750000I0J-100000D01*
G01*
X119450000Y-85025000D01*
G75*
G02*
X119350000Y-85125000I-100000J0D01*
G01*
X119150000Y-85125000D01*
G75*
G02*
X119050000Y-85025000I0J100000D01*
G01*
X119050000Y-83750000D01*
G75*
G02*
X119150000Y-83650000I100000J0D01*
G01*
G37*
%TD.AperFunction*%
%TO.P,U4,3*%
%TO.N,+1V8*%
%TA.AperFunction,SMDPad,CuDef*%
G36*
G01*
X119800000Y-83650000D02*
X120000000Y-83650000D01*
G75*
G02*
X120100000Y-83750000I0J-100000D01*
G01*
X120100000Y-85025000D01*
G75*
G02*
X120000000Y-85125000I-100000J0D01*
G01*
X119800000Y-85125000D01*
G75*
G02*
X119700000Y-85025000I0J100000D01*
G01*
X119700000Y-83750000D01*
G75*
G02*
X119800000Y-83650000I100000J0D01*
G01*
G37*
%TD.AperFunction*%
%TO.P,U4,2*%
%TO.N,Net-(TP1-Pad1)*%
%TA.AperFunction,SMDPad,CuDef*%
G36*
G01*
X120450000Y-83650000D02*
X120650000Y-83650000D01*
G75*
G02*
X120750000Y-83750000I0J-100000D01*
G01*
X120750000Y-85025000D01*
G75*
G02*
X120650000Y-85125000I-100000J0D01*
G01*
X120450000Y-85125000D01*
G75*
G02*
X120350000Y-85025000I0J100000D01*
G01*
X120350000Y-83750000D01*
G75*
G02*
X120450000Y-83650000I100000J0D01*
G01*
G37*
%TD.AperFunction*%
%TO.P,U4,1*%
%TO.N,Net-(C29-Pad1)*%
%TA.AperFunction,SMDPad,CuDef*%
G36*
G01*
X121100000Y-83650000D02*
X121300000Y-83650000D01*
G75*
G02*
X121400000Y-83750000I0J-100000D01*
G01*
X121400000Y-85025000D01*
G75*
G02*
X121300000Y-85125000I-100000J0D01*
G01*
X121100000Y-85125000D01*
G75*
G02*
X121000000Y-85025000I0J100000D01*
G01*
X121000000Y-83750000D01*
G75*
G02*
X121100000Y-83650000I100000J0D01*
G01*
G37*
%TD.AperFunction*%
%TD*%
D11*
%TO.P,J7,3*%
%TO.N,GND*%
X116250000Y-95000000D03*
%TO.P,J7,2*%
%TO.N,Net-(J7-Pad2)*%
X118790000Y-95000000D03*
D10*
%TO.P,J7,1*%
%TO.N,Net-(J7-Pad1)*%
X121330000Y-95000000D03*
%TD*%
D12*
%TO.P,L3,1*%
%TO.N,+5V*%
X91060000Y-85520000D03*
%TO.P,L3,2*%
%TO.N,Net-(D1-Pad2)*%
X91040000Y-74180000D03*
%TD*%
D13*
%TO.P,J8,2*%
%TO.N,GND*%
X105010000Y-75850000D03*
%TO.P,J8,1*%
%TO.N,Net-(J8-Pad1)*%
X107550000Y-75850000D03*
%TD*%
%TO.P,U3,8*%
%TO.N,Net-(C15-Pad1)*%
%TA.AperFunction,SMDPad,CuDef*%
G36*
G01*
X98625000Y-80725000D02*
X98625000Y-80925000D01*
G75*
G02*
X98525000Y-81025000I-100000J0D01*
G01*
X97250000Y-81025000D01*
G75*
G02*
X97150000Y-80925000I0J100000D01*
G01*
X97150000Y-80725000D01*
G75*
G02*
X97250000Y-80625000I100000J0D01*
G01*
X98525000Y-80625000D01*
G75*
G02*
X98625000Y-80725000I0J-100000D01*
G01*
G37*
%TD.AperFunction*%
%TO.P,U3,7*%
%TO.N,+5V*%
%TA.AperFunction,SMDPad,CuDef*%
G36*
G01*
X98625000Y-80075000D02*
X98625000Y-80275000D01*
G75*
G02*
X98525000Y-80375000I-100000J0D01*
G01*
X97250000Y-80375000D01*
G75*
G02*
X97150000Y-80275000I0J100000D01*
G01*
X97150000Y-80075000D01*
G75*
G02*
X97250000Y-79975000I100000J0D01*
G01*
X98525000Y-79975000D01*
G75*
G02*
X98625000Y-80075000I0J-100000D01*
G01*
G37*
%TD.AperFunction*%
%TO.P,U3,6*%
%TA.AperFunction,SMDPad,CuDef*%
G36*
G01*
X98625000Y-79425000D02*
X98625000Y-79625000D01*
G75*
G02*
X98525000Y-79725000I-100000J0D01*
G01*
X97250000Y-79725000D01*
G75*
G02*
X97150000Y-79625000I0J100000D01*
G01*
X97150000Y-79425000D01*
G75*
G02*
X97250000Y-79325000I100000J0D01*
G01*
X98525000Y-79325000D01*
G75*
G02*
X98625000Y-79425000I0J-100000D01*
G01*
G37*
%TD.AperFunction*%
%TO.P,U3,5*%
%TO.N,Net-(D1-Pad2)*%
%TA.AperFunction,SMDPad,CuDef*%
G36*
G01*
X98625000Y-78775000D02*
X98625000Y-78975000D01*
G75*
G02*
X98525000Y-79075000I-100000J0D01*
G01*
X97250000Y-79075000D01*
G75*
G02*
X97150000Y-78975000I0J100000D01*
G01*
X97150000Y-78775000D01*
G75*
G02*
X97250000Y-78675000I100000J0D01*
G01*
X98525000Y-78675000D01*
G75*
G02*
X98625000Y-78775000I0J-100000D01*
G01*
G37*
%TD.AperFunction*%
%TO.P,U3,4*%
%TO.N,GND*%
%TA.AperFunction,SMDPad,CuDef*%
G36*
G01*
X104350000Y-78775000D02*
X104350000Y-78975000D01*
G75*
G02*
X104250000Y-79075000I-100000J0D01*
G01*
X102975000Y-79075000D01*
G75*
G02*
X102875000Y-78975000I0J100000D01*
G01*
X102875000Y-78775000D01*
G75*
G02*
X102975000Y-78675000I100000J0D01*
G01*
X104250000Y-78675000D01*
G75*
G02*
X104350000Y-78775000I0J-100000D01*
G01*
G37*
%TD.AperFunction*%
%TO.P,U3,3*%
%TO.N,+5V*%
%TA.AperFunction,SMDPad,CuDef*%
G36*
G01*
X104350000Y-79425000D02*
X104350000Y-79625000D01*
G75*
G02*
X104250000Y-79725000I-100000J0D01*
G01*
X102975000Y-79725000D01*
G75*
G02*
X102875000Y-79625000I0J100000D01*
G01*
X102875000Y-79425000D01*
G75*
G02*
X102975000Y-79325000I100000J0D01*
G01*
X104250000Y-79325000D01*
G75*
G02*
X104350000Y-79425000I0J-100000D01*
G01*
G37*
%TD.AperFunction*%
%TO.P,U3,2*%
%TO.N,Net-(R6-Pad1)*%
%TA.AperFunction,SMDPad,CuDef*%
G36*
G01*
X104350000Y-80075000D02*
X104350000Y-80275000D01*
G75*
G02*
X104250000Y-80375000I-100000J0D01*
G01*
X102975000Y-80375000D01*
G75*
G02*
X102875000Y-80275000I0J100000D01*
G01*
X102875000Y-80075000D01*
G75*
G02*
X102975000Y-79975000I100000J0D01*
G01*
X104250000Y-79975000D01*
G75*
G02*
X104350000Y-80075000I0J-100000D01*
G01*
G37*
%TD.AperFunction*%
%TO.P,U3,1*%
%TO.N,Net-(R5-Pad1)*%
%TA.AperFunction,SMDPad,CuDef*%
G36*
G01*
X104350000Y-80725000D02*
X104350000Y-80925000D01*
G75*
G02*
X104250000Y-81025000I-100000J0D01*
G01*
X102975000Y-81025000D01*
G75*
G02*
X102875000Y-80925000I0J100000D01*
G01*
X102875000Y-80725000D01*
G75*
G02*
X102975000Y-80625000I100000J0D01*
G01*
X104250000Y-80625000D01*
G75*
G02*
X104350000Y-80725000I0J-100000D01*
G01*
G37*
%TD.AperFunction*%
%TD*%
%TO.P,U2,5*%
%TO.N,+1V8*%
%TA.AperFunction,SMDPad,CuDef*%
G36*
G01*
X121500000Y-74837500D02*
X121800000Y-74837500D01*
G75*
G02*
X121950000Y-74987500I0J-150000D01*
G01*
X121950000Y-76012500D01*
G75*
G02*
X121800000Y-76162500I-150000J0D01*
G01*
X121500000Y-76162500D01*
G75*
G02*
X121350000Y-76012500I0J150000D01*
G01*
X121350000Y-74987500D01*
G75*
G02*
X121500000Y-74837500I150000J0D01*
G01*
G37*
%TD.AperFunction*%
%TO.P,U2,4*%
%TO.N,N/C*%
%TA.AperFunction,SMDPad,CuDef*%
G36*
G01*
X119600000Y-74837500D02*
X119900000Y-74837500D01*
G75*
G02*
X120050000Y-74987500I0J-150000D01*
G01*
X120050000Y-76012500D01*
G75*
G02*
X119900000Y-76162500I-150000J0D01*
G01*
X119600000Y-76162500D01*
G75*
G02*
X119450000Y-76012500I0J150000D01*
G01*
X119450000Y-74987500D01*
G75*
G02*
X119600000Y-74837500I150000J0D01*
G01*
G37*
%TD.AperFunction*%
%TO.P,U2,3*%
%TO.N,Net-(C12-Pad1)*%
%TA.AperFunction,SMDPad,CuDef*%
G36*
G01*
X119600000Y-72562500D02*
X119900000Y-72562500D01*
G75*
G02*
X120050000Y-72712500I0J-150000D01*
G01*
X120050000Y-73737500D01*
G75*
G02*
X119900000Y-73887500I-150000J0D01*
G01*
X119600000Y-73887500D01*
G75*
G02*
X119450000Y-73737500I0J150000D01*
G01*
X119450000Y-72712500D01*
G75*
G02*
X119600000Y-72562500I150000J0D01*
G01*
G37*
%TD.AperFunction*%
%TO.P,U2,2*%
%TO.N,GND*%
%TA.AperFunction,SMDPad,CuDef*%
G36*
G01*
X120550000Y-72562500D02*
X120850000Y-72562500D01*
G75*
G02*
X121000000Y-72712500I0J-150000D01*
G01*
X121000000Y-73737500D01*
G75*
G02*
X120850000Y-73887500I-150000J0D01*
G01*
X120550000Y-73887500D01*
G75*
G02*
X120400000Y-73737500I0J150000D01*
G01*
X120400000Y-72712500D01*
G75*
G02*
X120550000Y-72562500I150000J0D01*
G01*
G37*
%TD.AperFunction*%
%TO.P,U2,1*%
%TO.N,Net-(C12-Pad1)*%
%TA.AperFunction,SMDPad,CuDef*%
G36*
G01*
X121500000Y-72562500D02*
X121800000Y-72562500D01*
G75*
G02*
X121950000Y-72712500I0J-150000D01*
G01*
X121950000Y-73737500D01*
G75*
G02*
X121800000Y-73887500I-150000J0D01*
G01*
X121500000Y-73887500D01*
G75*
G02*
X121350000Y-73737500I0J150000D01*
G01*
X121350000Y-72712500D01*
G75*
G02*
X121500000Y-72562500I150000J0D01*
G01*
G37*
%TD.AperFunction*%
%TD*%
%TO.P,R17,2*%
%TO.N,Net-(J7-Pad2)*%
%TA.AperFunction,SMDPad,CuDef*%
G36*
G01*
X118237500Y-92700002D02*
X118237500Y-91799998D01*
G75*
G02*
X118487498Y-91550000I249998J0D01*
G01*
X119012502Y-91550000D01*
G75*
G02*
X119262500Y-91799998I0J-249998D01*
G01*
X119262500Y-92700002D01*
G75*
G02*
X119012502Y-92950000I-249998J0D01*
G01*
X118487498Y-92950000D01*
G75*
G02*
X118237500Y-92700002I0J249998D01*
G01*
G37*
%TD.AperFunction*%
%TO.P,R17,1*%
%TO.N,+3V3*%
%TA.AperFunction,SMDPad,CuDef*%
G36*
G01*
X116412500Y-92700002D02*
X116412500Y-91799998D01*
G75*
G02*
X116662498Y-91550000I249998J0D01*
G01*
X117187502Y-91550000D01*
G75*
G02*
X117437500Y-91799998I0J-249998D01*
G01*
X117437500Y-92700002D01*
G75*
G02*
X117187502Y-92950000I-249998J0D01*
G01*
X116662498Y-92950000D01*
G75*
G02*
X116412500Y-92700002I0J249998D01*
G01*
G37*
%TD.AperFunction*%
%TD*%
%TO.P,R16,2*%
%TO.N,Net-(J7-Pad1)*%
%TA.AperFunction,SMDPad,CuDef*%
G36*
G01*
X120937500Y-91799998D02*
X120937500Y-92700002D01*
G75*
G02*
X120687502Y-92950000I-249998J0D01*
G01*
X120162498Y-92950000D01*
G75*
G02*
X119912500Y-92700002I0J249998D01*
G01*
X119912500Y-91799998D01*
G75*
G02*
X120162498Y-91550000I249998J0D01*
G01*
X120687502Y-91550000D01*
G75*
G02*
X120937500Y-91799998I0J-249998D01*
G01*
G37*
%TD.AperFunction*%
%TO.P,R16,1*%
%TO.N,+3V3*%
%TA.AperFunction,SMDPad,CuDef*%
G36*
G01*
X122762500Y-91799998D02*
X122762500Y-92700002D01*
G75*
G02*
X122512502Y-92950000I-249998J0D01*
G01*
X121987498Y-92950000D01*
G75*
G02*
X121737500Y-92700002I0J249998D01*
G01*
X121737500Y-91799998D01*
G75*
G02*
X121987498Y-91550000I249998J0D01*
G01*
X122512502Y-91550000D01*
G75*
G02*
X122762500Y-91799998I0J-249998D01*
G01*
G37*
%TD.AperFunction*%
%TD*%
%TO.P,R14,2*%
%TO.N,Net-(C29-Pad1)*%
%TA.AperFunction,SMDPad,CuDef*%
G36*
G01*
X123150000Y-82700002D02*
X123150000Y-81799998D01*
G75*
G02*
X123399998Y-81550000I249998J0D01*
G01*
X123925002Y-81550000D01*
G75*
G02*
X124175000Y-81799998I0J-249998D01*
G01*
X124175000Y-82700002D01*
G75*
G02*
X123925002Y-82950000I-249998J0D01*
G01*
X123399998Y-82950000D01*
G75*
G02*
X123150000Y-82700002I0J249998D01*
G01*
G37*
%TD.AperFunction*%
%TO.P,R14,1*%
%TO.N,+1V8*%
%TA.AperFunction,SMDPad,CuDef*%
G36*
G01*
X121325000Y-82700002D02*
X121325000Y-81799998D01*
G75*
G02*
X121574998Y-81550000I249998J0D01*
G01*
X122100002Y-81550000D01*
G75*
G02*
X122350000Y-81799998I0J-249998D01*
G01*
X122350000Y-82700002D01*
G75*
G02*
X122100002Y-82950000I-249998J0D01*
G01*
X121574998Y-82950000D01*
G75*
G02*
X121325000Y-82700002I0J249998D01*
G01*
G37*
%TD.AperFunction*%
%TD*%
%TO.P,R13,2*%
%TO.N,Net-(C4-Pad1)*%
%TA.AperFunction,SMDPad,CuDef*%
G36*
G01*
X113937500Y-91799998D02*
X113937500Y-92700002D01*
G75*
G02*
X113687502Y-92950000I-249998J0D01*
G01*
X113162498Y-92950000D01*
G75*
G02*
X112912500Y-92700002I0J249998D01*
G01*
X112912500Y-91799998D01*
G75*
G02*
X113162498Y-91550000I249998J0D01*
G01*
X113687502Y-91550000D01*
G75*
G02*
X113937500Y-91799998I0J-249998D01*
G01*
G37*
%TD.AperFunction*%
%TO.P,R13,1*%
%TO.N,Net-(R13-Pad1)*%
%TA.AperFunction,SMDPad,CuDef*%
G36*
G01*
X115762500Y-91799998D02*
X115762500Y-92700002D01*
G75*
G02*
X115512502Y-92950000I-249998J0D01*
G01*
X114987498Y-92950000D01*
G75*
G02*
X114737500Y-92700002I0J249998D01*
G01*
X114737500Y-91799998D01*
G75*
G02*
X114987498Y-91550000I249998J0D01*
G01*
X115512502Y-91550000D01*
G75*
G02*
X115762500Y-91799998I0J-249998D01*
G01*
G37*
%TD.AperFunction*%
%TD*%
%TO.P,R12,2*%
%TO.N,Net-(C25-Pad1)*%
%TA.AperFunction,SMDPad,CuDef*%
G36*
G01*
X114187500Y-86799998D02*
X114187500Y-87700002D01*
G75*
G02*
X113937502Y-87950000I-249998J0D01*
G01*
X113412498Y-87950000D01*
G75*
G02*
X113162500Y-87700002I0J249998D01*
G01*
X113162500Y-86799998D01*
G75*
G02*
X113412498Y-86550000I249998J0D01*
G01*
X113937502Y-86550000D01*
G75*
G02*
X114187500Y-86799998I0J-249998D01*
G01*
G37*
%TD.AperFunction*%
%TO.P,R12,1*%
%TO.N,Net-(R12-Pad1)*%
%TA.AperFunction,SMDPad,CuDef*%
G36*
G01*
X116012500Y-86799998D02*
X116012500Y-87700002D01*
G75*
G02*
X115762502Y-87950000I-249998J0D01*
G01*
X115237498Y-87950000D01*
G75*
G02*
X114987500Y-87700002I0J249998D01*
G01*
X114987500Y-86799998D01*
G75*
G02*
X115237498Y-86550000I249998J0D01*
G01*
X115762502Y-86550000D01*
G75*
G02*
X116012500Y-86799998I0J-249998D01*
G01*
G37*
%TD.AperFunction*%
%TD*%
%TO.P,R11,2*%
%TO.N,Net-(C28-Pad2)*%
%TA.AperFunction,SMDPad,CuDef*%
G36*
G01*
X123799998Y-88650000D02*
X124700002Y-88650000D01*
G75*
G02*
X124950000Y-88899998I0J-249998D01*
G01*
X124950000Y-89425002D01*
G75*
G02*
X124700002Y-89675000I-249998J0D01*
G01*
X123799998Y-89675000D01*
G75*
G02*
X123550000Y-89425002I0J249998D01*
G01*
X123550000Y-88899998D01*
G75*
G02*
X123799998Y-88650000I249998J0D01*
G01*
G37*
%TD.AperFunction*%
%TO.P,R11,1*%
%TO.N,Net-(R11-Pad1)*%
%TA.AperFunction,SMDPad,CuDef*%
G36*
G01*
X123799998Y-86825000D02*
X124700002Y-86825000D01*
G75*
G02*
X124950000Y-87074998I0J-249998D01*
G01*
X124950000Y-87600002D01*
G75*
G02*
X124700002Y-87850000I-249998J0D01*
G01*
X123799998Y-87850000D01*
G75*
G02*
X123550000Y-87600002I0J249998D01*
G01*
X123550000Y-87074998D01*
G75*
G02*
X123799998Y-86825000I249998J0D01*
G01*
G37*
%TD.AperFunction*%
%TD*%
%TO.P,R10,2*%
%TO.N,GND*%
%TA.AperFunction,SMDPad,CuDef*%
G36*
G01*
X111950002Y-91687500D02*
X111049998Y-91687500D01*
G75*
G02*
X110800000Y-91437502I0J249998D01*
G01*
X110800000Y-90912498D01*
G75*
G02*
X111049998Y-90662500I249998J0D01*
G01*
X111950002Y-90662500D01*
G75*
G02*
X112200000Y-90912498I0J-249998D01*
G01*
X112200000Y-91437502D01*
G75*
G02*
X111950002Y-91687500I-249998J0D01*
G01*
G37*
%TD.AperFunction*%
%TO.P,R10,1*%
%TO.N,Net-(C4-Pad1)*%
%TA.AperFunction,SMDPad,CuDef*%
G36*
G01*
X111950002Y-93512500D02*
X111049998Y-93512500D01*
G75*
G02*
X110800000Y-93262502I0J249998D01*
G01*
X110800000Y-92737498D01*
G75*
G02*
X111049998Y-92487500I249998J0D01*
G01*
X111950002Y-92487500D01*
G75*
G02*
X112200000Y-92737498I0J-249998D01*
G01*
X112200000Y-93262502D01*
G75*
G02*
X111950002Y-93512500I-249998J0D01*
G01*
G37*
%TD.AperFunction*%
%TD*%
%TO.P,R9,2*%
%TO.N,GND*%
%TA.AperFunction,SMDPad,CuDef*%
G36*
G01*
X115737500Y-67950002D02*
X115737500Y-67049998D01*
G75*
G02*
X115987498Y-66800000I249998J0D01*
G01*
X116512502Y-66800000D01*
G75*
G02*
X116762500Y-67049998I0J-249998D01*
G01*
X116762500Y-67950002D01*
G75*
G02*
X116512502Y-68200000I-249998J0D01*
G01*
X115987498Y-68200000D01*
G75*
G02*
X115737500Y-67950002I0J249998D01*
G01*
G37*
%TD.AperFunction*%
%TO.P,R9,1*%
%TO.N,Net-(C25-Pad1)*%
%TA.AperFunction,SMDPad,CuDef*%
G36*
G01*
X113912500Y-67950002D02*
X113912500Y-67049998D01*
G75*
G02*
X114162498Y-66800000I249998J0D01*
G01*
X114687502Y-66800000D01*
G75*
G02*
X114937500Y-67049998I0J-249998D01*
G01*
X114937500Y-67950002D01*
G75*
G02*
X114687502Y-68200000I-249998J0D01*
G01*
X114162498Y-68200000D01*
G75*
G02*
X113912500Y-67950002I0J249998D01*
G01*
G37*
%TD.AperFunction*%
%TD*%
%TO.P,R8,2*%
%TO.N,GND*%
%TA.AperFunction,SMDPad,CuDef*%
G36*
G01*
X106850000Y-82300002D02*
X106850000Y-81399998D01*
G75*
G02*
X107099998Y-81150000I249998J0D01*
G01*
X107625002Y-81150000D01*
G75*
G02*
X107875000Y-81399998I0J-249998D01*
G01*
X107875000Y-82300002D01*
G75*
G02*
X107625002Y-82550000I-249998J0D01*
G01*
X107099998Y-82550000D01*
G75*
G02*
X106850000Y-82300002I0J249998D01*
G01*
G37*
%TD.AperFunction*%
%TO.P,R8,1*%
%TO.N,Net-(R6-Pad1)*%
%TA.AperFunction,SMDPad,CuDef*%
G36*
G01*
X105025000Y-82300002D02*
X105025000Y-81399998D01*
G75*
G02*
X105274998Y-81150000I249998J0D01*
G01*
X105800002Y-81150000D01*
G75*
G02*
X106050000Y-81399998I0J-249998D01*
G01*
X106050000Y-82300002D01*
G75*
G02*
X105800002Y-82550000I-249998J0D01*
G01*
X105274998Y-82550000D01*
G75*
G02*
X105025000Y-82300002I0J249998D01*
G01*
G37*
%TD.AperFunction*%
%TD*%
%TO.P,R7,2*%
%TO.N,Net-(R6-Pad1)*%
%TA.AperFunction,SMDPad,CuDef*%
G36*
G01*
X105199998Y-79350000D02*
X106100002Y-79350000D01*
G75*
G02*
X106350000Y-79599998I0J-249998D01*
G01*
X106350000Y-80125002D01*
G75*
G02*
X106100002Y-80375000I-249998J0D01*
G01*
X105199998Y-80375000D01*
G75*
G02*
X104950000Y-80125002I0J249998D01*
G01*
X104950000Y-79599998D01*
G75*
G02*
X105199998Y-79350000I249998J0D01*
G01*
G37*
%TD.AperFunction*%
%TO.P,R7,1*%
%TO.N,Net-(C22-Pad1)*%
%TA.AperFunction,SMDPad,CuDef*%
G36*
G01*
X105199998Y-77525000D02*
X106100002Y-77525000D01*
G75*
G02*
X106350000Y-77774998I0J-249998D01*
G01*
X106350000Y-78300002D01*
G75*
G02*
X106100002Y-78550000I-249998J0D01*
G01*
X105199998Y-78550000D01*
G75*
G02*
X104950000Y-78300002I0J249998D01*
G01*
X104950000Y-77774998D01*
G75*
G02*
X105199998Y-77525000I249998J0D01*
G01*
G37*
%TD.AperFunction*%
%TD*%
%TO.P,R6,2*%
%TO.N,Net-(J8-Pad1)*%
%TA.AperFunction,SMDPad,CuDef*%
G36*
G01*
X108200002Y-78550000D02*
X107299998Y-78550000D01*
G75*
G02*
X107050000Y-78300002I0J249998D01*
G01*
X107050000Y-77774998D01*
G75*
G02*
X107299998Y-77525000I249998J0D01*
G01*
X108200002Y-77525000D01*
G75*
G02*
X108450000Y-77774998I0J-249998D01*
G01*
X108450000Y-78300002D01*
G75*
G02*
X108200002Y-78550000I-249998J0D01*
G01*
G37*
%TD.AperFunction*%
%TO.P,R6,1*%
%TO.N,Net-(R6-Pad1)*%
%TA.AperFunction,SMDPad,CuDef*%
G36*
G01*
X108200002Y-80375000D02*
X107299998Y-80375000D01*
G75*
G02*
X107050000Y-80125002I0J249998D01*
G01*
X107050000Y-79599998D01*
G75*
G02*
X107299998Y-79350000I249998J0D01*
G01*
X108200002Y-79350000D01*
G75*
G02*
X108450000Y-79599998I0J-249998D01*
G01*
X108450000Y-80125002D01*
G75*
G02*
X108200002Y-80375000I-249998J0D01*
G01*
G37*
%TD.AperFunction*%
%TD*%
%TO.P,R5,2*%
%TO.N,Net-(C18-Pad1)*%
%TA.AperFunction,SMDPad,CuDef*%
G36*
G01*
X103199998Y-83850000D02*
X104100002Y-83850000D01*
G75*
G02*
X104350000Y-84099998I0J-249998D01*
G01*
X104350000Y-84625002D01*
G75*
G02*
X104100002Y-84875000I-249998J0D01*
G01*
X103199998Y-84875000D01*
G75*
G02*
X102950000Y-84625002I0J249998D01*
G01*
X102950000Y-84099998D01*
G75*
G02*
X103199998Y-83850000I249998J0D01*
G01*
G37*
%TD.AperFunction*%
%TO.P,R5,1*%
%TO.N,Net-(R5-Pad1)*%
%TA.AperFunction,SMDPad,CuDef*%
G36*
G01*
X103199998Y-82025000D02*
X104100002Y-82025000D01*
G75*
G02*
X104350000Y-82274998I0J-249998D01*
G01*
X104350000Y-82800002D01*
G75*
G02*
X104100002Y-83050000I-249998J0D01*
G01*
X103199998Y-83050000D01*
G75*
G02*
X102950000Y-82800002I0J249998D01*
G01*
X102950000Y-82274998D01*
G75*
G02*
X103199998Y-82025000I249998J0D01*
G01*
G37*
%TD.AperFunction*%
%TD*%
%TO.P,R4,2*%
%TO.N,Net-(J1-Pad1)*%
%TA.AperFunction,SMDPad,CuDef*%
G36*
G01*
X90600000Y-55549998D02*
X90600000Y-56450002D01*
G75*
G02*
X90350002Y-56700000I-249998J0D01*
G01*
X89824998Y-56700000D01*
G75*
G02*
X89575000Y-56450002I0J249998D01*
G01*
X89575000Y-55549998D01*
G75*
G02*
X89824998Y-55300000I249998J0D01*
G01*
X90350002Y-55300000D01*
G75*
G02*
X90600000Y-55549998I0J-249998D01*
G01*
G37*
%TD.AperFunction*%
%TO.P,R4,1*%
%TO.N,Net-(C5-Pad1)*%
%TA.AperFunction,SMDPad,CuDef*%
G36*
G01*
X92425000Y-55549998D02*
X92425000Y-56450002D01*
G75*
G02*
X92175002Y-56700000I-249998J0D01*
G01*
X91649998Y-56700000D01*
G75*
G02*
X91400000Y-56450002I0J249998D01*
G01*
X91400000Y-55549998D01*
G75*
G02*
X91649998Y-55300000I249998J0D01*
G01*
X92175002Y-55300000D01*
G75*
G02*
X92425000Y-55549998I0J-249998D01*
G01*
G37*
%TD.AperFunction*%
%TD*%
%TO.P,R3,2*%
%TO.N,GND*%
%TA.AperFunction,SMDPad,CuDef*%
G36*
G01*
X103700002Y-91687500D02*
X102799998Y-91687500D01*
G75*
G02*
X102550000Y-91437502I0J249998D01*
G01*
X102550000Y-90912498D01*
G75*
G02*
X102799998Y-90662500I249998J0D01*
G01*
X103700002Y-90662500D01*
G75*
G02*
X103950000Y-90912498I0J-249998D01*
G01*
X103950000Y-91437502D01*
G75*
G02*
X103700002Y-91687500I-249998J0D01*
G01*
G37*
%TD.AperFunction*%
%TO.P,R3,1*%
%TO.N,Net-(C4-Pad2)*%
%TA.AperFunction,SMDPad,CuDef*%
G36*
G01*
X103700002Y-93512500D02*
X102799998Y-93512500D01*
G75*
G02*
X102550000Y-93262502I0J249998D01*
G01*
X102550000Y-92737498D01*
G75*
G02*
X102799998Y-92487500I249998J0D01*
G01*
X103700002Y-92487500D01*
G75*
G02*
X103950000Y-92737498I0J-249998D01*
G01*
X103950000Y-93262502D01*
G75*
G02*
X103700002Y-93512500I-249998J0D01*
G01*
G37*
%TD.AperFunction*%
%TD*%
%TO.P,R2,2*%
%TO.N,Net-(C4-Pad2)*%
%TA.AperFunction,SMDPad,CuDef*%
G36*
G01*
X105049998Y-92487500D02*
X105950002Y-92487500D01*
G75*
G02*
X106200000Y-92737498I0J-249998D01*
G01*
X106200000Y-93262502D01*
G75*
G02*
X105950002Y-93512500I-249998J0D01*
G01*
X105049998Y-93512500D01*
G75*
G02*
X104800000Y-93262502I0J249998D01*
G01*
X104800000Y-92737498D01*
G75*
G02*
X105049998Y-92487500I249998J0D01*
G01*
G37*
%TD.AperFunction*%
%TO.P,R2,1*%
%TO.N,+1V8*%
%TA.AperFunction,SMDPad,CuDef*%
G36*
G01*
X105049998Y-90662500D02*
X105950002Y-90662500D01*
G75*
G02*
X106200000Y-90912498I0J-249998D01*
G01*
X106200000Y-91437502D01*
G75*
G02*
X105950002Y-91687500I-249998J0D01*
G01*
X105049998Y-91687500D01*
G75*
G02*
X104800000Y-91437502I0J249998D01*
G01*
X104800000Y-90912498D01*
G75*
G02*
X105049998Y-90662500I249998J0D01*
G01*
G37*
%TD.AperFunction*%
%TD*%
%TO.P,R1,2*%
%TO.N,GND*%
%TA.AperFunction,SMDPad,CuDef*%
G36*
G01*
X87549998Y-57400000D02*
X88450002Y-57400000D01*
G75*
G02*
X88700000Y-57649998I0J-249998D01*
G01*
X88700000Y-58175002D01*
G75*
G02*
X88450002Y-58425000I-249998J0D01*
G01*
X87549998Y-58425000D01*
G75*
G02*
X87300000Y-58175002I0J249998D01*
G01*
X87300000Y-57649998D01*
G75*
G02*
X87549998Y-57400000I249998J0D01*
G01*
G37*
%TD.AperFunction*%
%TO.P,R1,1*%
%TO.N,Net-(J1-Pad1)*%
%TA.AperFunction,SMDPad,CuDef*%
G36*
G01*
X87549998Y-55575000D02*
X88450002Y-55575000D01*
G75*
G02*
X88700000Y-55824998I0J-249998D01*
G01*
X88700000Y-56350002D01*
G75*
G02*
X88450002Y-56600000I-249998J0D01*
G01*
X87549998Y-56600000D01*
G75*
G02*
X87300000Y-56350002I0J249998D01*
G01*
X87300000Y-55824998D01*
G75*
G02*
X87549998Y-55575000I249998J0D01*
G01*
G37*
%TD.AperFunction*%
%TD*%
%TO.P,L8,2*%
%TO.N,Net-(C21-Pad1)*%
%TA.AperFunction,SMDPad,CuDef*%
G36*
G01*
X124450001Y-56575000D02*
X123549999Y-56575000D01*
G75*
G02*
X123300000Y-56325001I0J249999D01*
G01*
X123300000Y-55674999D01*
G75*
G02*
X123549999Y-55425000I249999J0D01*
G01*
X124450001Y-55425000D01*
G75*
G02*
X124700000Y-55674999I0J-249999D01*
G01*
X124700000Y-56325001D01*
G75*
G02*
X124450001Y-56575000I-249999J0D01*
G01*
G37*
%TD.AperFunction*%
%TO.P,L8,1*%
%TO.N,Net-(C24-Pad1)*%
%TA.AperFunction,SMDPad,CuDef*%
G36*
G01*
X124450001Y-58625000D02*
X123549999Y-58625000D01*
G75*
G02*
X123300000Y-58375001I0J249999D01*
G01*
X123300000Y-57724999D01*
G75*
G02*
X123549999Y-57475000I249999J0D01*
G01*
X124450001Y-57475000D01*
G75*
G02*
X124700000Y-57724999I0J-249999D01*
G01*
X124700000Y-58375001D01*
G75*
G02*
X124450001Y-58625000I-249999J0D01*
G01*
G37*
%TD.AperFunction*%
%TD*%
%TO.P,L7,2*%
%TO.N,Net-(C24-Pad1)*%
%TA.AperFunction,SMDPad,CuDef*%
G36*
G01*
X121175000Y-62700001D02*
X121175000Y-61799999D01*
G75*
G02*
X121424999Y-61550000I249999J0D01*
G01*
X122075001Y-61550000D01*
G75*
G02*
X122325000Y-61799999I0J-249999D01*
G01*
X122325000Y-62700001D01*
G75*
G02*
X122075001Y-62950000I-249999J0D01*
G01*
X121424999Y-62950000D01*
G75*
G02*
X121175000Y-62700001I0J249999D01*
G01*
G37*
%TD.AperFunction*%
%TO.P,L7,1*%
%TO.N,Net-(C25-Pad2)*%
%TA.AperFunction,SMDPad,CuDef*%
G36*
G01*
X119125000Y-62700001D02*
X119125000Y-61799999D01*
G75*
G02*
X119374999Y-61550000I249999J0D01*
G01*
X120025001Y-61550000D01*
G75*
G02*
X120275000Y-61799999I0J-249999D01*
G01*
X120275000Y-62700001D01*
G75*
G02*
X120025001Y-62950000I-249999J0D01*
G01*
X119374999Y-62950000D01*
G75*
G02*
X119125000Y-62700001I0J249999D01*
G01*
G37*
%TD.AperFunction*%
%TD*%
%TO.P,L6,2*%
%TO.N,Net-(C25-Pad2)*%
%TA.AperFunction,SMDPad,CuDef*%
G36*
G01*
X111925000Y-65950001D02*
X111925000Y-65049999D01*
G75*
G02*
X112174999Y-64800000I249999J0D01*
G01*
X112825001Y-64800000D01*
G75*
G02*
X113075000Y-65049999I0J-249999D01*
G01*
X113075000Y-65950001D01*
G75*
G02*
X112825001Y-66200000I-249999J0D01*
G01*
X112174999Y-66200000D01*
G75*
G02*
X111925000Y-65950001I0J249999D01*
G01*
G37*
%TD.AperFunction*%
%TO.P,L6,1*%
%TO.N,Net-(C22-Pad1)*%
%TA.AperFunction,SMDPad,CuDef*%
G36*
G01*
X109875000Y-65950001D02*
X109875000Y-65049999D01*
G75*
G02*
X110124999Y-64800000I249999J0D01*
G01*
X110775001Y-64800000D01*
G75*
G02*
X111025000Y-65049999I0J-249999D01*
G01*
X111025000Y-65950001D01*
G75*
G02*
X110775001Y-66200000I-249999J0D01*
G01*
X110124999Y-66200000D01*
G75*
G02*
X109875000Y-65950001I0J249999D01*
G01*
G37*
%TD.AperFunction*%
%TD*%
%TO.P,L5,2*%
%TO.N,Net-(C19-Pad1)*%
%TA.AperFunction,SMDPad,CuDef*%
G36*
G01*
X117549999Y-55425000D02*
X118450001Y-55425000D01*
G75*
G02*
X118700000Y-55674999I0J-249999D01*
G01*
X118700000Y-56325001D01*
G75*
G02*
X118450001Y-56575000I-249999J0D01*
G01*
X117549999Y-56575000D01*
G75*
G02*
X117300000Y-56325001I0J249999D01*
G01*
X117300000Y-55674999D01*
G75*
G02*
X117549999Y-55425000I249999J0D01*
G01*
G37*
%TD.AperFunction*%
%TO.P,L5,1*%
%TO.N,GND*%
%TA.AperFunction,SMDPad,CuDef*%
G36*
G01*
X117549999Y-53375000D02*
X118450001Y-53375000D01*
G75*
G02*
X118700000Y-53624999I0J-249999D01*
G01*
X118700000Y-54275001D01*
G75*
G02*
X118450001Y-54525000I-249999J0D01*
G01*
X117549999Y-54525000D01*
G75*
G02*
X117300000Y-54275001I0J249999D01*
G01*
X117300000Y-53624999D01*
G75*
G02*
X117549999Y-53375000I249999J0D01*
G01*
G37*
%TD.AperFunction*%
%TD*%
%TO.P,L4,2*%
%TO.N,Net-(C14-Pad1)*%
%TA.AperFunction,SMDPad,CuDef*%
G36*
G01*
X112450001Y-56525000D02*
X111549999Y-56525000D01*
G75*
G02*
X111300000Y-56275001I0J249999D01*
G01*
X111300000Y-55624999D01*
G75*
G02*
X111549999Y-55375000I249999J0D01*
G01*
X112450001Y-55375000D01*
G75*
G02*
X112700000Y-55624999I0J-249999D01*
G01*
X112700000Y-56275001D01*
G75*
G02*
X112450001Y-56525000I-249999J0D01*
G01*
G37*
%TD.AperFunction*%
%TO.P,L4,1*%
%TO.N,GND*%
%TA.AperFunction,SMDPad,CuDef*%
G36*
G01*
X112450001Y-58575000D02*
X111549999Y-58575000D01*
G75*
G02*
X111300000Y-58325001I0J249999D01*
G01*
X111300000Y-57674999D01*
G75*
G02*
X111549999Y-57425000I249999J0D01*
G01*
X112450001Y-57425000D01*
G75*
G02*
X112700000Y-57674999I0J-249999D01*
G01*
X112700000Y-58325001D01*
G75*
G02*
X112450001Y-58575000I-249999J0D01*
G01*
G37*
%TD.AperFunction*%
%TD*%
%TO.P,L2,2*%
%TO.N,Net-(C11-Pad1)*%
%TA.AperFunction,SMDPad,CuDef*%
G36*
G01*
X103475000Y-56450001D02*
X103475000Y-55549999D01*
G75*
G02*
X103724999Y-55300000I249999J0D01*
G01*
X104375001Y-55300000D01*
G75*
G02*
X104625000Y-55549999I0J-249999D01*
G01*
X104625000Y-56450001D01*
G75*
G02*
X104375001Y-56700000I-249999J0D01*
G01*
X103724999Y-56700000D01*
G75*
G02*
X103475000Y-56450001I0J249999D01*
G01*
G37*
%TD.AperFunction*%
%TO.P,L2,1*%
%TO.N,Net-(C8-Pad1)*%
%TA.AperFunction,SMDPad,CuDef*%
G36*
G01*
X101425000Y-56450001D02*
X101425000Y-55549999D01*
G75*
G02*
X101674999Y-55300000I249999J0D01*
G01*
X102325001Y-55300000D01*
G75*
G02*
X102575000Y-55549999I0J-249999D01*
G01*
X102575000Y-56450001D01*
G75*
G02*
X102325001Y-56700000I-249999J0D01*
G01*
X101674999Y-56700000D01*
G75*
G02*
X101425000Y-56450001I0J249999D01*
G01*
G37*
%TD.AperFunction*%
%TD*%
%TO.P,L1,2*%
%TO.N,Net-(C8-Pad1)*%
%TA.AperFunction,SMDPad,CuDef*%
G36*
G01*
X97425000Y-56450001D02*
X97425000Y-55549999D01*
G75*
G02*
X97674999Y-55300000I249999J0D01*
G01*
X98325001Y-55300000D01*
G75*
G02*
X98575000Y-55549999I0J-249999D01*
G01*
X98575000Y-56450001D01*
G75*
G02*
X98325001Y-56700000I-249999J0D01*
G01*
X97674999Y-56700000D01*
G75*
G02*
X97425000Y-56450001I0J249999D01*
G01*
G37*
%TD.AperFunction*%
%TO.P,L1,1*%
%TO.N,Net-(C5-Pad1)*%
%TA.AperFunction,SMDPad,CuDef*%
G36*
G01*
X95375000Y-56450001D02*
X95375000Y-55549999D01*
G75*
G02*
X95624999Y-55300000I249999J0D01*
G01*
X96275001Y-55300000D01*
G75*
G02*
X96525000Y-55549999I0J-249999D01*
G01*
X96525000Y-56450001D01*
G75*
G02*
X96275001Y-56700000I-249999J0D01*
G01*
X95624999Y-56700000D01*
G75*
G02*
X95375000Y-56450001I0J249999D01*
G01*
G37*
%TD.AperFunction*%
%TD*%
D14*
%TO.P,J6,1*%
%TO.N,Net-(C28-Pad1)*%
X128200000Y-92750000D03*
D15*
%TO.P,J6,2*%
%TO.N,GND*%
X128000000Y-89925000D03*
X128000000Y-95575000D03*
%TD*%
D13*
%TO.P,J5,2*%
%TO.N,GND*%
X128000000Y-52460000D03*
%TO.P,J5,1*%
%TO.N,Net-(C21-Pad1)*%
X128000000Y-55000000D03*
%TD*%
D14*
%TO.P,J4,1*%
%TO.N,Net-(C29-Pad2)*%
X128200000Y-78000000D03*
D15*
%TO.P,J4,2*%
%TO.N,GND*%
X128000000Y-75175000D03*
X128000000Y-80825000D03*
%TD*%
D13*
%TO.P,J3,2*%
%TO.N,GND*%
X105540000Y-95000000D03*
%TO.P,J3,1*%
%TO.N,Net-(C4-Pad2)*%
X103000000Y-95000000D03*
%TD*%
D11*
%TO.P,J2,4*%
%TO.N,GND*%
X83000000Y-76380000D03*
%TO.P,J2,3*%
X83000000Y-78920000D03*
%TO.P,J2,2*%
%TO.N,+5V*%
X83000000Y-81460000D03*
D10*
%TO.P,J2,1*%
X83000000Y-84000000D03*
%TD*%
D14*
%TO.P,J1,1*%
%TO.N,Net-(J1-Pad1)*%
X82800000Y-55000000D03*
D15*
%TO.P,J1,2*%
%TO.N,GND*%
X83000000Y-57825000D03*
X83000000Y-52175000D03*
%TD*%
D16*
%TO.P,D1,2*%
%TO.N,Net-(D1-Pad2)*%
X90850000Y-69750000D03*
%TO.P,D1,1*%
%TO.N,Net-(C22-Pad1)*%
X94850000Y-69750000D03*
%TD*%
%TO.P,C29,2*%
%TO.N,Net-(C29-Pad2)*%
%TA.AperFunction,SMDPad,CuDef*%
G36*
G01*
X124475000Y-78550000D02*
X123525000Y-78550000D01*
G75*
G02*
X123275000Y-78300000I0J250000D01*
G01*
X123275000Y-77800000D01*
G75*
G02*
X123525000Y-77550000I250000J0D01*
G01*
X124475000Y-77550000D01*
G75*
G02*
X124725000Y-77800000I0J-250000D01*
G01*
X124725000Y-78300000D01*
G75*
G02*
X124475000Y-78550000I-250000J0D01*
G01*
G37*
%TD.AperFunction*%
%TO.P,C29,1*%
%TO.N,Net-(C29-Pad1)*%
%TA.AperFunction,SMDPad,CuDef*%
G36*
G01*
X124475000Y-80450000D02*
X123525000Y-80450000D01*
G75*
G02*
X123275000Y-80200000I0J250000D01*
G01*
X123275000Y-79700000D01*
G75*
G02*
X123525000Y-79450000I250000J0D01*
G01*
X124475000Y-79450000D01*
G75*
G02*
X124725000Y-79700000I0J-250000D01*
G01*
X124725000Y-80200000D01*
G75*
G02*
X124475000Y-80450000I-250000J0D01*
G01*
G37*
%TD.AperFunction*%
%TD*%
%TO.P,C28,2*%
%TO.N,Net-(C28-Pad2)*%
%TA.AperFunction,SMDPad,CuDef*%
G36*
G01*
X124725000Y-91300000D02*
X123775000Y-91300000D01*
G75*
G02*
X123525000Y-91050000I0J250000D01*
G01*
X123525000Y-90550000D01*
G75*
G02*
X123775000Y-90300000I250000J0D01*
G01*
X124725000Y-90300000D01*
G75*
G02*
X124975000Y-90550000I0J-250000D01*
G01*
X124975000Y-91050000D01*
G75*
G02*
X124725000Y-91300000I-250000J0D01*
G01*
G37*
%TD.AperFunction*%
%TO.P,C28,1*%
%TO.N,Net-(C28-Pad1)*%
%TA.AperFunction,SMDPad,CuDef*%
G36*
G01*
X124725000Y-93200000D02*
X123775000Y-93200000D01*
G75*
G02*
X123525000Y-92950000I0J250000D01*
G01*
X123525000Y-92450000D01*
G75*
G02*
X123775000Y-92200000I250000J0D01*
G01*
X124725000Y-92200000D01*
G75*
G02*
X124975000Y-92450000I0J-250000D01*
G01*
X124975000Y-92950000D01*
G75*
G02*
X124725000Y-93200000I-250000J0D01*
G01*
G37*
%TD.AperFunction*%
%TD*%
%TO.P,C27,2*%
%TO.N,+1V8*%
%TA.AperFunction,SMDPad,CuDef*%
G36*
G01*
X119500000Y-82625000D02*
X119500000Y-81675000D01*
G75*
G02*
X119750000Y-81425000I250000J0D01*
G01*
X120250000Y-81425000D01*
G75*
G02*
X120500000Y-81675000I0J-250000D01*
G01*
X120500000Y-82625000D01*
G75*
G02*
X120250000Y-82875000I-250000J0D01*
G01*
X119750000Y-82875000D01*
G75*
G02*
X119500000Y-82625000I0J250000D01*
G01*
G37*
%TD.AperFunction*%
%TO.P,C27,1*%
%TO.N,GND*%
%TA.AperFunction,SMDPad,CuDef*%
G36*
G01*
X117600000Y-82625000D02*
X117600000Y-81675000D01*
G75*
G02*
X117850000Y-81425000I250000J0D01*
G01*
X118350000Y-81425000D01*
G75*
G02*
X118600000Y-81675000I0J-250000D01*
G01*
X118600000Y-82625000D01*
G75*
G02*
X118350000Y-82875000I-250000J0D01*
G01*
X117850000Y-82875000D01*
G75*
G02*
X117600000Y-82625000I0J250000D01*
G01*
G37*
%TD.AperFunction*%
%TD*%
%TO.P,C26,2*%
%TO.N,GND*%
%TA.AperFunction,SMDPad,CuDef*%
G36*
G01*
X115725000Y-82350000D02*
X114775000Y-82350000D01*
G75*
G02*
X114525000Y-82100000I0J250000D01*
G01*
X114525000Y-81600000D01*
G75*
G02*
X114775000Y-81350000I250000J0D01*
G01*
X115725000Y-81350000D01*
G75*
G02*
X115975000Y-81600000I0J-250000D01*
G01*
X115975000Y-82100000D01*
G75*
G02*
X115725000Y-82350000I-250000J0D01*
G01*
G37*
%TD.AperFunction*%
%TO.P,C26,1*%
%TO.N,+3V3*%
%TA.AperFunction,SMDPad,CuDef*%
G36*
G01*
X115725000Y-84250000D02*
X114775000Y-84250000D01*
G75*
G02*
X114525000Y-84000000I0J250000D01*
G01*
X114525000Y-83500000D01*
G75*
G02*
X114775000Y-83250000I250000J0D01*
G01*
X115725000Y-83250000D01*
G75*
G02*
X115975000Y-83500000I0J-250000D01*
G01*
X115975000Y-84000000D01*
G75*
G02*
X115725000Y-84250000I-250000J0D01*
G01*
G37*
%TD.AperFunction*%
%TD*%
%TO.P,C25,2*%
%TO.N,Net-(C25-Pad2)*%
%TA.AperFunction,SMDPad,CuDef*%
G36*
G01*
X114850000Y-65025000D02*
X114850000Y-65975000D01*
G75*
G02*
X114600000Y-66225000I-250000J0D01*
G01*
X114100000Y-66225000D01*
G75*
G02*
X113850000Y-65975000I0J250000D01*
G01*
X113850000Y-65025000D01*
G75*
G02*
X114100000Y-64775000I250000J0D01*
G01*
X114600000Y-64775000D01*
G75*
G02*
X114850000Y-65025000I0J-250000D01*
G01*
G37*
%TD.AperFunction*%
%TO.P,C25,1*%
%TO.N,Net-(C25-Pad1)*%
%TA.AperFunction,SMDPad,CuDef*%
G36*
G01*
X116750000Y-65025000D02*
X116750000Y-65975000D01*
G75*
G02*
X116500000Y-66225000I-250000J0D01*
G01*
X116000000Y-66225000D01*
G75*
G02*
X115750000Y-65975000I0J250000D01*
G01*
X115750000Y-65025000D01*
G75*
G02*
X116000000Y-64775000I250000J0D01*
G01*
X116500000Y-64775000D01*
G75*
G02*
X116750000Y-65025000I0J-250000D01*
G01*
G37*
%TD.AperFunction*%
%TD*%
%TO.P,C24,2*%
%TO.N,GND*%
%TA.AperFunction,SMDPad,CuDef*%
G36*
G01*
X120250000Y-59525000D02*
X120250000Y-60475000D01*
G75*
G02*
X120000000Y-60725000I-250000J0D01*
G01*
X119500000Y-60725000D01*
G75*
G02*
X119250000Y-60475000I0J250000D01*
G01*
X119250000Y-59525000D01*
G75*
G02*
X119500000Y-59275000I250000J0D01*
G01*
X120000000Y-59275000D01*
G75*
G02*
X120250000Y-59525000I0J-250000D01*
G01*
G37*
%TD.AperFunction*%
%TO.P,C24,1*%
%TO.N,Net-(C24-Pad1)*%
%TA.AperFunction,SMDPad,CuDef*%
G36*
G01*
X122150000Y-59525000D02*
X122150000Y-60475000D01*
G75*
G02*
X121900000Y-60725000I-250000J0D01*
G01*
X121400000Y-60725000D01*
G75*
G02*
X121150000Y-60475000I0J250000D01*
G01*
X121150000Y-59525000D01*
G75*
G02*
X121400000Y-59275000I250000J0D01*
G01*
X121900000Y-59275000D01*
G75*
G02*
X122150000Y-59525000I0J-250000D01*
G01*
G37*
%TD.AperFunction*%
%TD*%
%TO.P,C23,2*%
%TO.N,GND*%
%TA.AperFunction,SMDPad,CuDef*%
G36*
G01*
X95388638Y-74654488D02*
X96211362Y-74179488D01*
G75*
G02*
X96552868Y-74270994I125000J-216506D01*
G01*
X96802868Y-74704006D01*
G75*
G02*
X96711362Y-75045512I-216506J-125000D01*
G01*
X95888638Y-75520512D01*
G75*
G02*
X95547132Y-75429006I-125000J216506D01*
G01*
X95297132Y-74995994D01*
G75*
G02*
X95388638Y-74654488I216506J125000D01*
G01*
G37*
%TD.AperFunction*%
%TO.P,C23,1*%
%TO.N,Net-(C22-Pad1)*%
%TA.AperFunction,SMDPad,CuDef*%
G36*
G01*
X94438638Y-73009040D02*
X95261362Y-72534040D01*
G75*
G02*
X95602868Y-72625546I125000J-216506D01*
G01*
X95852868Y-73058558D01*
G75*
G02*
X95761362Y-73400064I-216506J-125000D01*
G01*
X94938638Y-73875064D01*
G75*
G02*
X94597132Y-73783558I-125000J216506D01*
G01*
X94347132Y-73350546D01*
G75*
G02*
X94438638Y-73009040I216506J125000D01*
G01*
G37*
%TD.AperFunction*%
%TD*%
D17*
%TO.P,C22,2*%
%TO.N,GND*%
X100850000Y-73950000D03*
D18*
%TO.P,C22,1*%
%TO.N,Net-(C22-Pad1)*%
X100850000Y-70150000D03*
%TD*%
%TO.P,C21,2*%
%TO.N,Net-(C19-Pad1)*%
%TA.AperFunction,SMDPad,CuDef*%
G36*
G01*
X120500000Y-55525000D02*
X120500000Y-56475000D01*
G75*
G02*
X120250000Y-56725000I-250000J0D01*
G01*
X119750000Y-56725000D01*
G75*
G02*
X119500000Y-56475000I0J250000D01*
G01*
X119500000Y-55525000D01*
G75*
G02*
X119750000Y-55275000I250000J0D01*
G01*
X120250000Y-55275000D01*
G75*
G02*
X120500000Y-55525000I0J-250000D01*
G01*
G37*
%TD.AperFunction*%
%TO.P,C21,1*%
%TO.N,Net-(C21-Pad1)*%
%TA.AperFunction,SMDPad,CuDef*%
G36*
G01*
X122400000Y-55525000D02*
X122400000Y-56475000D01*
G75*
G02*
X122150000Y-56725000I-250000J0D01*
G01*
X121650000Y-56725000D01*
G75*
G02*
X121400000Y-56475000I0J250000D01*
G01*
X121400000Y-55525000D01*
G75*
G02*
X121650000Y-55275000I250000J0D01*
G01*
X122150000Y-55275000D01*
G75*
G02*
X122400000Y-55525000I0J-250000D01*
G01*
G37*
%TD.AperFunction*%
%TD*%
%TO.P,C19,2*%
%TO.N,Net-(C14-Pad1)*%
%TA.AperFunction,SMDPad,CuDef*%
G36*
G01*
X114550000Y-55525000D02*
X114550000Y-56475000D01*
G75*
G02*
X114300000Y-56725000I-250000J0D01*
G01*
X113800000Y-56725000D01*
G75*
G02*
X113550000Y-56475000I0J250000D01*
G01*
X113550000Y-55525000D01*
G75*
G02*
X113800000Y-55275000I250000J0D01*
G01*
X114300000Y-55275000D01*
G75*
G02*
X114550000Y-55525000I0J-250000D01*
G01*
G37*
%TD.AperFunction*%
%TO.P,C19,1*%
%TO.N,Net-(C19-Pad1)*%
%TA.AperFunction,SMDPad,CuDef*%
G36*
G01*
X116450000Y-55525000D02*
X116450000Y-56475000D01*
G75*
G02*
X116200000Y-56725000I-250000J0D01*
G01*
X115700000Y-56725000D01*
G75*
G02*
X115450000Y-56475000I0J250000D01*
G01*
X115450000Y-55525000D01*
G75*
G02*
X115700000Y-55275000I250000J0D01*
G01*
X116200000Y-55275000D01*
G75*
G02*
X116450000Y-55525000I0J-250000D01*
G01*
G37*
%TD.AperFunction*%
%TD*%
%TO.P,C18,2*%
%TO.N,GND*%
%TA.AperFunction,SMDPad,CuDef*%
G36*
G01*
X106900000Y-84525000D02*
X106900000Y-83575000D01*
G75*
G02*
X107150000Y-83325000I250000J0D01*
G01*
X107650000Y-83325000D01*
G75*
G02*
X107900000Y-83575000I0J-250000D01*
G01*
X107900000Y-84525000D01*
G75*
G02*
X107650000Y-84775000I-250000J0D01*
G01*
X107150000Y-84775000D01*
G75*
G02*
X106900000Y-84525000I0J250000D01*
G01*
G37*
%TD.AperFunction*%
%TO.P,C18,1*%
%TO.N,Net-(C18-Pad1)*%
%TA.AperFunction,SMDPad,CuDef*%
G36*
G01*
X105000000Y-84525000D02*
X105000000Y-83575000D01*
G75*
G02*
X105250000Y-83325000I250000J0D01*
G01*
X105750000Y-83325000D01*
G75*
G02*
X106000000Y-83575000I0J-250000D01*
G01*
X106000000Y-84525000D01*
G75*
G02*
X105750000Y-84775000I-250000J0D01*
G01*
X105250000Y-84775000D01*
G75*
G02*
X105000000Y-84525000I0J250000D01*
G01*
G37*
%TD.AperFunction*%
%TD*%
%TO.P,C15,2*%
%TO.N,GND*%
%TA.AperFunction,SMDPad,CuDef*%
G36*
G01*
X106900000Y-86725000D02*
X106900000Y-85775000D01*
G75*
G02*
X107150000Y-85525000I250000J0D01*
G01*
X107650000Y-85525000D01*
G75*
G02*
X107900000Y-85775000I0J-250000D01*
G01*
X107900000Y-86725000D01*
G75*
G02*
X107650000Y-86975000I-250000J0D01*
G01*
X107150000Y-86975000D01*
G75*
G02*
X106900000Y-86725000I0J250000D01*
G01*
G37*
%TD.AperFunction*%
%TO.P,C15,1*%
%TO.N,Net-(C15-Pad1)*%
%TA.AperFunction,SMDPad,CuDef*%
G36*
G01*
X105000000Y-86725000D02*
X105000000Y-85775000D01*
G75*
G02*
X105250000Y-85525000I250000J0D01*
G01*
X105750000Y-85525000D01*
G75*
G02*
X106000000Y-85775000I0J-250000D01*
G01*
X106000000Y-86725000D01*
G75*
G02*
X105750000Y-86975000I-250000J0D01*
G01*
X105250000Y-86975000D01*
G75*
G02*
X105000000Y-86725000I0J250000D01*
G01*
G37*
%TD.AperFunction*%
%TD*%
%TO.P,C14,2*%
%TO.N,Net-(C11-Pad1)*%
%TA.AperFunction,SMDPad,CuDef*%
G36*
G01*
X108500000Y-55525000D02*
X108500000Y-56475000D01*
G75*
G02*
X108250000Y-56725000I-250000J0D01*
G01*
X107750000Y-56725000D01*
G75*
G02*
X107500000Y-56475000I0J250000D01*
G01*
X107500000Y-55525000D01*
G75*
G02*
X107750000Y-55275000I250000J0D01*
G01*
X108250000Y-55275000D01*
G75*
G02*
X108500000Y-55525000I0J-250000D01*
G01*
G37*
%TD.AperFunction*%
%TO.P,C14,1*%
%TO.N,Net-(C14-Pad1)*%
%TA.AperFunction,SMDPad,CuDef*%
G36*
G01*
X110400000Y-55525000D02*
X110400000Y-56475000D01*
G75*
G02*
X110150000Y-56725000I-250000J0D01*
G01*
X109650000Y-56725000D01*
G75*
G02*
X109400000Y-56475000I0J250000D01*
G01*
X109400000Y-55525000D01*
G75*
G02*
X109650000Y-55275000I250000J0D01*
G01*
X110150000Y-55275000D01*
G75*
G02*
X110400000Y-55525000I0J-250000D01*
G01*
G37*
%TD.AperFunction*%
%TD*%
%TO.P,C11,2*%
%TO.N,GND*%
%TA.AperFunction,SMDPad,CuDef*%
G36*
G01*
X106475000Y-54650000D02*
X105525000Y-54650000D01*
G75*
G02*
X105275000Y-54400000I0J250000D01*
G01*
X105275000Y-53900000D01*
G75*
G02*
X105525000Y-53650000I250000J0D01*
G01*
X106475000Y-53650000D01*
G75*
G02*
X106725000Y-53900000I0J-250000D01*
G01*
X106725000Y-54400000D01*
G75*
G02*
X106475000Y-54650000I-250000J0D01*
G01*
G37*
%TD.AperFunction*%
%TO.P,C11,1*%
%TO.N,Net-(C11-Pad1)*%
%TA.AperFunction,SMDPad,CuDef*%
G36*
G01*
X106475000Y-56550000D02*
X105525000Y-56550000D01*
G75*
G02*
X105275000Y-56300000I0J250000D01*
G01*
X105275000Y-55800000D01*
G75*
G02*
X105525000Y-55550000I250000J0D01*
G01*
X106475000Y-55550000D01*
G75*
G02*
X106725000Y-55800000I0J-250000D01*
G01*
X106725000Y-56300000D01*
G75*
G02*
X106475000Y-56550000I-250000J0D01*
G01*
G37*
%TD.AperFunction*%
%TD*%
%TO.P,C10,2*%
%TO.N,GND*%
%TA.AperFunction,SMDPad,CuDef*%
G36*
G01*
X120250000Y-77025000D02*
X120250000Y-77975000D01*
G75*
G02*
X120000000Y-78225000I-250000J0D01*
G01*
X119500000Y-78225000D01*
G75*
G02*
X119250000Y-77975000I0J250000D01*
G01*
X119250000Y-77025000D01*
G75*
G02*
X119500000Y-76775000I250000J0D01*
G01*
X120000000Y-76775000D01*
G75*
G02*
X120250000Y-77025000I0J-250000D01*
G01*
G37*
%TD.AperFunction*%
%TO.P,C10,1*%
%TO.N,+1V8*%
%TA.AperFunction,SMDPad,CuDef*%
G36*
G01*
X122150000Y-77025000D02*
X122150000Y-77975000D01*
G75*
G02*
X121900000Y-78225000I-250000J0D01*
G01*
X121400000Y-78225000D01*
G75*
G02*
X121150000Y-77975000I0J250000D01*
G01*
X121150000Y-77025000D01*
G75*
G02*
X121400000Y-76775000I250000J0D01*
G01*
X121900000Y-76775000D01*
G75*
G02*
X122150000Y-77025000I0J-250000D01*
G01*
G37*
%TD.AperFunction*%
%TD*%
%TO.P,C8,2*%
%TO.N,GND*%
%TA.AperFunction,SMDPad,CuDef*%
G36*
G01*
X99525000Y-57350000D02*
X100475000Y-57350000D01*
G75*
G02*
X100725000Y-57600000I0J-250000D01*
G01*
X100725000Y-58100000D01*
G75*
G02*
X100475000Y-58350000I-250000J0D01*
G01*
X99525000Y-58350000D01*
G75*
G02*
X99275000Y-58100000I0J250000D01*
G01*
X99275000Y-57600000D01*
G75*
G02*
X99525000Y-57350000I250000J0D01*
G01*
G37*
%TD.AperFunction*%
%TO.P,C8,1*%
%TO.N,Net-(C8-Pad1)*%
%TA.AperFunction,SMDPad,CuDef*%
G36*
G01*
X99525000Y-55450000D02*
X100475000Y-55450000D01*
G75*
G02*
X100725000Y-55700000I0J-250000D01*
G01*
X100725000Y-56200000D01*
G75*
G02*
X100475000Y-56450000I-250000J0D01*
G01*
X99525000Y-56450000D01*
G75*
G02*
X99275000Y-56200000I0J250000D01*
G01*
X99275000Y-55700000D01*
G75*
G02*
X99525000Y-55450000I250000J0D01*
G01*
G37*
%TD.AperFunction*%
%TD*%
%TO.P,C7,2*%
%TO.N,GND*%
%TA.AperFunction,SMDPad,CuDef*%
G36*
G01*
X98250000Y-83425000D02*
X98250000Y-82475000D01*
G75*
G02*
X98500000Y-82225000I250000J0D01*
G01*
X99000000Y-82225000D01*
G75*
G02*
X99250000Y-82475000I0J-250000D01*
G01*
X99250000Y-83425000D01*
G75*
G02*
X99000000Y-83675000I-250000J0D01*
G01*
X98500000Y-83675000D01*
G75*
G02*
X98250000Y-83425000I0J250000D01*
G01*
G37*
%TD.AperFunction*%
%TO.P,C7,1*%
%TO.N,+5V*%
%TA.AperFunction,SMDPad,CuDef*%
G36*
G01*
X96350000Y-83425000D02*
X96350000Y-82475000D01*
G75*
G02*
X96600000Y-82225000I250000J0D01*
G01*
X97100000Y-82225000D01*
G75*
G02*
X97350000Y-82475000I0J-250000D01*
G01*
X97350000Y-83425000D01*
G75*
G02*
X97100000Y-83675000I-250000J0D01*
G01*
X96600000Y-83675000D01*
G75*
G02*
X96350000Y-83425000I0J250000D01*
G01*
G37*
%TD.AperFunction*%
%TD*%
%TO.P,C5,2*%
%TO.N,GND*%
%TA.AperFunction,SMDPad,CuDef*%
G36*
G01*
X94475000Y-54600000D02*
X93525000Y-54600000D01*
G75*
G02*
X93275000Y-54350000I0J250000D01*
G01*
X93275000Y-53850000D01*
G75*
G02*
X93525000Y-53600000I250000J0D01*
G01*
X94475000Y-53600000D01*
G75*
G02*
X94725000Y-53850000I0J-250000D01*
G01*
X94725000Y-54350000D01*
G75*
G02*
X94475000Y-54600000I-250000J0D01*
G01*
G37*
%TD.AperFunction*%
%TO.P,C5,1*%
%TO.N,Net-(C5-Pad1)*%
%TA.AperFunction,SMDPad,CuDef*%
G36*
G01*
X94475000Y-56500000D02*
X93525000Y-56500000D01*
G75*
G02*
X93275000Y-56250000I0J250000D01*
G01*
X93275000Y-55750000D01*
G75*
G02*
X93525000Y-55500000I250000J0D01*
G01*
X94475000Y-55500000D01*
G75*
G02*
X94725000Y-55750000I0J-250000D01*
G01*
X94725000Y-56250000D01*
G75*
G02*
X94475000Y-56500000I-250000J0D01*
G01*
G37*
%TD.AperFunction*%
%TD*%
%TO.P,C3,2*%
%TO.N,GND*%
%TA.AperFunction,SMDPad,CuDef*%
G36*
G01*
X120300000Y-70775000D02*
X120300000Y-71725000D01*
G75*
G02*
X120050000Y-71975000I-250000J0D01*
G01*
X119550000Y-71975000D01*
G75*
G02*
X119300000Y-71725000I0J250000D01*
G01*
X119300000Y-70775000D01*
G75*
G02*
X119550000Y-70525000I250000J0D01*
G01*
X120050000Y-70525000D01*
G75*
G02*
X120300000Y-70775000I0J-250000D01*
G01*
G37*
%TD.AperFunction*%
%TO.P,C3,1*%
%TO.N,Net-(C12-Pad1)*%
%TA.AperFunction,SMDPad,CuDef*%
G36*
G01*
X122200000Y-70775000D02*
X122200000Y-71725000D01*
G75*
G02*
X121950000Y-71975000I-250000J0D01*
G01*
X121450000Y-71975000D01*
G75*
G02*
X121200000Y-71725000I0J250000D01*
G01*
X121200000Y-70775000D01*
G75*
G02*
X121450000Y-70525000I250000J0D01*
G01*
X121950000Y-70525000D01*
G75*
G02*
X122200000Y-70775000I0J-250000D01*
G01*
G37*
%TD.AperFunction*%
%TD*%
D17*
%TO.P,C1,2*%
%TO.N,GND*%
X87000000Y-92800000D03*
D18*
%TO.P,C1,1*%
%TO.N,+5V*%
X87000000Y-89000000D03*
%TD*%
D19*
%TO.N,GND*%
X85000000Y-68000000D03*
X126000000Y-62000000D03*
X95000000Y-93000000D03*
D20*
X118750000Y-88500000D03*
X118250000Y-80250000D03*
X118500000Y-71250000D03*
X118250000Y-77500000D03*
X125750000Y-82750000D03*
X114500000Y-70000000D03*
X117750000Y-67500000D03*
X113500000Y-76500000D03*
X102000000Y-91500000D03*
X111500000Y-90000000D03*
X128000000Y-88250000D03*
X125000000Y-95500000D03*
X125000000Y-75250000D03*
X118250000Y-60000000D03*
X113500000Y-58000000D03*
X110500000Y-58000000D03*
X119500000Y-54000000D03*
X116500000Y-54000000D03*
X107500000Y-54000000D03*
X104500000Y-54000000D03*
X101500000Y-57750000D03*
X98500000Y-57750000D03*
X95500000Y-54000000D03*
X92500000Y-54000000D03*
X89500000Y-58000000D03*
X120000000Y-87000000D03*
X86500000Y-52000000D03*
X115500000Y-80750000D03*
%TO.N,+5V*%
X102250000Y-85000000D03*
X98750000Y-87500000D03*
%TO.N,+3V3*%
X117500000Y-93750000D03*
X123000000Y-93500000D03*
X117750000Y-86000000D03*
%TO.N,Net-(C15-Pad1)*%
X104250000Y-85500000D03*
X99325000Y-80825000D03*
%TO.N,Net-(C22-Pad1)*%
X104050000Y-77650000D03*
%TO.N,Net-(C12-Pad1)*%
X115250000Y-69000000D03*
X111000000Y-68250000D03*
%TD*%
D21*
%TO.N,GND*%
X103612500Y-78875000D02*
X102375000Y-78875000D01*
X102375000Y-78875000D02*
X101750000Y-78250000D01*
X101750000Y-74850000D02*
X100850000Y-73950000D01*
X105010000Y-75850000D02*
X104900000Y-75850000D01*
X104900000Y-75850000D02*
X104250000Y-76500000D01*
X104250000Y-76500000D02*
X101750000Y-76500000D01*
X101750000Y-76500000D02*
X101750000Y-74850000D01*
X101750000Y-78250000D02*
X101750000Y-76500000D01*
X118600000Y-82650000D02*
X118100000Y-82150000D01*
X118600000Y-84387500D02*
X118600000Y-82650000D01*
X118600000Y-88650000D02*
X118600000Y-90112500D01*
X118750000Y-88500000D02*
X118600000Y-88650000D01*
X118250000Y-82000000D02*
X118100000Y-82150000D01*
X118250000Y-80250000D02*
X118250000Y-82000000D01*
X119750000Y-77500000D02*
X120750000Y-76500000D01*
X120700000Y-76450000D02*
X120700000Y-73225000D01*
X120750000Y-76500000D02*
X120700000Y-76450000D01*
X114600000Y-77500000D02*
X114600000Y-77400000D01*
X115600000Y-76400000D02*
X115600000Y-73250000D01*
X114600000Y-77400000D02*
X115600000Y-76400000D01*
X119800000Y-71250000D02*
X119800000Y-71300000D01*
X120700000Y-72200000D02*
X120700000Y-73225000D01*
X119800000Y-71300000D02*
X120700000Y-72200000D01*
X114600000Y-71250000D02*
X114600000Y-71350000D01*
X115600000Y-72350000D02*
X115600000Y-73250000D01*
X114600000Y-71350000D02*
X115600000Y-72350000D01*
X119800000Y-71250000D02*
X118500000Y-71250000D01*
X119750000Y-77500000D02*
X118250000Y-77500000D01*
X119000000Y-79500000D02*
X118250000Y-80250000D01*
X119750000Y-79500000D02*
X119000000Y-79500000D01*
X125912500Y-82912500D02*
X125750000Y-82750000D01*
X125912500Y-84500000D02*
X125912500Y-82912500D01*
X128000000Y-80825000D02*
X126425000Y-80825000D01*
X125750000Y-81500000D02*
X125750000Y-82750000D01*
X126425000Y-80825000D02*
X125750000Y-81500000D01*
X114600000Y-70100000D02*
X114500000Y-70000000D01*
X114600000Y-71250000D02*
X114600000Y-70100000D01*
X116250000Y-67500000D02*
X117750000Y-67500000D01*
X114600000Y-77500000D02*
X114500000Y-77500000D01*
X114500000Y-77500000D02*
X113500000Y-76500000D01*
X100800000Y-74000000D02*
X100850000Y-73950000D01*
X97250000Y-74000000D02*
X100800000Y-74000000D01*
X96400000Y-74850000D02*
X97250000Y-74000000D01*
X96050000Y-74850000D02*
X96400000Y-74850000D01*
X102325000Y-91175000D02*
X102000000Y-91500000D01*
X103250000Y-91175000D02*
X102325000Y-91175000D01*
X111500000Y-91175000D02*
X111500000Y-90000000D01*
X128000000Y-89925000D02*
X128000000Y-88250000D01*
X125075000Y-95575000D02*
X125000000Y-95500000D01*
X128000000Y-95575000D02*
X125075000Y-95575000D01*
X125075000Y-75175000D02*
X125000000Y-75250000D01*
X128000000Y-75175000D02*
X125075000Y-75175000D01*
X119750000Y-60000000D02*
X118250000Y-60000000D01*
X112000000Y-58000000D02*
X113500000Y-58000000D01*
X112000000Y-58000000D02*
X110500000Y-58000000D01*
X119450000Y-53950000D02*
X119500000Y-54000000D01*
X118000000Y-53950000D02*
X119450000Y-53950000D01*
X116550000Y-53950000D02*
X116500000Y-54000000D01*
X118000000Y-53950000D02*
X116550000Y-53950000D01*
X107350000Y-54150000D02*
X107500000Y-54000000D01*
X106000000Y-54150000D02*
X107350000Y-54150000D01*
X104650000Y-54150000D02*
X104500000Y-54000000D01*
X106000000Y-54150000D02*
X104650000Y-54150000D01*
X101400000Y-57850000D02*
X101500000Y-57750000D01*
X100000000Y-57850000D02*
X101400000Y-57850000D01*
X98600000Y-57850000D02*
X98500000Y-57750000D01*
X100000000Y-57850000D02*
X98600000Y-57850000D01*
X95400000Y-54100000D02*
X95500000Y-54000000D01*
X94000000Y-54100000D02*
X95400000Y-54100000D01*
X92600000Y-54100000D02*
X92500000Y-54000000D01*
X94000000Y-54100000D02*
X92600000Y-54100000D01*
X89412500Y-57912500D02*
X89500000Y-58000000D01*
X88000000Y-57912500D02*
X89412500Y-57912500D01*
X118750000Y-88250000D02*
X120000000Y-87000000D01*
X118750000Y-88500000D02*
X118750000Y-88250000D01*
X101000000Y-80250000D02*
X102375000Y-78875000D01*
X101000000Y-82500000D02*
X101000000Y-80250000D01*
X98800000Y-83000000D02*
X100500000Y-83000000D01*
X100500000Y-83000000D02*
X101000000Y-82500000D01*
X98750000Y-82950000D02*
X98800000Y-83000000D01*
X83087500Y-57912500D02*
X83000000Y-57825000D01*
X88000000Y-57912500D02*
X83087500Y-57912500D01*
X86325000Y-52175000D02*
X86500000Y-52000000D01*
X83000000Y-52175000D02*
X86325000Y-52175000D01*
X115500000Y-81600000D02*
X115250000Y-81850000D01*
X115500000Y-80750000D02*
X115500000Y-81600000D01*
X114600000Y-79850000D02*
X114600000Y-79500000D01*
X115500000Y-80750000D02*
X114600000Y-79850000D01*
%TO.N,+5V*%
X96850000Y-81600000D02*
X96850000Y-82950000D01*
X97887500Y-80175000D02*
X96825000Y-80175000D01*
X96500000Y-80500000D02*
X96500000Y-81250000D01*
X96825000Y-80175000D02*
X96500000Y-80500000D01*
X96500000Y-81250000D02*
X96850000Y-81600000D01*
X96500000Y-80250000D02*
X96500000Y-79800000D01*
X96500000Y-79800000D02*
X96775000Y-79525000D01*
X97887500Y-79525000D02*
X96775000Y-79525000D01*
X103612500Y-79525000D02*
X102725000Y-79525000D01*
X102725000Y-79525000D02*
X102500000Y-79750000D01*
X102500000Y-79750000D02*
X102500000Y-84750000D01*
X102500000Y-84750000D02*
X102250000Y-85000000D01*
D22*
X91060000Y-88560000D02*
X91060000Y-85520000D01*
X91750000Y-89250000D02*
X91060000Y-88560000D01*
X98475000Y-89250000D02*
X91750000Y-89250000D01*
D21*
%TO.N,Net-(C4-Pad2)*%
X103000000Y-93250000D02*
X103250000Y-93000000D01*
X103000000Y-95000000D02*
X103000000Y-93250000D01*
X104250000Y-93000000D02*
X105500000Y-93000000D01*
X104250000Y-93000000D02*
X103250000Y-93000000D01*
X107300000Y-93000000D02*
X107550000Y-92750000D01*
X105500000Y-93000000D02*
X107300000Y-93000000D01*
%TO.N,Net-(C4-Pad1)*%
X113600000Y-91675000D02*
X113675000Y-91750000D01*
X113425000Y-92250000D02*
X113250000Y-92250000D01*
X112500000Y-93000000D02*
X111500000Y-93000000D01*
X113250000Y-92250000D02*
X112500000Y-93000000D01*
X109700000Y-93000000D02*
X109450000Y-92750000D01*
X111500000Y-93000000D02*
X109700000Y-93000000D01*
D22*
%TO.N,Net-(C5-Pad1)*%
X94000000Y-56000000D02*
X91912500Y-56000000D01*
X94000000Y-56000000D02*
X95950000Y-56000000D01*
%TO.N,Net-(C8-Pad1)*%
X98050000Y-55950000D02*
X98000000Y-56000000D01*
X100000000Y-55950000D02*
X98050000Y-55950000D01*
X100050000Y-56000000D02*
X100000000Y-55950000D01*
X102000000Y-56000000D02*
X100050000Y-56000000D01*
D21*
%TO.N,+3V3*%
X115500000Y-83750000D02*
X115250000Y-83750000D01*
X116137500Y-84387500D02*
X115500000Y-83750000D01*
X117300000Y-84387500D02*
X116137500Y-84387500D01*
X117950000Y-84387500D02*
X117950000Y-83450000D01*
X117950000Y-83450000D02*
X117750000Y-83250000D01*
X117750000Y-83250000D02*
X117500000Y-83250000D01*
X117300000Y-83450000D02*
X117300000Y-84387500D01*
X117500000Y-83250000D02*
X117300000Y-83450000D01*
X116925000Y-93175000D02*
X116925000Y-92250000D01*
X117500000Y-93750000D02*
X116925000Y-93175000D01*
X122250000Y-92750000D02*
X122250000Y-92250000D01*
X123000000Y-93500000D02*
X122250000Y-92750000D01*
X117300000Y-84387500D02*
X117300000Y-85550000D01*
X117750000Y-85750000D02*
X117950000Y-85550000D01*
X117500000Y-85750000D02*
X117750000Y-85750000D01*
X117950000Y-84387500D02*
X117950000Y-85550000D01*
X117300000Y-85550000D02*
X117500000Y-85750000D01*
X116550000Y-77450000D02*
X116500000Y-77500000D01*
X116550000Y-75525000D02*
X116550000Y-77450000D01*
X116500000Y-77500000D02*
X116500000Y-79500000D01*
X116500000Y-82500000D02*
X115250000Y-83750000D01*
X116500000Y-79500000D02*
X116500000Y-82500000D01*
X117750000Y-86000000D02*
X117750000Y-85750000D01*
%TO.N,+1V8*%
X119900000Y-82250000D02*
X120000000Y-82150000D01*
X119900000Y-84387500D02*
X119900000Y-82250000D01*
X121650000Y-79500000D02*
X121650000Y-80500000D01*
X121650000Y-80500000D02*
X121200000Y-80950000D01*
X121200000Y-80950000D02*
X120000000Y-82150000D01*
X120950000Y-81362500D02*
X121837500Y-82250000D01*
X120950000Y-81200000D02*
X120950000Y-81362500D01*
X121200000Y-80950000D02*
X120950000Y-81200000D01*
X121650000Y-77500000D02*
X121650000Y-79500000D01*
X121700000Y-77450000D02*
X121650000Y-77500000D01*
X121700000Y-75387500D02*
X121700000Y-77450000D01*
X119900000Y-84387500D02*
X119900000Y-85350000D01*
X119900000Y-85350000D02*
X118250000Y-87000000D01*
X118250000Y-87000000D02*
X117500000Y-87000000D01*
X117500000Y-87000000D02*
X116500000Y-86000000D01*
X116500000Y-86000000D02*
X114750000Y-86000000D01*
X114750000Y-86000000D02*
X114574775Y-86175225D01*
X114574775Y-86175225D02*
X114574775Y-88292378D01*
X114574775Y-88292378D02*
X114069846Y-88797307D01*
X114069846Y-88797307D02*
X110270855Y-88797307D01*
X107893162Y-91175000D02*
X105500000Y-91175000D01*
X110270855Y-88797307D02*
X107893162Y-91175000D01*
D22*
%TO.N,Net-(C11-Pad1)*%
X104100000Y-56050000D02*
X104050000Y-56000000D01*
X106000000Y-56050000D02*
X104100000Y-56050000D01*
X106050000Y-56000000D02*
X106000000Y-56050000D01*
X108000000Y-56000000D02*
X106050000Y-56000000D01*
%TO.N,Net-(C14-Pad1)*%
X109950000Y-55950000D02*
X109900000Y-56000000D01*
X112000000Y-55950000D02*
X109950000Y-55950000D01*
X112050000Y-56000000D02*
X112000000Y-55950000D01*
X114050000Y-56000000D02*
X112050000Y-56000000D01*
D21*
%TO.N,Net-(C15-Pad1)*%
X99325000Y-80825000D02*
X97887500Y-80825000D01*
X104750000Y-85500000D02*
X104250000Y-85500000D01*
X105500000Y-86250000D02*
X104750000Y-85500000D01*
%TO.N,Net-(C18-Pad1)*%
X103962500Y-84050000D02*
X103650000Y-84362500D01*
X105500000Y-84050000D02*
X103962500Y-84050000D01*
D22*
%TO.N,Net-(C19-Pad1)*%
X118000000Y-56000000D02*
X115950000Y-56000000D01*
X120000000Y-56000000D02*
X118000000Y-56000000D01*
%TO.N,Net-(C21-Pad1)*%
X124000000Y-56000000D02*
X121900000Y-56000000D01*
X125000000Y-55000000D02*
X124000000Y-56000000D01*
X128000000Y-55000000D02*
X125000000Y-55000000D01*
%TO.N,Net-(C24-Pad1)*%
X123850000Y-58050000D02*
X121900000Y-60000000D01*
X124000000Y-58050000D02*
X123850000Y-58050000D01*
X121650000Y-62150000D02*
X121750000Y-62250000D01*
X121650000Y-60000000D02*
X121650000Y-62150000D01*
%TO.N,Net-(C25-Pad2)*%
X112500000Y-65500000D02*
X114350000Y-65500000D01*
X114350000Y-65500000D02*
X114350000Y-64400000D01*
X116500000Y-62250000D02*
X119700000Y-62250000D01*
X114350000Y-64400000D02*
X116500000Y-62250000D01*
%TO.N,Net-(C25-Pad1)*%
X111750000Y-85500000D02*
X113500000Y-87250000D01*
X111750000Y-82250000D02*
X111750000Y-85500000D01*
X112500000Y-81500000D02*
X111750000Y-82250000D01*
X113500000Y-87250000D02*
X113675000Y-87250000D01*
X112500000Y-73500000D02*
X112500000Y-81500000D01*
X112000000Y-73000000D02*
X112500000Y-73500000D01*
X112000000Y-70000000D02*
X112000000Y-73000000D01*
X114337500Y-67662500D02*
X112000000Y-70000000D01*
D21*
X116250000Y-65675000D02*
X114425000Y-67500000D01*
X116250000Y-65500000D02*
X116250000Y-65675000D01*
%TO.N,Net-(C28-Pad2)*%
X124250000Y-89162500D02*
X124250000Y-90800000D01*
%TO.N,Net-(C28-Pad1)*%
X124300000Y-92750000D02*
X124250000Y-92700000D01*
X128200000Y-92750000D02*
X124300000Y-92750000D01*
%TO.N,Net-(C29-Pad2)*%
X124450000Y-78000000D02*
X124250000Y-78200000D01*
X128200000Y-78000000D02*
X124450000Y-78000000D01*
%TO.N,Net-(C29-Pad1)*%
X123662500Y-80287500D02*
X124000000Y-79950000D01*
X123662500Y-82250000D02*
X123662500Y-80287500D01*
X123975000Y-84387500D02*
X124087500Y-84500000D01*
X121200000Y-84387500D02*
X123975000Y-84387500D01*
X124000000Y-84412500D02*
X124087500Y-84500000D01*
X124000000Y-83500000D02*
X124000000Y-84412500D01*
X123662500Y-83162500D02*
X124000000Y-83500000D01*
X123662500Y-82250000D02*
X123662500Y-83162500D01*
D22*
%TO.N,Net-(D1-Pad2)*%
X90850000Y-73990000D02*
X91040000Y-74180000D01*
X90850000Y-69750000D02*
X90850000Y-73990000D01*
D21*
X93180000Y-74180000D02*
X91040000Y-74180000D01*
X97887500Y-78875000D02*
X97887500Y-78387500D01*
X96000000Y-77000000D02*
X93180000Y-74180000D01*
X96625000Y-78875000D02*
X96000000Y-78250000D01*
X96000000Y-78250000D02*
X96000000Y-77000000D01*
X97887500Y-78875000D02*
X96625000Y-78875000D01*
X97887500Y-78387500D02*
X96500000Y-77000000D01*
X96500000Y-77000000D02*
X96000000Y-77000000D01*
D22*
%TO.N,Net-(J1-Pad1)*%
X90000000Y-56087500D02*
X90087500Y-56000000D01*
X88000000Y-56087500D02*
X90000000Y-56087500D01*
X86912500Y-55000000D02*
X88000000Y-56087500D01*
X82800000Y-55000000D02*
X86912500Y-55000000D01*
D21*
%TO.N,Net-(J7-Pad2)*%
X119900000Y-91100000D02*
X118750000Y-92250000D01*
X119900000Y-90112500D02*
X119900000Y-91100000D01*
X118750000Y-94960000D02*
X118790000Y-95000000D01*
X118750000Y-92250000D02*
X118750000Y-94960000D01*
%TO.N,Net-(J7-Pad1)*%
X120550000Y-92125000D02*
X120425000Y-92250000D01*
X120550000Y-90112500D02*
X120550000Y-92125000D01*
X120425000Y-94095000D02*
X121330000Y-95000000D01*
X120425000Y-92250000D02*
X120425000Y-94095000D01*
D22*
%TO.N,Net-(J8-Pad1)*%
X107750000Y-76050000D02*
X107750000Y-78037500D01*
X107550000Y-75850000D02*
X107750000Y-76050000D01*
D21*
%TO.N,Net-(R5-Pad1)*%
X103650000Y-80862500D02*
X103612500Y-80825000D01*
X103650000Y-82537500D02*
X103650000Y-80862500D01*
%TO.N,Net-(R11-Pad1)*%
X119250000Y-89150000D02*
X119250000Y-90112500D01*
X121062500Y-87337500D02*
X119950000Y-88450000D01*
X124250000Y-87337500D02*
X121062500Y-87337500D01*
X119950000Y-88450000D02*
X119250000Y-89150000D01*
%TO.N,Net-(R12-Pad1)*%
X117950000Y-88950000D02*
X117950000Y-90112500D01*
X116250000Y-87250000D02*
X117950000Y-88950000D01*
X115500000Y-87250000D02*
X116250000Y-87250000D01*
%TO.N,Net-(R13-Pad1)*%
X117300000Y-90112500D02*
X116137500Y-90112500D01*
X115250000Y-91000000D02*
X115250000Y-92250000D01*
X116137500Y-90112500D02*
X115250000Y-91000000D01*
%TO.N,Net-(TP1-Pad1)*%
X120550000Y-84387500D02*
X120550000Y-85300000D01*
X121250000Y-86000000D02*
X128250000Y-86000000D01*
X120550000Y-85300000D02*
X121250000Y-86000000D01*
%TO.N,Net-(C22-Pad1)*%
X105650000Y-78037500D02*
X105537500Y-78037500D01*
X105150000Y-77650000D02*
X104050000Y-77650000D01*
X105537500Y-78037500D02*
X105150000Y-77650000D01*
X95100000Y-73204552D02*
X95545448Y-73204552D01*
X98600000Y-70150000D02*
X100850000Y-70150000D01*
X94850000Y-69750000D02*
X94850000Y-71350000D01*
X94850000Y-71350000D02*
X95000000Y-71500000D01*
X95000000Y-71500000D02*
X96000000Y-71500000D01*
X96625000Y-72125000D02*
X98600000Y-70150000D01*
X96000000Y-71500000D02*
X96625000Y-72125000D01*
X95545448Y-73204552D02*
X96625000Y-72125000D01*
D22*
X104075000Y-70150000D02*
X100850000Y-70150000D01*
X108725000Y-65500000D02*
X104075000Y-70150000D01*
X110450000Y-65500000D02*
X108725000Y-65500000D01*
D21*
%TO.N,Net-(R6-Pad1)*%
X105337500Y-80175000D02*
X105650000Y-79862500D01*
X103612500Y-80175000D02*
X105337500Y-80175000D01*
X105650000Y-79862500D02*
X107750000Y-79862500D01*
X105650000Y-81737500D02*
X105537500Y-81850000D01*
X105650000Y-79862500D02*
X105650000Y-81737500D01*
%TO.N,Net-(C12-Pad1)*%
X121650000Y-71300000D02*
X121700000Y-71250000D01*
X121650000Y-73225000D02*
X121650000Y-71300000D01*
X116575000Y-73225000D02*
X116550000Y-73250000D01*
X119750000Y-73225000D02*
X116575000Y-73225000D01*
X116550000Y-71300000D02*
X116500000Y-71250000D01*
X116550000Y-73250000D02*
X116550000Y-71300000D01*
D22*
X121700000Y-71250000D02*
X121700000Y-70200000D01*
X121700000Y-70200000D02*
X120750000Y-69250000D01*
X115500000Y-69250000D02*
X115250000Y-69000000D01*
X116500000Y-71250000D02*
X116500000Y-69250000D01*
X116500000Y-69250000D02*
X115500000Y-69250000D01*
X120750000Y-69250000D02*
X116500000Y-69250000D01*
D21*
X114650000Y-73250000D02*
X113750000Y-73250000D01*
X113750000Y-73250000D02*
X113250000Y-72750000D01*
X113250000Y-72750000D02*
X113250000Y-70000000D01*
X114250000Y-69000000D02*
X115250000Y-69000000D01*
X113250000Y-70000000D02*
X114250000Y-69000000D01*
D22*
X100575000Y-89200000D02*
X100525000Y-89250000D01*
X102750000Y-89200000D02*
X100575000Y-89200000D01*
X102800000Y-89250000D02*
X102750000Y-89200000D01*
X110000000Y-82000000D02*
X110000000Y-87500000D01*
X111000000Y-81000000D02*
X110000000Y-82000000D01*
X111000000Y-73000000D02*
X111000000Y-81000000D01*
X110000000Y-72000000D02*
X111000000Y-73000000D01*
X108250000Y-89250000D02*
X102800000Y-89250000D01*
X110000000Y-69250000D02*
X110000000Y-72000000D01*
X111000000Y-68250000D02*
X110000000Y-69250000D01*
X110000000Y-87500000D02*
X108250000Y-89250000D01*
%TD*%
D23*
%TO.N,+5V*%
X96061205Y-79386008D02*
X96084999Y-79415001D01*
X96113992Y-79438795D01*
X96113996Y-79438799D01*
X96130082Y-79452000D01*
X96200724Y-79509974D01*
X96332753Y-79580546D01*
X96476014Y-79624003D01*
X96515000Y-79627843D01*
X96515000Y-79652002D01*
X96603007Y-79652002D01*
X96582211Y-79689539D01*
X96515000Y-79756750D01*
X96525164Y-79850000D01*
X96515000Y-79943250D01*
X96582211Y-80010461D01*
X96624856Y-80087436D01*
X96705654Y-80182922D01*
X96729537Y-80201928D01*
X96728104Y-80203104D01*
X96691259Y-80248000D01*
X96673750Y-80248000D01*
X96515000Y-80406750D01*
X96526132Y-80508883D01*
X96537350Y-80543955D01*
X96526110Y-80581009D01*
X96511928Y-80725000D01*
X96511928Y-80925000D01*
X96526110Y-81068991D01*
X96568110Y-81207448D01*
X96636316Y-81335051D01*
X96728104Y-81446896D01*
X96839949Y-81538684D01*
X96967552Y-81606890D01*
X97083644Y-81642106D01*
X96977000Y-81748750D01*
X96977000Y-82823000D01*
X96997000Y-82823000D01*
X96997000Y-83077000D01*
X96977000Y-83077000D01*
X96977000Y-84151250D01*
X97075750Y-84250000D01*
X96977000Y-84348750D01*
X96977000Y-85423000D01*
X96997000Y-85423000D01*
X96997000Y-85677000D01*
X96977000Y-85677000D01*
X96977000Y-86751250D01*
X97135750Y-86910000D01*
X97350000Y-86913072D01*
X97474482Y-86900812D01*
X97594180Y-86864502D01*
X97704494Y-86805537D01*
X97801185Y-86726185D01*
X97866658Y-86646406D01*
X97872038Y-86652962D01*
X98006614Y-86763405D01*
X98160150Y-86845472D01*
X98168355Y-86847961D01*
X99275106Y-87954712D01*
X99174482Y-87924188D01*
X99050000Y-87911928D01*
X98760750Y-87915000D01*
X98602000Y-88073750D01*
X98602000Y-89123000D01*
X98622000Y-89123000D01*
X98622000Y-89377000D01*
X98602000Y-89377000D01*
X98602000Y-89397000D01*
X98348000Y-89397000D01*
X98348000Y-89377000D01*
X97423750Y-89377000D01*
X97265000Y-89535750D01*
X97261928Y-89950000D01*
X97274188Y-90074482D01*
X97310498Y-90194180D01*
X97369463Y-90304494D01*
X97425684Y-90373000D01*
X96711268Y-90373000D01*
X96484979Y-90221799D01*
X95914446Y-89985476D01*
X95308771Y-89865000D01*
X94691229Y-89865000D01*
X94085554Y-89985476D01*
X93515021Y-90221799D01*
X93288732Y-90373000D01*
X88075053Y-90373000D01*
X88154494Y-90330537D01*
X88251185Y-90251185D01*
X88330537Y-90154494D01*
X88389502Y-90044180D01*
X88425812Y-89924482D01*
X88438072Y-89800000D01*
X88435000Y-89285750D01*
X88276250Y-89127000D01*
X87127000Y-89127000D01*
X87127000Y-89147000D01*
X86873000Y-89147000D01*
X86873000Y-89127000D01*
X85723750Y-89127000D01*
X85565000Y-89285750D01*
X85561928Y-89800000D01*
X85574188Y-89924482D01*
X85610498Y-90044180D01*
X85669463Y-90154494D01*
X85748815Y-90251185D01*
X85845506Y-90330537D01*
X85924947Y-90373000D01*
X84052606Y-90373000D01*
X81660000Y-87980394D01*
X81660000Y-85253889D01*
X81698815Y-85301185D01*
X81795506Y-85380537D01*
X81905820Y-85439502D01*
X82025518Y-85475812D01*
X82150000Y-85488072D01*
X82714250Y-85485000D01*
X82873000Y-85326250D01*
X82873000Y-84127000D01*
X83127000Y-84127000D01*
X83127000Y-85326250D01*
X83285750Y-85485000D01*
X83850000Y-85488072D01*
X83974482Y-85475812D01*
X84094180Y-85439502D01*
X84204494Y-85380537D01*
X84301185Y-85301185D01*
X84380537Y-85204494D01*
X84439502Y-85094180D01*
X84475812Y-84974482D01*
X84488072Y-84850000D01*
X84485000Y-84285750D01*
X84326250Y-84127000D01*
X83127000Y-84127000D01*
X82873000Y-84127000D01*
X82853000Y-84127000D01*
X82853000Y-83873000D01*
X82873000Y-83873000D01*
X82873000Y-81587000D01*
X83127000Y-81587000D01*
X83127000Y-83873000D01*
X84326250Y-83873000D01*
X84485000Y-83714250D01*
X84488072Y-83150000D01*
X84475812Y-83025518D01*
X84439502Y-82905820D01*
X84380537Y-82795506D01*
X84301185Y-82698815D01*
X84204494Y-82619463D01*
X84094180Y-82560498D01*
X84013534Y-82536034D01*
X84097588Y-82460269D01*
X84271641Y-82226920D01*
X84396825Y-81964099D01*
X84441476Y-81816890D01*
X84320155Y-81587000D01*
X83127000Y-81587000D01*
X82873000Y-81587000D01*
X82853000Y-81587000D01*
X82853000Y-81333000D01*
X82873000Y-81333000D01*
X82873000Y-81313000D01*
X83127000Y-81313000D01*
X83127000Y-81333000D01*
X84320155Y-81333000D01*
X84441476Y-81103110D01*
X84396825Y-80955901D01*
X84271641Y-80693080D01*
X84222352Y-80627000D01*
X84623000Y-80627000D01*
X84623000Y-86750000D01*
X84625440Y-86774776D01*
X84632667Y-86798601D01*
X84648400Y-86826200D01*
X85398400Y-87826200D01*
X85415218Y-87844557D01*
X85435294Y-87859280D01*
X85457857Y-87869804D01*
X85482039Y-87875724D01*
X85500000Y-87877000D01*
X85652629Y-87877000D01*
X85610498Y-87955820D01*
X85574188Y-88075518D01*
X85561928Y-88200000D01*
X85565000Y-88714250D01*
X85723750Y-88873000D01*
X86873000Y-88873000D01*
X86873000Y-87723750D01*
X87127000Y-87723750D01*
X87127000Y-88873000D01*
X88276250Y-88873000D01*
X88435000Y-88714250D01*
X88435981Y-88550000D01*
X97261928Y-88550000D01*
X97265000Y-88964250D01*
X97423750Y-89123000D01*
X98348000Y-89123000D01*
X98348000Y-88073750D01*
X98189250Y-87915000D01*
X97900000Y-87911928D01*
X97775518Y-87924188D01*
X97655820Y-87960498D01*
X97545506Y-88019463D01*
X97448815Y-88098815D01*
X97369463Y-88195506D01*
X97310498Y-88305820D01*
X97274188Y-88425518D01*
X97261928Y-88550000D01*
X88435981Y-88550000D01*
X88438072Y-88200000D01*
X88425812Y-88075518D01*
X88389502Y-87955820D01*
X88330537Y-87845506D01*
X88251185Y-87748815D01*
X88154494Y-87669463D01*
X88044180Y-87610498D01*
X87924482Y-87574188D01*
X87800000Y-87561928D01*
X87285750Y-87565000D01*
X87127000Y-87723750D01*
X86873000Y-87723750D01*
X86789428Y-87640178D01*
X86909606Y-87520000D01*
X88921928Y-87520000D01*
X88934188Y-87644482D01*
X88970498Y-87764180D01*
X89029463Y-87874494D01*
X89108815Y-87971185D01*
X89205506Y-88050537D01*
X89315820Y-88109502D01*
X89435518Y-88145812D01*
X89560000Y-88158072D01*
X90774250Y-88155000D01*
X90933000Y-87996250D01*
X90933000Y-85647000D01*
X91187000Y-85647000D01*
X91187000Y-87996250D01*
X91345750Y-88155000D01*
X92560000Y-88158072D01*
X92684482Y-88145812D01*
X92804180Y-88109502D01*
X92914494Y-88050537D01*
X93011185Y-87971185D01*
X93090537Y-87874494D01*
X93149502Y-87764180D01*
X93185812Y-87644482D01*
X93198072Y-87520000D01*
X93195841Y-86275000D01*
X95711928Y-86275000D01*
X95724188Y-86399482D01*
X95760498Y-86519180D01*
X95819463Y-86629494D01*
X95898815Y-86726185D01*
X95995506Y-86805537D01*
X96105820Y-86864502D01*
X96225518Y-86900812D01*
X96350000Y-86913072D01*
X96564250Y-86910000D01*
X96723000Y-86751250D01*
X96723000Y-85677000D01*
X95873750Y-85677000D01*
X95715000Y-85835750D01*
X95711928Y-86275000D01*
X93195841Y-86275000D01*
X93195000Y-85805750D01*
X93036250Y-85647000D01*
X91187000Y-85647000D01*
X90933000Y-85647000D01*
X89083750Y-85647000D01*
X88925000Y-85805750D01*
X88921928Y-87520000D01*
X86909606Y-87520000D01*
X87089803Y-87339803D01*
X87105597Y-87320557D01*
X87117333Y-87298601D01*
X87124560Y-87274776D01*
X87127000Y-87250000D01*
X87127000Y-85802606D01*
X87552606Y-85377000D01*
X89067750Y-85377000D01*
X89083750Y-85393000D01*
X90933000Y-85393000D01*
X90933000Y-85377000D01*
X91187000Y-85377000D01*
X91187000Y-85393000D01*
X93036250Y-85393000D01*
X93087818Y-85341432D01*
X93089803Y-85339803D01*
X93090983Y-85338267D01*
X93195000Y-85234250D01*
X93195122Y-85166447D01*
X94058591Y-83675000D01*
X95711928Y-83675000D01*
X95724188Y-83799482D01*
X95760498Y-83919180D01*
X95819463Y-84029494D01*
X95898815Y-84126185D01*
X95995506Y-84205537D01*
X96078689Y-84250000D01*
X95995506Y-84294463D01*
X95898815Y-84373815D01*
X95819463Y-84470506D01*
X95760498Y-84580820D01*
X95724188Y-84700518D01*
X95711928Y-84825000D01*
X95715000Y-85264250D01*
X95873750Y-85423000D01*
X96723000Y-85423000D01*
X96723000Y-84348750D01*
X96624250Y-84250000D01*
X96723000Y-84151250D01*
X96723000Y-83077000D01*
X95873750Y-83077000D01*
X95715000Y-83235750D01*
X95711928Y-83675000D01*
X94058591Y-83675000D01*
X94898064Y-82225000D01*
X95711928Y-82225000D01*
X95715000Y-82664250D01*
X95873750Y-82823000D01*
X96723000Y-82823000D01*
X96723000Y-81748750D01*
X96564250Y-81590000D01*
X96350000Y-81586928D01*
X96225518Y-81599188D01*
X96105820Y-81635498D01*
X95995506Y-81694463D01*
X95898815Y-81773815D01*
X95819463Y-81870506D01*
X95760498Y-81980820D01*
X95724188Y-82100518D01*
X95711928Y-82225000D01*
X94898064Y-82225000D01*
X95859909Y-80563632D01*
X95870211Y-80540967D01*
X95875894Y-80516728D01*
X95877000Y-80500000D01*
X95877000Y-79377000D01*
X96052197Y-79377000D01*
X96061205Y-79386008D01*
%TA.AperFunction,Conductor*%
D24*
G36*
X96061205Y-79386008D02*
G01*
X96084999Y-79415001D01*
X96113992Y-79438795D01*
X96113996Y-79438799D01*
X96130082Y-79452000D01*
X96200724Y-79509974D01*
X96332753Y-79580546D01*
X96476014Y-79624003D01*
X96515000Y-79627843D01*
X96515000Y-79652002D01*
X96603007Y-79652002D01*
X96582211Y-79689539D01*
X96515000Y-79756750D01*
X96525164Y-79850000D01*
X96515000Y-79943250D01*
X96582211Y-80010461D01*
X96624856Y-80087436D01*
X96705654Y-80182922D01*
X96729537Y-80201928D01*
X96728104Y-80203104D01*
X96691259Y-80248000D01*
X96673750Y-80248000D01*
X96515000Y-80406750D01*
X96526132Y-80508883D01*
X96537350Y-80543955D01*
X96526110Y-80581009D01*
X96511928Y-80725000D01*
X96511928Y-80925000D01*
X96526110Y-81068991D01*
X96568110Y-81207448D01*
X96636316Y-81335051D01*
X96728104Y-81446896D01*
X96839949Y-81538684D01*
X96967552Y-81606890D01*
X97083644Y-81642106D01*
X96977000Y-81748750D01*
X96977000Y-82823000D01*
X96997000Y-82823000D01*
X96997000Y-83077000D01*
X96977000Y-83077000D01*
X96977000Y-84151250D01*
X97075750Y-84250000D01*
X96977000Y-84348750D01*
X96977000Y-85423000D01*
X96997000Y-85423000D01*
X96997000Y-85677000D01*
X96977000Y-85677000D01*
X96977000Y-86751250D01*
X97135750Y-86910000D01*
X97350000Y-86913072D01*
X97474482Y-86900812D01*
X97594180Y-86864502D01*
X97704494Y-86805537D01*
X97801185Y-86726185D01*
X97866658Y-86646406D01*
X97872038Y-86652962D01*
X98006614Y-86763405D01*
X98160150Y-86845472D01*
X98168355Y-86847961D01*
X99275106Y-87954712D01*
X99174482Y-87924188D01*
X99050000Y-87911928D01*
X98760750Y-87915000D01*
X98602000Y-88073750D01*
X98602000Y-89123000D01*
X98622000Y-89123000D01*
X98622000Y-89377000D01*
X98602000Y-89377000D01*
X98602000Y-89397000D01*
X98348000Y-89397000D01*
X98348000Y-89377000D01*
X97423750Y-89377000D01*
X97265000Y-89535750D01*
X97261928Y-89950000D01*
X97274188Y-90074482D01*
X97310498Y-90194180D01*
X97369463Y-90304494D01*
X97425684Y-90373000D01*
X96711268Y-90373000D01*
X96484979Y-90221799D01*
X95914446Y-89985476D01*
X95308771Y-89865000D01*
X94691229Y-89865000D01*
X94085554Y-89985476D01*
X93515021Y-90221799D01*
X93288732Y-90373000D01*
X88075053Y-90373000D01*
X88154494Y-90330537D01*
X88251185Y-90251185D01*
X88330537Y-90154494D01*
X88389502Y-90044180D01*
X88425812Y-89924482D01*
X88438072Y-89800000D01*
X88435000Y-89285750D01*
X88276250Y-89127000D01*
X87127000Y-89127000D01*
X87127000Y-89147000D01*
X86873000Y-89147000D01*
X86873000Y-89127000D01*
X85723750Y-89127000D01*
X85565000Y-89285750D01*
X85561928Y-89800000D01*
X85574188Y-89924482D01*
X85610498Y-90044180D01*
X85669463Y-90154494D01*
X85748815Y-90251185D01*
X85845506Y-90330537D01*
X85924947Y-90373000D01*
X84052606Y-90373000D01*
X81660000Y-87980394D01*
X81660000Y-85253889D01*
X81698815Y-85301185D01*
X81795506Y-85380537D01*
X81905820Y-85439502D01*
X82025518Y-85475812D01*
X82150000Y-85488072D01*
X82714250Y-85485000D01*
X82873000Y-85326250D01*
X82873000Y-84127000D01*
X83127000Y-84127000D01*
X83127000Y-85326250D01*
X83285750Y-85485000D01*
X83850000Y-85488072D01*
X83974482Y-85475812D01*
X84094180Y-85439502D01*
X84204494Y-85380537D01*
X84301185Y-85301185D01*
X84380537Y-85204494D01*
X84439502Y-85094180D01*
X84475812Y-84974482D01*
X84488072Y-84850000D01*
X84485000Y-84285750D01*
X84326250Y-84127000D01*
X83127000Y-84127000D01*
X82873000Y-84127000D01*
X82853000Y-84127000D01*
X82853000Y-83873000D01*
X82873000Y-83873000D01*
X82873000Y-81587000D01*
X83127000Y-81587000D01*
X83127000Y-83873000D01*
X84326250Y-83873000D01*
X84485000Y-83714250D01*
X84488072Y-83150000D01*
X84475812Y-83025518D01*
X84439502Y-82905820D01*
X84380537Y-82795506D01*
X84301185Y-82698815D01*
X84204494Y-82619463D01*
X84094180Y-82560498D01*
X84013534Y-82536034D01*
X84097588Y-82460269D01*
X84271641Y-82226920D01*
X84396825Y-81964099D01*
X84441476Y-81816890D01*
X84320155Y-81587000D01*
X83127000Y-81587000D01*
X82873000Y-81587000D01*
X82853000Y-81587000D01*
X82853000Y-81333000D01*
X82873000Y-81333000D01*
X82873000Y-81313000D01*
X83127000Y-81313000D01*
X83127000Y-81333000D01*
X84320155Y-81333000D01*
X84441476Y-81103110D01*
X84396825Y-80955901D01*
X84271641Y-80693080D01*
X84222352Y-80627000D01*
X84623000Y-80627000D01*
X84623000Y-86750000D01*
X84625440Y-86774776D01*
X84632667Y-86798601D01*
X84648400Y-86826200D01*
X85398400Y-87826200D01*
X85415218Y-87844557D01*
X85435294Y-87859280D01*
X85457857Y-87869804D01*
X85482039Y-87875724D01*
X85500000Y-87877000D01*
X85652629Y-87877000D01*
X85610498Y-87955820D01*
X85574188Y-88075518D01*
X85561928Y-88200000D01*
X85565000Y-88714250D01*
X85723750Y-88873000D01*
X86873000Y-88873000D01*
X86873000Y-87723750D01*
X87127000Y-87723750D01*
X87127000Y-88873000D01*
X88276250Y-88873000D01*
X88435000Y-88714250D01*
X88435981Y-88550000D01*
X97261928Y-88550000D01*
X97265000Y-88964250D01*
X97423750Y-89123000D01*
X98348000Y-89123000D01*
X98348000Y-88073750D01*
X98189250Y-87915000D01*
X97900000Y-87911928D01*
X97775518Y-87924188D01*
X97655820Y-87960498D01*
X97545506Y-88019463D01*
X97448815Y-88098815D01*
X97369463Y-88195506D01*
X97310498Y-88305820D01*
X97274188Y-88425518D01*
X97261928Y-88550000D01*
X88435981Y-88550000D01*
X88438072Y-88200000D01*
X88425812Y-88075518D01*
X88389502Y-87955820D01*
X88330537Y-87845506D01*
X88251185Y-87748815D01*
X88154494Y-87669463D01*
X88044180Y-87610498D01*
X87924482Y-87574188D01*
X87800000Y-87561928D01*
X87285750Y-87565000D01*
X87127000Y-87723750D01*
X86873000Y-87723750D01*
X86789428Y-87640178D01*
X86909606Y-87520000D01*
X88921928Y-87520000D01*
X88934188Y-87644482D01*
X88970498Y-87764180D01*
X89029463Y-87874494D01*
X89108815Y-87971185D01*
X89205506Y-88050537D01*
X89315820Y-88109502D01*
X89435518Y-88145812D01*
X89560000Y-88158072D01*
X90774250Y-88155000D01*
X90933000Y-87996250D01*
X90933000Y-85647000D01*
X91187000Y-85647000D01*
X91187000Y-87996250D01*
X91345750Y-88155000D01*
X92560000Y-88158072D01*
X92684482Y-88145812D01*
X92804180Y-88109502D01*
X92914494Y-88050537D01*
X93011185Y-87971185D01*
X93090537Y-87874494D01*
X93149502Y-87764180D01*
X93185812Y-87644482D01*
X93198072Y-87520000D01*
X93195841Y-86275000D01*
X95711928Y-86275000D01*
X95724188Y-86399482D01*
X95760498Y-86519180D01*
X95819463Y-86629494D01*
X95898815Y-86726185D01*
X95995506Y-86805537D01*
X96105820Y-86864502D01*
X96225518Y-86900812D01*
X96350000Y-86913072D01*
X96564250Y-86910000D01*
X96723000Y-86751250D01*
X96723000Y-85677000D01*
X95873750Y-85677000D01*
X95715000Y-85835750D01*
X95711928Y-86275000D01*
X93195841Y-86275000D01*
X93195000Y-85805750D01*
X93036250Y-85647000D01*
X91187000Y-85647000D01*
X90933000Y-85647000D01*
X89083750Y-85647000D01*
X88925000Y-85805750D01*
X88921928Y-87520000D01*
X86909606Y-87520000D01*
X87089803Y-87339803D01*
X87105597Y-87320557D01*
X87117333Y-87298601D01*
X87124560Y-87274776D01*
X87127000Y-87250000D01*
X87127000Y-85802606D01*
X87552606Y-85377000D01*
X89067750Y-85377000D01*
X89083750Y-85393000D01*
X90933000Y-85393000D01*
X90933000Y-85377000D01*
X91187000Y-85377000D01*
X91187000Y-85393000D01*
X93036250Y-85393000D01*
X93087818Y-85341432D01*
X93089803Y-85339803D01*
X93090983Y-85338267D01*
X93195000Y-85234250D01*
X93195122Y-85166447D01*
X94058591Y-83675000D01*
X95711928Y-83675000D01*
X95724188Y-83799482D01*
X95760498Y-83919180D01*
X95819463Y-84029494D01*
X95898815Y-84126185D01*
X95995506Y-84205537D01*
X96078689Y-84250000D01*
X95995506Y-84294463D01*
X95898815Y-84373815D01*
X95819463Y-84470506D01*
X95760498Y-84580820D01*
X95724188Y-84700518D01*
X95711928Y-84825000D01*
X95715000Y-85264250D01*
X95873750Y-85423000D01*
X96723000Y-85423000D01*
X96723000Y-84348750D01*
X96624250Y-84250000D01*
X96723000Y-84151250D01*
X96723000Y-83077000D01*
X95873750Y-83077000D01*
X95715000Y-83235750D01*
X95711928Y-83675000D01*
X94058591Y-83675000D01*
X94898064Y-82225000D01*
X95711928Y-82225000D01*
X95715000Y-82664250D01*
X95873750Y-82823000D01*
X96723000Y-82823000D01*
X96723000Y-81748750D01*
X96564250Y-81590000D01*
X96350000Y-81586928D01*
X96225518Y-81599188D01*
X96105820Y-81635498D01*
X95995506Y-81694463D01*
X95898815Y-81773815D01*
X95819463Y-81870506D01*
X95760498Y-81980820D01*
X95724188Y-82100518D01*
X95711928Y-82225000D01*
X94898064Y-82225000D01*
X95859909Y-80563632D01*
X95870211Y-80540967D01*
X95875894Y-80516728D01*
X95877000Y-80500000D01*
X95877000Y-79377000D01*
X96052197Y-79377000D01*
X96061205Y-79386008D01*
G37*
%TD.AperFunction*%
%TD*%
D23*
%TO.N,GND*%
X100036903Y-72957298D02*
X100850000Y-73770395D01*
X101663097Y-72957298D01*
X101639537Y-72877000D01*
X108197394Y-72877000D01*
X109873000Y-74552606D01*
X109873000Y-79947394D01*
X108910197Y-80910197D01*
X108894403Y-80929443D01*
X108882667Y-80951399D01*
X108875440Y-80975224D01*
X108873000Y-81000000D01*
X108873000Y-86947394D01*
X107947394Y-87873000D01*
X104105882Y-87873000D01*
X104113072Y-87800000D01*
X104110000Y-87585750D01*
X103951250Y-87427000D01*
X102877000Y-87427000D01*
X102877000Y-87447000D01*
X102623000Y-87447000D01*
X102623000Y-87427000D01*
X101548750Y-87427000D01*
X101390000Y-87585750D01*
X101386928Y-87800000D01*
X101394118Y-87873000D01*
X100121853Y-87873000D01*
X100086664Y-87756996D01*
X100027983Y-87647213D01*
X99949013Y-87550987D01*
X99782247Y-87384221D01*
X99745226Y-87198102D01*
X99667205Y-87009744D01*
X99553937Y-86840226D01*
X99548942Y-86835231D01*
X99604494Y-86805537D01*
X99611240Y-86800000D01*
X101386928Y-86800000D01*
X101390000Y-87014250D01*
X101548750Y-87173000D01*
X102623000Y-87173000D01*
X102623000Y-86323750D01*
X102464250Y-86165000D01*
X102025000Y-86161928D01*
X101900518Y-86174188D01*
X101780820Y-86210498D01*
X101670506Y-86269463D01*
X101573815Y-86348815D01*
X101494463Y-86445506D01*
X101435498Y-86555820D01*
X101399188Y-86675518D01*
X101386928Y-86800000D01*
X99611240Y-86800000D01*
X99701185Y-86726185D01*
X99780537Y-86629494D01*
X99839502Y-86519180D01*
X99875812Y-86399482D01*
X99888072Y-86275000D01*
X99885000Y-85835750D01*
X99726250Y-85677000D01*
X98877000Y-85677000D01*
X98877000Y-85697000D01*
X98635000Y-85697000D01*
X98635000Y-83077000D01*
X98877000Y-83077000D01*
X98877000Y-84151250D01*
X98975750Y-84250000D01*
X98877000Y-84348750D01*
X98877000Y-85423000D01*
X99726250Y-85423000D01*
X99885000Y-85264250D01*
X99887561Y-84898061D01*
X101215000Y-84898061D01*
X101215000Y-85101939D01*
X101254774Y-85301898D01*
X101332795Y-85490256D01*
X101446063Y-85659774D01*
X101590226Y-85803937D01*
X101759744Y-85917205D01*
X101948102Y-85995226D01*
X102148061Y-86035000D01*
X102351939Y-86035000D01*
X102551898Y-85995226D01*
X102740256Y-85917205D01*
X102909774Y-85803937D01*
X103053937Y-85659774D01*
X103154926Y-85508633D01*
X103199998Y-85513072D01*
X103215000Y-85513072D01*
X103215000Y-85601939D01*
X103254774Y-85801898D01*
X103332795Y-85990256D01*
X103446063Y-86159774D01*
X103448403Y-86162114D01*
X103035750Y-86165000D01*
X102877000Y-86323750D01*
X102877000Y-87173000D01*
X103951250Y-87173000D01*
X104110000Y-87014250D01*
X104113072Y-86800000D01*
X104100812Y-86675518D01*
X104064502Y-86555820D01*
X104042108Y-86513925D01*
X104148061Y-86535000D01*
X104351939Y-86535000D01*
X104361928Y-86533013D01*
X104361928Y-86725000D01*
X104378992Y-86898254D01*
X104429528Y-87064850D01*
X104511595Y-87218386D01*
X104622038Y-87352962D01*
X104756614Y-87463405D01*
X104910150Y-87545472D01*
X105076746Y-87596008D01*
X105250000Y-87613072D01*
X105750000Y-87613072D01*
X105923254Y-87596008D01*
X106089850Y-87545472D01*
X106243386Y-87463405D01*
X106377962Y-87352962D01*
X106383342Y-87346406D01*
X106448815Y-87426185D01*
X106545506Y-87505537D01*
X106655820Y-87564502D01*
X106775518Y-87600812D01*
X106900000Y-87613072D01*
X107114250Y-87610000D01*
X107273000Y-87451250D01*
X107273000Y-86377000D01*
X107527000Y-86377000D01*
X107527000Y-87451250D01*
X107685750Y-87610000D01*
X107900000Y-87613072D01*
X108024482Y-87600812D01*
X108144180Y-87564502D01*
X108254494Y-87505537D01*
X108351185Y-87426185D01*
X108430537Y-87329494D01*
X108489502Y-87219180D01*
X108525812Y-87099482D01*
X108538072Y-86975000D01*
X108535000Y-86535750D01*
X108376250Y-86377000D01*
X107527000Y-86377000D01*
X107273000Y-86377000D01*
X107253000Y-86377000D01*
X107253000Y-86123000D01*
X107273000Y-86123000D01*
X107273000Y-84177000D01*
X107527000Y-84177000D01*
X107527000Y-86123000D01*
X108376250Y-86123000D01*
X108535000Y-85964250D01*
X108538072Y-85525000D01*
X108525812Y-85400518D01*
X108489502Y-85280820D01*
X108430537Y-85170506D01*
X108413708Y-85150000D01*
X108430537Y-85129494D01*
X108489502Y-85019180D01*
X108525812Y-84899482D01*
X108538072Y-84775000D01*
X108535000Y-84335750D01*
X108376250Y-84177000D01*
X107527000Y-84177000D01*
X107273000Y-84177000D01*
X107253000Y-84177000D01*
X107253000Y-83923000D01*
X107273000Y-83923000D01*
X107273000Y-82848750D01*
X107235500Y-82811250D01*
X107235500Y-81977000D01*
X107489500Y-81977000D01*
X107489500Y-83026250D01*
X107527000Y-83063750D01*
X107527000Y-83923000D01*
X108376250Y-83923000D01*
X108535000Y-83764250D01*
X108538072Y-83325000D01*
X108525812Y-83200518D01*
X108489502Y-83080820D01*
X108430537Y-82970506D01*
X108390950Y-82922269D01*
X108405537Y-82904494D01*
X108464502Y-82794180D01*
X108500812Y-82674482D01*
X108513072Y-82550000D01*
X108510000Y-82135750D01*
X108351250Y-81977000D01*
X107489500Y-81977000D01*
X107235500Y-81977000D01*
X107215500Y-81977000D01*
X107215500Y-81723000D01*
X107235500Y-81723000D01*
X107235500Y-81703000D01*
X107489500Y-81703000D01*
X107489500Y-81723000D01*
X108351250Y-81723000D01*
X108510000Y-81564250D01*
X108513072Y-81150000D01*
X108500812Y-81025518D01*
X108481866Y-80963062D01*
X108539852Y-80945472D01*
X108693387Y-80863405D01*
X108827962Y-80752962D01*
X108938405Y-80618387D01*
X109020472Y-80464852D01*
X109071008Y-80298256D01*
X109088072Y-80125002D01*
X109088072Y-79599998D01*
X109071008Y-79426744D01*
X109020472Y-79260148D01*
X108938405Y-79106613D01*
X108827962Y-78972038D01*
X108801109Y-78950000D01*
X108827962Y-78927962D01*
X108938405Y-78793387D01*
X109020472Y-78639852D01*
X109071008Y-78473256D01*
X109088072Y-78300002D01*
X109088072Y-77774998D01*
X109071008Y-77601744D01*
X109020472Y-77435148D01*
X108938405Y-77281613D01*
X108827962Y-77147038D01*
X108715000Y-77054332D01*
X108715000Y-76509389D01*
X108733061Y-76482359D01*
X108833696Y-76239405D01*
X108885000Y-75981486D01*
X108885000Y-75718514D01*
X108833696Y-75460595D01*
X108733061Y-75217641D01*
X108586962Y-74998987D01*
X108401013Y-74813038D01*
X108182359Y-74666939D01*
X107939405Y-74566304D01*
X107681486Y-74515000D01*
X107418514Y-74515000D01*
X107160595Y-74566304D01*
X106917641Y-74666939D01*
X106698987Y-74813038D01*
X106513038Y-74998987D01*
X106366939Y-75217641D01*
X106278379Y-75431444D01*
X106218935Y-75268634D01*
X106165037Y-75167797D01*
X105931269Y-75108336D01*
X105189605Y-75850000D01*
X105931269Y-76591664D01*
X106165037Y-76532203D01*
X106275934Y-76293758D01*
X106280706Y-76274173D01*
X106366939Y-76482359D01*
X106513038Y-76701013D01*
X106698987Y-76886962D01*
X106785000Y-76944434D01*
X106785001Y-77054332D01*
X106700000Y-77124090D01*
X106593387Y-77036595D01*
X106439852Y-76954528D01*
X106273256Y-76903992D01*
X106100002Y-76886928D01*
X105722245Y-76886928D01*
X105751664Y-76771269D01*
X105010000Y-76029605D01*
X104995858Y-76043748D01*
X104816253Y-75864143D01*
X104830395Y-75850000D01*
X104088731Y-75108336D01*
X103854963Y-75167797D01*
X103744066Y-75406242D01*
X103681817Y-75661740D01*
X103670610Y-75924473D01*
X103710875Y-76184344D01*
X103801065Y-76431366D01*
X103854963Y-76532203D01*
X104088729Y-76591663D01*
X104065392Y-76615000D01*
X103948061Y-76615000D01*
X103748102Y-76654774D01*
X103559744Y-76732795D01*
X103390226Y-76846063D01*
X103246063Y-76990226D01*
X103132795Y-77159744D01*
X103054774Y-77348102D01*
X103015000Y-77548061D01*
X103015000Y-77751939D01*
X103054774Y-77951898D01*
X103090604Y-78038398D01*
X102884600Y-78037000D01*
X102759948Y-78047386D01*
X102639718Y-78081891D01*
X102528529Y-78139189D01*
X102430654Y-78217078D01*
X102349856Y-78312564D01*
X102289239Y-78421979D01*
X102251132Y-78541117D01*
X102240000Y-78643250D01*
X102398750Y-78802000D01*
X102490292Y-78802000D01*
X102432753Y-78819454D01*
X102300724Y-78890026D01*
X102184999Y-78984999D01*
X102161196Y-79014003D01*
X101989003Y-79186196D01*
X101959999Y-79209999D01*
X101918843Y-79260148D01*
X101865026Y-79325724D01*
X101838145Y-79376015D01*
X101794454Y-79457754D01*
X101750997Y-79601015D01*
X101740000Y-79712668D01*
X101740000Y-79712678D01*
X101736324Y-79750000D01*
X101740000Y-79787323D01*
X101740001Y-84095987D01*
X101590226Y-84196063D01*
X101446063Y-84340226D01*
X101332795Y-84509744D01*
X101254774Y-84698102D01*
X101215000Y-84898061D01*
X99887561Y-84898061D01*
X99888072Y-84825000D01*
X99875812Y-84700518D01*
X99839502Y-84580820D01*
X99780537Y-84470506D01*
X99701185Y-84373815D01*
X99604494Y-84294463D01*
X99521311Y-84250000D01*
X99604494Y-84205537D01*
X99701185Y-84126185D01*
X99780537Y-84029494D01*
X99839502Y-83919180D01*
X99875812Y-83799482D01*
X99888072Y-83675000D01*
X99885000Y-83235750D01*
X99726250Y-83077000D01*
X98877000Y-83077000D01*
X98635000Y-83077000D01*
X98635000Y-82803000D01*
X98877000Y-82803000D01*
X98877000Y-82823000D01*
X99726250Y-82823000D01*
X99885000Y-82664250D01*
X99888072Y-82225000D01*
X99875812Y-82100518D01*
X99839502Y-81980820D01*
X99780537Y-81870506D01*
X99710764Y-81785487D01*
X99815256Y-81742205D01*
X99984774Y-81628937D01*
X100128937Y-81484774D01*
X100242205Y-81315256D01*
X100320226Y-81126898D01*
X100360000Y-80926939D01*
X100360000Y-80723061D01*
X100320226Y-80523102D01*
X100242205Y-80334744D01*
X100128937Y-80165226D01*
X99984774Y-80021063D01*
X99815256Y-79907795D01*
X99626898Y-79829774D01*
X99426939Y-79790000D01*
X99242517Y-79790000D01*
X99248890Y-79768991D01*
X99263072Y-79625000D01*
X99263072Y-79425000D01*
X99248890Y-79281009D01*
X99224316Y-79200000D01*
X99248890Y-79118991D01*
X99263072Y-78975000D01*
X99263072Y-78775000D01*
X99248890Y-78631009D01*
X99206890Y-78492552D01*
X99138684Y-78364949D01*
X99046896Y-78253104D01*
X98935051Y-78161316D01*
X98807448Y-78093110D01*
X98668991Y-78051110D01*
X98635000Y-78047762D01*
X98635000Y-78000000D01*
X98622928Y-77876769D01*
X98586917Y-77757610D01*
X98528352Y-77647765D01*
X98127000Y-77045737D01*
X98127000Y-76486487D01*
X98124560Y-76461711D01*
X98117333Y-76437886D01*
X98105597Y-76415930D01*
X98088564Y-76395463D01*
X97588564Y-75908976D01*
X97569104Y-75893447D01*
X97546989Y-75882013D01*
X97523068Y-75875113D01*
X97500000Y-75873000D01*
X97345175Y-75873000D01*
X97124812Y-75542455D01*
X97246904Y-75473099D01*
X97348579Y-75400241D01*
X97434086Y-75308946D01*
X97500138Y-75202724D01*
X97544199Y-75085658D01*
X97564574Y-74962245D01*
X97563935Y-74942702D01*
X100036903Y-74942702D01*
X100108486Y-75186671D01*
X100363996Y-75307571D01*
X100638184Y-75376300D01*
X100920512Y-75390217D01*
X101200130Y-75348787D01*
X101466292Y-75253603D01*
X101591514Y-75186671D01*
X101663097Y-74942702D01*
X101649126Y-74928731D01*
X104268336Y-74928731D01*
X105010000Y-75670395D01*
X105751664Y-74928731D01*
X105692203Y-74694963D01*
X105453758Y-74584066D01*
X105198260Y-74521817D01*
X104935527Y-74510610D01*
X104675656Y-74550875D01*
X104428634Y-74641065D01*
X104327797Y-74694963D01*
X104268336Y-74928731D01*
X101649126Y-74928731D01*
X100850000Y-74129605D01*
X100036903Y-74942702D01*
X97563935Y-74942702D01*
X97560482Y-74837228D01*
X97532079Y-74715411D01*
X97480455Y-74601477D01*
X97370670Y-74417467D01*
X97153813Y-74359360D01*
X96563351Y-74700263D01*
X96422165Y-74488484D01*
X97026813Y-74139390D01*
X97058666Y-74020512D01*
X99409783Y-74020512D01*
X99451213Y-74300130D01*
X99546397Y-74566292D01*
X99613329Y-74691514D01*
X99857298Y-74763097D01*
X100670395Y-73950000D01*
X101029605Y-73950000D01*
X101842702Y-74763097D01*
X102086671Y-74691514D01*
X102207571Y-74436004D01*
X102276300Y-74161816D01*
X102290217Y-73879488D01*
X102248787Y-73599870D01*
X102153603Y-73333708D01*
X102086671Y-73208486D01*
X101842702Y-73136903D01*
X101029605Y-73950000D01*
X100670395Y-73950000D01*
X99857298Y-73136903D01*
X99613329Y-73208486D01*
X99492429Y-73463996D01*
X99423700Y-73738184D01*
X99409783Y-74020512D01*
X97058666Y-74020512D01*
X97084920Y-73922533D01*
X97021504Y-73808965D01*
X98535947Y-72877000D01*
X100060463Y-72877000D01*
X100036903Y-72957298D01*
%TA.AperFunction,Conductor*%
D24*
G36*
X100036903Y-72957298D02*
G01*
X100850000Y-73770395D01*
X101663097Y-72957298D01*
X101639537Y-72877000D01*
X108197394Y-72877000D01*
X109873000Y-74552606D01*
X109873000Y-79947394D01*
X108910197Y-80910197D01*
X108894403Y-80929443D01*
X108882667Y-80951399D01*
X108875440Y-80975224D01*
X108873000Y-81000000D01*
X108873000Y-86947394D01*
X107947394Y-87873000D01*
X104105882Y-87873000D01*
X104113072Y-87800000D01*
X104110000Y-87585750D01*
X103951250Y-87427000D01*
X102877000Y-87427000D01*
X102877000Y-87447000D01*
X102623000Y-87447000D01*
X102623000Y-87427000D01*
X101548750Y-87427000D01*
X101390000Y-87585750D01*
X101386928Y-87800000D01*
X101394118Y-87873000D01*
X100121853Y-87873000D01*
X100086664Y-87756996D01*
X100027983Y-87647213D01*
X99949013Y-87550987D01*
X99782247Y-87384221D01*
X99745226Y-87198102D01*
X99667205Y-87009744D01*
X99553937Y-86840226D01*
X99548942Y-86835231D01*
X99604494Y-86805537D01*
X99611240Y-86800000D01*
X101386928Y-86800000D01*
X101390000Y-87014250D01*
X101548750Y-87173000D01*
X102623000Y-87173000D01*
X102623000Y-86323750D01*
X102464250Y-86165000D01*
X102025000Y-86161928D01*
X101900518Y-86174188D01*
X101780820Y-86210498D01*
X101670506Y-86269463D01*
X101573815Y-86348815D01*
X101494463Y-86445506D01*
X101435498Y-86555820D01*
X101399188Y-86675518D01*
X101386928Y-86800000D01*
X99611240Y-86800000D01*
X99701185Y-86726185D01*
X99780537Y-86629494D01*
X99839502Y-86519180D01*
X99875812Y-86399482D01*
X99888072Y-86275000D01*
X99885000Y-85835750D01*
X99726250Y-85677000D01*
X98877000Y-85677000D01*
X98877000Y-85697000D01*
X98635000Y-85697000D01*
X98635000Y-83077000D01*
X98877000Y-83077000D01*
X98877000Y-84151250D01*
X98975750Y-84250000D01*
X98877000Y-84348750D01*
X98877000Y-85423000D01*
X99726250Y-85423000D01*
X99885000Y-85264250D01*
X99887561Y-84898061D01*
X101215000Y-84898061D01*
X101215000Y-85101939D01*
X101254774Y-85301898D01*
X101332795Y-85490256D01*
X101446063Y-85659774D01*
X101590226Y-85803937D01*
X101759744Y-85917205D01*
X101948102Y-85995226D01*
X102148061Y-86035000D01*
X102351939Y-86035000D01*
X102551898Y-85995226D01*
X102740256Y-85917205D01*
X102909774Y-85803937D01*
X103053937Y-85659774D01*
X103154926Y-85508633D01*
X103199998Y-85513072D01*
X103215000Y-85513072D01*
X103215000Y-85601939D01*
X103254774Y-85801898D01*
X103332795Y-85990256D01*
X103446063Y-86159774D01*
X103448403Y-86162114D01*
X103035750Y-86165000D01*
X102877000Y-86323750D01*
X102877000Y-87173000D01*
X103951250Y-87173000D01*
X104110000Y-87014250D01*
X104113072Y-86800000D01*
X104100812Y-86675518D01*
X104064502Y-86555820D01*
X104042108Y-86513925D01*
X104148061Y-86535000D01*
X104351939Y-86535000D01*
X104361928Y-86533013D01*
X104361928Y-86725000D01*
X104378992Y-86898254D01*
X104429528Y-87064850D01*
X104511595Y-87218386D01*
X104622038Y-87352962D01*
X104756614Y-87463405D01*
X104910150Y-87545472D01*
X105076746Y-87596008D01*
X105250000Y-87613072D01*
X105750000Y-87613072D01*
X105923254Y-87596008D01*
X106089850Y-87545472D01*
X106243386Y-87463405D01*
X106377962Y-87352962D01*
X106383342Y-87346406D01*
X106448815Y-87426185D01*
X106545506Y-87505537D01*
X106655820Y-87564502D01*
X106775518Y-87600812D01*
X106900000Y-87613072D01*
X107114250Y-87610000D01*
X107273000Y-87451250D01*
X107273000Y-86377000D01*
X107527000Y-86377000D01*
X107527000Y-87451250D01*
X107685750Y-87610000D01*
X107900000Y-87613072D01*
X108024482Y-87600812D01*
X108144180Y-87564502D01*
X108254494Y-87505537D01*
X108351185Y-87426185D01*
X108430537Y-87329494D01*
X108489502Y-87219180D01*
X108525812Y-87099482D01*
X108538072Y-86975000D01*
X108535000Y-86535750D01*
X108376250Y-86377000D01*
X107527000Y-86377000D01*
X107273000Y-86377000D01*
X107253000Y-86377000D01*
X107253000Y-86123000D01*
X107273000Y-86123000D01*
X107273000Y-84177000D01*
X107527000Y-84177000D01*
X107527000Y-86123000D01*
X108376250Y-86123000D01*
X108535000Y-85964250D01*
X108538072Y-85525000D01*
X108525812Y-85400518D01*
X108489502Y-85280820D01*
X108430537Y-85170506D01*
X108413708Y-85150000D01*
X108430537Y-85129494D01*
X108489502Y-85019180D01*
X108525812Y-84899482D01*
X108538072Y-84775000D01*
X108535000Y-84335750D01*
X108376250Y-84177000D01*
X107527000Y-84177000D01*
X107273000Y-84177000D01*
X107253000Y-84177000D01*
X107253000Y-83923000D01*
X107273000Y-83923000D01*
X107273000Y-82848750D01*
X107235500Y-82811250D01*
X107235500Y-81977000D01*
X107489500Y-81977000D01*
X107489500Y-83026250D01*
X107527000Y-83063750D01*
X107527000Y-83923000D01*
X108376250Y-83923000D01*
X108535000Y-83764250D01*
X108538072Y-83325000D01*
X108525812Y-83200518D01*
X108489502Y-83080820D01*
X108430537Y-82970506D01*
X108390950Y-82922269D01*
X108405537Y-82904494D01*
X108464502Y-82794180D01*
X108500812Y-82674482D01*
X108513072Y-82550000D01*
X108510000Y-82135750D01*
X108351250Y-81977000D01*
X107489500Y-81977000D01*
X107235500Y-81977000D01*
X107215500Y-81977000D01*
X107215500Y-81723000D01*
X107235500Y-81723000D01*
X107235500Y-81703000D01*
X107489500Y-81703000D01*
X107489500Y-81723000D01*
X108351250Y-81723000D01*
X108510000Y-81564250D01*
X108513072Y-81150000D01*
X108500812Y-81025518D01*
X108481866Y-80963062D01*
X108539852Y-80945472D01*
X108693387Y-80863405D01*
X108827962Y-80752962D01*
X108938405Y-80618387D01*
X109020472Y-80464852D01*
X109071008Y-80298256D01*
X109088072Y-80125002D01*
X109088072Y-79599998D01*
X109071008Y-79426744D01*
X109020472Y-79260148D01*
X108938405Y-79106613D01*
X108827962Y-78972038D01*
X108801109Y-78950000D01*
X108827962Y-78927962D01*
X108938405Y-78793387D01*
X109020472Y-78639852D01*
X109071008Y-78473256D01*
X109088072Y-78300002D01*
X109088072Y-77774998D01*
X109071008Y-77601744D01*
X109020472Y-77435148D01*
X108938405Y-77281613D01*
X108827962Y-77147038D01*
X108715000Y-77054332D01*
X108715000Y-76509389D01*
X108733061Y-76482359D01*
X108833696Y-76239405D01*
X108885000Y-75981486D01*
X108885000Y-75718514D01*
X108833696Y-75460595D01*
X108733061Y-75217641D01*
X108586962Y-74998987D01*
X108401013Y-74813038D01*
X108182359Y-74666939D01*
X107939405Y-74566304D01*
X107681486Y-74515000D01*
X107418514Y-74515000D01*
X107160595Y-74566304D01*
X106917641Y-74666939D01*
X106698987Y-74813038D01*
X106513038Y-74998987D01*
X106366939Y-75217641D01*
X106278379Y-75431444D01*
X106218935Y-75268634D01*
X106165037Y-75167797D01*
X105931269Y-75108336D01*
X105189605Y-75850000D01*
X105931269Y-76591664D01*
X106165037Y-76532203D01*
X106275934Y-76293758D01*
X106280706Y-76274173D01*
X106366939Y-76482359D01*
X106513038Y-76701013D01*
X106698987Y-76886962D01*
X106785000Y-76944434D01*
X106785001Y-77054332D01*
X106700000Y-77124090D01*
X106593387Y-77036595D01*
X106439852Y-76954528D01*
X106273256Y-76903992D01*
X106100002Y-76886928D01*
X105722245Y-76886928D01*
X105751664Y-76771269D01*
X105010000Y-76029605D01*
X104995858Y-76043748D01*
X104816253Y-75864143D01*
X104830395Y-75850000D01*
X104088731Y-75108336D01*
X103854963Y-75167797D01*
X103744066Y-75406242D01*
X103681817Y-75661740D01*
X103670610Y-75924473D01*
X103710875Y-76184344D01*
X103801065Y-76431366D01*
X103854963Y-76532203D01*
X104088729Y-76591663D01*
X104065392Y-76615000D01*
X103948061Y-76615000D01*
X103748102Y-76654774D01*
X103559744Y-76732795D01*
X103390226Y-76846063D01*
X103246063Y-76990226D01*
X103132795Y-77159744D01*
X103054774Y-77348102D01*
X103015000Y-77548061D01*
X103015000Y-77751939D01*
X103054774Y-77951898D01*
X103090604Y-78038398D01*
X102884600Y-78037000D01*
X102759948Y-78047386D01*
X102639718Y-78081891D01*
X102528529Y-78139189D01*
X102430654Y-78217078D01*
X102349856Y-78312564D01*
X102289239Y-78421979D01*
X102251132Y-78541117D01*
X102240000Y-78643250D01*
X102398750Y-78802000D01*
X102490292Y-78802000D01*
X102432753Y-78819454D01*
X102300724Y-78890026D01*
X102184999Y-78984999D01*
X102161196Y-79014003D01*
X101989003Y-79186196D01*
X101959999Y-79209999D01*
X101918843Y-79260148D01*
X101865026Y-79325724D01*
X101838145Y-79376015D01*
X101794454Y-79457754D01*
X101750997Y-79601015D01*
X101740000Y-79712668D01*
X101740000Y-79712678D01*
X101736324Y-79750000D01*
X101740000Y-79787323D01*
X101740001Y-84095987D01*
X101590226Y-84196063D01*
X101446063Y-84340226D01*
X101332795Y-84509744D01*
X101254774Y-84698102D01*
X101215000Y-84898061D01*
X99887561Y-84898061D01*
X99888072Y-84825000D01*
X99875812Y-84700518D01*
X99839502Y-84580820D01*
X99780537Y-84470506D01*
X99701185Y-84373815D01*
X99604494Y-84294463D01*
X99521311Y-84250000D01*
X99604494Y-84205537D01*
X99701185Y-84126185D01*
X99780537Y-84029494D01*
X99839502Y-83919180D01*
X99875812Y-83799482D01*
X99888072Y-83675000D01*
X99885000Y-83235750D01*
X99726250Y-83077000D01*
X98877000Y-83077000D01*
X98635000Y-83077000D01*
X98635000Y-82803000D01*
X98877000Y-82803000D01*
X98877000Y-82823000D01*
X99726250Y-82823000D01*
X99885000Y-82664250D01*
X99888072Y-82225000D01*
X99875812Y-82100518D01*
X99839502Y-81980820D01*
X99780537Y-81870506D01*
X99710764Y-81785487D01*
X99815256Y-81742205D01*
X99984774Y-81628937D01*
X100128937Y-81484774D01*
X100242205Y-81315256D01*
X100320226Y-81126898D01*
X100360000Y-80926939D01*
X100360000Y-80723061D01*
X100320226Y-80523102D01*
X100242205Y-80334744D01*
X100128937Y-80165226D01*
X99984774Y-80021063D01*
X99815256Y-79907795D01*
X99626898Y-79829774D01*
X99426939Y-79790000D01*
X99242517Y-79790000D01*
X99248890Y-79768991D01*
X99263072Y-79625000D01*
X99263072Y-79425000D01*
X99248890Y-79281009D01*
X99224316Y-79200000D01*
X99248890Y-79118991D01*
X99263072Y-78975000D01*
X99263072Y-78775000D01*
X99248890Y-78631009D01*
X99206890Y-78492552D01*
X99138684Y-78364949D01*
X99046896Y-78253104D01*
X98935051Y-78161316D01*
X98807448Y-78093110D01*
X98668991Y-78051110D01*
X98635000Y-78047762D01*
X98635000Y-78000000D01*
X98622928Y-77876769D01*
X98586917Y-77757610D01*
X98528352Y-77647765D01*
X98127000Y-77045737D01*
X98127000Y-76486487D01*
X98124560Y-76461711D01*
X98117333Y-76437886D01*
X98105597Y-76415930D01*
X98088564Y-76395463D01*
X97588564Y-75908976D01*
X97569104Y-75893447D01*
X97546989Y-75882013D01*
X97523068Y-75875113D01*
X97500000Y-75873000D01*
X97345175Y-75873000D01*
X97124812Y-75542455D01*
X97246904Y-75473099D01*
X97348579Y-75400241D01*
X97434086Y-75308946D01*
X97500138Y-75202724D01*
X97544199Y-75085658D01*
X97564574Y-74962245D01*
X97563935Y-74942702D01*
X100036903Y-74942702D01*
X100108486Y-75186671D01*
X100363996Y-75307571D01*
X100638184Y-75376300D01*
X100920512Y-75390217D01*
X101200130Y-75348787D01*
X101466292Y-75253603D01*
X101591514Y-75186671D01*
X101663097Y-74942702D01*
X101649126Y-74928731D01*
X104268336Y-74928731D01*
X105010000Y-75670395D01*
X105751664Y-74928731D01*
X105692203Y-74694963D01*
X105453758Y-74584066D01*
X105198260Y-74521817D01*
X104935527Y-74510610D01*
X104675656Y-74550875D01*
X104428634Y-74641065D01*
X104327797Y-74694963D01*
X104268336Y-74928731D01*
X101649126Y-74928731D01*
X100850000Y-74129605D01*
X100036903Y-74942702D01*
X97563935Y-74942702D01*
X97560482Y-74837228D01*
X97532079Y-74715411D01*
X97480455Y-74601477D01*
X97370670Y-74417467D01*
X97153813Y-74359360D01*
X96563351Y-74700263D01*
X96422165Y-74488484D01*
X97026813Y-74139390D01*
X97058666Y-74020512D01*
X99409783Y-74020512D01*
X99451213Y-74300130D01*
X99546397Y-74566292D01*
X99613329Y-74691514D01*
X99857298Y-74763097D01*
X100670395Y-73950000D01*
X101029605Y-73950000D01*
X101842702Y-74763097D01*
X102086671Y-74691514D01*
X102207571Y-74436004D01*
X102276300Y-74161816D01*
X102290217Y-73879488D01*
X102248787Y-73599870D01*
X102153603Y-73333708D01*
X102086671Y-73208486D01*
X101842702Y-73136903D01*
X101029605Y-73950000D01*
X100670395Y-73950000D01*
X99857298Y-73136903D01*
X99613329Y-73208486D01*
X99492429Y-73463996D01*
X99423700Y-73738184D01*
X99409783Y-74020512D01*
X97058666Y-74020512D01*
X97084920Y-73922533D01*
X97021504Y-73808965D01*
X98535947Y-72877000D01*
X100060463Y-72877000D01*
X100036903Y-72957298D01*
G37*
%TD.AperFunction*%
%TD*%
D23*
%TO.N,Net-(D1-Pad2)*%
X93538390Y-68217996D02*
X93475518Y-68224188D01*
X93355820Y-68260498D01*
X93245506Y-68319463D01*
X93148815Y-68398815D01*
X93069463Y-68495506D01*
X93010498Y-68605820D01*
X92974188Y-68725518D01*
X92961928Y-68850000D01*
X92961928Y-70650000D01*
X92974188Y-70774482D01*
X93010498Y-70894180D01*
X93069463Y-71004494D01*
X93148815Y-71101185D01*
X93245506Y-71180537D01*
X93355820Y-71239502D01*
X93475518Y-71275812D01*
X93600000Y-71288072D01*
X93873000Y-71288072D01*
X93873000Y-72000000D01*
X93875440Y-72024776D01*
X93882667Y-72048601D01*
X93894330Y-72070447D01*
X94142756Y-72443085D01*
X94119602Y-72456453D01*
X93978091Y-72557859D01*
X93859083Y-72684923D01*
X93767150Y-72832762D01*
X93705826Y-72995697D01*
X93677467Y-73167464D01*
X93683164Y-73341463D01*
X93722696Y-73511008D01*
X93794545Y-73669583D01*
X94044545Y-74102595D01*
X94145950Y-74244105D01*
X94273014Y-74363113D01*
X94420854Y-74455046D01*
X94583788Y-74516370D01*
X94695826Y-74534868D01*
X94655826Y-74641145D01*
X94627467Y-74812912D01*
X94633164Y-74986911D01*
X94672696Y-75156456D01*
X94744545Y-75315031D01*
X94994545Y-75748043D01*
X95095950Y-75889553D01*
X95223014Y-76008561D01*
X95370854Y-76100494D01*
X95533788Y-76161818D01*
X95705555Y-76190177D01*
X95879555Y-76184480D01*
X96049099Y-76144948D01*
X96207674Y-76073099D01*
X96464076Y-75925065D01*
X97873000Y-78038452D01*
X97873000Y-78040000D01*
X97760498Y-78040000D01*
X97760498Y-78198748D01*
X97601750Y-78040000D01*
X97159600Y-78037000D01*
X97034948Y-78047386D01*
X96914718Y-78081891D01*
X96803529Y-78139189D01*
X96705654Y-78217078D01*
X96624856Y-78312564D01*
X96564239Y-78421979D01*
X96526132Y-78541117D01*
X96518079Y-78615000D01*
X95870000Y-78615000D01*
X94601600Y-76923800D01*
X94584782Y-76905443D01*
X94564706Y-76890720D01*
X94542143Y-76880196D01*
X94517961Y-76874276D01*
X94500000Y-76873000D01*
X89052606Y-76873000D01*
X88627000Y-76447394D01*
X88627000Y-76180000D01*
X88901928Y-76180000D01*
X88914188Y-76304482D01*
X88950498Y-76424180D01*
X89009463Y-76534494D01*
X89088815Y-76631185D01*
X89185506Y-76710537D01*
X89295820Y-76769502D01*
X89415518Y-76805812D01*
X89540000Y-76818072D01*
X90754250Y-76815000D01*
X90913000Y-76656250D01*
X90913000Y-74307000D01*
X91167000Y-74307000D01*
X91167000Y-76656250D01*
X91325750Y-76815000D01*
X92540000Y-76818072D01*
X92664482Y-76805812D01*
X92784180Y-76769502D01*
X92894494Y-76710537D01*
X92991185Y-76631185D01*
X93070537Y-76534494D01*
X93129502Y-76424180D01*
X93165812Y-76304482D01*
X93178072Y-76180000D01*
X93175000Y-74465750D01*
X93016250Y-74307000D01*
X91167000Y-74307000D01*
X90913000Y-74307000D01*
X89063750Y-74307000D01*
X88905000Y-74465750D01*
X88901928Y-76180000D01*
X88627000Y-76180000D01*
X88627000Y-72180000D01*
X88901928Y-72180000D01*
X88905000Y-73894250D01*
X89063750Y-74053000D01*
X90913000Y-74053000D01*
X90913000Y-71703750D01*
X91167000Y-71703750D01*
X91167000Y-74053000D01*
X93016250Y-74053000D01*
X93175000Y-73894250D01*
X93178072Y-72180000D01*
X93165812Y-72055518D01*
X93129502Y-71935820D01*
X93070537Y-71825506D01*
X92991185Y-71728815D01*
X92894494Y-71649463D01*
X92784180Y-71590498D01*
X92664482Y-71554188D01*
X92540000Y-71541928D01*
X91325750Y-71545000D01*
X91167000Y-71703750D01*
X90913000Y-71703750D01*
X90754250Y-71545000D01*
X89540000Y-71541928D01*
X89415518Y-71554188D01*
X89295820Y-71590498D01*
X89185506Y-71649463D01*
X89088815Y-71728815D01*
X89009463Y-71825506D01*
X88950498Y-71935820D01*
X88914188Y-72055518D01*
X88901928Y-72180000D01*
X88627000Y-72180000D01*
X88627000Y-70650000D01*
X88961928Y-70650000D01*
X88974188Y-70774482D01*
X89010498Y-70894180D01*
X89069463Y-71004494D01*
X89148815Y-71101185D01*
X89245506Y-71180537D01*
X89355820Y-71239502D01*
X89475518Y-71275812D01*
X89600000Y-71288072D01*
X90564250Y-71285000D01*
X90723000Y-71126250D01*
X90723000Y-69877000D01*
X90977000Y-69877000D01*
X90977000Y-71126250D01*
X91135750Y-71285000D01*
X92100000Y-71288072D01*
X92224482Y-71275812D01*
X92344180Y-71239502D01*
X92454494Y-71180537D01*
X92551185Y-71101185D01*
X92630537Y-71004494D01*
X92689502Y-70894180D01*
X92725812Y-70774482D01*
X92738072Y-70650000D01*
X92735000Y-70035750D01*
X92576250Y-69877000D01*
X90977000Y-69877000D01*
X90723000Y-69877000D01*
X89123750Y-69877000D01*
X88965000Y-70035750D01*
X88961928Y-70650000D01*
X88627000Y-70650000D01*
X88627000Y-68850000D01*
X88961928Y-68850000D01*
X88965000Y-69464250D01*
X89123750Y-69623000D01*
X90723000Y-69623000D01*
X90723000Y-68373750D01*
X90977000Y-68373750D01*
X90977000Y-69623000D01*
X92576250Y-69623000D01*
X92735000Y-69464250D01*
X92738072Y-68850000D01*
X92725812Y-68725518D01*
X92689502Y-68605820D01*
X92630537Y-68495506D01*
X92551185Y-68398815D01*
X92454494Y-68319463D01*
X92344180Y-68260498D01*
X92224482Y-68224188D01*
X92100000Y-68211928D01*
X91135750Y-68215000D01*
X90977000Y-68373750D01*
X90723000Y-68373750D01*
X90564250Y-68215000D01*
X89600000Y-68211928D01*
X89475518Y-68224188D01*
X89355820Y-68260498D01*
X89245506Y-68319463D01*
X89148815Y-68398815D01*
X89069463Y-68495506D01*
X89010498Y-68605820D01*
X88974188Y-68725518D01*
X88961928Y-68850000D01*
X88627000Y-68850000D01*
X88627000Y-68552606D01*
X90052606Y-67127000D01*
X92447394Y-67127000D01*
X93538390Y-68217996D01*
%TA.AperFunction,Conductor*%
D24*
G36*
X93538390Y-68217996D02*
G01*
X93475518Y-68224188D01*
X93355820Y-68260498D01*
X93245506Y-68319463D01*
X93148815Y-68398815D01*
X93069463Y-68495506D01*
X93010498Y-68605820D01*
X92974188Y-68725518D01*
X92961928Y-68850000D01*
X92961928Y-70650000D01*
X92974188Y-70774482D01*
X93010498Y-70894180D01*
X93069463Y-71004494D01*
X93148815Y-71101185D01*
X93245506Y-71180537D01*
X93355820Y-71239502D01*
X93475518Y-71275812D01*
X93600000Y-71288072D01*
X93873000Y-71288072D01*
X93873000Y-72000000D01*
X93875440Y-72024776D01*
X93882667Y-72048601D01*
X93894330Y-72070447D01*
X94142756Y-72443085D01*
X94119602Y-72456453D01*
X93978091Y-72557859D01*
X93859083Y-72684923D01*
X93767150Y-72832762D01*
X93705826Y-72995697D01*
X93677467Y-73167464D01*
X93683164Y-73341463D01*
X93722696Y-73511008D01*
X93794545Y-73669583D01*
X94044545Y-74102595D01*
X94145950Y-74244105D01*
X94273014Y-74363113D01*
X94420854Y-74455046D01*
X94583788Y-74516370D01*
X94695826Y-74534868D01*
X94655826Y-74641145D01*
X94627467Y-74812912D01*
X94633164Y-74986911D01*
X94672696Y-75156456D01*
X94744545Y-75315031D01*
X94994545Y-75748043D01*
X95095950Y-75889553D01*
X95223014Y-76008561D01*
X95370854Y-76100494D01*
X95533788Y-76161818D01*
X95705555Y-76190177D01*
X95879555Y-76184480D01*
X96049099Y-76144948D01*
X96207674Y-76073099D01*
X96464076Y-75925065D01*
X97873000Y-78038452D01*
X97873000Y-78040000D01*
X97760498Y-78040000D01*
X97760498Y-78198748D01*
X97601750Y-78040000D01*
X97159600Y-78037000D01*
X97034948Y-78047386D01*
X96914718Y-78081891D01*
X96803529Y-78139189D01*
X96705654Y-78217078D01*
X96624856Y-78312564D01*
X96564239Y-78421979D01*
X96526132Y-78541117D01*
X96518079Y-78615000D01*
X95870000Y-78615000D01*
X94601600Y-76923800D01*
X94584782Y-76905443D01*
X94564706Y-76890720D01*
X94542143Y-76880196D01*
X94517961Y-76874276D01*
X94500000Y-76873000D01*
X89052606Y-76873000D01*
X88627000Y-76447394D01*
X88627000Y-76180000D01*
X88901928Y-76180000D01*
X88914188Y-76304482D01*
X88950498Y-76424180D01*
X89009463Y-76534494D01*
X89088815Y-76631185D01*
X89185506Y-76710537D01*
X89295820Y-76769502D01*
X89415518Y-76805812D01*
X89540000Y-76818072D01*
X90754250Y-76815000D01*
X90913000Y-76656250D01*
X90913000Y-74307000D01*
X91167000Y-74307000D01*
X91167000Y-76656250D01*
X91325750Y-76815000D01*
X92540000Y-76818072D01*
X92664482Y-76805812D01*
X92784180Y-76769502D01*
X92894494Y-76710537D01*
X92991185Y-76631185D01*
X93070537Y-76534494D01*
X93129502Y-76424180D01*
X93165812Y-76304482D01*
X93178072Y-76180000D01*
X93175000Y-74465750D01*
X93016250Y-74307000D01*
X91167000Y-74307000D01*
X90913000Y-74307000D01*
X89063750Y-74307000D01*
X88905000Y-74465750D01*
X88901928Y-76180000D01*
X88627000Y-76180000D01*
X88627000Y-72180000D01*
X88901928Y-72180000D01*
X88905000Y-73894250D01*
X89063750Y-74053000D01*
X90913000Y-74053000D01*
X90913000Y-71703750D01*
X91167000Y-71703750D01*
X91167000Y-74053000D01*
X93016250Y-74053000D01*
X93175000Y-73894250D01*
X93178072Y-72180000D01*
X93165812Y-72055518D01*
X93129502Y-71935820D01*
X93070537Y-71825506D01*
X92991185Y-71728815D01*
X92894494Y-71649463D01*
X92784180Y-71590498D01*
X92664482Y-71554188D01*
X92540000Y-71541928D01*
X91325750Y-71545000D01*
X91167000Y-71703750D01*
X90913000Y-71703750D01*
X90754250Y-71545000D01*
X89540000Y-71541928D01*
X89415518Y-71554188D01*
X89295820Y-71590498D01*
X89185506Y-71649463D01*
X89088815Y-71728815D01*
X89009463Y-71825506D01*
X88950498Y-71935820D01*
X88914188Y-72055518D01*
X88901928Y-72180000D01*
X88627000Y-72180000D01*
X88627000Y-70650000D01*
X88961928Y-70650000D01*
X88974188Y-70774482D01*
X89010498Y-70894180D01*
X89069463Y-71004494D01*
X89148815Y-71101185D01*
X89245506Y-71180537D01*
X89355820Y-71239502D01*
X89475518Y-71275812D01*
X89600000Y-71288072D01*
X90564250Y-71285000D01*
X90723000Y-71126250D01*
X90723000Y-69877000D01*
X90977000Y-69877000D01*
X90977000Y-71126250D01*
X91135750Y-71285000D01*
X92100000Y-71288072D01*
X92224482Y-71275812D01*
X92344180Y-71239502D01*
X92454494Y-71180537D01*
X92551185Y-71101185D01*
X92630537Y-71004494D01*
X92689502Y-70894180D01*
X92725812Y-70774482D01*
X92738072Y-70650000D01*
X92735000Y-70035750D01*
X92576250Y-69877000D01*
X90977000Y-69877000D01*
X90723000Y-69877000D01*
X89123750Y-69877000D01*
X88965000Y-70035750D01*
X88961928Y-70650000D01*
X88627000Y-70650000D01*
X88627000Y-68850000D01*
X88961928Y-68850000D01*
X88965000Y-69464250D01*
X89123750Y-69623000D01*
X90723000Y-69623000D01*
X90723000Y-68373750D01*
X90977000Y-68373750D01*
X90977000Y-69623000D01*
X92576250Y-69623000D01*
X92735000Y-69464250D01*
X92738072Y-68850000D01*
X92725812Y-68725518D01*
X92689502Y-68605820D01*
X92630537Y-68495506D01*
X92551185Y-68398815D01*
X92454494Y-68319463D01*
X92344180Y-68260498D01*
X92224482Y-68224188D01*
X92100000Y-68211928D01*
X91135750Y-68215000D01*
X90977000Y-68373750D01*
X90723000Y-68373750D01*
X90564250Y-68215000D01*
X89600000Y-68211928D01*
X89475518Y-68224188D01*
X89355820Y-68260498D01*
X89245506Y-68319463D01*
X89148815Y-68398815D01*
X89069463Y-68495506D01*
X89010498Y-68605820D01*
X88974188Y-68725518D01*
X88961928Y-68850000D01*
X88627000Y-68850000D01*
X88627000Y-68552606D01*
X90052606Y-67127000D01*
X92447394Y-67127000D01*
X93538390Y-68217996D01*
G37*
%TD.AperFunction*%
%TD*%
D23*
%TO.N,Net-(C22-Pad1)*%
X110873000Y-64163542D02*
X110735750Y-64165000D01*
X110577000Y-64323750D01*
X110577000Y-65373000D01*
X110597000Y-65373000D01*
X110597000Y-65627000D01*
X110577000Y-65627000D01*
X110577000Y-66676250D01*
X110735750Y-66835000D01*
X110873000Y-66836458D01*
X110873000Y-67219985D01*
X110698102Y-67254774D01*
X110509744Y-67332795D01*
X110340226Y-67446063D01*
X110196063Y-67590226D01*
X110082795Y-67759744D01*
X110052569Y-67832715D01*
X109351171Y-68534114D01*
X109314340Y-68564340D01*
X109193750Y-68711281D01*
X109104143Y-68878925D01*
X109048963Y-69060828D01*
X109044532Y-69105820D01*
X109030331Y-69250000D01*
X109035000Y-69297402D01*
X109035000Y-70285394D01*
X107447394Y-71873000D01*
X98000000Y-71873000D01*
X97975224Y-71875440D01*
X97951399Y-71882667D01*
X97936990Y-71889733D01*
X96401826Y-72766970D01*
X96203813Y-72713912D01*
X95507231Y-73116084D01*
X95366045Y-72904304D01*
X96076813Y-72493942D01*
X96134920Y-72277085D01*
X96030455Y-72090003D01*
X95957597Y-71988329D01*
X95866302Y-71902822D01*
X95760080Y-71836770D01*
X95643014Y-71792709D01*
X95519601Y-71772334D01*
X95394584Y-71776426D01*
X95272767Y-71804829D01*
X95158832Y-71856453D01*
X94805630Y-72063681D01*
X94635000Y-71807737D01*
X94635000Y-71214250D01*
X94723000Y-71126250D01*
X94723000Y-69877000D01*
X94977000Y-69877000D01*
X94977000Y-71126250D01*
X95135750Y-71285000D01*
X96100000Y-71288072D01*
X96224482Y-71275812D01*
X96344180Y-71239502D01*
X96454494Y-71180537D01*
X96551185Y-71101185D01*
X96630537Y-71004494D01*
X96659665Y-70950000D01*
X99411928Y-70950000D01*
X99424188Y-71074482D01*
X99460498Y-71194180D01*
X99519463Y-71304494D01*
X99598815Y-71401185D01*
X99695506Y-71480537D01*
X99805820Y-71539502D01*
X99925518Y-71575812D01*
X100050000Y-71588072D01*
X100564250Y-71585000D01*
X100723000Y-71426250D01*
X100723000Y-70277000D01*
X100977000Y-70277000D01*
X100977000Y-71426250D01*
X101135750Y-71585000D01*
X101650000Y-71588072D01*
X101774482Y-71575812D01*
X101894180Y-71539502D01*
X102004494Y-71480537D01*
X102101185Y-71401185D01*
X102180537Y-71304494D01*
X102239502Y-71194180D01*
X102275812Y-71074482D01*
X102288072Y-70950000D01*
X102285000Y-70435750D01*
X102126250Y-70277000D01*
X100977000Y-70277000D01*
X100723000Y-70277000D01*
X99573750Y-70277000D01*
X99415000Y-70435750D01*
X99411928Y-70950000D01*
X96659665Y-70950000D01*
X96689502Y-70894180D01*
X96725812Y-70774482D01*
X96738072Y-70650000D01*
X96735000Y-70035750D01*
X96576250Y-69877000D01*
X94977000Y-69877000D01*
X94723000Y-69877000D01*
X94703000Y-69877000D01*
X94703000Y-69623000D01*
X94723000Y-69623000D01*
X94723000Y-68373750D01*
X94977000Y-68373750D01*
X94977000Y-69623000D01*
X96576250Y-69623000D01*
X96735000Y-69464250D01*
X96735571Y-69350000D01*
X99411928Y-69350000D01*
X99415000Y-69864250D01*
X99573750Y-70023000D01*
X100723000Y-70023000D01*
X100723000Y-68873750D01*
X100977000Y-68873750D01*
X100977000Y-70023000D01*
X102126250Y-70023000D01*
X102285000Y-69864250D01*
X102288072Y-69350000D01*
X102275812Y-69225518D01*
X102239502Y-69105820D01*
X102180537Y-68995506D01*
X102101185Y-68898815D01*
X102004494Y-68819463D01*
X101894180Y-68760498D01*
X101774482Y-68724188D01*
X101650000Y-68711928D01*
X101135750Y-68715000D01*
X100977000Y-68873750D01*
X100723000Y-68873750D01*
X100564250Y-68715000D01*
X100050000Y-68711928D01*
X99925518Y-68724188D01*
X99805820Y-68760498D01*
X99695506Y-68819463D01*
X99598815Y-68898815D01*
X99519463Y-68995506D01*
X99460498Y-69105820D01*
X99424188Y-69225518D01*
X99411928Y-69350000D01*
X96735571Y-69350000D01*
X96738072Y-68850000D01*
X96725812Y-68725518D01*
X96689502Y-68605820D01*
X96630537Y-68495506D01*
X96551185Y-68398815D01*
X96454494Y-68319463D01*
X96344180Y-68260498D01*
X96224482Y-68224188D01*
X96100000Y-68211928D01*
X95135750Y-68215000D01*
X94977000Y-68373750D01*
X94723000Y-68373750D01*
X94674778Y-68325528D01*
X96047637Y-67127000D01*
X106000000Y-67127000D01*
X106024776Y-67124560D01*
X106048601Y-67117333D01*
X106070557Y-67105597D01*
X106089803Y-67089803D01*
X106979606Y-66200000D01*
X109236928Y-66200000D01*
X109249188Y-66324482D01*
X109285498Y-66444180D01*
X109344463Y-66554494D01*
X109423815Y-66651185D01*
X109520506Y-66730537D01*
X109630820Y-66789502D01*
X109750518Y-66825812D01*
X109875000Y-66838072D01*
X110164250Y-66835000D01*
X110323000Y-66676250D01*
X110323000Y-65627000D01*
X109398750Y-65627000D01*
X109240000Y-65785750D01*
X109236928Y-66200000D01*
X106979606Y-66200000D01*
X108379606Y-64800000D01*
X109236928Y-64800000D01*
X109240000Y-65214250D01*
X109398750Y-65373000D01*
X110323000Y-65373000D01*
X110323000Y-64323750D01*
X110164250Y-64165000D01*
X109875000Y-64161928D01*
X109750518Y-64174188D01*
X109630820Y-64210498D01*
X109520506Y-64269463D01*
X109423815Y-64348815D01*
X109344463Y-64445506D01*
X109285498Y-64555820D01*
X109249188Y-64675518D01*
X109236928Y-64800000D01*
X108379606Y-64800000D01*
X109052606Y-64127000D01*
X110873000Y-64127000D01*
X110873000Y-64163542D01*
%TA.AperFunction,Conductor*%
D24*
G36*
X110873000Y-64163542D02*
G01*
X110735750Y-64165000D01*
X110577000Y-64323750D01*
X110577000Y-65373000D01*
X110597000Y-65373000D01*
X110597000Y-65627000D01*
X110577000Y-65627000D01*
X110577000Y-66676250D01*
X110735750Y-66835000D01*
X110873000Y-66836458D01*
X110873000Y-67219985D01*
X110698102Y-67254774D01*
X110509744Y-67332795D01*
X110340226Y-67446063D01*
X110196063Y-67590226D01*
X110082795Y-67759744D01*
X110052569Y-67832715D01*
X109351171Y-68534114D01*
X109314340Y-68564340D01*
X109193750Y-68711281D01*
X109104143Y-68878925D01*
X109048963Y-69060828D01*
X109044532Y-69105820D01*
X109030331Y-69250000D01*
X109035000Y-69297402D01*
X109035000Y-70285394D01*
X107447394Y-71873000D01*
X98000000Y-71873000D01*
X97975224Y-71875440D01*
X97951399Y-71882667D01*
X97936990Y-71889733D01*
X96401826Y-72766970D01*
X96203813Y-72713912D01*
X95507231Y-73116084D01*
X95366045Y-72904304D01*
X96076813Y-72493942D01*
X96134920Y-72277085D01*
X96030455Y-72090003D01*
X95957597Y-71988329D01*
X95866302Y-71902822D01*
X95760080Y-71836770D01*
X95643014Y-71792709D01*
X95519601Y-71772334D01*
X95394584Y-71776426D01*
X95272767Y-71804829D01*
X95158832Y-71856453D01*
X94805630Y-72063681D01*
X94635000Y-71807737D01*
X94635000Y-71214250D01*
X94723000Y-71126250D01*
X94723000Y-69877000D01*
X94977000Y-69877000D01*
X94977000Y-71126250D01*
X95135750Y-71285000D01*
X96100000Y-71288072D01*
X96224482Y-71275812D01*
X96344180Y-71239502D01*
X96454494Y-71180537D01*
X96551185Y-71101185D01*
X96630537Y-71004494D01*
X96659665Y-70950000D01*
X99411928Y-70950000D01*
X99424188Y-71074482D01*
X99460498Y-71194180D01*
X99519463Y-71304494D01*
X99598815Y-71401185D01*
X99695506Y-71480537D01*
X99805820Y-71539502D01*
X99925518Y-71575812D01*
X100050000Y-71588072D01*
X100564250Y-71585000D01*
X100723000Y-71426250D01*
X100723000Y-70277000D01*
X100977000Y-70277000D01*
X100977000Y-71426250D01*
X101135750Y-71585000D01*
X101650000Y-71588072D01*
X101774482Y-71575812D01*
X101894180Y-71539502D01*
X102004494Y-71480537D01*
X102101185Y-71401185D01*
X102180537Y-71304494D01*
X102239502Y-71194180D01*
X102275812Y-71074482D01*
X102288072Y-70950000D01*
X102285000Y-70435750D01*
X102126250Y-70277000D01*
X100977000Y-70277000D01*
X100723000Y-70277000D01*
X99573750Y-70277000D01*
X99415000Y-70435750D01*
X99411928Y-70950000D01*
X96659665Y-70950000D01*
X96689502Y-70894180D01*
X96725812Y-70774482D01*
X96738072Y-70650000D01*
X96735000Y-70035750D01*
X96576250Y-69877000D01*
X94977000Y-69877000D01*
X94723000Y-69877000D01*
X94703000Y-69877000D01*
X94703000Y-69623000D01*
X94723000Y-69623000D01*
X94723000Y-68373750D01*
X94977000Y-68373750D01*
X94977000Y-69623000D01*
X96576250Y-69623000D01*
X96735000Y-69464250D01*
X96735571Y-69350000D01*
X99411928Y-69350000D01*
X99415000Y-69864250D01*
X99573750Y-70023000D01*
X100723000Y-70023000D01*
X100723000Y-68873750D01*
X100977000Y-68873750D01*
X100977000Y-70023000D01*
X102126250Y-70023000D01*
X102285000Y-69864250D01*
X102288072Y-69350000D01*
X102275812Y-69225518D01*
X102239502Y-69105820D01*
X102180537Y-68995506D01*
X102101185Y-68898815D01*
X102004494Y-68819463D01*
X101894180Y-68760498D01*
X101774482Y-68724188D01*
X101650000Y-68711928D01*
X101135750Y-68715000D01*
X100977000Y-68873750D01*
X100723000Y-68873750D01*
X100564250Y-68715000D01*
X100050000Y-68711928D01*
X99925518Y-68724188D01*
X99805820Y-68760498D01*
X99695506Y-68819463D01*
X99598815Y-68898815D01*
X99519463Y-68995506D01*
X99460498Y-69105820D01*
X99424188Y-69225518D01*
X99411928Y-69350000D01*
X96735571Y-69350000D01*
X96738072Y-68850000D01*
X96725812Y-68725518D01*
X96689502Y-68605820D01*
X96630537Y-68495506D01*
X96551185Y-68398815D01*
X96454494Y-68319463D01*
X96344180Y-68260498D01*
X96224482Y-68224188D01*
X96100000Y-68211928D01*
X95135750Y-68215000D01*
X94977000Y-68373750D01*
X94723000Y-68373750D01*
X94674778Y-68325528D01*
X96047637Y-67127000D01*
X106000000Y-67127000D01*
X106024776Y-67124560D01*
X106048601Y-67117333D01*
X106070557Y-67105597D01*
X106089803Y-67089803D01*
X106979606Y-66200000D01*
X109236928Y-66200000D01*
X109249188Y-66324482D01*
X109285498Y-66444180D01*
X109344463Y-66554494D01*
X109423815Y-66651185D01*
X109520506Y-66730537D01*
X109630820Y-66789502D01*
X109750518Y-66825812D01*
X109875000Y-66838072D01*
X110164250Y-66835000D01*
X110323000Y-66676250D01*
X110323000Y-65627000D01*
X109398750Y-65627000D01*
X109240000Y-65785750D01*
X109236928Y-66200000D01*
X106979606Y-66200000D01*
X108379606Y-64800000D01*
X109236928Y-64800000D01*
X109240000Y-65214250D01*
X109398750Y-65373000D01*
X110323000Y-65373000D01*
X110323000Y-64323750D01*
X110164250Y-64165000D01*
X109875000Y-64161928D01*
X109750518Y-64174188D01*
X109630820Y-64210498D01*
X109520506Y-64269463D01*
X109423815Y-64348815D01*
X109344463Y-64445506D01*
X109285498Y-64555820D01*
X109249188Y-64675518D01*
X109236928Y-64800000D01*
X108379606Y-64800000D01*
X109052606Y-64127000D01*
X110873000Y-64127000D01*
X110873000Y-64163542D01*
G37*
%TD.AperFunction*%
%TD*%
M02*
