%TF.GenerationSoftware,KiCad,Pcbnew,5.1.8*%
%TF.CreationDate,2020-12-03T12:40:02+01:00*%
%TF.ProjectId,GNI-plutoclocker,474e492d-706c-4757-946f-636c6f636b65,rev?*%
%TF.SameCoordinates,Original*%
%TF.FileFunction,Soldermask,Top*%
%TF.FilePolarity,Negative*%
%FSLAX46Y46*%
G04 Gerber Fmt 4.6, Leading zero omitted, Abs format (unit mm)*
G04 Created by KiCad (PCBNEW 5.1.8) date 2020-12-03 12:40:02*
%MOMM*%
%LPD*%
G01*
G04 APERTURE LIST*
%ADD10R,1.700000X1.700000*%
%ADD11O,1.700000X1.700000*%
%ADD12R,3.000000X4.000000*%
%ADD13C,1.400000*%
%ADD14R,3.600000X1.270000*%
%ADD15R,4.200000X1.350000*%
%ADD16R,2.500000X1.800000*%
%ADD17C,1.600000*%
%ADD18R,1.600000X1.600000*%
G04 APERTURE END LIST*
%TO.C,C12*%
G36*
G01*
X103225000Y-87800000D02*
X102275000Y-87800000D01*
G75*
G02*
X102025000Y-87550000I0J250000D01*
G01*
X102025000Y-87050000D01*
G75*
G02*
X102275000Y-86800000I250000J0D01*
G01*
X103225000Y-86800000D01*
G75*
G02*
X103475000Y-87050000I0J-250000D01*
G01*
X103475000Y-87550000D01*
G75*
G02*
X103225000Y-87800000I-250000J0D01*
G01*
G37*
G36*
G01*
X103225000Y-89700000D02*
X102275000Y-89700000D01*
G75*
G02*
X102025000Y-89450000I0J250000D01*
G01*
X102025000Y-88950000D01*
G75*
G02*
X102275000Y-88700000I250000J0D01*
G01*
X103225000Y-88700000D01*
G75*
G02*
X103475000Y-88950000I0J-250000D01*
G01*
X103475000Y-89450000D01*
G75*
G02*
X103225000Y-89700000I-250000J0D01*
G01*
G37*
%TD*%
%TO.C,L9*%
G36*
G01*
X99050000Y-88799999D02*
X99050000Y-89700001D01*
G75*
G02*
X98800001Y-89950000I-249999J0D01*
G01*
X98149999Y-89950000D01*
G75*
G02*
X97900000Y-89700001I0J249999D01*
G01*
X97900000Y-88799999D01*
G75*
G02*
X98149999Y-88550000I249999J0D01*
G01*
X98800001Y-88550000D01*
G75*
G02*
X99050000Y-88799999I0J-249999D01*
G01*
G37*
G36*
G01*
X101100000Y-88799999D02*
X101100000Y-89700001D01*
G75*
G02*
X100850001Y-89950000I-249999J0D01*
G01*
X100199999Y-89950000D01*
G75*
G02*
X99950000Y-89700001I0J249999D01*
G01*
X99950000Y-88799999D01*
G75*
G02*
X100199999Y-88550000I249999J0D01*
G01*
X100850001Y-88550000D01*
G75*
G02*
X101100000Y-88799999I0J-249999D01*
G01*
G37*
%TD*%
%TO.C,C17*%
G36*
G01*
X120250000Y-79025000D02*
X120250000Y-79975000D01*
G75*
G02*
X120000000Y-80225000I-250000J0D01*
G01*
X119500000Y-80225000D01*
G75*
G02*
X119250000Y-79975000I0J250000D01*
G01*
X119250000Y-79025000D01*
G75*
G02*
X119500000Y-78775000I250000J0D01*
G01*
X120000000Y-78775000D01*
G75*
G02*
X120250000Y-79025000I0J-250000D01*
G01*
G37*
G36*
G01*
X122150000Y-79025000D02*
X122150000Y-79975000D01*
G75*
G02*
X121900000Y-80225000I-250000J0D01*
G01*
X121400000Y-80225000D01*
G75*
G02*
X121150000Y-79975000I0J250000D01*
G01*
X121150000Y-79025000D01*
G75*
G02*
X121400000Y-78775000I250000J0D01*
G01*
X121900000Y-78775000D01*
G75*
G02*
X122150000Y-79025000I0J-250000D01*
G01*
G37*
%TD*%
%TO.C,C4*%
G36*
G01*
X108050000Y-92275000D02*
X108050000Y-93225000D01*
G75*
G02*
X107800000Y-93475000I-250000J0D01*
G01*
X107300000Y-93475000D01*
G75*
G02*
X107050000Y-93225000I0J250000D01*
G01*
X107050000Y-92275000D01*
G75*
G02*
X107300000Y-92025000I250000J0D01*
G01*
X107800000Y-92025000D01*
G75*
G02*
X108050000Y-92275000I0J-250000D01*
G01*
G37*
G36*
G01*
X109950000Y-92275000D02*
X109950000Y-93225000D01*
G75*
G02*
X109700000Y-93475000I-250000J0D01*
G01*
X109200000Y-93475000D01*
G75*
G02*
X108950000Y-93225000I0J250000D01*
G01*
X108950000Y-92275000D01*
G75*
G02*
X109200000Y-92025000I250000J0D01*
G01*
X109700000Y-92025000D01*
G75*
G02*
X109950000Y-92275000I0J-250000D01*
G01*
G37*
%TD*%
%TO.C,C9*%
G36*
G01*
X115100000Y-77025000D02*
X115100000Y-77975000D01*
G75*
G02*
X114850000Y-78225000I-250000J0D01*
G01*
X114350000Y-78225000D01*
G75*
G02*
X114100000Y-77975000I0J250000D01*
G01*
X114100000Y-77025000D01*
G75*
G02*
X114350000Y-76775000I250000J0D01*
G01*
X114850000Y-76775000D01*
G75*
G02*
X115100000Y-77025000I0J-250000D01*
G01*
G37*
G36*
G01*
X117000000Y-77025000D02*
X117000000Y-77975000D01*
G75*
G02*
X116750000Y-78225000I-250000J0D01*
G01*
X116250000Y-78225000D01*
G75*
G02*
X116000000Y-77975000I0J250000D01*
G01*
X116000000Y-77025000D01*
G75*
G02*
X116250000Y-76775000I250000J0D01*
G01*
X116750000Y-76775000D01*
G75*
G02*
X117000000Y-77025000I0J-250000D01*
G01*
G37*
%TD*%
%TO.C,C16*%
G36*
G01*
X115100000Y-79025000D02*
X115100000Y-79975000D01*
G75*
G02*
X114850000Y-80225000I-250000J0D01*
G01*
X114350000Y-80225000D01*
G75*
G02*
X114100000Y-79975000I0J250000D01*
G01*
X114100000Y-79025000D01*
G75*
G02*
X114350000Y-78775000I250000J0D01*
G01*
X114850000Y-78775000D01*
G75*
G02*
X115100000Y-79025000I0J-250000D01*
G01*
G37*
G36*
G01*
X117000000Y-79025000D02*
X117000000Y-79975000D01*
G75*
G02*
X116750000Y-80225000I-250000J0D01*
G01*
X116250000Y-80225000D01*
G75*
G02*
X116000000Y-79975000I0J250000D01*
G01*
X116000000Y-79025000D01*
G75*
G02*
X116250000Y-78775000I250000J0D01*
G01*
X116750000Y-78775000D01*
G75*
G02*
X117000000Y-79025000I0J-250000D01*
G01*
G37*
%TD*%
%TO.C,U1*%
G36*
G01*
X116400000Y-74862500D02*
X116700000Y-74862500D01*
G75*
G02*
X116850000Y-75012500I0J-150000D01*
G01*
X116850000Y-76037500D01*
G75*
G02*
X116700000Y-76187500I-150000J0D01*
G01*
X116400000Y-76187500D01*
G75*
G02*
X116250000Y-76037500I0J150000D01*
G01*
X116250000Y-75012500D01*
G75*
G02*
X116400000Y-74862500I150000J0D01*
G01*
G37*
G36*
G01*
X114500000Y-74862500D02*
X114800000Y-74862500D01*
G75*
G02*
X114950000Y-75012500I0J-150000D01*
G01*
X114950000Y-76037500D01*
G75*
G02*
X114800000Y-76187500I-150000J0D01*
G01*
X114500000Y-76187500D01*
G75*
G02*
X114350000Y-76037500I0J150000D01*
G01*
X114350000Y-75012500D01*
G75*
G02*
X114500000Y-74862500I150000J0D01*
G01*
G37*
G36*
G01*
X114500000Y-72587500D02*
X114800000Y-72587500D01*
G75*
G02*
X114950000Y-72737500I0J-150000D01*
G01*
X114950000Y-73762500D01*
G75*
G02*
X114800000Y-73912500I-150000J0D01*
G01*
X114500000Y-73912500D01*
G75*
G02*
X114350000Y-73762500I0J150000D01*
G01*
X114350000Y-72737500D01*
G75*
G02*
X114500000Y-72587500I150000J0D01*
G01*
G37*
G36*
G01*
X115450000Y-72587500D02*
X115750000Y-72587500D01*
G75*
G02*
X115900000Y-72737500I0J-150000D01*
G01*
X115900000Y-73762500D01*
G75*
G02*
X115750000Y-73912500I-150000J0D01*
G01*
X115450000Y-73912500D01*
G75*
G02*
X115300000Y-73762500I0J150000D01*
G01*
X115300000Y-72737500D01*
G75*
G02*
X115450000Y-72587500I150000J0D01*
G01*
G37*
G36*
G01*
X116400000Y-72587500D02*
X116700000Y-72587500D01*
G75*
G02*
X116850000Y-72737500I0J-150000D01*
G01*
X116850000Y-73762500D01*
G75*
G02*
X116700000Y-73912500I-150000J0D01*
G01*
X116400000Y-73912500D01*
G75*
G02*
X116250000Y-73762500I0J150000D01*
G01*
X116250000Y-72737500D01*
G75*
G02*
X116400000Y-72587500I150000J0D01*
G01*
G37*
%TD*%
%TO.C,C2*%
G36*
G01*
X115100000Y-70775000D02*
X115100000Y-71725000D01*
G75*
G02*
X114850000Y-71975000I-250000J0D01*
G01*
X114350000Y-71975000D01*
G75*
G02*
X114100000Y-71725000I0J250000D01*
G01*
X114100000Y-70775000D01*
G75*
G02*
X114350000Y-70525000I250000J0D01*
G01*
X114850000Y-70525000D01*
G75*
G02*
X115100000Y-70775000I0J-250000D01*
G01*
G37*
G36*
G01*
X117000000Y-70775000D02*
X117000000Y-71725000D01*
G75*
G02*
X116750000Y-71975000I-250000J0D01*
G01*
X116250000Y-71975000D01*
G75*
G02*
X116000000Y-71725000I0J250000D01*
G01*
X116000000Y-70775000D01*
G75*
G02*
X116250000Y-70525000I250000J0D01*
G01*
X116750000Y-70525000D01*
G75*
G02*
X117000000Y-70775000I0J-250000D01*
G01*
G37*
%TD*%
D10*
%TO.C,TP1*%
X128250000Y-86000000D03*
%TD*%
%TO.C,R15*%
G36*
G01*
X125400000Y-84950002D02*
X125400000Y-84049998D01*
G75*
G02*
X125649998Y-83800000I249998J0D01*
G01*
X126175002Y-83800000D01*
G75*
G02*
X126425000Y-84049998I0J-249998D01*
G01*
X126425000Y-84950002D01*
G75*
G02*
X126175002Y-85200000I-249998J0D01*
G01*
X125649998Y-85200000D01*
G75*
G02*
X125400000Y-84950002I0J249998D01*
G01*
G37*
G36*
G01*
X123575000Y-84950002D02*
X123575000Y-84049998D01*
G75*
G02*
X123824998Y-83800000I249998J0D01*
G01*
X124350002Y-83800000D01*
G75*
G02*
X124600000Y-84049998I0J-249998D01*
G01*
X124600000Y-84950002D01*
G75*
G02*
X124350002Y-85200000I-249998J0D01*
G01*
X123824998Y-85200000D01*
G75*
G02*
X123575000Y-84950002I0J249998D01*
G01*
G37*
%TD*%
%TO.C,C6*%
G36*
G01*
X98250000Y-86025000D02*
X98250000Y-85075000D01*
G75*
G02*
X98500000Y-84825000I250000J0D01*
G01*
X99000000Y-84825000D01*
G75*
G02*
X99250000Y-85075000I0J-250000D01*
G01*
X99250000Y-86025000D01*
G75*
G02*
X99000000Y-86275000I-250000J0D01*
G01*
X98500000Y-86275000D01*
G75*
G02*
X98250000Y-86025000I0J250000D01*
G01*
G37*
G36*
G01*
X96350000Y-86025000D02*
X96350000Y-85075000D01*
G75*
G02*
X96600000Y-84825000I250000J0D01*
G01*
X97100000Y-84825000D01*
G75*
G02*
X97350000Y-85075000I0J-250000D01*
G01*
X97350000Y-86025000D01*
G75*
G02*
X97100000Y-86275000I-250000J0D01*
G01*
X96600000Y-86275000D01*
G75*
G02*
X96350000Y-86025000I0J250000D01*
G01*
G37*
%TD*%
%TO.C,U4*%
G36*
G01*
X121100000Y-89375000D02*
X121300000Y-89375000D01*
G75*
G02*
X121400000Y-89475000I0J-100000D01*
G01*
X121400000Y-90750000D01*
G75*
G02*
X121300000Y-90850000I-100000J0D01*
G01*
X121100000Y-90850000D01*
G75*
G02*
X121000000Y-90750000I0J100000D01*
G01*
X121000000Y-89475000D01*
G75*
G02*
X121100000Y-89375000I100000J0D01*
G01*
G37*
G36*
G01*
X120450000Y-89375000D02*
X120650000Y-89375000D01*
G75*
G02*
X120750000Y-89475000I0J-100000D01*
G01*
X120750000Y-90750000D01*
G75*
G02*
X120650000Y-90850000I-100000J0D01*
G01*
X120450000Y-90850000D01*
G75*
G02*
X120350000Y-90750000I0J100000D01*
G01*
X120350000Y-89475000D01*
G75*
G02*
X120450000Y-89375000I100000J0D01*
G01*
G37*
G36*
G01*
X119800000Y-89375000D02*
X120000000Y-89375000D01*
G75*
G02*
X120100000Y-89475000I0J-100000D01*
G01*
X120100000Y-90750000D01*
G75*
G02*
X120000000Y-90850000I-100000J0D01*
G01*
X119800000Y-90850000D01*
G75*
G02*
X119700000Y-90750000I0J100000D01*
G01*
X119700000Y-89475000D01*
G75*
G02*
X119800000Y-89375000I100000J0D01*
G01*
G37*
G36*
G01*
X119150000Y-89375000D02*
X119350000Y-89375000D01*
G75*
G02*
X119450000Y-89475000I0J-100000D01*
G01*
X119450000Y-90750000D01*
G75*
G02*
X119350000Y-90850000I-100000J0D01*
G01*
X119150000Y-90850000D01*
G75*
G02*
X119050000Y-90750000I0J100000D01*
G01*
X119050000Y-89475000D01*
G75*
G02*
X119150000Y-89375000I100000J0D01*
G01*
G37*
G36*
G01*
X118500000Y-89375000D02*
X118700000Y-89375000D01*
G75*
G02*
X118800000Y-89475000I0J-100000D01*
G01*
X118800000Y-90750000D01*
G75*
G02*
X118700000Y-90850000I-100000J0D01*
G01*
X118500000Y-90850000D01*
G75*
G02*
X118400000Y-90750000I0J100000D01*
G01*
X118400000Y-89475000D01*
G75*
G02*
X118500000Y-89375000I100000J0D01*
G01*
G37*
G36*
G01*
X117850000Y-89375000D02*
X118050000Y-89375000D01*
G75*
G02*
X118150000Y-89475000I0J-100000D01*
G01*
X118150000Y-90750000D01*
G75*
G02*
X118050000Y-90850000I-100000J0D01*
G01*
X117850000Y-90850000D01*
G75*
G02*
X117750000Y-90750000I0J100000D01*
G01*
X117750000Y-89475000D01*
G75*
G02*
X117850000Y-89375000I100000J0D01*
G01*
G37*
G36*
G01*
X117200000Y-89375000D02*
X117400000Y-89375000D01*
G75*
G02*
X117500000Y-89475000I0J-100000D01*
G01*
X117500000Y-90750000D01*
G75*
G02*
X117400000Y-90850000I-100000J0D01*
G01*
X117200000Y-90850000D01*
G75*
G02*
X117100000Y-90750000I0J100000D01*
G01*
X117100000Y-89475000D01*
G75*
G02*
X117200000Y-89375000I100000J0D01*
G01*
G37*
G36*
G01*
X117200000Y-83650000D02*
X117400000Y-83650000D01*
G75*
G02*
X117500000Y-83750000I0J-100000D01*
G01*
X117500000Y-85025000D01*
G75*
G02*
X117400000Y-85125000I-100000J0D01*
G01*
X117200000Y-85125000D01*
G75*
G02*
X117100000Y-85025000I0J100000D01*
G01*
X117100000Y-83750000D01*
G75*
G02*
X117200000Y-83650000I100000J0D01*
G01*
G37*
G36*
G01*
X117850000Y-83650000D02*
X118050000Y-83650000D01*
G75*
G02*
X118150000Y-83750000I0J-100000D01*
G01*
X118150000Y-85025000D01*
G75*
G02*
X118050000Y-85125000I-100000J0D01*
G01*
X117850000Y-85125000D01*
G75*
G02*
X117750000Y-85025000I0J100000D01*
G01*
X117750000Y-83750000D01*
G75*
G02*
X117850000Y-83650000I100000J0D01*
G01*
G37*
G36*
G01*
X118500000Y-83650000D02*
X118700000Y-83650000D01*
G75*
G02*
X118800000Y-83750000I0J-100000D01*
G01*
X118800000Y-85025000D01*
G75*
G02*
X118700000Y-85125000I-100000J0D01*
G01*
X118500000Y-85125000D01*
G75*
G02*
X118400000Y-85025000I0J100000D01*
G01*
X118400000Y-83750000D01*
G75*
G02*
X118500000Y-83650000I100000J0D01*
G01*
G37*
G36*
G01*
X119150000Y-83650000D02*
X119350000Y-83650000D01*
G75*
G02*
X119450000Y-83750000I0J-100000D01*
G01*
X119450000Y-85025000D01*
G75*
G02*
X119350000Y-85125000I-100000J0D01*
G01*
X119150000Y-85125000D01*
G75*
G02*
X119050000Y-85025000I0J100000D01*
G01*
X119050000Y-83750000D01*
G75*
G02*
X119150000Y-83650000I100000J0D01*
G01*
G37*
G36*
G01*
X119800000Y-83650000D02*
X120000000Y-83650000D01*
G75*
G02*
X120100000Y-83750000I0J-100000D01*
G01*
X120100000Y-85025000D01*
G75*
G02*
X120000000Y-85125000I-100000J0D01*
G01*
X119800000Y-85125000D01*
G75*
G02*
X119700000Y-85025000I0J100000D01*
G01*
X119700000Y-83750000D01*
G75*
G02*
X119800000Y-83650000I100000J0D01*
G01*
G37*
G36*
G01*
X120450000Y-83650000D02*
X120650000Y-83650000D01*
G75*
G02*
X120750000Y-83750000I0J-100000D01*
G01*
X120750000Y-85025000D01*
G75*
G02*
X120650000Y-85125000I-100000J0D01*
G01*
X120450000Y-85125000D01*
G75*
G02*
X120350000Y-85025000I0J100000D01*
G01*
X120350000Y-83750000D01*
G75*
G02*
X120450000Y-83650000I100000J0D01*
G01*
G37*
G36*
G01*
X121100000Y-83650000D02*
X121300000Y-83650000D01*
G75*
G02*
X121400000Y-83750000I0J-100000D01*
G01*
X121400000Y-85025000D01*
G75*
G02*
X121300000Y-85125000I-100000J0D01*
G01*
X121100000Y-85125000D01*
G75*
G02*
X121000000Y-85025000I0J100000D01*
G01*
X121000000Y-83750000D01*
G75*
G02*
X121100000Y-83650000I100000J0D01*
G01*
G37*
%TD*%
D11*
%TO.C,J7*%
X116250000Y-95000000D03*
X118790000Y-95000000D03*
D10*
X121330000Y-95000000D03*
%TD*%
D12*
%TO.C,L3*%
X91060000Y-85520000D03*
X91040000Y-74180000D03*
%TD*%
D13*
%TO.C,J8*%
X105010000Y-75850000D03*
X107550000Y-75850000D03*
%TD*%
%TO.C,U3*%
G36*
G01*
X98625000Y-80725000D02*
X98625000Y-80925000D01*
G75*
G02*
X98525000Y-81025000I-100000J0D01*
G01*
X97250000Y-81025000D01*
G75*
G02*
X97150000Y-80925000I0J100000D01*
G01*
X97150000Y-80725000D01*
G75*
G02*
X97250000Y-80625000I100000J0D01*
G01*
X98525000Y-80625000D01*
G75*
G02*
X98625000Y-80725000I0J-100000D01*
G01*
G37*
G36*
G01*
X98625000Y-80075000D02*
X98625000Y-80275000D01*
G75*
G02*
X98525000Y-80375000I-100000J0D01*
G01*
X97250000Y-80375000D01*
G75*
G02*
X97150000Y-80275000I0J100000D01*
G01*
X97150000Y-80075000D01*
G75*
G02*
X97250000Y-79975000I100000J0D01*
G01*
X98525000Y-79975000D01*
G75*
G02*
X98625000Y-80075000I0J-100000D01*
G01*
G37*
G36*
G01*
X98625000Y-79425000D02*
X98625000Y-79625000D01*
G75*
G02*
X98525000Y-79725000I-100000J0D01*
G01*
X97250000Y-79725000D01*
G75*
G02*
X97150000Y-79625000I0J100000D01*
G01*
X97150000Y-79425000D01*
G75*
G02*
X97250000Y-79325000I100000J0D01*
G01*
X98525000Y-79325000D01*
G75*
G02*
X98625000Y-79425000I0J-100000D01*
G01*
G37*
G36*
G01*
X98625000Y-78775000D02*
X98625000Y-78975000D01*
G75*
G02*
X98525000Y-79075000I-100000J0D01*
G01*
X97250000Y-79075000D01*
G75*
G02*
X97150000Y-78975000I0J100000D01*
G01*
X97150000Y-78775000D01*
G75*
G02*
X97250000Y-78675000I100000J0D01*
G01*
X98525000Y-78675000D01*
G75*
G02*
X98625000Y-78775000I0J-100000D01*
G01*
G37*
G36*
G01*
X104350000Y-78775000D02*
X104350000Y-78975000D01*
G75*
G02*
X104250000Y-79075000I-100000J0D01*
G01*
X102975000Y-79075000D01*
G75*
G02*
X102875000Y-78975000I0J100000D01*
G01*
X102875000Y-78775000D01*
G75*
G02*
X102975000Y-78675000I100000J0D01*
G01*
X104250000Y-78675000D01*
G75*
G02*
X104350000Y-78775000I0J-100000D01*
G01*
G37*
G36*
G01*
X104350000Y-79425000D02*
X104350000Y-79625000D01*
G75*
G02*
X104250000Y-79725000I-100000J0D01*
G01*
X102975000Y-79725000D01*
G75*
G02*
X102875000Y-79625000I0J100000D01*
G01*
X102875000Y-79425000D01*
G75*
G02*
X102975000Y-79325000I100000J0D01*
G01*
X104250000Y-79325000D01*
G75*
G02*
X104350000Y-79425000I0J-100000D01*
G01*
G37*
G36*
G01*
X104350000Y-80075000D02*
X104350000Y-80275000D01*
G75*
G02*
X104250000Y-80375000I-100000J0D01*
G01*
X102975000Y-80375000D01*
G75*
G02*
X102875000Y-80275000I0J100000D01*
G01*
X102875000Y-80075000D01*
G75*
G02*
X102975000Y-79975000I100000J0D01*
G01*
X104250000Y-79975000D01*
G75*
G02*
X104350000Y-80075000I0J-100000D01*
G01*
G37*
G36*
G01*
X104350000Y-80725000D02*
X104350000Y-80925000D01*
G75*
G02*
X104250000Y-81025000I-100000J0D01*
G01*
X102975000Y-81025000D01*
G75*
G02*
X102875000Y-80925000I0J100000D01*
G01*
X102875000Y-80725000D01*
G75*
G02*
X102975000Y-80625000I100000J0D01*
G01*
X104250000Y-80625000D01*
G75*
G02*
X104350000Y-80725000I0J-100000D01*
G01*
G37*
%TD*%
%TO.C,U2*%
G36*
G01*
X121500000Y-74837500D02*
X121800000Y-74837500D01*
G75*
G02*
X121950000Y-74987500I0J-150000D01*
G01*
X121950000Y-76012500D01*
G75*
G02*
X121800000Y-76162500I-150000J0D01*
G01*
X121500000Y-76162500D01*
G75*
G02*
X121350000Y-76012500I0J150000D01*
G01*
X121350000Y-74987500D01*
G75*
G02*
X121500000Y-74837500I150000J0D01*
G01*
G37*
G36*
G01*
X119600000Y-74837500D02*
X119900000Y-74837500D01*
G75*
G02*
X120050000Y-74987500I0J-150000D01*
G01*
X120050000Y-76012500D01*
G75*
G02*
X119900000Y-76162500I-150000J0D01*
G01*
X119600000Y-76162500D01*
G75*
G02*
X119450000Y-76012500I0J150000D01*
G01*
X119450000Y-74987500D01*
G75*
G02*
X119600000Y-74837500I150000J0D01*
G01*
G37*
G36*
G01*
X119600000Y-72562500D02*
X119900000Y-72562500D01*
G75*
G02*
X120050000Y-72712500I0J-150000D01*
G01*
X120050000Y-73737500D01*
G75*
G02*
X119900000Y-73887500I-150000J0D01*
G01*
X119600000Y-73887500D01*
G75*
G02*
X119450000Y-73737500I0J150000D01*
G01*
X119450000Y-72712500D01*
G75*
G02*
X119600000Y-72562500I150000J0D01*
G01*
G37*
G36*
G01*
X120550000Y-72562500D02*
X120850000Y-72562500D01*
G75*
G02*
X121000000Y-72712500I0J-150000D01*
G01*
X121000000Y-73737500D01*
G75*
G02*
X120850000Y-73887500I-150000J0D01*
G01*
X120550000Y-73887500D01*
G75*
G02*
X120400000Y-73737500I0J150000D01*
G01*
X120400000Y-72712500D01*
G75*
G02*
X120550000Y-72562500I150000J0D01*
G01*
G37*
G36*
G01*
X121500000Y-72562500D02*
X121800000Y-72562500D01*
G75*
G02*
X121950000Y-72712500I0J-150000D01*
G01*
X121950000Y-73737500D01*
G75*
G02*
X121800000Y-73887500I-150000J0D01*
G01*
X121500000Y-73887500D01*
G75*
G02*
X121350000Y-73737500I0J150000D01*
G01*
X121350000Y-72712500D01*
G75*
G02*
X121500000Y-72562500I150000J0D01*
G01*
G37*
%TD*%
%TO.C,R17*%
G36*
G01*
X118237500Y-92700002D02*
X118237500Y-91799998D01*
G75*
G02*
X118487498Y-91550000I249998J0D01*
G01*
X119012502Y-91550000D01*
G75*
G02*
X119262500Y-91799998I0J-249998D01*
G01*
X119262500Y-92700002D01*
G75*
G02*
X119012502Y-92950000I-249998J0D01*
G01*
X118487498Y-92950000D01*
G75*
G02*
X118237500Y-92700002I0J249998D01*
G01*
G37*
G36*
G01*
X116412500Y-92700002D02*
X116412500Y-91799998D01*
G75*
G02*
X116662498Y-91550000I249998J0D01*
G01*
X117187502Y-91550000D01*
G75*
G02*
X117437500Y-91799998I0J-249998D01*
G01*
X117437500Y-92700002D01*
G75*
G02*
X117187502Y-92950000I-249998J0D01*
G01*
X116662498Y-92950000D01*
G75*
G02*
X116412500Y-92700002I0J249998D01*
G01*
G37*
%TD*%
%TO.C,R16*%
G36*
G01*
X120937500Y-91799998D02*
X120937500Y-92700002D01*
G75*
G02*
X120687502Y-92950000I-249998J0D01*
G01*
X120162498Y-92950000D01*
G75*
G02*
X119912500Y-92700002I0J249998D01*
G01*
X119912500Y-91799998D01*
G75*
G02*
X120162498Y-91550000I249998J0D01*
G01*
X120687502Y-91550000D01*
G75*
G02*
X120937500Y-91799998I0J-249998D01*
G01*
G37*
G36*
G01*
X122762500Y-91799998D02*
X122762500Y-92700002D01*
G75*
G02*
X122512502Y-92950000I-249998J0D01*
G01*
X121987498Y-92950000D01*
G75*
G02*
X121737500Y-92700002I0J249998D01*
G01*
X121737500Y-91799998D01*
G75*
G02*
X121987498Y-91550000I249998J0D01*
G01*
X122512502Y-91550000D01*
G75*
G02*
X122762500Y-91799998I0J-249998D01*
G01*
G37*
%TD*%
%TO.C,R14*%
G36*
G01*
X123150000Y-82700002D02*
X123150000Y-81799998D01*
G75*
G02*
X123399998Y-81550000I249998J0D01*
G01*
X123925002Y-81550000D01*
G75*
G02*
X124175000Y-81799998I0J-249998D01*
G01*
X124175000Y-82700002D01*
G75*
G02*
X123925002Y-82950000I-249998J0D01*
G01*
X123399998Y-82950000D01*
G75*
G02*
X123150000Y-82700002I0J249998D01*
G01*
G37*
G36*
G01*
X121325000Y-82700002D02*
X121325000Y-81799998D01*
G75*
G02*
X121574998Y-81550000I249998J0D01*
G01*
X122100002Y-81550000D01*
G75*
G02*
X122350000Y-81799998I0J-249998D01*
G01*
X122350000Y-82700002D01*
G75*
G02*
X122100002Y-82950000I-249998J0D01*
G01*
X121574998Y-82950000D01*
G75*
G02*
X121325000Y-82700002I0J249998D01*
G01*
G37*
%TD*%
%TO.C,R13*%
G36*
G01*
X113937500Y-91799998D02*
X113937500Y-92700002D01*
G75*
G02*
X113687502Y-92950000I-249998J0D01*
G01*
X113162498Y-92950000D01*
G75*
G02*
X112912500Y-92700002I0J249998D01*
G01*
X112912500Y-91799998D01*
G75*
G02*
X113162498Y-91550000I249998J0D01*
G01*
X113687502Y-91550000D01*
G75*
G02*
X113937500Y-91799998I0J-249998D01*
G01*
G37*
G36*
G01*
X115762500Y-91799998D02*
X115762500Y-92700002D01*
G75*
G02*
X115512502Y-92950000I-249998J0D01*
G01*
X114987498Y-92950000D01*
G75*
G02*
X114737500Y-92700002I0J249998D01*
G01*
X114737500Y-91799998D01*
G75*
G02*
X114987498Y-91550000I249998J0D01*
G01*
X115512502Y-91550000D01*
G75*
G02*
X115762500Y-91799998I0J-249998D01*
G01*
G37*
%TD*%
%TO.C,R12*%
G36*
G01*
X114187500Y-86799998D02*
X114187500Y-87700002D01*
G75*
G02*
X113937502Y-87950000I-249998J0D01*
G01*
X113412498Y-87950000D01*
G75*
G02*
X113162500Y-87700002I0J249998D01*
G01*
X113162500Y-86799998D01*
G75*
G02*
X113412498Y-86550000I249998J0D01*
G01*
X113937502Y-86550000D01*
G75*
G02*
X114187500Y-86799998I0J-249998D01*
G01*
G37*
G36*
G01*
X116012500Y-86799998D02*
X116012500Y-87700002D01*
G75*
G02*
X115762502Y-87950000I-249998J0D01*
G01*
X115237498Y-87950000D01*
G75*
G02*
X114987500Y-87700002I0J249998D01*
G01*
X114987500Y-86799998D01*
G75*
G02*
X115237498Y-86550000I249998J0D01*
G01*
X115762502Y-86550000D01*
G75*
G02*
X116012500Y-86799998I0J-249998D01*
G01*
G37*
%TD*%
%TO.C,R11*%
G36*
G01*
X123799998Y-88650000D02*
X124700002Y-88650000D01*
G75*
G02*
X124950000Y-88899998I0J-249998D01*
G01*
X124950000Y-89425002D01*
G75*
G02*
X124700002Y-89675000I-249998J0D01*
G01*
X123799998Y-89675000D01*
G75*
G02*
X123550000Y-89425002I0J249998D01*
G01*
X123550000Y-88899998D01*
G75*
G02*
X123799998Y-88650000I249998J0D01*
G01*
G37*
G36*
G01*
X123799998Y-86825000D02*
X124700002Y-86825000D01*
G75*
G02*
X124950000Y-87074998I0J-249998D01*
G01*
X124950000Y-87600002D01*
G75*
G02*
X124700002Y-87850000I-249998J0D01*
G01*
X123799998Y-87850000D01*
G75*
G02*
X123550000Y-87600002I0J249998D01*
G01*
X123550000Y-87074998D01*
G75*
G02*
X123799998Y-86825000I249998J0D01*
G01*
G37*
%TD*%
%TO.C,R10*%
G36*
G01*
X111950002Y-91687500D02*
X111049998Y-91687500D01*
G75*
G02*
X110800000Y-91437502I0J249998D01*
G01*
X110800000Y-90912498D01*
G75*
G02*
X111049998Y-90662500I249998J0D01*
G01*
X111950002Y-90662500D01*
G75*
G02*
X112200000Y-90912498I0J-249998D01*
G01*
X112200000Y-91437502D01*
G75*
G02*
X111950002Y-91687500I-249998J0D01*
G01*
G37*
G36*
G01*
X111950002Y-93512500D02*
X111049998Y-93512500D01*
G75*
G02*
X110800000Y-93262502I0J249998D01*
G01*
X110800000Y-92737498D01*
G75*
G02*
X111049998Y-92487500I249998J0D01*
G01*
X111950002Y-92487500D01*
G75*
G02*
X112200000Y-92737498I0J-249998D01*
G01*
X112200000Y-93262502D01*
G75*
G02*
X111950002Y-93512500I-249998J0D01*
G01*
G37*
%TD*%
%TO.C,R9*%
G36*
G01*
X115737500Y-67950002D02*
X115737500Y-67049998D01*
G75*
G02*
X115987498Y-66800000I249998J0D01*
G01*
X116512502Y-66800000D01*
G75*
G02*
X116762500Y-67049998I0J-249998D01*
G01*
X116762500Y-67950002D01*
G75*
G02*
X116512502Y-68200000I-249998J0D01*
G01*
X115987498Y-68200000D01*
G75*
G02*
X115737500Y-67950002I0J249998D01*
G01*
G37*
G36*
G01*
X113912500Y-67950002D02*
X113912500Y-67049998D01*
G75*
G02*
X114162498Y-66800000I249998J0D01*
G01*
X114687502Y-66800000D01*
G75*
G02*
X114937500Y-67049998I0J-249998D01*
G01*
X114937500Y-67950002D01*
G75*
G02*
X114687502Y-68200000I-249998J0D01*
G01*
X114162498Y-68200000D01*
G75*
G02*
X113912500Y-67950002I0J249998D01*
G01*
G37*
%TD*%
%TO.C,R8*%
G36*
G01*
X106850000Y-82300002D02*
X106850000Y-81399998D01*
G75*
G02*
X107099998Y-81150000I249998J0D01*
G01*
X107625002Y-81150000D01*
G75*
G02*
X107875000Y-81399998I0J-249998D01*
G01*
X107875000Y-82300002D01*
G75*
G02*
X107625002Y-82550000I-249998J0D01*
G01*
X107099998Y-82550000D01*
G75*
G02*
X106850000Y-82300002I0J249998D01*
G01*
G37*
G36*
G01*
X105025000Y-82300002D02*
X105025000Y-81399998D01*
G75*
G02*
X105274998Y-81150000I249998J0D01*
G01*
X105800002Y-81150000D01*
G75*
G02*
X106050000Y-81399998I0J-249998D01*
G01*
X106050000Y-82300002D01*
G75*
G02*
X105800002Y-82550000I-249998J0D01*
G01*
X105274998Y-82550000D01*
G75*
G02*
X105025000Y-82300002I0J249998D01*
G01*
G37*
%TD*%
%TO.C,R7*%
G36*
G01*
X105199998Y-79350000D02*
X106100002Y-79350000D01*
G75*
G02*
X106350000Y-79599998I0J-249998D01*
G01*
X106350000Y-80125002D01*
G75*
G02*
X106100002Y-80375000I-249998J0D01*
G01*
X105199998Y-80375000D01*
G75*
G02*
X104950000Y-80125002I0J249998D01*
G01*
X104950000Y-79599998D01*
G75*
G02*
X105199998Y-79350000I249998J0D01*
G01*
G37*
G36*
G01*
X105199998Y-77525000D02*
X106100002Y-77525000D01*
G75*
G02*
X106350000Y-77774998I0J-249998D01*
G01*
X106350000Y-78300002D01*
G75*
G02*
X106100002Y-78550000I-249998J0D01*
G01*
X105199998Y-78550000D01*
G75*
G02*
X104950000Y-78300002I0J249998D01*
G01*
X104950000Y-77774998D01*
G75*
G02*
X105199998Y-77525000I249998J0D01*
G01*
G37*
%TD*%
%TO.C,R6*%
G36*
G01*
X108200002Y-78550000D02*
X107299998Y-78550000D01*
G75*
G02*
X107050000Y-78300002I0J249998D01*
G01*
X107050000Y-77774998D01*
G75*
G02*
X107299998Y-77525000I249998J0D01*
G01*
X108200002Y-77525000D01*
G75*
G02*
X108450000Y-77774998I0J-249998D01*
G01*
X108450000Y-78300002D01*
G75*
G02*
X108200002Y-78550000I-249998J0D01*
G01*
G37*
G36*
G01*
X108200002Y-80375000D02*
X107299998Y-80375000D01*
G75*
G02*
X107050000Y-80125002I0J249998D01*
G01*
X107050000Y-79599998D01*
G75*
G02*
X107299998Y-79350000I249998J0D01*
G01*
X108200002Y-79350000D01*
G75*
G02*
X108450000Y-79599998I0J-249998D01*
G01*
X108450000Y-80125002D01*
G75*
G02*
X108200002Y-80375000I-249998J0D01*
G01*
G37*
%TD*%
%TO.C,R5*%
G36*
G01*
X103199998Y-83850000D02*
X104100002Y-83850000D01*
G75*
G02*
X104350000Y-84099998I0J-249998D01*
G01*
X104350000Y-84625002D01*
G75*
G02*
X104100002Y-84875000I-249998J0D01*
G01*
X103199998Y-84875000D01*
G75*
G02*
X102950000Y-84625002I0J249998D01*
G01*
X102950000Y-84099998D01*
G75*
G02*
X103199998Y-83850000I249998J0D01*
G01*
G37*
G36*
G01*
X103199998Y-82025000D02*
X104100002Y-82025000D01*
G75*
G02*
X104350000Y-82274998I0J-249998D01*
G01*
X104350000Y-82800002D01*
G75*
G02*
X104100002Y-83050000I-249998J0D01*
G01*
X103199998Y-83050000D01*
G75*
G02*
X102950000Y-82800002I0J249998D01*
G01*
X102950000Y-82274998D01*
G75*
G02*
X103199998Y-82025000I249998J0D01*
G01*
G37*
%TD*%
%TO.C,R4*%
G36*
G01*
X90600000Y-55549998D02*
X90600000Y-56450002D01*
G75*
G02*
X90350002Y-56700000I-249998J0D01*
G01*
X89824998Y-56700000D01*
G75*
G02*
X89575000Y-56450002I0J249998D01*
G01*
X89575000Y-55549998D01*
G75*
G02*
X89824998Y-55300000I249998J0D01*
G01*
X90350002Y-55300000D01*
G75*
G02*
X90600000Y-55549998I0J-249998D01*
G01*
G37*
G36*
G01*
X92425000Y-55549998D02*
X92425000Y-56450002D01*
G75*
G02*
X92175002Y-56700000I-249998J0D01*
G01*
X91649998Y-56700000D01*
G75*
G02*
X91400000Y-56450002I0J249998D01*
G01*
X91400000Y-55549998D01*
G75*
G02*
X91649998Y-55300000I249998J0D01*
G01*
X92175002Y-55300000D01*
G75*
G02*
X92425000Y-55549998I0J-249998D01*
G01*
G37*
%TD*%
%TO.C,R3*%
G36*
G01*
X103700002Y-91687500D02*
X102799998Y-91687500D01*
G75*
G02*
X102550000Y-91437502I0J249998D01*
G01*
X102550000Y-90912498D01*
G75*
G02*
X102799998Y-90662500I249998J0D01*
G01*
X103700002Y-90662500D01*
G75*
G02*
X103950000Y-90912498I0J-249998D01*
G01*
X103950000Y-91437502D01*
G75*
G02*
X103700002Y-91687500I-249998J0D01*
G01*
G37*
G36*
G01*
X103700002Y-93512500D02*
X102799998Y-93512500D01*
G75*
G02*
X102550000Y-93262502I0J249998D01*
G01*
X102550000Y-92737498D01*
G75*
G02*
X102799998Y-92487500I249998J0D01*
G01*
X103700002Y-92487500D01*
G75*
G02*
X103950000Y-92737498I0J-249998D01*
G01*
X103950000Y-93262502D01*
G75*
G02*
X103700002Y-93512500I-249998J0D01*
G01*
G37*
%TD*%
%TO.C,R2*%
G36*
G01*
X105049998Y-92487500D02*
X105950002Y-92487500D01*
G75*
G02*
X106200000Y-92737498I0J-249998D01*
G01*
X106200000Y-93262502D01*
G75*
G02*
X105950002Y-93512500I-249998J0D01*
G01*
X105049998Y-93512500D01*
G75*
G02*
X104800000Y-93262502I0J249998D01*
G01*
X104800000Y-92737498D01*
G75*
G02*
X105049998Y-92487500I249998J0D01*
G01*
G37*
G36*
G01*
X105049998Y-90662500D02*
X105950002Y-90662500D01*
G75*
G02*
X106200000Y-90912498I0J-249998D01*
G01*
X106200000Y-91437502D01*
G75*
G02*
X105950002Y-91687500I-249998J0D01*
G01*
X105049998Y-91687500D01*
G75*
G02*
X104800000Y-91437502I0J249998D01*
G01*
X104800000Y-90912498D01*
G75*
G02*
X105049998Y-90662500I249998J0D01*
G01*
G37*
%TD*%
%TO.C,R1*%
G36*
G01*
X87549998Y-57400000D02*
X88450002Y-57400000D01*
G75*
G02*
X88700000Y-57649998I0J-249998D01*
G01*
X88700000Y-58175002D01*
G75*
G02*
X88450002Y-58425000I-249998J0D01*
G01*
X87549998Y-58425000D01*
G75*
G02*
X87300000Y-58175002I0J249998D01*
G01*
X87300000Y-57649998D01*
G75*
G02*
X87549998Y-57400000I249998J0D01*
G01*
G37*
G36*
G01*
X87549998Y-55575000D02*
X88450002Y-55575000D01*
G75*
G02*
X88700000Y-55824998I0J-249998D01*
G01*
X88700000Y-56350002D01*
G75*
G02*
X88450002Y-56600000I-249998J0D01*
G01*
X87549998Y-56600000D01*
G75*
G02*
X87300000Y-56350002I0J249998D01*
G01*
X87300000Y-55824998D01*
G75*
G02*
X87549998Y-55575000I249998J0D01*
G01*
G37*
%TD*%
%TO.C,L8*%
G36*
G01*
X124450001Y-56575000D02*
X123549999Y-56575000D01*
G75*
G02*
X123300000Y-56325001I0J249999D01*
G01*
X123300000Y-55674999D01*
G75*
G02*
X123549999Y-55425000I249999J0D01*
G01*
X124450001Y-55425000D01*
G75*
G02*
X124700000Y-55674999I0J-249999D01*
G01*
X124700000Y-56325001D01*
G75*
G02*
X124450001Y-56575000I-249999J0D01*
G01*
G37*
G36*
G01*
X124450001Y-58625000D02*
X123549999Y-58625000D01*
G75*
G02*
X123300000Y-58375001I0J249999D01*
G01*
X123300000Y-57724999D01*
G75*
G02*
X123549999Y-57475000I249999J0D01*
G01*
X124450001Y-57475000D01*
G75*
G02*
X124700000Y-57724999I0J-249999D01*
G01*
X124700000Y-58375001D01*
G75*
G02*
X124450001Y-58625000I-249999J0D01*
G01*
G37*
%TD*%
%TO.C,L7*%
G36*
G01*
X121175000Y-62700001D02*
X121175000Y-61799999D01*
G75*
G02*
X121424999Y-61550000I249999J0D01*
G01*
X122075001Y-61550000D01*
G75*
G02*
X122325000Y-61799999I0J-249999D01*
G01*
X122325000Y-62700001D01*
G75*
G02*
X122075001Y-62950000I-249999J0D01*
G01*
X121424999Y-62950000D01*
G75*
G02*
X121175000Y-62700001I0J249999D01*
G01*
G37*
G36*
G01*
X119125000Y-62700001D02*
X119125000Y-61799999D01*
G75*
G02*
X119374999Y-61550000I249999J0D01*
G01*
X120025001Y-61550000D01*
G75*
G02*
X120275000Y-61799999I0J-249999D01*
G01*
X120275000Y-62700001D01*
G75*
G02*
X120025001Y-62950000I-249999J0D01*
G01*
X119374999Y-62950000D01*
G75*
G02*
X119125000Y-62700001I0J249999D01*
G01*
G37*
%TD*%
%TO.C,L6*%
G36*
G01*
X111925000Y-65950001D02*
X111925000Y-65049999D01*
G75*
G02*
X112174999Y-64800000I249999J0D01*
G01*
X112825001Y-64800000D01*
G75*
G02*
X113075000Y-65049999I0J-249999D01*
G01*
X113075000Y-65950001D01*
G75*
G02*
X112825001Y-66200000I-249999J0D01*
G01*
X112174999Y-66200000D01*
G75*
G02*
X111925000Y-65950001I0J249999D01*
G01*
G37*
G36*
G01*
X109875000Y-65950001D02*
X109875000Y-65049999D01*
G75*
G02*
X110124999Y-64800000I249999J0D01*
G01*
X110775001Y-64800000D01*
G75*
G02*
X111025000Y-65049999I0J-249999D01*
G01*
X111025000Y-65950001D01*
G75*
G02*
X110775001Y-66200000I-249999J0D01*
G01*
X110124999Y-66200000D01*
G75*
G02*
X109875000Y-65950001I0J249999D01*
G01*
G37*
%TD*%
%TO.C,L5*%
G36*
G01*
X117549999Y-55425000D02*
X118450001Y-55425000D01*
G75*
G02*
X118700000Y-55674999I0J-249999D01*
G01*
X118700000Y-56325001D01*
G75*
G02*
X118450001Y-56575000I-249999J0D01*
G01*
X117549999Y-56575000D01*
G75*
G02*
X117300000Y-56325001I0J249999D01*
G01*
X117300000Y-55674999D01*
G75*
G02*
X117549999Y-55425000I249999J0D01*
G01*
G37*
G36*
G01*
X117549999Y-53375000D02*
X118450001Y-53375000D01*
G75*
G02*
X118700000Y-53624999I0J-249999D01*
G01*
X118700000Y-54275001D01*
G75*
G02*
X118450001Y-54525000I-249999J0D01*
G01*
X117549999Y-54525000D01*
G75*
G02*
X117300000Y-54275001I0J249999D01*
G01*
X117300000Y-53624999D01*
G75*
G02*
X117549999Y-53375000I249999J0D01*
G01*
G37*
%TD*%
%TO.C,L4*%
G36*
G01*
X112450001Y-56525000D02*
X111549999Y-56525000D01*
G75*
G02*
X111300000Y-56275001I0J249999D01*
G01*
X111300000Y-55624999D01*
G75*
G02*
X111549999Y-55375000I249999J0D01*
G01*
X112450001Y-55375000D01*
G75*
G02*
X112700000Y-55624999I0J-249999D01*
G01*
X112700000Y-56275001D01*
G75*
G02*
X112450001Y-56525000I-249999J0D01*
G01*
G37*
G36*
G01*
X112450001Y-58575000D02*
X111549999Y-58575000D01*
G75*
G02*
X111300000Y-58325001I0J249999D01*
G01*
X111300000Y-57674999D01*
G75*
G02*
X111549999Y-57425000I249999J0D01*
G01*
X112450001Y-57425000D01*
G75*
G02*
X112700000Y-57674999I0J-249999D01*
G01*
X112700000Y-58325001D01*
G75*
G02*
X112450001Y-58575000I-249999J0D01*
G01*
G37*
%TD*%
%TO.C,L2*%
G36*
G01*
X103475000Y-56450001D02*
X103475000Y-55549999D01*
G75*
G02*
X103724999Y-55300000I249999J0D01*
G01*
X104375001Y-55300000D01*
G75*
G02*
X104625000Y-55549999I0J-249999D01*
G01*
X104625000Y-56450001D01*
G75*
G02*
X104375001Y-56700000I-249999J0D01*
G01*
X103724999Y-56700000D01*
G75*
G02*
X103475000Y-56450001I0J249999D01*
G01*
G37*
G36*
G01*
X101425000Y-56450001D02*
X101425000Y-55549999D01*
G75*
G02*
X101674999Y-55300000I249999J0D01*
G01*
X102325001Y-55300000D01*
G75*
G02*
X102575000Y-55549999I0J-249999D01*
G01*
X102575000Y-56450001D01*
G75*
G02*
X102325001Y-56700000I-249999J0D01*
G01*
X101674999Y-56700000D01*
G75*
G02*
X101425000Y-56450001I0J249999D01*
G01*
G37*
%TD*%
%TO.C,L1*%
G36*
G01*
X97425000Y-56450001D02*
X97425000Y-55549999D01*
G75*
G02*
X97674999Y-55300000I249999J0D01*
G01*
X98325001Y-55300000D01*
G75*
G02*
X98575000Y-55549999I0J-249999D01*
G01*
X98575000Y-56450001D01*
G75*
G02*
X98325001Y-56700000I-249999J0D01*
G01*
X97674999Y-56700000D01*
G75*
G02*
X97425000Y-56450001I0J249999D01*
G01*
G37*
G36*
G01*
X95375000Y-56450001D02*
X95375000Y-55549999D01*
G75*
G02*
X95624999Y-55300000I249999J0D01*
G01*
X96275001Y-55300000D01*
G75*
G02*
X96525000Y-55549999I0J-249999D01*
G01*
X96525000Y-56450001D01*
G75*
G02*
X96275001Y-56700000I-249999J0D01*
G01*
X95624999Y-56700000D01*
G75*
G02*
X95375000Y-56450001I0J249999D01*
G01*
G37*
%TD*%
D14*
%TO.C,J6*%
X128200000Y-92750000D03*
D15*
X128000000Y-89925000D03*
X128000000Y-95575000D03*
%TD*%
D13*
%TO.C,J5*%
X128000000Y-52460000D03*
X128000000Y-55000000D03*
%TD*%
D14*
%TO.C,J4*%
X128200000Y-78000000D03*
D15*
X128000000Y-75175000D03*
X128000000Y-80825000D03*
%TD*%
D13*
%TO.C,J3*%
X105540000Y-95000000D03*
X103000000Y-95000000D03*
%TD*%
D11*
%TO.C,J2*%
X83000000Y-76380000D03*
X83000000Y-78920000D03*
X83000000Y-81460000D03*
D10*
X83000000Y-84000000D03*
%TD*%
D14*
%TO.C,J1*%
X82800000Y-55000000D03*
D15*
X83000000Y-57825000D03*
X83000000Y-52175000D03*
%TD*%
D16*
%TO.C,D1*%
X90850000Y-69750000D03*
X94850000Y-69750000D03*
%TD*%
%TO.C,C29*%
G36*
G01*
X124475000Y-78550000D02*
X123525000Y-78550000D01*
G75*
G02*
X123275000Y-78300000I0J250000D01*
G01*
X123275000Y-77800000D01*
G75*
G02*
X123525000Y-77550000I250000J0D01*
G01*
X124475000Y-77550000D01*
G75*
G02*
X124725000Y-77800000I0J-250000D01*
G01*
X124725000Y-78300000D01*
G75*
G02*
X124475000Y-78550000I-250000J0D01*
G01*
G37*
G36*
G01*
X124475000Y-80450000D02*
X123525000Y-80450000D01*
G75*
G02*
X123275000Y-80200000I0J250000D01*
G01*
X123275000Y-79700000D01*
G75*
G02*
X123525000Y-79450000I250000J0D01*
G01*
X124475000Y-79450000D01*
G75*
G02*
X124725000Y-79700000I0J-250000D01*
G01*
X124725000Y-80200000D01*
G75*
G02*
X124475000Y-80450000I-250000J0D01*
G01*
G37*
%TD*%
%TO.C,C28*%
G36*
G01*
X124725000Y-91300000D02*
X123775000Y-91300000D01*
G75*
G02*
X123525000Y-91050000I0J250000D01*
G01*
X123525000Y-90550000D01*
G75*
G02*
X123775000Y-90300000I250000J0D01*
G01*
X124725000Y-90300000D01*
G75*
G02*
X124975000Y-90550000I0J-250000D01*
G01*
X124975000Y-91050000D01*
G75*
G02*
X124725000Y-91300000I-250000J0D01*
G01*
G37*
G36*
G01*
X124725000Y-93200000D02*
X123775000Y-93200000D01*
G75*
G02*
X123525000Y-92950000I0J250000D01*
G01*
X123525000Y-92450000D01*
G75*
G02*
X123775000Y-92200000I250000J0D01*
G01*
X124725000Y-92200000D01*
G75*
G02*
X124975000Y-92450000I0J-250000D01*
G01*
X124975000Y-92950000D01*
G75*
G02*
X124725000Y-93200000I-250000J0D01*
G01*
G37*
%TD*%
%TO.C,C27*%
G36*
G01*
X119500000Y-82625000D02*
X119500000Y-81675000D01*
G75*
G02*
X119750000Y-81425000I250000J0D01*
G01*
X120250000Y-81425000D01*
G75*
G02*
X120500000Y-81675000I0J-250000D01*
G01*
X120500000Y-82625000D01*
G75*
G02*
X120250000Y-82875000I-250000J0D01*
G01*
X119750000Y-82875000D01*
G75*
G02*
X119500000Y-82625000I0J250000D01*
G01*
G37*
G36*
G01*
X117600000Y-82625000D02*
X117600000Y-81675000D01*
G75*
G02*
X117850000Y-81425000I250000J0D01*
G01*
X118350000Y-81425000D01*
G75*
G02*
X118600000Y-81675000I0J-250000D01*
G01*
X118600000Y-82625000D01*
G75*
G02*
X118350000Y-82875000I-250000J0D01*
G01*
X117850000Y-82875000D01*
G75*
G02*
X117600000Y-82625000I0J250000D01*
G01*
G37*
%TD*%
%TO.C,C26*%
G36*
G01*
X115725000Y-82350000D02*
X114775000Y-82350000D01*
G75*
G02*
X114525000Y-82100000I0J250000D01*
G01*
X114525000Y-81600000D01*
G75*
G02*
X114775000Y-81350000I250000J0D01*
G01*
X115725000Y-81350000D01*
G75*
G02*
X115975000Y-81600000I0J-250000D01*
G01*
X115975000Y-82100000D01*
G75*
G02*
X115725000Y-82350000I-250000J0D01*
G01*
G37*
G36*
G01*
X115725000Y-84250000D02*
X114775000Y-84250000D01*
G75*
G02*
X114525000Y-84000000I0J250000D01*
G01*
X114525000Y-83500000D01*
G75*
G02*
X114775000Y-83250000I250000J0D01*
G01*
X115725000Y-83250000D01*
G75*
G02*
X115975000Y-83500000I0J-250000D01*
G01*
X115975000Y-84000000D01*
G75*
G02*
X115725000Y-84250000I-250000J0D01*
G01*
G37*
%TD*%
%TO.C,C25*%
G36*
G01*
X114850000Y-65025000D02*
X114850000Y-65975000D01*
G75*
G02*
X114600000Y-66225000I-250000J0D01*
G01*
X114100000Y-66225000D01*
G75*
G02*
X113850000Y-65975000I0J250000D01*
G01*
X113850000Y-65025000D01*
G75*
G02*
X114100000Y-64775000I250000J0D01*
G01*
X114600000Y-64775000D01*
G75*
G02*
X114850000Y-65025000I0J-250000D01*
G01*
G37*
G36*
G01*
X116750000Y-65025000D02*
X116750000Y-65975000D01*
G75*
G02*
X116500000Y-66225000I-250000J0D01*
G01*
X116000000Y-66225000D01*
G75*
G02*
X115750000Y-65975000I0J250000D01*
G01*
X115750000Y-65025000D01*
G75*
G02*
X116000000Y-64775000I250000J0D01*
G01*
X116500000Y-64775000D01*
G75*
G02*
X116750000Y-65025000I0J-250000D01*
G01*
G37*
%TD*%
%TO.C,C24*%
G36*
G01*
X120250000Y-59525000D02*
X120250000Y-60475000D01*
G75*
G02*
X120000000Y-60725000I-250000J0D01*
G01*
X119500000Y-60725000D01*
G75*
G02*
X119250000Y-60475000I0J250000D01*
G01*
X119250000Y-59525000D01*
G75*
G02*
X119500000Y-59275000I250000J0D01*
G01*
X120000000Y-59275000D01*
G75*
G02*
X120250000Y-59525000I0J-250000D01*
G01*
G37*
G36*
G01*
X122150000Y-59525000D02*
X122150000Y-60475000D01*
G75*
G02*
X121900000Y-60725000I-250000J0D01*
G01*
X121400000Y-60725000D01*
G75*
G02*
X121150000Y-60475000I0J250000D01*
G01*
X121150000Y-59525000D01*
G75*
G02*
X121400000Y-59275000I250000J0D01*
G01*
X121900000Y-59275000D01*
G75*
G02*
X122150000Y-59525000I0J-250000D01*
G01*
G37*
%TD*%
%TO.C,C23*%
G36*
G01*
X95388638Y-74654488D02*
X96211362Y-74179488D01*
G75*
G02*
X96552868Y-74270994I125000J-216506D01*
G01*
X96802868Y-74704006D01*
G75*
G02*
X96711362Y-75045512I-216506J-125000D01*
G01*
X95888638Y-75520512D01*
G75*
G02*
X95547132Y-75429006I-125000J216506D01*
G01*
X95297132Y-74995994D01*
G75*
G02*
X95388638Y-74654488I216506J125000D01*
G01*
G37*
G36*
G01*
X94438638Y-73009040D02*
X95261362Y-72534040D01*
G75*
G02*
X95602868Y-72625546I125000J-216506D01*
G01*
X95852868Y-73058558D01*
G75*
G02*
X95761362Y-73400064I-216506J-125000D01*
G01*
X94938638Y-73875064D01*
G75*
G02*
X94597132Y-73783558I-125000J216506D01*
G01*
X94347132Y-73350546D01*
G75*
G02*
X94438638Y-73009040I216506J125000D01*
G01*
G37*
%TD*%
D17*
%TO.C,C22*%
X100850000Y-73950000D03*
D18*
X100850000Y-70150000D03*
%TD*%
%TO.C,C21*%
G36*
G01*
X120500000Y-55525000D02*
X120500000Y-56475000D01*
G75*
G02*
X120250000Y-56725000I-250000J0D01*
G01*
X119750000Y-56725000D01*
G75*
G02*
X119500000Y-56475000I0J250000D01*
G01*
X119500000Y-55525000D01*
G75*
G02*
X119750000Y-55275000I250000J0D01*
G01*
X120250000Y-55275000D01*
G75*
G02*
X120500000Y-55525000I0J-250000D01*
G01*
G37*
G36*
G01*
X122400000Y-55525000D02*
X122400000Y-56475000D01*
G75*
G02*
X122150000Y-56725000I-250000J0D01*
G01*
X121650000Y-56725000D01*
G75*
G02*
X121400000Y-56475000I0J250000D01*
G01*
X121400000Y-55525000D01*
G75*
G02*
X121650000Y-55275000I250000J0D01*
G01*
X122150000Y-55275000D01*
G75*
G02*
X122400000Y-55525000I0J-250000D01*
G01*
G37*
%TD*%
%TO.C,C19*%
G36*
G01*
X114550000Y-55525000D02*
X114550000Y-56475000D01*
G75*
G02*
X114300000Y-56725000I-250000J0D01*
G01*
X113800000Y-56725000D01*
G75*
G02*
X113550000Y-56475000I0J250000D01*
G01*
X113550000Y-55525000D01*
G75*
G02*
X113800000Y-55275000I250000J0D01*
G01*
X114300000Y-55275000D01*
G75*
G02*
X114550000Y-55525000I0J-250000D01*
G01*
G37*
G36*
G01*
X116450000Y-55525000D02*
X116450000Y-56475000D01*
G75*
G02*
X116200000Y-56725000I-250000J0D01*
G01*
X115700000Y-56725000D01*
G75*
G02*
X115450000Y-56475000I0J250000D01*
G01*
X115450000Y-55525000D01*
G75*
G02*
X115700000Y-55275000I250000J0D01*
G01*
X116200000Y-55275000D01*
G75*
G02*
X116450000Y-55525000I0J-250000D01*
G01*
G37*
%TD*%
%TO.C,C18*%
G36*
G01*
X106900000Y-84525000D02*
X106900000Y-83575000D01*
G75*
G02*
X107150000Y-83325000I250000J0D01*
G01*
X107650000Y-83325000D01*
G75*
G02*
X107900000Y-83575000I0J-250000D01*
G01*
X107900000Y-84525000D01*
G75*
G02*
X107650000Y-84775000I-250000J0D01*
G01*
X107150000Y-84775000D01*
G75*
G02*
X106900000Y-84525000I0J250000D01*
G01*
G37*
G36*
G01*
X105000000Y-84525000D02*
X105000000Y-83575000D01*
G75*
G02*
X105250000Y-83325000I250000J0D01*
G01*
X105750000Y-83325000D01*
G75*
G02*
X106000000Y-83575000I0J-250000D01*
G01*
X106000000Y-84525000D01*
G75*
G02*
X105750000Y-84775000I-250000J0D01*
G01*
X105250000Y-84775000D01*
G75*
G02*
X105000000Y-84525000I0J250000D01*
G01*
G37*
%TD*%
%TO.C,C15*%
G36*
G01*
X106900000Y-86725000D02*
X106900000Y-85775000D01*
G75*
G02*
X107150000Y-85525000I250000J0D01*
G01*
X107650000Y-85525000D01*
G75*
G02*
X107900000Y-85775000I0J-250000D01*
G01*
X107900000Y-86725000D01*
G75*
G02*
X107650000Y-86975000I-250000J0D01*
G01*
X107150000Y-86975000D01*
G75*
G02*
X106900000Y-86725000I0J250000D01*
G01*
G37*
G36*
G01*
X105000000Y-86725000D02*
X105000000Y-85775000D01*
G75*
G02*
X105250000Y-85525000I250000J0D01*
G01*
X105750000Y-85525000D01*
G75*
G02*
X106000000Y-85775000I0J-250000D01*
G01*
X106000000Y-86725000D01*
G75*
G02*
X105750000Y-86975000I-250000J0D01*
G01*
X105250000Y-86975000D01*
G75*
G02*
X105000000Y-86725000I0J250000D01*
G01*
G37*
%TD*%
%TO.C,C14*%
G36*
G01*
X108500000Y-55525000D02*
X108500000Y-56475000D01*
G75*
G02*
X108250000Y-56725000I-250000J0D01*
G01*
X107750000Y-56725000D01*
G75*
G02*
X107500000Y-56475000I0J250000D01*
G01*
X107500000Y-55525000D01*
G75*
G02*
X107750000Y-55275000I250000J0D01*
G01*
X108250000Y-55275000D01*
G75*
G02*
X108500000Y-55525000I0J-250000D01*
G01*
G37*
G36*
G01*
X110400000Y-55525000D02*
X110400000Y-56475000D01*
G75*
G02*
X110150000Y-56725000I-250000J0D01*
G01*
X109650000Y-56725000D01*
G75*
G02*
X109400000Y-56475000I0J250000D01*
G01*
X109400000Y-55525000D01*
G75*
G02*
X109650000Y-55275000I250000J0D01*
G01*
X110150000Y-55275000D01*
G75*
G02*
X110400000Y-55525000I0J-250000D01*
G01*
G37*
%TD*%
%TO.C,C11*%
G36*
G01*
X106475000Y-54650000D02*
X105525000Y-54650000D01*
G75*
G02*
X105275000Y-54400000I0J250000D01*
G01*
X105275000Y-53900000D01*
G75*
G02*
X105525000Y-53650000I250000J0D01*
G01*
X106475000Y-53650000D01*
G75*
G02*
X106725000Y-53900000I0J-250000D01*
G01*
X106725000Y-54400000D01*
G75*
G02*
X106475000Y-54650000I-250000J0D01*
G01*
G37*
G36*
G01*
X106475000Y-56550000D02*
X105525000Y-56550000D01*
G75*
G02*
X105275000Y-56300000I0J250000D01*
G01*
X105275000Y-55800000D01*
G75*
G02*
X105525000Y-55550000I250000J0D01*
G01*
X106475000Y-55550000D01*
G75*
G02*
X106725000Y-55800000I0J-250000D01*
G01*
X106725000Y-56300000D01*
G75*
G02*
X106475000Y-56550000I-250000J0D01*
G01*
G37*
%TD*%
%TO.C,C10*%
G36*
G01*
X120250000Y-77025000D02*
X120250000Y-77975000D01*
G75*
G02*
X120000000Y-78225000I-250000J0D01*
G01*
X119500000Y-78225000D01*
G75*
G02*
X119250000Y-77975000I0J250000D01*
G01*
X119250000Y-77025000D01*
G75*
G02*
X119500000Y-76775000I250000J0D01*
G01*
X120000000Y-76775000D01*
G75*
G02*
X120250000Y-77025000I0J-250000D01*
G01*
G37*
G36*
G01*
X122150000Y-77025000D02*
X122150000Y-77975000D01*
G75*
G02*
X121900000Y-78225000I-250000J0D01*
G01*
X121400000Y-78225000D01*
G75*
G02*
X121150000Y-77975000I0J250000D01*
G01*
X121150000Y-77025000D01*
G75*
G02*
X121400000Y-76775000I250000J0D01*
G01*
X121900000Y-76775000D01*
G75*
G02*
X122150000Y-77025000I0J-250000D01*
G01*
G37*
%TD*%
%TO.C,C8*%
G36*
G01*
X99525000Y-57350000D02*
X100475000Y-57350000D01*
G75*
G02*
X100725000Y-57600000I0J-250000D01*
G01*
X100725000Y-58100000D01*
G75*
G02*
X100475000Y-58350000I-250000J0D01*
G01*
X99525000Y-58350000D01*
G75*
G02*
X99275000Y-58100000I0J250000D01*
G01*
X99275000Y-57600000D01*
G75*
G02*
X99525000Y-57350000I250000J0D01*
G01*
G37*
G36*
G01*
X99525000Y-55450000D02*
X100475000Y-55450000D01*
G75*
G02*
X100725000Y-55700000I0J-250000D01*
G01*
X100725000Y-56200000D01*
G75*
G02*
X100475000Y-56450000I-250000J0D01*
G01*
X99525000Y-56450000D01*
G75*
G02*
X99275000Y-56200000I0J250000D01*
G01*
X99275000Y-55700000D01*
G75*
G02*
X99525000Y-55450000I250000J0D01*
G01*
G37*
%TD*%
%TO.C,C7*%
G36*
G01*
X98250000Y-83425000D02*
X98250000Y-82475000D01*
G75*
G02*
X98500000Y-82225000I250000J0D01*
G01*
X99000000Y-82225000D01*
G75*
G02*
X99250000Y-82475000I0J-250000D01*
G01*
X99250000Y-83425000D01*
G75*
G02*
X99000000Y-83675000I-250000J0D01*
G01*
X98500000Y-83675000D01*
G75*
G02*
X98250000Y-83425000I0J250000D01*
G01*
G37*
G36*
G01*
X96350000Y-83425000D02*
X96350000Y-82475000D01*
G75*
G02*
X96600000Y-82225000I250000J0D01*
G01*
X97100000Y-82225000D01*
G75*
G02*
X97350000Y-82475000I0J-250000D01*
G01*
X97350000Y-83425000D01*
G75*
G02*
X97100000Y-83675000I-250000J0D01*
G01*
X96600000Y-83675000D01*
G75*
G02*
X96350000Y-83425000I0J250000D01*
G01*
G37*
%TD*%
%TO.C,C5*%
G36*
G01*
X94475000Y-54600000D02*
X93525000Y-54600000D01*
G75*
G02*
X93275000Y-54350000I0J250000D01*
G01*
X93275000Y-53850000D01*
G75*
G02*
X93525000Y-53600000I250000J0D01*
G01*
X94475000Y-53600000D01*
G75*
G02*
X94725000Y-53850000I0J-250000D01*
G01*
X94725000Y-54350000D01*
G75*
G02*
X94475000Y-54600000I-250000J0D01*
G01*
G37*
G36*
G01*
X94475000Y-56500000D02*
X93525000Y-56500000D01*
G75*
G02*
X93275000Y-56250000I0J250000D01*
G01*
X93275000Y-55750000D01*
G75*
G02*
X93525000Y-55500000I250000J0D01*
G01*
X94475000Y-55500000D01*
G75*
G02*
X94725000Y-55750000I0J-250000D01*
G01*
X94725000Y-56250000D01*
G75*
G02*
X94475000Y-56500000I-250000J0D01*
G01*
G37*
%TD*%
%TO.C,C3*%
G36*
G01*
X120300000Y-70775000D02*
X120300000Y-71725000D01*
G75*
G02*
X120050000Y-71975000I-250000J0D01*
G01*
X119550000Y-71975000D01*
G75*
G02*
X119300000Y-71725000I0J250000D01*
G01*
X119300000Y-70775000D01*
G75*
G02*
X119550000Y-70525000I250000J0D01*
G01*
X120050000Y-70525000D01*
G75*
G02*
X120300000Y-70775000I0J-250000D01*
G01*
G37*
G36*
G01*
X122200000Y-70775000D02*
X122200000Y-71725000D01*
G75*
G02*
X121950000Y-71975000I-250000J0D01*
G01*
X121450000Y-71975000D01*
G75*
G02*
X121200000Y-71725000I0J250000D01*
G01*
X121200000Y-70775000D01*
G75*
G02*
X121450000Y-70525000I250000J0D01*
G01*
X121950000Y-70525000D01*
G75*
G02*
X122200000Y-70775000I0J-250000D01*
G01*
G37*
%TD*%
D17*
%TO.C,C1*%
X87000000Y-92800000D03*
D18*
X87000000Y-89000000D03*
%TD*%
M02*
